<?xml version="1.0" encoding="UTF-8"?>
<svg xmlns="http://www.w3.org/2000/svg" width="720" height="720" viewBox="0 0 720 720" role="img" aria-label="UTC Glyph 20260427T2223Z">
<rect width="100%" height="100%" fill="#1c140d" />
<g>
<circle cx="360" cy="360" r="300" fill="none" stroke="#898bf5" stroke-opacity="0.22" stroke-width="2" />
<circle cx="360" cy="360" r="158" fill="none" stroke="#d8f04c" stroke-opacity="0.35" stroke-width="4" />
<circle cx="360" cy="360" r="178.29" fill="none" stroke="#898bf5" stroke-opacity="0.341" stroke-width="3.88" />
<circle cx="360" cy="360" r="198.57" fill="none" stroke="#898bf5" stroke-opacity="0.404" stroke-width="4.80" />
<circle cx="360" cy="360" r="218.86" fill="none" stroke="#898bf5" stroke-opacity="0.301" stroke-width="3.60" />
<circle cx="360" cy="360" r="239.14" fill="none" stroke="#898bf5" stroke-opacity="0.557" stroke-width="2.56" />
<circle cx="360" cy="360" r="259.43" fill="none" stroke="#898bf5" stroke-opacity="0.552" stroke-width="3.37" />
<circle cx="360" cy="360" r="279.71" fill="none" stroke="#898bf5" stroke-opacity="0.395" stroke-width="3.76" />
<line x1="643.01" y1="365.99" x2="545.70" y2="363.93" stroke="#898bf5" stroke-opacity="0.671" stroke-width="2.70" stroke-linecap="round" />
<line x1="641.81" y1="438.63" x2="527.42" y2="406.71" stroke="#898bf5" stroke-opacity="0.376" stroke-width="1.60" stroke-linecap="round" />
<line x1="598.91" y1="514.36" x2="513.96" y2="459.48" stroke="#898bf5" stroke-opacity="0.673" stroke-width="1.20" stroke-linecap="round" />
<line x1="556.41" y1="584.71" x2="467.18" y2="482.63" stroke="#898bf5" stroke-opacity="0.603" stroke-width="3.40" stroke-linecap="round" />
<line x1="487.10" y1="622.48" x2="432.45" y2="509.62" stroke="#898bf5" stroke-opacity="0.280" stroke-width="2.33" stroke-linecap="round" />
<line x1="396.01" y1="649.15" x2="382.69" y2="542.17" stroke="#898bf5" stroke-opacity="0.661" stroke-width="3.50" stroke-linecap="round" />
<line x1="323.49" y1="645.80" x2="337.49" y2="536.20" stroke="#898bf5" stroke-opacity="0.626" stroke-width="2.62" stroke-linecap="round" />
<line x1="233.79" y1="622.19" x2="288.13" y2="509.31" stroke="#898bf5" stroke-opacity="0.412" stroke-width="1.93" stroke-linecap="round" />
<line x1="174.60" y1="573.91" x2="244.38" y2="493.40" stroke="#898bf5" stroke-opacity="0.740" stroke-width="3.17" stroke-linecap="round" />
<line x1="111.47" y1="525.80" x2="214.97" y2="456.75" stroke="#d8f04c" stroke-opacity="0.595" stroke-width="2.48" stroke-linecap="round" />
<line x1="75.85" y1="452.39" x2="207.35" y2="409.63" stroke="#898bf5" stroke-opacity="0.689" stroke-width="2.72" stroke-linecap="round" />
<line x1="69.60" y1="361.69" x2="172.68" y2="361.09" stroke="#d8f04c" stroke-opacity="0.741" stroke-width="3.63" stroke-linecap="round" />
<line x1="80.43" y1="271.65" x2="196.44" y2="308.31" stroke="#898bf5" stroke-opacity="0.675" stroke-width="2.73" stroke-linecap="round" />
<line x1="118.89" y1="205.38" x2="210.10" y2="263.87" stroke="#898bf5" stroke-opacity="0.251" stroke-width="2.88" stroke-linecap="round" />
<line x1="167.78" y1="146.23" x2="246.49" y2="233.76" stroke="#898bf5" stroke-opacity="0.528" stroke-width="1.52" stroke-linecap="round" />
<line x1="233.17" y1="97.18" x2="288.35" y2="211.52" stroke="#898bf5" stroke-opacity="0.453" stroke-width="1.47" stroke-linecap="round" />
<line x1="310.98" y1="70.67" x2="332.06" y2="195.12" stroke="#d8f04c" stroke-opacity="0.648" stroke-width="3.66" stroke-linecap="round" />
<line x1="406.77" y1="73.84" x2="388.31" y2="186.80" stroke="#898bf5" stroke-opacity="0.601" stroke-width="2.91" stroke-linecap="round" />
<line x1="487.20" y1="101.08" x2="442.49" y2="192.09" stroke="#d8f04c" stroke-opacity="0.513" stroke-width="1.00" stroke-linecap="round" />
<line x1="552.71" y1="148.10" x2="481.84" y2="226.03" stroke="#d8f04c" stroke-opacity="0.395" stroke-width="3.26" stroke-linecap="round" />
<line x1="602.86" y1="199.98" x2="493.48" y2="272.05" stroke="#898bf5" stroke-opacity="0.256" stroke-width="1.58" stroke-linecap="round" />
<line x1="633.04" y1="281.32" x2="540.30" y2="308.05" stroke="#898bf5" stroke-opacity="0.331" stroke-width="3.98" stroke-linecap="round" />
<path d="M 165.02 281.39 A 210.23 210.23 0 0 1 256.27 177.15" fill="none" stroke="#898bf5" stroke-opacity="0.241" stroke-width="4.03" stroke-linecap="round" />
<path d="M 151.31 238.28 A 241.59 241.59 0 0 1 358.86 118.41" fill="none" stroke="#898bf5" stroke-opacity="0.487" stroke-width="2.33" stroke-linecap="round" />
<path d="M 599.50 363.60 A 239.53 239.53 0 0 1 536.24 522.21" fill="none" stroke="#898bf5" stroke-opacity="0.309" stroke-width="3.38" stroke-linecap="round" />
<path d="M 391.12 190.22 A 172.60 172.60 0 0 1 518.69 292.11" fill="none" stroke="#d8f04c" stroke-opacity="0.289" stroke-width="7.65" stroke-linecap="round" />
<path d="M 307.60 566.16 A 212.71 212.71 0 0 1 179.96 473.28" fill="none" stroke="#898bf5" stroke-opacity="0.296" stroke-width="3.86" stroke-linecap="round" />
<path d="M 538.80 277.34 A 196.98 196.98 0 0 1 484.59 512.58" fill="none" stroke="#898bf5" stroke-opacity="0.347" stroke-width="5.49" stroke-linecap="round" />
<path d="M 198.91 600.49 A 289.46 289.46 0 0 1 88.75 461.04" fill="none" stroke="#d8f04c" stroke-opacity="0.189" stroke-width="5.97" stroke-linecap="round" />
<path d="M 478.80 109.90 A 276.89 276.89 0 0 1 630.16 299.33" fill="none" stroke="#898bf5" stroke-opacity="0.518" stroke-width="6.33" stroke-linecap="round" />
</g>
<text x="360" y="684" text-anchor="middle" font-family="ui-monospace, SFMono-Regular, Menlo, Monaco, Consolas, 'Liberation Mono', 'Courier New', monospace" font-size="18" fill="#898bf5" fill-opacity="0.55">20260427T2223Z</text>
</svg>
