<?xml version="1.0" encoding="UTF-8"?>
<svg xmlns="http://www.w3.org/2000/svg" width="720" height="720" viewBox="0 0 720 720" role="img" aria-label="UTC Glyph 20260407T2223Z">
<rect width="100%" height="100%" fill="#150d1c" />
<g>
<circle cx="360" cy="360" r="300" fill="none" stroke="#89f58e" stroke-opacity="0.22" stroke-width="2" />
<circle cx="360" cy="360" r="132" fill="none" stroke="#f04ccd" stroke-opacity="0.35" stroke-width="4" />
<circle cx="360" cy="360" r="156.00" fill="none" stroke="#89f58e" stroke-opacity="0.379" stroke-width="2.37" />
<circle cx="360" cy="360" r="180.00" fill="none" stroke="#89f58e" stroke-opacity="0.350" stroke-width="4.33" />
<circle cx="360" cy="360" r="204.00" fill="none" stroke="#89f58e" stroke-opacity="0.518" stroke-width="3.88" />
<circle cx="360" cy="360" r="228.00" fill="none" stroke="#89f58e" stroke-opacity="0.329" stroke-width="3.27" />
<circle cx="360" cy="360" r="252.00" fill="none" stroke="#89f58e" stroke-opacity="0.401" stroke-width="4.61" />
<circle cx="360" cy="360" r="276.00" fill="none" stroke="#89f58e" stroke-opacity="0.335" stroke-width="4.56" />
<line x1="659.08" y1="368.56" x2="497.32" y2="363.93" stroke="#f04ccd" stroke-opacity="0.743" stroke-width="2.18" stroke-linecap="round" />
<line x1="651.60" y1="428.41" x2="500.00" y2="392.84" stroke="#89f58e" stroke-opacity="0.554" stroke-width="3.12" stroke-linecap="round" />
<line x1="624.92" y1="473.20" x2="503.79" y2="421.44" stroke="#89f58e" stroke-opacity="0.602" stroke-width="1.27" stroke-linecap="round" />
<line x1="590.68" y1="537.56" x2="470.05" y2="444.71" stroke="#89f58e" stroke-opacity="0.687" stroke-width="1.59" stroke-linecap="round" />
<line x1="559.58" y1="582.50" x2="460.33" y2="471.86" stroke="#89f58e" stroke-opacity="0.765" stroke-width="1.11" stroke-linecap="round" />
<line x1="504.51" y1="615.14" x2="426.62" y2="477.62" stroke="#f04ccd" stroke-opacity="0.659" stroke-width="2.21" stroke-linecap="round" />
<line x1="434.31" y1="636.38" x2="400.97" y2="512.35" stroke="#89f58e" stroke-opacity="0.333" stroke-width="3.99" stroke-linecap="round" />
<line x1="377.27" y1="648.99" x2="368.24" y2="497.86" stroke="#89f58e" stroke-opacity="0.654" stroke-width="2.21" stroke-linecap="round" />
<line x1="306.63" y1="645.06" x2="331.76" y2="510.86" stroke="#89f58e" stroke-opacity="0.738" stroke-width="1.18" stroke-linecap="round" />
<line x1="253.76" y1="630.21" x2="303.79" y2="502.97" stroke="#89f58e" stroke-opacity="0.683" stroke-width="3.86" stroke-linecap="round" />
<line x1="192.43" y1="600.11" x2="282.68" y2="470.79" stroke="#89f58e" stroke-opacity="0.465" stroke-width="1.76" stroke-linecap="round" />
<line x1="137.05" y1="560.43" x2="255.69" y2="453.77" stroke="#f04ccd" stroke-opacity="0.624" stroke-width="2.27" stroke-linecap="round" />
<line x1="104.51" y1="516.24" x2="222.36" y2="444.17" stroke="#89f58e" stroke-opacity="0.375" stroke-width="1.64" stroke-linecap="round" />
<line x1="78.68" y1="462.81" x2="230.89" y2="407.18" stroke="#89f58e" stroke-opacity="0.734" stroke-width="1.60" stroke-linecap="round" />
<line x1="78.95" y1="390.04" x2="218.89" y2="375.08" stroke="#89f58e" stroke-opacity="0.476" stroke-width="3.79" stroke-linecap="round" />
<line x1="67.74" y1="325.73" x2="221.92" y2="343.81" stroke="#f04ccd" stroke-opacity="0.259" stroke-width="2.26" stroke-linecap="round" />
<line x1="89.15" y1="260.89" x2="231.15" y2="312.85" stroke="#89f58e" stroke-opacity="0.460" stroke-width="3.86" stroke-linecap="round" />
<line x1="107.91" y1="217.05" x2="225.58" y2="283.78" stroke="#89f58e" stroke-opacity="0.471" stroke-width="3.55" stroke-linecap="round" />
<line x1="152.48" y1="155.20" x2="265.80" y2="267.03" stroke="#89f58e" stroke-opacity="0.710" stroke-width="2.33" stroke-linecap="round" />
<line x1="201.05" y1="113.55" x2="277.59" y2="232.23" stroke="#89f58e" stroke-opacity="0.304" stroke-width="1.20" stroke-linecap="round" />
<line x1="250.06" y1="96.26" x2="306.04" y2="230.56" stroke="#89f58e" stroke-opacity="0.290" stroke-width="1.04" stroke-linecap="round" />
<line x1="305.47" y1="65.83" x2="335.52" y2="227.97" stroke="#89f58e" stroke-opacity="0.319" stroke-width="1.87" stroke-linecap="round" />
<line x1="381.89" y1="63.05" x2="371.47" y2="204.43" stroke="#89f58e" stroke-opacity="0.362" stroke-width="3.64" stroke-linecap="round" />
<line x1="431.67" y1="85.15" x2="399.27" y2="209.42" stroke="#f04ccd" stroke-opacity="0.786" stroke-width="2.92" stroke-linecap="round" />
<line x1="491.48" y1="103.78" x2="432.78" y2="218.16" stroke="#89f58e" stroke-opacity="0.503" stroke-width="3.01" stroke-linecap="round" />
<line x1="549.19" y1="149.79" x2="459.35" y2="249.61" stroke="#89f58e" stroke-opacity="0.630" stroke-width="3.70" stroke-linecap="round" />
<line x1="597.26" y1="188.75" x2="482.10" y2="271.87" stroke="#89f58e" stroke-opacity="0.476" stroke-width="2.34" stroke-linecap="round" />
<line x1="620.56" y1="248.17" x2="489.24" y2="304.53" stroke="#89f58e" stroke-opacity="0.601" stroke-width="3.09" stroke-linecap="round" />
<line x1="645.75" y1="293.01" x2="490.54" y2="329.40" stroke="#89f58e" stroke-opacity="0.287" stroke-width="2.72" stroke-linecap="round" />
<path d="M 93.17 428.92 A 275.59 275.59 0 0 1 193.98 140.03" fill="none" stroke="#89f58e" stroke-opacity="0.303" stroke-width="6.51" stroke-linecap="round" />
<path d="M 532.73 141.06 A 278.87 278.87 0 0 1 633.70 413.48" fill="none" stroke="#f04ccd" stroke-opacity="0.321" stroke-width="2.69" stroke-linecap="round" />
<path d="M 609.77 294.61 A 258.19 258.19 0 0 1 525.03 558.56" fill="none" stroke="#89f58e" stroke-opacity="0.370" stroke-width="4.66" stroke-linecap="round" />
<path d="M 654.78 371.67 A 295.01 295.01 0 0 1 506.73 615.94" fill="none" stroke="#f04ccd" stroke-opacity="0.185" stroke-width="6.35" stroke-linecap="round" />
<path d="M 270.96 240.61 A 148.94 148.94 0 0 1 327.53 214.65" fill="none" stroke="#f04ccd" stroke-opacity="0.438" stroke-width="4.51" stroke-linecap="round" />
<path d="M 414.88 190.08 A 178.57 178.57 0 0 1 520.72 282.19" fill="none" stroke="#89f58e" stroke-opacity="0.231" stroke-width="5.34" stroke-linecap="round" />
<path d="M 616.81 323.21 A 259.43 259.43 0 0 1 559.52 525.82" fill="none" stroke="#89f58e" stroke-opacity="0.379" stroke-width="5.65" stroke-linecap="round" />
<path d="M 95.73 345.97 A 264.64 264.64 0 0 1 200.51 148.82" fill="none" stroke="#89f58e" stroke-opacity="0.501" stroke-width="5.18" stroke-linecap="round" />
<path d="M 376.06 569.37 A 209.98 209.98 0 0 1 282.98 555.35" fill="none" stroke="#f04ccd" stroke-opacity="0.189" stroke-width="4.18" stroke-linecap="round" />
</g>
<text x="360" y="684" text-anchor="middle" font-family="ui-monospace, SFMono-Regular, Menlo, Monaco, Consolas, 'Liberation Mono', 'Courier New', monospace" font-size="18" fill="#89f58e" fill-opacity="0.55">20260407T2223Z</text>
</svg>
