<?xml version="1.0" encoding="UTF-8"?>
<svg xmlns="http://www.w3.org/2000/svg" width="720" height="720" viewBox="0 0 720 720" role="img" aria-label="UTC Glyph 20260413T1023Z">
<rect width="100%" height="100%" fill="#141c0d" />
<g>
<circle cx="360" cy="360" r="300" fill="none" stroke="#f589f2" stroke-opacity="0.22" stroke-width="2" />
<circle cx="360" cy="360" r="150" fill="none" stroke="#4cf06d" stroke-opacity="0.35" stroke-width="4" />
<circle cx="360" cy="360" r="187.50" fill="none" stroke="#f589f2" stroke-opacity="0.526" stroke-width="3.75" />
<circle cx="360" cy="360" r="225.00" fill="none" stroke="#f589f2" stroke-opacity="0.407" stroke-width="2.15" />
<circle cx="360" cy="360" r="262.50" fill="none" stroke="#f589f2" stroke-opacity="0.362" stroke-width="4.78" />
<line x1="652.75" y1="354.22" x2="519.92" y2="356.85" stroke="#f589f2" stroke-opacity="0.396" stroke-width="3.12" stroke-linecap="round" />
<line x1="648.44" y1="414.18" x2="512.29" y2="388.61" stroke="#f589f2" stroke-opacity="0.359" stroke-width="1.44" stroke-linecap="round" />
<line x1="637.01" y1="469.37" x2="518.42" y2="422.55" stroke="#f589f2" stroke-opacity="0.423" stroke-width="3.83" stroke-linecap="round" />
<line x1="601.78" y1="520.36" x2="503.11" y2="454.92" stroke="#f589f2" stroke-opacity="0.422" stroke-width="3.31" stroke-linecap="round" />
<line x1="572.21" y1="560.48" x2="472.77" y2="466.54" stroke="#f589f2" stroke-opacity="0.255" stroke-width="2.01" stroke-linecap="round" />
<line x1="527.83" y1="593.35" x2="449.91" y2="485.01" stroke="#f589f2" stroke-opacity="0.549" stroke-width="1.54" stroke-linecap="round" />
<line x1="490.13" y1="624.81" x2="430.12" y2="502.68" stroke="#f589f2" stroke-opacity="0.756" stroke-width="2.27" stroke-linecap="round" />
<line x1="426.51" y1="646.98" x2="394.69" y2="509.67" stroke="#f589f2" stroke-opacity="0.560" stroke-width="1.81" stroke-linecap="round" />
<line x1="373.13" y1="658.16" x2="367.45" y2="529.24" stroke="#4cf06d" stroke-opacity="0.415" stroke-width="2.57" stroke-linecap="round" />
<line x1="319.68" y1="645.62" x2="335.02" y2="536.93" stroke="#f589f2" stroke-opacity="0.320" stroke-width="3.25" stroke-linecap="round" />
<line x1="274.57" y1="631.47" x2="313.12" y2="508.98" stroke="#f589f2" stroke-opacity="0.408" stroke-width="1.34" stroke-linecap="round" />
<line x1="214.50" y1="604.33" x2="271.37" y2="508.84" stroke="#f589f2" stroke-opacity="0.474" stroke-width="3.92" stroke-linecap="round" />
<line x1="175.09" y1="585.68" x2="249.90" y2="494.38" stroke="#f589f2" stroke-opacity="0.686" stroke-width="3.50" stroke-linecap="round" />
<line x1="127.78" y1="532.95" x2="226.46" y2="459.45" stroke="#f589f2" stroke-opacity="0.536" stroke-width="1.36" stroke-linecap="round" />
<line x1="100.24" y1="489.83" x2="212.48" y2="433.73" stroke="#f589f2" stroke-opacity="0.268" stroke-width="3.81" stroke-linecap="round" />
<line x1="87.87" y1="439.69" x2="213.78" y2="402.82" stroke="#4cf06d" stroke-opacity="0.267" stroke-width="1.56" stroke-linecap="round" />
<line x1="67.57" y1="389.40" x2="182.63" y2="377.83" stroke="#f589f2" stroke-opacity="0.414" stroke-width="2.63" stroke-linecap="round" />
<line x1="62.86" y1="324.93" x2="209.08" y2="342.19" stroke="#f589f2" stroke-opacity="0.260" stroke-width="3.97" stroke-linecap="round" />
<line x1="75.56" y1="283.95" x2="214.80" y2="321.18" stroke="#f589f2" stroke-opacity="0.774" stroke-width="3.08" stroke-linecap="round" />
<line x1="101.44" y1="229.84" x2="217.91" y2="288.47" stroke="#f589f2" stroke-opacity="0.695" stroke-width="1.37" stroke-linecap="round" />
<line x1="128.04" y1="179.58" x2="232.07" y2="260.50" stroke="#f589f2" stroke-opacity="0.565" stroke-width="1.12" stroke-linecap="round" />
<line x1="163.94" y1="137.00" x2="251.40" y2="236.48" stroke="#f589f2" stroke-opacity="0.543" stroke-width="2.98" stroke-linecap="round" />
<line x1="213.81" y1="114.84" x2="268.44" y2="206.45" stroke="#f589f2" stroke-opacity="0.772" stroke-width="1.09" stroke-linecap="round" />
<line x1="264.28" y1="78.69" x2="308.98" y2="210.04" stroke="#f589f2" stroke-opacity="0.718" stroke-width="2.81" stroke-linecap="round" />
<line x1="325.71" y1="66.62" x2="340.60" y2="193.98" stroke="#f589f2" stroke-opacity="0.356" stroke-width="1.94" stroke-linecap="round" />
<line x1="372.09" y1="67.61" x2="366.56" y2="201.48" stroke="#f589f2" stroke-opacity="0.253" stroke-width="1.59" stroke-linecap="round" />
<line x1="421.11" y1="73.36" x2="393.24" y2="204.10" stroke="#f589f2" stroke-opacity="0.327" stroke-width="1.89" stroke-linecap="round" />
<line x1="479.16" y1="84.82" x2="428.87" y2="200.97" stroke="#f589f2" stroke-opacity="0.308" stroke-width="1.16" stroke-linecap="round" />
<line x1="538.55" y1="120.58" x2="451.57" y2="237.21" stroke="#f589f2" stroke-opacity="0.354" stroke-width="3.28" stroke-linecap="round" />
<line x1="571.23" y1="151.94" x2="483.83" y2="238.02" stroke="#f589f2" stroke-opacity="0.529" stroke-width="1.85" stroke-linecap="round" />
<line x1="611.01" y1="203.81" x2="507.89" y2="267.97" stroke="#f589f2" stroke-opacity="0.310" stroke-width="1.50" stroke-linecap="round" />
<line x1="632.84" y1="255.64" x2="509.16" y2="302.95" stroke="#f589f2" stroke-opacity="0.599" stroke-width="1.26" stroke-linecap="round" />
<line x1="645.22" y1="305.27" x2="536.56" y2="326.12" stroke="#f589f2" stroke-opacity="0.735" stroke-width="3.90" stroke-linecap="round" />
<path d="M 85.54 414.71 A 279.86 279.86 0 0 1 254.08 100.96" fill="none" stroke="#f589f2" stroke-opacity="0.210" stroke-width="3.23" stroke-linecap="round" />
<path d="M 241.27 620.63 A 286.39 286.39 0 0 1 169.39 573.75" fill="none" stroke="#4cf06d" stroke-opacity="0.351" stroke-width="2.09" stroke-linecap="round" />
<path d="M 509.95 211.29 A 211.18 211.18 0 0 1 568.23 324.84" fill="none" stroke="#f589f2" stroke-opacity="0.416" stroke-width="2.15" stroke-linecap="round" />
<path d="M 506.43 118.72 A 282.24 282.24 0 0 1 641.56 340.35" fill="none" stroke="#f589f2" stroke-opacity="0.187" stroke-width="6.68" stroke-linecap="round" />
<path d="M 203.37 432.24 A 172.49 172.49 0 0 1 187.55 363.39" fill="none" stroke="#4cf06d" stroke-opacity="0.303" stroke-width="4.78" stroke-linecap="round" />
<path d="M 70.57 340.71 A 290.07 290.07 0 0 1 96.86 237.94" fill="none" stroke="#4cf06d" stroke-opacity="0.388" stroke-width="7.31" stroke-linecap="round" />
<path d="M 567.82 548.40 A 280.51 280.51 0 0 1 326.23 638.47" fill="none" stroke="#f589f2" stroke-opacity="0.204" stroke-width="4.15" stroke-linecap="round" />
<path d="M 171.47 470.69 A 218.62 218.62 0 0 1 169.44 252.85" fill="none" stroke="#4cf06d" stroke-opacity="0.250" stroke-width="3.09" stroke-linecap="round" />
<path d="M 89.77 357.89 A 270.24 270.24 0 0 1 135.42 209.70" fill="none" stroke="#f589f2" stroke-opacity="0.399" stroke-width="3.12" stroke-linecap="round" />
<path d="M 502.14 142.73 A 259.63 259.63 0 0 1 611.18 425.69" fill="none" stroke="#4cf06d" stroke-opacity="0.187" stroke-width="3.47" stroke-linecap="round" />
<path d="M 496.55 166.45 A 236.87 236.87 0 0 1 588.18 423.55" fill="none" stroke="#4cf06d" stroke-opacity="0.386" stroke-width="5.88" stroke-linecap="round" />
<path d="M 534.59 275.40 A 194.01 194.01 0 0 1 479.41 512.91" fill="none" stroke="#4cf06d" stroke-opacity="0.491" stroke-width="6.06" stroke-linecap="round" />
</g>
<text x="360" y="684" text-anchor="middle" font-family="ui-monospace, SFMono-Regular, Menlo, Monaco, Consolas, 'Liberation Mono', 'Courier New', monospace" font-size="18" fill="#f589f2" fill-opacity="0.55">20260413T1023Z</text>
</svg>
