<?xml version="1.0" encoding="UTF-8"?>
<svg xmlns="http://www.w3.org/2000/svg" width="720" height="720" viewBox="0 0 720 720" role="img" aria-label="UTC Glyph 20260405T2223Z">
<rect width="100%" height="100%" fill="#1c160d" />
<g>
<circle cx="360" cy="360" r="300" fill="none" stroke="#9689f5" stroke-opacity="0.22" stroke-width="2" />
<circle cx="360" cy="360" r="182" fill="none" stroke="#c2f04c" stroke-opacity="0.35" stroke-width="4" />
<circle cx="360" cy="360" r="198.86" fill="none" stroke="#9689f5" stroke-opacity="0.551" stroke-width="2.73" />
<circle cx="360" cy="360" r="215.71" fill="none" stroke="#9689f5" stroke-opacity="0.498" stroke-width="2.68" />
<circle cx="360" cy="360" r="232.57" fill="none" stroke="#9689f5" stroke-opacity="0.283" stroke-width="4.27" />
<circle cx="360" cy="360" r="249.43" fill="none" stroke="#9689f5" stroke-opacity="0.467" stroke-width="3.26" />
<circle cx="360" cy="360" r="266.29" fill="none" stroke="#9689f5" stroke-opacity="0.294" stroke-width="4.43" />
<circle cx="360" cy="360" r="283.14" fill="none" stroke="#9689f5" stroke-opacity="0.399" stroke-width="4.55" />
<line x1="654.56" y1="367.13" x2="543.78" y2="364.45" stroke="#9689f5" stroke-opacity="0.464" stroke-width="3.42" stroke-linecap="round" />
<line x1="636.10" y1="423.87" x2="553.16" y2="404.69" stroke="#9689f5" stroke-opacity="0.623" stroke-width="2.08" stroke-linecap="round" />
<line x1="623.29" y1="476.95" x2="552.07" y2="445.32" stroke="#c2f04c" stroke-opacity="0.800" stroke-width="1.07" stroke-linecap="round" />
<line x1="592.30" y1="528.44" x2="527.17" y2="481.22" stroke="#9689f5" stroke-opacity="0.495" stroke-width="3.36" stroke-linecap="round" />
<line x1="559.78" y1="574.56" x2="496.28" y2="506.36" stroke="#9689f5" stroke-opacity="0.294" stroke-width="3.40" stroke-linecap="round" />
<line x1="514.03" y1="610.41" x2="456.97" y2="517.64" stroke="#9689f5" stroke-opacity="0.532" stroke-width="3.74" stroke-linecap="round" />
<line x1="447.16" y1="634.54" x2="423.43" y2="559.78" stroke="#c2f04c" stroke-opacity="0.336" stroke-width="2.31" stroke-linecap="round" />
<line x1="390.44" y1="655.14" x2="381.15" y2="565.01" stroke="#9689f5" stroke-opacity="0.424" stroke-width="3.83" stroke-linecap="round" />
<line x1="327.45" y1="649.91" x2="337.98" y2="556.06" stroke="#c2f04c" stroke-opacity="0.522" stroke-width="3.20" stroke-linecap="round" />
<line x1="266.50" y1="642.85" x2="300.62" y2="539.63" stroke="#9689f5" stroke-opacity="0.557" stroke-width="3.84" stroke-linecap="round" />
<line x1="214.64" y1="612.51" x2="262.16" y2="529.97" stroke="#9689f5" stroke-opacity="0.521" stroke-width="2.14" stroke-linecap="round" />
<line x1="161.01" y1="576.61" x2="221.61" y2="510.65" stroke="#9689f5" stroke-opacity="0.637" stroke-width="1.72" stroke-linecap="round" />
<line x1="132.19" y1="531.14" x2="191.69" y2="486.44" stroke="#9689f5" stroke-opacity="0.648" stroke-width="1.92" stroke-linecap="round" />
<line x1="88.01" y1="471.68" x2="173.90" y2="436.42" stroke="#9689f5" stroke-opacity="0.653" stroke-width="2.67" stroke-linecap="round" />
<line x1="73.00" y1="420.08" x2="154.63" y2="402.99" stroke="#9689f5" stroke-opacity="0.454" stroke-width="1.39" stroke-linecap="round" />
<line x1="64.31" y1="362.13" x2="174.01" y2="361.34" stroke="#9689f5" stroke-opacity="0.564" stroke-width="3.52" stroke-linecap="round" />
<line x1="72.94" y1="305.81" x2="157.09" y2="321.69" stroke="#9689f5" stroke-opacity="0.768" stroke-width="1.84" stroke-linecap="round" />
<line x1="88.76" y1="234.27" x2="183.17" y2="278.03" stroke="#9689f5" stroke-opacity="0.390" stroke-width="1.95" stroke-linecap="round" />
<line x1="125.63" y1="191.05" x2="204.34" y2="247.79" stroke="#9689f5" stroke-opacity="0.478" stroke-width="2.51" stroke-linecap="round" />
<line x1="161.88" y1="137.80" x2="226.09" y2="209.81" stroke="#9689f5" stroke-opacity="0.365" stroke-width="3.07" stroke-linecap="round" />
<line x1="214.16" y1="110.37" x2="267.23" y2="201.20" stroke="#9689f5" stroke-opacity="0.780" stroke-width="3.34" stroke-linecap="round" />
<line x1="276.39" y1="81.83" x2="301.78" y2="166.32" stroke="#9689f5" stroke-opacity="0.727" stroke-width="2.02" stroke-linecap="round" />
<line x1="331.17" y1="71.82" x2="340.48" y2="164.92" stroke="#9689f5" stroke-opacity="0.490" stroke-width="3.38" stroke-linecap="round" />
<line x1="395.80" y1="63.29" x2="384.26" y2="158.91" stroke="#9689f5" stroke-opacity="0.707" stroke-width="2.53" stroke-linecap="round" />
<line x1="451.95" y1="78.47" x2="420.81" y2="173.81" stroke="#9689f5" stroke-opacity="0.276" stroke-width="1.16" stroke-linecap="round" />
<line x1="511.05" y1="111.85" x2="463.33" y2="190.25" stroke="#9689f5" stroke-opacity="0.255" stroke-width="2.63" stroke-linecap="round" />
<line x1="553.22" y1="133.75" x2="482.86" y2="216.14" stroke="#9689f5" stroke-opacity="0.272" stroke-width="2.70" stroke-linecap="round" />
<line x1="594.59" y1="182.73" x2="525.92" y2="234.62" stroke="#9689f5" stroke-opacity="0.769" stroke-width="3.48" stroke-linecap="round" />
<line x1="621.85" y1="233.92" x2="544.71" y2="271.06" stroke="#9689f5" stroke-opacity="0.489" stroke-width="1.57" stroke-linecap="round" />
<line x1="647.11" y1="298.98" x2="543.90" y2="320.92" stroke="#9689f5" stroke-opacity="0.298" stroke-width="2.23" stroke-linecap="round" />
<path d="M 599.86 306.04 A 245.85 245.85 0 0 1 602.39 401.13" fill="none" stroke="#9689f5" stroke-opacity="0.509" stroke-width="5.14" stroke-linecap="round" />
<path d="M 154.24 300.71 A 214.14 214.14 0 0 1 325.55 148.65" fill="none" stroke="#c2f04c" stroke-opacity="0.193" stroke-width="6.77" stroke-linecap="round" />
<path d="M 164.84 342.58 A 195.93 195.93 0 0 1 225.24 217.78" fill="none" stroke="#c2f04c" stroke-opacity="0.283" stroke-width="3.14" stroke-linecap="round" />
<path d="M 495.49 198.77 A 210.60 210.60 0 0 1 560.09 425.71" fill="none" stroke="#c2f04c" stroke-opacity="0.461" stroke-width="7.11" stroke-linecap="round" />
<path d="M 137.78 274.28 A 238.18 238.18 0 0 1 181.31 202.53" fill="none" stroke="#c2f04c" stroke-opacity="0.431" stroke-width="3.93" stroke-linecap="round" />
<path d="M 244.26 204.67 A 193.71 193.71 0 0 1 336.96 167.67" fill="none" stroke="#9689f5" stroke-opacity="0.301" stroke-width="5.90" stroke-linecap="round" />
<path d="M 105.23 289.37 A 264.38 264.38 0 0 1 161.44 185.44" fill="none" stroke="#c2f04c" stroke-opacity="0.404" stroke-width="2.56" stroke-linecap="round" />
</g>
<text x="360" y="684" text-anchor="middle" font-family="ui-monospace, SFMono-Regular, Menlo, Monaco, Consolas, 'Liberation Mono', 'Courier New', monospace" font-size="18" fill="#9689f5" fill-opacity="0.55">20260405T2223Z</text>
</svg>
