<?xml version="1.0" encoding="UTF-8"?>
<svg xmlns="http://www.w3.org/2000/svg" width="720" height="720" viewBox="0 0 720 720" role="img" aria-label="UTC Glyph 20260415T1023Z">
<rect width="100%" height="100%" fill="#0d1c15" />
<g>
<circle cx="360" cy="360" r="300" fill="none" stroke="#f58d89" stroke-opacity="0.22" stroke-width="2" />
<circle cx="360" cy="360" r="124" fill="none" stroke="#4cd0f0" stroke-opacity="0.35" stroke-width="4" />
<circle cx="360" cy="360" r="153.33" fill="none" stroke="#f58d89" stroke-opacity="0.364" stroke-width="4.42" />
<circle cx="360" cy="360" r="182.67" fill="none" stroke="#f58d89" stroke-opacity="0.368" stroke-width="4.19" />
<circle cx="360" cy="360" r="212.00" fill="none" stroke="#f58d89" stroke-opacity="0.504" stroke-width="3.95" />
<circle cx="360" cy="360" r="241.33" fill="none" stroke="#f58d89" stroke-opacity="0.525" stroke-width="4.66" />
<circle cx="360" cy="360" r="270.67" fill="none" stroke="#f58d89" stroke-opacity="0.288" stroke-width="3.17" />
<line x1="645.63" y1="355.88" x2="502.68" y2="357.94" stroke="#f58d89" stroke-opacity="0.787" stroke-width="2.87" stroke-linecap="round" />
<line x1="650.33" y1="423.68" x2="487.91" y2="388.06" stroke="#f58d89" stroke-opacity="0.365" stroke-width="3.08" stroke-linecap="round" />
<line x1="634.91" y1="479.52" x2="475.52" y2="410.22" stroke="#f58d89" stroke-opacity="0.409" stroke-width="2.18" stroke-linecap="round" />
<line x1="596.37" y1="534.06" x2="473.56" y2="443.62" stroke="#f58d89" stroke-opacity="0.594" stroke-width="1.94" stroke-linecap="round" />
<line x1="560.96" y1="580.07" x2="447.85" y2="456.20" stroke="#f58d89" stroke-opacity="0.745" stroke-width="3.90" stroke-linecap="round" />
<line x1="521.31" y1="607.57" x2="441.17" y2="484.57" stroke="#f58d89" stroke-opacity="0.372" stroke-width="3.87" stroke-linecap="round" />
<line x1="469.11" y1="639.05" x2="409.28" y2="486.02" stroke="#f58d89" stroke-opacity="0.424" stroke-width="2.11" stroke-linecap="round" />
<line x1="403.36" y1="653.11" x2="378.49" y2="484.96" stroke="#f58d89" stroke-opacity="0.430" stroke-width="2.48" stroke-linecap="round" />
<line x1="343.67" y1="644.35" x2="352.33" y2="493.56" stroke="#f58d89" stroke-opacity="0.294" stroke-width="1.93" stroke-linecap="round" />
<line x1="287.01" y1="646.96" x2="326.97" y2="489.87" stroke="#f58d89" stroke-opacity="0.611" stroke-width="1.83" stroke-linecap="round" />
<line x1="237.32" y1="627.85" x2="299.08" y2="493.01" stroke="#f58d89" stroke-opacity="0.513" stroke-width="1.08" stroke-linecap="round" />
<line x1="179.50" y1="587.32" x2="272.92" y2="469.67" stroke="#f58d89" stroke-opacity="0.251" stroke-width="2.06" stroke-linecap="round" />
<line x1="140.29" y1="552.03" x2="257.63" y2="449.47" stroke="#4cd0f0" stroke-opacity="0.692" stroke-width="2.17" stroke-linecap="round" />
<line x1="104.28" y1="497.86" x2="228.24" y2="431.03" stroke="#f58d89" stroke-opacity="0.600" stroke-width="1.47" stroke-linecap="round" />
<line x1="90.71" y1="446.52" x2="232.29" y2="401.03" stroke="#f58d89" stroke-opacity="0.488" stroke-width="2.01" stroke-linecap="round" />
<line x1="70.30" y1="384.70" x2="228.81" y2="371.19" stroke="#f58d89" stroke-opacity="0.736" stroke-width="1.96" stroke-linecap="round" />
<line x1="64.60" y1="324.04" x2="232.99" y2="344.54" stroke="#f58d89" stroke-opacity="0.288" stroke-width="3.22" stroke-linecap="round" />
<line x1="75.82" y1="274.40" x2="237.54" y2="323.11" stroke="#4cd0f0" stroke-opacity="0.286" stroke-width="2.67" stroke-linecap="round" />
<line x1="102.58" y1="223.35" x2="236.60" y2="294.49" stroke="#4cd0f0" stroke-opacity="0.710" stroke-width="2.03" stroke-linecap="round" />
<line x1="139.67" y1="175.52" x2="255.49" y2="272.49" stroke="#f58d89" stroke-opacity="0.529" stroke-width="1.30" stroke-linecap="round" />
<line x1="181.51" y1="124.19" x2="284.08" y2="259.70" stroke="#4cd0f0" stroke-opacity="0.338" stroke-width="3.49" stroke-linecap="round" />
<line x1="233.80" y1="106.78" x2="301.52" y2="242.66" stroke="#f58d89" stroke-opacity="0.517" stroke-width="3.05" stroke-linecap="round" />
<line x1="284.03" y1="78.33" x2="320.85" y2="214.85" stroke="#4cd0f0" stroke-opacity="0.675" stroke-width="1.71" stroke-linecap="round" />
<line x1="351.96" y1="60.14" x2="356.56" y2="231.67" stroke="#f58d89" stroke-opacity="0.575" stroke-width="1.04" stroke-linecap="round" />
<line x1="404.00" y1="64.56" x2="379.94" y2="226.09" stroke="#f58d89" stroke-opacity="0.758" stroke-width="3.50" stroke-linecap="round" />
<line x1="463.98" y1="84.71" x2="409.80" y2="228.16" stroke="#f58d89" stroke-opacity="0.260" stroke-width="1.78" stroke-linecap="round" />
<line x1="503.32" y1="114.67" x2="428.56" y2="242.65" stroke="#4cd0f0" stroke-opacity="0.735" stroke-width="4.00" stroke-linecap="round" />
<line x1="554.51" y1="154.86" x2="453.67" y2="261.21" stroke="#4cd0f0" stroke-opacity="0.461" stroke-width="3.24" stroke-linecap="round" />
<line x1="592.73" y1="188.11" x2="464.37" y2="282.92" stroke="#4cd0f0" stroke-opacity="0.646" stroke-width="2.68" stroke-linecap="round" />
<line x1="630.21" y1="242.67" x2="499.61" y2="299.38" stroke="#f58d89" stroke-opacity="0.743" stroke-width="1.61" stroke-linecap="round" />
<line x1="634.99" y1="295.53" x2="504.90" y2="326.03" stroke="#f58d89" stroke-opacity="0.645" stroke-width="2.35" stroke-linecap="round" />
<path d="M 400.08 236.46 A 129.88 129.88 0 0 1 482.45 316.71" fill="none" stroke="#4cd0f0" stroke-opacity="0.261" stroke-width="7.06" stroke-linecap="round" />
<path d="M 589.50 471.57 A 255.18 255.18 0 0 1 439.17 602.59" fill="none" stroke="#4cd0f0" stroke-opacity="0.237" stroke-width="2.76" stroke-linecap="round" />
<path d="M 415.51 164.56 A 203.17 203.17 0 0 1 562.94 369.61" fill="none" stroke="#f58d89" stroke-opacity="0.418" stroke-width="2.40" stroke-linecap="round" />
<path d="M 263.06 180.61 A 203.91 203.91 0 0 1 406.98 161.58" fill="none" stroke="#4cd0f0" stroke-opacity="0.374" stroke-width="7.36" stroke-linecap="round" />
<path d="M 234.60 310.19 A 134.93 134.93 0 0 1 256.53 273.39" fill="none" stroke="#f58d89" stroke-opacity="0.293" stroke-width="2.14" stroke-linecap="round" />
<path d="M 283.18 542.26 A 197.79 197.79 0 0 1 163.73 384.43" fill="none" stroke="#f58d89" stroke-opacity="0.353" stroke-width="2.12" stroke-linecap="round" />
<path d="M 286.80 482.15 A 142.41 142.41 0 0 1 218.55 376.46" fill="none" stroke="#f58d89" stroke-opacity="0.407" stroke-width="3.22" stroke-linecap="round" />
<path d="M 372.24 651.10 A 291.35 291.35 0 0 1 170.83 581.59" fill="none" stroke="#4cd0f0" stroke-opacity="0.395" stroke-width="7.62" stroke-linecap="round" />
</g>
<text x="360" y="684" text-anchor="middle" font-family="ui-monospace, SFMono-Regular, Menlo, Monaco, Consolas, 'Liberation Mono', 'Courier New', monospace" font-size="18" fill="#f58d89" fill-opacity="0.55">20260415T1023Z</text>
</svg>
