<?xml version="1.0" encoding="UTF-8"?>
<svg xmlns="http://www.w3.org/2000/svg" width="720" height="720" viewBox="0 0 720 720" role="img" aria-label="UTC Glyph 20260409T0423Z">
<rect width="100%" height="100%" fill="#161c0d" />
<g>
<circle cx="360" cy="360" r="300" fill="none" stroke="#ec89f5" stroke-opacity="0.22" stroke-width="2" />
<circle cx="360" cy="360" r="143" fill="none" stroke="#4cf059" stroke-opacity="0.35" stroke-width="4" />
<circle cx="360" cy="360" r="182.25" fill="none" stroke="#ec89f5" stroke-opacity="0.384" stroke-width="4.86" />
<circle cx="360" cy="360" r="221.50" fill="none" stroke="#ec89f5" stroke-opacity="0.511" stroke-width="4.58" />
<circle cx="360" cy="360" r="260.75" fill="none" stroke="#ec89f5" stroke-opacity="0.440" stroke-width="4.71" />
<line x1="651.23" y1="352.19" x2="525.73" y2="355.55" stroke="#ec89f5" stroke-opacity="0.785" stroke-width="3.38" stroke-linecap="round" />
<line x1="649.36" y1="413.72" x2="507.64" y2="387.41" stroke="#4cf059" stroke-opacity="0.288" stroke-width="2.73" stroke-linecap="round" />
<line x1="619.79" y1="480.31" x2="508.04" y2="428.56" stroke="#ec89f5" stroke-opacity="0.523" stroke-width="3.37" stroke-linecap="round" />
<line x1="591.92" y1="529.86" x2="480.03" y2="447.91" stroke="#ec89f5" stroke-opacity="0.459" stroke-width="3.12" stroke-linecap="round" />
<line x1="569.18" y1="567.61" x2="467.98" y2="467.17" stroke="#4cf059" stroke-opacity="0.745" stroke-width="1.95" stroke-linecap="round" />
<line x1="508.34" y1="607.62" x2="441.76" y2="496.48" stroke="#4cf059" stroke-opacity="0.510" stroke-width="3.26" stroke-linecap="round" />
<line x1="463.32" y1="623.21" x2="419.61" y2="511.86" stroke="#ec89f5" stroke-opacity="0.409" stroke-width="3.63" stroke-linecap="round" />
<line x1="404.02" y1="643.30" x2="382.74" y2="506.35" stroke="#ec89f5" stroke-opacity="0.288" stroke-width="1.29" stroke-linecap="round" />
<line x1="342.11" y1="652.44" x2="350.45" y2="516.11" stroke="#ec89f5" stroke-opacity="0.603" stroke-width="1.42" stroke-linecap="round" />
<line x1="284.74" y1="647.53" x2="318.75" y2="517.61" stroke="#ec89f5" stroke-opacity="0.684" stroke-width="3.69" stroke-linecap="round" />
<line x1="233.32" y1="631.55" x2="299.15" y2="490.43" stroke="#4cf059" stroke-opacity="0.583" stroke-width="2.27" stroke-linecap="round" />
<line x1="184.50" y1="598.15" x2="262.57" y2="492.20" stroke="#ec89f5" stroke-opacity="0.478" stroke-width="2.05" stroke-linecap="round" />
<line x1="141.13" y1="549.52" x2="251.85" y2="453.65" stroke="#ec89f5" stroke-opacity="0.590" stroke-width="3.40" stroke-linecap="round" />
<line x1="113.34" y1="497.49" x2="229.15" y2="432.94" stroke="#ec89f5" stroke-opacity="0.426" stroke-width="1.82" stroke-linecap="round" />
<line x1="72.59" y1="443.92" x2="203.27" y2="405.77" stroke="#ec89f5" stroke-opacity="0.308" stroke-width="2.79" stroke-linecap="round" />
<line x1="61.31" y1="387.08" x2="202.38" y2="374.29" stroke="#ec89f5" stroke-opacity="0.525" stroke-width="1.38" stroke-linecap="round" />
<line x1="69.00" y1="330.56" x2="213.24" y2="345.15" stroke="#ec89f5" stroke-opacity="0.355" stroke-width="1.58" stroke-linecap="round" />
<line x1="82.54" y1="279.25" x2="212.92" y2="317.20" stroke="#4cf059" stroke-opacity="0.298" stroke-width="1.31" stroke-linecap="round" />
<line x1="99.56" y1="219.00" x2="224.69" y2="286.74" stroke="#ec89f5" stroke-opacity="0.346" stroke-width="3.54" stroke-linecap="round" />
<line x1="136.69" y1="170.53" x2="239.74" y2="257.97" stroke="#4cf059" stroke-opacity="0.454" stroke-width="1.88" stroke-linecap="round" />
<line x1="179.90" y1="133.03" x2="252.78" y2="224.87" stroke="#4cf059" stroke-opacity="0.690" stroke-width="1.84" stroke-linecap="round" />
<line x1="225.76" y1="93.86" x2="282.27" y2="205.90" stroke="#ec89f5" stroke-opacity="0.488" stroke-width="3.59" stroke-linecap="round" />
<line x1="294.18" y1="76.57" x2="321.23" y2="193.04" stroke="#ec89f5" stroke-opacity="0.361" stroke-width="2.27" stroke-linecap="round" />
<line x1="348.27" y1="77.38" x2="353.79" y2="210.26" stroke="#ec89f5" stroke-opacity="0.721" stroke-width="1.09" stroke-linecap="round" />
<line x1="402.19" y1="73.85" x2="384.26" y2="195.43" stroke="#ec89f5" stroke-opacity="0.479" stroke-width="1.81" stroke-linecap="round" />
<line x1="467.88" y1="85.27" x2="415.41" y2="218.89" stroke="#ec89f5" stroke-opacity="0.792" stroke-width="3.12" stroke-linecap="round" />
<line x1="511.33" y1="121.05" x2="440.09" y2="233.55" stroke="#4cf059" stroke-opacity="0.461" stroke-width="3.25" stroke-linecap="round" />
<line x1="560.89" y1="154.67" x2="476.34" y2="241.09" stroke="#ec89f5" stroke-opacity="0.719" stroke-width="2.10" stroke-linecap="round" />
<line x1="600.72" y1="197.56" x2="503.30" y2="263.30" stroke="#4cf059" stroke-opacity="0.631" stroke-width="3.45" stroke-linecap="round" />
<line x1="626.65" y1="237.58" x2="494.33" y2="298.33" stroke="#ec89f5" stroke-opacity="0.632" stroke-width="3.93" stroke-linecap="round" />
<line x1="638.71" y1="302.03" x2="520.24" y2="326.67" stroke="#ec89f5" stroke-opacity="0.278" stroke-width="1.09" stroke-linecap="round" />
<path d="M 440.51 201.50 A 177.77 177.77 0 0 1 536.86 342.03" fill="none" stroke="#ec89f5" stroke-opacity="0.329" stroke-width="7.63" stroke-linecap="round" />
<path d="M 610.15 347.87 A 250.45 250.45 0 0 1 416.14 604.07" fill="none" stroke="#4cf059" stroke-opacity="0.452" stroke-width="6.33" stroke-linecap="round" />
<path d="M 386.87 111.68 A 249.77 249.77 0 0 1 594.18 273.14" fill="none" stroke="#ec89f5" stroke-opacity="0.322" stroke-width="3.22" stroke-linecap="round" />
<path d="M 559.51 458.73 A 222.61 222.61 0 0 1 276.09 566.19" fill="none" stroke="#4cf059" stroke-opacity="0.386" stroke-width="2.49" stroke-linecap="round" />
<path d="M 407.65 154.99 A 210.47 210.47 0 0 1 569.15 383.51" fill="none" stroke="#ec89f5" stroke-opacity="0.510" stroke-width="2.60" stroke-linecap="round" />
<path d="M 184.62 335.59 A 177.07 177.07 0 0 1 325.91 186.24" fill="none" stroke="#ec89f5" stroke-opacity="0.332" stroke-width="2.89" stroke-linecap="round" />
<path d="M 223.08 570.58 A 251.18 251.18 0 0 1 114.90 305.09" fill="none" stroke="#4cf059" stroke-opacity="0.368" stroke-width="4.77" stroke-linecap="round" />
<path d="M 396.46 516.37 A 160.56 160.56 0 0 1 260.31 485.86" fill="none" stroke="#4cf059" stroke-opacity="0.372" stroke-width="7.23" stroke-linecap="round" />
</g>
<text x="360" y="684" text-anchor="middle" font-family="ui-monospace, SFMono-Regular, Menlo, Monaco, Consolas, 'Liberation Mono', 'Courier New', monospace" font-size="18" fill="#ec89f5" fill-opacity="0.55">20260409T0423Z</text>
</svg>
