<?xml version="1.0" encoding="UTF-8"?>
<svg xmlns="http://www.w3.org/2000/svg" width="720" height="720" viewBox="0 0 720 720" role="img" aria-label="UTC Glyph 20260428T0423Z">
<rect width="100%" height="100%" fill="#0e1c0d" />
<g>
<circle cx="360" cy="360" r="300" fill="none" stroke="#f589c6" stroke-opacity="0.22" stroke-width="2" />
<circle cx="360" cy="360" r="146" fill="none" stroke="#4cf0af" stroke-opacity="0.35" stroke-width="4" />
<circle cx="360" cy="360" r="171.67" fill="none" stroke="#f589c6" stroke-opacity="0.476" stroke-width="3.19" />
<circle cx="360" cy="360" r="197.33" fill="none" stroke="#f589c6" stroke-opacity="0.412" stroke-width="3.26" />
<circle cx="360" cy="360" r="223.00" fill="none" stroke="#f589c6" stroke-opacity="0.376" stroke-width="4.93" />
<circle cx="360" cy="360" r="248.67" fill="none" stroke="#f589c6" stroke-opacity="0.332" stroke-width="2.77" />
<circle cx="360" cy="360" r="274.33" fill="none" stroke="#f589c6" stroke-opacity="0.303" stroke-width="3.26" />
<line x1="647.26" y1="356.73" x2="528.27" y2="358.09" stroke="#f589c6" stroke-opacity="0.316" stroke-width="1.41" stroke-linecap="round" />
<line x1="644.92" y1="419.93" x2="508.08" y2="391.15" stroke="#f589c6" stroke-opacity="0.305" stroke-width="1.49" stroke-linecap="round" />
<line x1="621.91" y1="490.59" x2="500.43" y2="430.02" stroke="#f589c6" stroke-opacity="0.639" stroke-width="3.64" stroke-linecap="round" />
<line x1="576.22" y1="543.66" x2="472.29" y2="455.38" stroke="#f589c6" stroke-opacity="0.513" stroke-width="1.54" stroke-linecap="round" />
<line x1="535.35" y1="581.98" x2="465.52" y2="493.58" stroke="#4cf0af" stroke-opacity="0.262" stroke-width="3.06" stroke-linecap="round" />
<line x1="464.99" y1="623.46" x2="419.44" y2="509.17" stroke="#f589c6" stroke-opacity="0.532" stroke-width="1.56" stroke-linecap="round" />
<line x1="417.80" y1="640.21" x2="393.42" y2="522.02" stroke="#f589c6" stroke-opacity="0.576" stroke-width="3.61" stroke-linecap="round" />
<line x1="341.01" y1="656.04" x2="349.26" y2="527.48" stroke="#f589c6" stroke-opacity="0.470" stroke-width="2.44" stroke-linecap="round" />
<line x1="279.07" y1="636.01" x2="317.68" y2="504.31" stroke="#f589c6" stroke-opacity="0.424" stroke-width="3.90" stroke-linecap="round" />
<line x1="218.49" y1="622.17" x2="280.96" y2="506.43" stroke="#4cf0af" stroke-opacity="0.492" stroke-width="1.58" stroke-linecap="round" />
<line x1="169.49" y1="571.48" x2="249.23" y2="482.96" stroke="#4cf0af" stroke-opacity="0.283" stroke-width="2.17" stroke-linecap="round" />
<line x1="115.75" y1="515.42" x2="236.25" y2="438.74" stroke="#f589c6" stroke-opacity="0.374" stroke-width="1.56" stroke-linecap="round" />
<line x1="87.04" y1="462.64" x2="221.98" y2="411.90" stroke="#f589c6" stroke-opacity="0.432" stroke-width="1.85" stroke-linecap="round" />
<line x1="76.90" y1="393.02" x2="200.55" y2="378.60" stroke="#4cf0af" stroke-opacity="0.745" stroke-width="3.29" stroke-linecap="round" />
<line x1="76.44" y1="325.40" x2="208.18" y2="341.48" stroke="#4cf0af" stroke-opacity="0.615" stroke-width="1.03" stroke-linecap="round" />
<line x1="90.34" y1="269.83" x2="197.33" y2="305.60" stroke="#f589c6" stroke-opacity="0.391" stroke-width="3.25" stroke-linecap="round" />
<line x1="125.62" y1="201.81" x2="238.75" y2="278.16" stroke="#f589c6" stroke-opacity="0.666" stroke-width="2.78" stroke-linecap="round" />
<line x1="158.74" y1="152.27" x2="251.71" y2="248.22" stroke="#4cf0af" stroke-opacity="0.257" stroke-width="3.79" stroke-linecap="round" />
<line x1="206.95" y1="106.97" x2="277.82" y2="224.13" stroke="#f589c6" stroke-opacity="0.645" stroke-width="2.76" stroke-linecap="round" />
<line x1="273.55" y1="76.03" x2="311.26" y2="199.89" stroke="#4cf0af" stroke-opacity="0.334" stroke-width="1.82" stroke-linecap="round" />
<line x1="343.87" y1="75.55" x2="351.32" y2="206.86" stroke="#f589c6" stroke-opacity="0.474" stroke-width="2.00" stroke-linecap="round" />
<line x1="414.63" y1="81.96" x2="389.75" y2="208.62" stroke="#f589c6" stroke-opacity="0.428" stroke-width="2.96" stroke-linecap="round" />
<line x1="480.90" y1="96.19" x2="425.98" y2="216.02" stroke="#f589c6" stroke-opacity="0.494" stroke-width="3.97" stroke-linecap="round" />
<line x1="539.11" y1="123.35" x2="450.56" y2="240.34" stroke="#f589c6" stroke-opacity="0.483" stroke-width="2.46" stroke-linecap="round" />
<line x1="583.40" y1="168.40" x2="476.95" y2="259.70" stroke="#f589c6" stroke-opacity="0.267" stroke-width="1.40" stroke-linecap="round" />
<line x1="620.30" y1="229.74" x2="498.18" y2="290.86" stroke="#f589c6" stroke-opacity="0.746" stroke-width="1.24" stroke-linecap="round" />
<line x1="647.92" y1="287.51" x2="505.07" y2="323.48" stroke="#f589c6" stroke-opacity="0.488" stroke-width="1.13" stroke-linecap="round" />
<path d="M 526.78 256.76 A 196.15 196.15 0 0 1 550.70 405.92" fill="none" stroke="#f589c6" stroke-opacity="0.426" stroke-width="4.92" stroke-linecap="round" />
<path d="M 249.90 214.88 A 182.16 182.16 0 0 1 322.45 181.76" fill="none" stroke="#4cf0af" stroke-opacity="0.243" stroke-width="2.31" stroke-linecap="round" />
<path d="M 241.80 92.63 A 292.34 292.34 0 0 1 592.01 182.14" fill="none" stroke="#4cf0af" stroke-opacity="0.394" stroke-width="5.86" stroke-linecap="round" />
<path d="M 474.39 198.77 A 197.68 197.68 0 0 1 553.29 318.53" fill="none" stroke="#f589c6" stroke-opacity="0.271" stroke-width="7.83" stroke-linecap="round" />
<path d="M 568.80 276.38 A 224.92 224.92 0 0 1 551.49 477.99" fill="none" stroke="#4cf0af" stroke-opacity="0.250" stroke-width="2.20" stroke-linecap="round" />
<path d="M 604.79 359.57 A 244.79 244.79 0 0 1 419.61 597.43" fill="none" stroke="#f589c6" stroke-opacity="0.421" stroke-width="3.77" stroke-linecap="round" />
<path d="M 557.50 366.29 A 197.60 197.60 0 0 1 535.73 450.38" fill="none" stroke="#4cf0af" stroke-opacity="0.522" stroke-width="3.35" stroke-linecap="round" />
<path d="M 134.64 528.54 A 281.42 281.42 0 0 1 125.01 205.16" fill="none" stroke="#4cf0af" stroke-opacity="0.191" stroke-width="3.40" stroke-linecap="round" />
<path d="M 204.91 280.80 A 174.14 174.14 0 0 1 366.79 185.99" fill="none" stroke="#f589c6" stroke-opacity="0.361" stroke-width="6.66" stroke-linecap="round" />
<path d="M 585.42 427.84 A 235.40 235.40 0 0 1 393.22 593.05" fill="none" stroke="#f589c6" stroke-opacity="0.469" stroke-width="5.87" stroke-linecap="round" />
<path d="M 66.07 390.80 A 295.54 295.54 0 0 1 211.63 104.40" fill="none" stroke="#4cf0af" stroke-opacity="0.327" stroke-width="5.27" stroke-linecap="round" />
</g>
<text x="360" y="684" text-anchor="middle" font-family="ui-monospace, SFMono-Regular, Menlo, Monaco, Consolas, 'Liberation Mono', 'Courier New', monospace" font-size="18" fill="#f589c6" fill-opacity="0.55">20260428T0423Z</text>
</svg>
