<?xml version="1.0" encoding="UTF-8"?>
<svg xmlns="http://www.w3.org/2000/svg" width="720" height="720" viewBox="0 0 720 720" role="img" aria-label="UTC Glyph 20260406T1023Z">
<rect width="100%" height="100%" fill="#0d181c" />
<g>
<circle cx="360" cy="360" r="300" fill="none" stroke="#f5d989" stroke-opacity="0.22" stroke-width="2" />
<circle cx="360" cy="360" r="153" fill="none" stroke="#4c5cf0" stroke-opacity="0.35" stroke-width="4" />
<circle cx="360" cy="360" r="177.50" fill="none" stroke="#f5d989" stroke-opacity="0.399" stroke-width="2.05" />
<circle cx="360" cy="360" r="202.00" fill="none" stroke="#f5d989" stroke-opacity="0.479" stroke-width="2.29" />
<circle cx="360" cy="360" r="226.50" fill="none" stroke="#f5d989" stroke-opacity="0.294" stroke-width="2.66" />
<circle cx="360" cy="360" r="251.00" fill="none" stroke="#f5d989" stroke-opacity="0.356" stroke-width="2.56" />
<circle cx="360" cy="360" r="275.50" fill="none" stroke="#f5d989" stroke-opacity="0.550" stroke-width="3.05" />
<line x1="650.74" y1="365.22" x2="528.87" y2="363.03" stroke="#4c5cf0" stroke-opacity="0.304" stroke-width="3.70" stroke-linecap="round" />
<line x1="642.19" y1="413.97" x2="530.34" y2="392.58" stroke="#f5d989" stroke-opacity="0.624" stroke-width="3.99" stroke-linecap="round" />
<line x1="633.32" y1="474.59" x2="524.84" y2="429.11" stroke="#f5d989" stroke-opacity="0.634" stroke-width="1.87" stroke-linecap="round" />
<line x1="609.79" y1="517.50" x2="506.07" y2="452.10" stroke="#f5d989" stroke-opacity="0.293" stroke-width="2.29" stroke-linecap="round" />
<line x1="561.86" y1="561.64" x2="485.51" y2="485.37" stroke="#f5d989" stroke-opacity="0.799" stroke-width="2.55" stroke-linecap="round" />
<line x1="534.28" y1="592.14" x2="459.80" y2="492.93" stroke="#f5d989" stroke-opacity="0.427" stroke-width="3.92" stroke-linecap="round" />
<line x1="472.56" y1="624.62" x2="425.84" y2="514.79" stroke="#f5d989" stroke-opacity="0.508" stroke-width="1.34" stroke-linecap="round" />
<line x1="430.29" y1="633.46" x2="400.44" y2="517.35" stroke="#4c5cf0" stroke-opacity="0.582" stroke-width="3.27" stroke-linecap="round" />
<line x1="373.85" y1="641.97" x2="367.89" y2="520.72" stroke="#4c5cf0" stroke-opacity="0.557" stroke-width="3.03" stroke-linecap="round" />
<line x1="325.24" y1="652.28" x2="338.94" y2="537.03" stroke="#f5d989" stroke-opacity="0.778" stroke-width="2.05" stroke-linecap="round" />
<line x1="269.75" y1="633.92" x2="305.15" y2="526.47" stroke="#f5d989" stroke-opacity="0.487" stroke-width="3.10" stroke-linecap="round" />
<line x1="218.25" y1="617.35" x2="277.15" y2="510.41" stroke="#f5d989" stroke-opacity="0.341" stroke-width="3.85" stroke-linecap="round" />
<line x1="180.67" y1="579.33" x2="248.67" y2="496.16" stroke="#4c5cf0" stroke-opacity="0.265" stroke-width="1.80" stroke-linecap="round" />
<line x1="124.33" y1="543.14" x2="232.24" y2="459.28" stroke="#f5d989" stroke-opacity="0.390" stroke-width="3.41" stroke-linecap="round" />
<line x1="98.10" y1="493.73" x2="219.29" y2="431.85" stroke="#f5d989" stroke-opacity="0.560" stroke-width="3.44" stroke-linecap="round" />
<line x1="88.74" y1="440.22" x2="212.85" y2="403.52" stroke="#f5d989" stroke-opacity="0.282" stroke-width="3.91" stroke-linecap="round" />
<line x1="67.47" y1="392.35" x2="191.61" y2="378.62" stroke="#4c5cf0" stroke-opacity="0.547" stroke-width="1.02" stroke-linecap="round" />
<line x1="78.49" y1="335.85" x2="200.50" y2="346.32" stroke="#f5d989" stroke-opacity="0.354" stroke-width="1.07" stroke-linecap="round" />
<line x1="84.36" y1="274.58" x2="190.50" y2="307.47" stroke="#f5d989" stroke-opacity="0.524" stroke-width="3.40" stroke-linecap="round" />
<line x1="107.09" y1="233.41" x2="202.47" y2="281.15" stroke="#f5d989" stroke-opacity="0.269" stroke-width="3.76" stroke-linecap="round" />
<line x1="133.89" y1="187.17" x2="215.16" y2="249.29" stroke="#f5d989" stroke-opacity="0.562" stroke-width="3.34" stroke-linecap="round" />
<line x1="162.62" y1="143.66" x2="253.46" y2="243.23" stroke="#f5d989" stroke-opacity="0.768" stroke-width="2.14" stroke-linecap="round" />
<line x1="213.38" y1="115.67" x2="266.72" y2="204.55" stroke="#f5d989" stroke-opacity="0.471" stroke-width="3.66" stroke-linecap="round" />
<line x1="262.40" y1="89.43" x2="305.04" y2="207.65" stroke="#f5d989" stroke-opacity="0.761" stroke-width="2.59" stroke-linecap="round" />
<line x1="322.41" y1="78.71" x2="337.33" y2="190.38" stroke="#f5d989" stroke-opacity="0.396" stroke-width="1.41" stroke-linecap="round" />
<line x1="368.27" y1="63.71" x2="364.81" y2="187.63" stroke="#f5d989" stroke-opacity="0.455" stroke-width="3.51" stroke-linecap="round" />
<line x1="437.32" y1="72.56" x2="404.71" y2="193.79" stroke="#f5d989" stroke-opacity="0.647" stroke-width="1.98" stroke-linecap="round" />
<line x1="482.61" y1="94.59" x2="431.10" y2="206.08" stroke="#f5d989" stroke-opacity="0.431" stroke-width="1.63" stroke-linecap="round" />
<line x1="538.21" y1="120.51" x2="453.72" y2="234.05" stroke="#f5d989" stroke-opacity="0.444" stroke-width="2.03" stroke-linecap="round" />
<line x1="575.37" y1="158.98" x2="481.42" y2="246.67" stroke="#f5d989" stroke-opacity="0.275" stroke-width="3.83" stroke-linecap="round" />
<line x1="601.97" y1="206.16" x2="504.00" y2="268.45" stroke="#f5d989" stroke-opacity="0.527" stroke-width="3.53" stroke-linecap="round" />
<line x1="628.21" y1="245.87" x2="504.86" y2="298.36" stroke="#f5d989" stroke-opacity="0.542" stroke-width="1.07" stroke-linecap="round" />
<line x1="651.71" y1="311.86" x2="524.73" y2="332.82" stroke="#f5d989" stroke-opacity="0.776" stroke-width="3.75" stroke-linecap="round" />
<path d="M 233.70 586.27 A 259.13 259.13 0 0 1 101.14 371.77" fill="none" stroke="#4c5cf0" stroke-opacity="0.324" stroke-width="4.87" stroke-linecap="round" />
<path d="M 512.51 389.41 A 155.32 155.32 0 0 1 450.41 486.30" fill="none" stroke="#4c5cf0" stroke-opacity="0.351" stroke-width="6.98" stroke-linecap="round" />
<path d="M 458.24 562.95 A 225.47 225.47 0 0 1 391.36 583.28" fill="none" stroke="#f5d989" stroke-opacity="0.320" stroke-width="6.26" stroke-linecap="round" />
<path d="M 469.88 231.91 A 168.76 168.76 0 0 1 524.18 320.93" fill="none" stroke="#4c5cf0" stroke-opacity="0.227" stroke-width="3.63" stroke-linecap="round" />
<path d="M 331.84 524.82 A 167.21 167.21 0 0 1 219.84 451.19" fill="none" stroke="#4c5cf0" stroke-opacity="0.411" stroke-width="5.78" stroke-linecap="round" />
<path d="M 278.29 514.26 A 174.56 174.56 0 0 1 185.69 369.40" fill="none" stroke="#f5d989" stroke-opacity="0.189" stroke-width="3.03" stroke-linecap="round" />
<path d="M 496.11 136.62 A 261.58 261.58 0 0 1 606.52 447.46" fill="none" stroke="#4c5cf0" stroke-opacity="0.421" stroke-width="6.55" stroke-linecap="round" />
</g>
<text x="360" y="684" text-anchor="middle" font-family="ui-monospace, SFMono-Regular, Menlo, Monaco, Consolas, 'Liberation Mono', 'Courier New', monospace" font-size="18" fill="#f5d989" fill-opacity="0.55">20260406T1023Z</text>
</svg>
