<?xml version="1.0" encoding="UTF-8"?>
<svg xmlns="http://www.w3.org/2000/svg" width="720" height="720" viewBox="0 0 720 720" role="img" aria-label="UTC Glyph 2026-02-22T16-24-08Z">
<rect width="100%" height="100%" fill="#0e1c0d" />
<g>
<circle cx="360" cy="360" r="300" fill="none" stroke="#f589c6" stroke-opacity="0.22" stroke-width="2" />
<circle cx="360" cy="360" r="184" fill="none" stroke="#4cf0af" stroke-opacity="0.35" stroke-width="4" />
<circle cx="360" cy="360" r="207.20" fill="none" stroke="#f589c6" stroke-opacity="0.517" stroke-width="2.17" />
<circle cx="360" cy="360" r="230.40" fill="none" stroke="#f589c6" stroke-opacity="0.478" stroke-width="3.62" />
<circle cx="360" cy="360" r="253.60" fill="none" stroke="#f589c6" stroke-opacity="0.493" stroke-width="4.75" />
<circle cx="360" cy="360" r="276.80" fill="none" stroke="#f589c6" stroke-opacity="0.478" stroke-width="4.89" />
<line x1="646.75" y1="354.13" x2="550.53" y2="356.10" stroke="#f589c6" stroke-opacity="0.733" stroke-width="3.61" stroke-linecap="round" />
<line x1="651.46" y1="430.14" x2="547.08" y2="405.02" stroke="#4cf0af" stroke-opacity="0.363" stroke-width="1.41" stroke-linecap="round" />
<line x1="612.41" y1="496.88" x2="537.72" y2="456.38" stroke="#f589c6" stroke-opacity="0.365" stroke-width="2.48" stroke-linecap="round" />
<line x1="566.10" y1="561.37" x2="497.68" y2="494.52" stroke="#f589c6" stroke-opacity="0.458" stroke-width="1.99" stroke-linecap="round" />
<line x1="521.03" y1="604.89" x2="476.06" y2="536.49" stroke="#f589c6" stroke-opacity="0.623" stroke-width="2.80" stroke-linecap="round" />
<line x1="442.02" y1="633.27" x2="413.91" y2="539.60" stroke="#f589c6" stroke-opacity="0.652" stroke-width="3.35" stroke-linecap="round" />
<line x1="377.02" y1="641.74" x2="372.11" y2="560.57" stroke="#f589c6" stroke-opacity="0.326" stroke-width="2.01" stroke-linecap="round" />
<line x1="314.86" y1="638.95" x2="328.59" y2="554.09" stroke="#f589c6" stroke-opacity="0.547" stroke-width="1.61" stroke-linecap="round" />
<line x1="232.42" y1="627.94" x2="273.87" y2="540.89" stroke="#f589c6" stroke-opacity="0.347" stroke-width="2.10" stroke-linecap="round" />
<line x1="179.44" y1="581.70" x2="234.31" y2="514.34" stroke="#f589c6" stroke-opacity="0.595" stroke-width="2.45" stroke-linecap="round" />
<line x1="124.15" y1="534.66" x2="194.18" y2="482.80" stroke="#f589c6" stroke-opacity="0.501" stroke-width="3.39" stroke-linecap="round" />
<line x1="84.70" y1="466.94" x2="171.39" y2="433.26" stroke="#f589c6" stroke-opacity="0.262" stroke-width="3.69" stroke-linecap="round" />
<line x1="72.20" y1="389.12" x2="168.04" y2="379.42" stroke="#f589c6" stroke-opacity="0.758" stroke-width="3.98" stroke-linecap="round" />
<line x1="67.31" y1="325.55" x2="149.17" y2="335.18" stroke="#f589c6" stroke-opacity="0.331" stroke-width="3.94" stroke-linecap="round" />
<line x1="89.34" y1="245.18" x2="184.48" y2="285.54" stroke="#f589c6" stroke-opacity="0.488" stroke-width="2.81" stroke-linecap="round" />
<line x1="124.05" y1="181.31" x2="197.62" y2="237.03" stroke="#4cf0af" stroke-opacity="0.442" stroke-width="3.46" stroke-linecap="round" />
<line x1="163.48" y1="134.46" x2="236.85" y2="218.66" stroke="#f589c6" stroke-opacity="0.653" stroke-width="3.19" stroke-linecap="round" />
<line x1="239.15" y1="104.18" x2="280.85" y2="192.45" stroke="#f589c6" stroke-opacity="0.382" stroke-width="2.05" stroke-linecap="round" />
<line x1="304.97" y1="65.78" x2="324.54" y2="170.41" stroke="#f589c6" stroke-opacity="0.605" stroke-width="1.39" stroke-linecap="round" />
<line x1="378.00" y1="62.91" x2="371.14" y2="176.12" stroke="#f589c6" stroke-opacity="0.496" stroke-width="2.97" stroke-linecap="round" />
<line x1="459.92" y1="79.94" x2="424.09" y2="180.37" stroke="#f589c6" stroke-opacity="0.410" stroke-width="3.74" stroke-linecap="round" />
<line x1="515.99" y1="105.51" x2="463.08" y2="191.83" stroke="#f589c6" stroke-opacity="0.313" stroke-width="2.45" stroke-linecap="round" />
<line x1="561.88" y1="160.25" x2="497.47" y2="223.99" stroke="#f589c6" stroke-opacity="0.449" stroke-width="2.85" stroke-linecap="round" />
<line x1="611.30" y1="230.80" x2="542.86" y2="265.99" stroke="#4cf0af" stroke-opacity="0.656" stroke-width="3.22" stroke-linecap="round" />
<line x1="638.03" y1="292.80" x2="544.27" y2="315.46" stroke="#4cf0af" stroke-opacity="0.312" stroke-width="3.62" stroke-linecap="round" />
<path d="M 371.57 101.62 A 258.64 258.64 0 0 1 617.36 334.25" fill="none" stroke="#4cf0af" stroke-opacity="0.511" stroke-width="4.62" stroke-linecap="round" />
<path d="M 648.20 397.49 A 290.63 290.63 0 0 1 518.88 603.35" fill="none" stroke="#4cf0af" stroke-opacity="0.278" stroke-width="4.78" stroke-linecap="round" />
<path d="M 568.57 378.63 A 209.40 209.40 0 0 1 483.89 528.83" fill="none" stroke="#f589c6" stroke-opacity="0.339" stroke-width="5.31" stroke-linecap="round" />
<path d="M 227.83 560.99 A 240.56 240.56 0 0 1 126.65 418.43" fill="none" stroke="#4cf0af" stroke-opacity="0.202" stroke-width="6.90" stroke-linecap="round" />
<path d="M 307.65 566.07 A 212.61 212.61 0 0 1 181.06 474.82" fill="none" stroke="#4cf0af" stroke-opacity="0.212" stroke-width="2.15" stroke-linecap="round" />
<path d="M 115.62 422.59 A 252.26 252.26 0 0 1 186.99 176.42" fill="none" stroke="#f589c6" stroke-opacity="0.411" stroke-width="5.19" stroke-linecap="round" />
<path d="M 237.65 122.54 A 267.13 267.13 0 0 1 365.95 92.94" fill="none" stroke="#f589c6" stroke-opacity="0.441" stroke-width="2.07" stroke-linecap="round" />
<path d="M 122.50 222.98 A 274.19 274.19 0 0 1 255.29 106.59" fill="none" stroke="#4cf0af" stroke-opacity="0.199" stroke-width="3.53" stroke-linecap="round" />
<path d="M 404.71 555.64 A 200.68 200.68 0 0 1 188.63 464.42" fill="none" stroke="#4cf0af" stroke-opacity="0.382" stroke-width="3.27" stroke-linecap="round" />
<path d="M 149.03 202.12 A 263.50 263.50 0 0 1 339.78 97.28" fill="none" stroke="#4cf0af" stroke-opacity="0.273" stroke-width="7.94" stroke-linecap="round" />
<path d="M 567.20 517.02 A 259.97 259.97 0 0 1 258.70 599.42" fill="none" stroke="#f589c6" stroke-opacity="0.223" stroke-width="5.18" stroke-linecap="round" />
<path d="M 133.54 422.29 A 234.87 234.87 0 0 1 278.30 139.80" fill="none" stroke="#f589c6" stroke-opacity="0.468" stroke-width="7.39" stroke-linecap="round" />
<path d="M 532.51 116.13 A 298.72 298.72 0 0 1 635.25 476.07" fill="none" stroke="#4cf0af" stroke-opacity="0.358" stroke-width="2.54" stroke-linecap="round" />
</g>
<text x="360" y="684" text-anchor="middle" font-family="ui-monospace, SFMono-Regular, Menlo, Monaco, Consolas, 'Liberation Mono', 'Courier New', monospace" font-size="18" fill="#f589c6" fill-opacity="0.55">2026-02-22T16-24-08Z</text>
</svg>
