<?xml version="1.0" encoding="UTF-8"?>
<svg xmlns="http://www.w3.org/2000/svg" width="720" height="720" viewBox="0 0 720 720" role="img" aria-label="UTC Glyph 20260314T1023Z">
<rect width="100%" height="100%" fill="#1c1a0d" />
<g>
<circle cx="360" cy="360" r="300" fill="none" stroke="#b489f5" stroke-opacity="0.22" stroke-width="2" />
<circle cx="360" cy="360" r="110" fill="none" stroke="#93f04c" stroke-opacity="0.35" stroke-width="4" />
<circle cx="360" cy="360" r="148.00" fill="none" stroke="#b489f5" stroke-opacity="0.361" stroke-width="2.90" />
<circle cx="360" cy="360" r="186.00" fill="none" stroke="#b489f5" stroke-opacity="0.471" stroke-width="3.39" />
<circle cx="360" cy="360" r="224.00" fill="none" stroke="#b489f5" stroke-opacity="0.347" stroke-width="2.37" />
<circle cx="360" cy="360" r="262.00" fill="none" stroke="#b489f5" stroke-opacity="0.322" stroke-width="4.13" />
<line x1="643.26" y1="358.03" x2="491.83" y2="359.08" stroke="#b489f5" stroke-opacity="0.525" stroke-width="2.44" stroke-linecap="round" />
<line x1="644.40" y1="406.41" x2="494.74" y2="381.99" stroke="#b489f5" stroke-opacity="0.573" stroke-width="2.19" stroke-linecap="round" />
<line x1="640.08" y1="464.60" x2="468.00" y2="400.34" stroke="#b489f5" stroke-opacity="0.704" stroke-width="1.00" stroke-linecap="round" />
<line x1="614.57" y1="516.42" x2="454.80" y2="418.25" stroke="#b489f5" stroke-opacity="0.495" stroke-width="1.44" stroke-linecap="round" />
<line x1="572.32" y1="553.10" x2="444.54" y2="436.88" stroke="#b489f5" stroke-opacity="0.325" stroke-width="3.25" stroke-linecap="round" />
<line x1="531.78" y1="595.87" x2="440.29" y2="470.24" stroke="#b489f5" stroke-opacity="0.314" stroke-width="1.17" stroke-linecap="round" />
<line x1="497.12" y1="618.61" x2="420.67" y2="474.42" stroke="#b489f5" stroke-opacity="0.562" stroke-width="3.92" stroke-linecap="round" />
<line x1="441.51" y1="643.56" x2="396.94" y2="488.52" stroke="#b489f5" stroke-opacity="0.473" stroke-width="2.82" stroke-linecap="round" />
<line x1="383.82" y1="641.34" x2="369.76" y2="475.30" stroke="#93f04c" stroke-opacity="0.653" stroke-width="3.69" stroke-linecap="round" />
<line x1="339.70" y1="646.17" x2="352.04" y2="472.27" stroke="#b489f5" stroke-opacity="0.295" stroke-width="3.84" stroke-linecap="round" />
<line x1="283.53" y1="636.69" x2="326.03" y2="482.91" stroke="#b489f5" stroke-opacity="0.671" stroke-width="3.62" stroke-linecap="round" />
<line x1="234.33" y1="622.97" x2="310.21" y2="464.18" stroke="#b489f5" stroke-opacity="0.547" stroke-width="2.56" stroke-linecap="round" />
<line x1="180.49" y1="586.72" x2="275.42" y2="466.83" stroke="#b489f5" stroke-opacity="0.360" stroke-width="3.98" stroke-linecap="round" />
<line x1="147.21" y1="563.14" x2="280.10" y2="436.28" stroke="#b489f5" stroke-opacity="0.558" stroke-width="1.88" stroke-linecap="round" />
<line x1="117.17" y1="520.01" x2="267.02" y2="421.27" stroke="#93f04c" stroke-opacity="0.573" stroke-width="2.21" stroke-linecap="round" />
<line x1="96.07" y1="462.48" x2="230.20" y2="410.40" stroke="#b489f5" stroke-opacity="0.637" stroke-width="2.04" stroke-linecap="round" />
<line x1="83.85" y1="417.93" x2="225.91" y2="388.13" stroke="#93f04c" stroke-opacity="0.711" stroke-width="3.96" stroke-linecap="round" />
<line x1="76.30" y1="367.71" x2="233.26" y2="363.45" stroke="#b489f5" stroke-opacity="0.785" stroke-width="3.40" stroke-linecap="round" />
<line x1="66.18" y1="305.81" x2="242.39" y2="338.31" stroke="#b489f5" stroke-opacity="0.593" stroke-width="3.61" stroke-linecap="round" />
<line x1="89.45" y1="259.60" x2="236.05" y2="314.00" stroke="#b489f5" stroke-opacity="0.366" stroke-width="1.28" stroke-linecap="round" />
<line x1="108.20" y1="196.98" x2="266.81" y2="299.66" stroke="#93f04c" stroke-opacity="0.407" stroke-width="3.26" stroke-linecap="round" />
<line x1="148.25" y1="166.27" x2="267.10" y2="275.01" stroke="#b489f5" stroke-opacity="0.360" stroke-width="1.41" stroke-linecap="round" />
<line x1="188.44" y1="123.58" x2="293.76" y2="268.72" stroke="#b489f5" stroke-opacity="0.677" stroke-width="2.91" stroke-linecap="round" />
<line x1="222.31" y1="96.46" x2="300.11" y2="245.37" stroke="#93f04c" stroke-opacity="0.773" stroke-width="3.72" stroke-linecap="round" />
<line x1="287.84" y1="81.99" x2="331.31" y2="249.48" stroke="#93f04c" stroke-opacity="0.411" stroke-width="3.78" stroke-linecap="round" />
<line x1="332.00" y1="63.33" x2="347.02" y2="222.42" stroke="#93f04c" stroke-opacity="0.350" stroke-width="2.88" stroke-linecap="round" />
<line x1="380.18" y1="77.31" x2="369.53" y2="226.49" stroke="#b489f5" stroke-opacity="0.307" stroke-width="2.95" stroke-linecap="round" />
<line x1="433.90" y1="84.40" x2="390.82" y2="245.05" stroke="#b489f5" stroke-opacity="0.450" stroke-width="2.14" stroke-linecap="round" />
<line x1="487.12" y1="101.07" x2="409.48" y2="259.22" stroke="#b489f5" stroke-opacity="0.567" stroke-width="2.34" stroke-linecap="round" />
<line x1="544.01" y1="128.85" x2="433.17" y2="268.08" stroke="#b489f5" stroke-opacity="0.603" stroke-width="3.96" stroke-linecap="round" />
<line x1="578.62" y1="163.36" x2="442.07" y2="286.18" stroke="#93f04c" stroke-opacity="0.653" stroke-width="3.84" stroke-linecap="round" />
<line x1="603.95" y1="202.39" x2="460.96" y2="294.78" stroke="#b489f5" stroke-opacity="0.568" stroke-width="2.21" stroke-linecap="round" />
<line x1="634.89" y1="254.84" x2="478.78" y2="314.56" stroke="#93f04c" stroke-opacity="0.344" stroke-width="2.97" stroke-linecap="round" />
<line x1="645.38" y1="306.70" x2="481.32" y2="337.34" stroke="#b489f5" stroke-opacity="0.470" stroke-width="2.58" stroke-linecap="round" />
<path d="M 148.04 198.26 A 266.62 266.62 0 0 1 358.52 93.38" fill="none" stroke="#93f04c" stroke-opacity="0.276" stroke-width="4.36" stroke-linecap="round" />
<path d="M 119.19 522.71 A 290.62 290.62 0 0 1 75.44 300.92" fill="none" stroke="#93f04c" stroke-opacity="0.445" stroke-width="7.79" stroke-linecap="round" />
<path d="M 441.06 78.42 A 293.01 293.01 0 0 1 651.22 392.29" fill="none" stroke="#93f04c" stroke-opacity="0.238" stroke-width="7.24" stroke-linecap="round" />
<path d="M 351.73 508.74 A 148.97 148.97 0 0 1 235.38 441.62" fill="none" stroke="#93f04c" stroke-opacity="0.288" stroke-width="7.24" stroke-linecap="round" />
<path d="M 519.76 604.46 A 292.03 292.03 0 0 1 395.20 649.90" fill="none" stroke="#b489f5" stroke-opacity="0.253" stroke-width="5.82" stroke-linecap="round" />
<path d="M 478.04 543.36 A 218.07 218.07 0 0 1 397.60 574.80" fill="none" stroke="#93f04c" stroke-opacity="0.188" stroke-width="2.96" stroke-linecap="round" />
<path d="M 477.02 264.49 A 151.05 151.05 0 0 1 501.80 412.05" fill="none" stroke="#b489f5" stroke-opacity="0.530" stroke-width="4.70" stroke-linecap="round" />
<path d="M 257.07 457.35 A 141.67 141.67 0 0 1 219.52 378.32" fill="none" stroke="#93f04c" stroke-opacity="0.212" stroke-width="3.58" stroke-linecap="round" />
<path d="M 112.32 295.71 A 255.89 255.89 0 0 1 225.22 142.49" fill="none" stroke="#93f04c" stroke-opacity="0.185" stroke-width="5.33" stroke-linecap="round" />
</g>
<text x="360" y="684" text-anchor="middle" font-family="ui-monospace, SFMono-Regular, Menlo, Monaco, Consolas, 'Liberation Mono', 'Courier New', monospace" font-size="18" fill="#b489f5" fill-opacity="0.55">20260314T1023Z</text>
</svg>
