<?xml version="1.0" encoding="UTF-8"?>
<svg xmlns="http://www.w3.org/2000/svg" width="720" height="720" viewBox="0 0 720 720" role="img" aria-label="UTC Glyph 20260329T1623Z">
<rect width="100%" height="100%" fill="#161c0d" />
<g>
<circle cx="360" cy="360" r="300" fill="none" stroke="#e789f5" stroke-opacity="0.22" stroke-width="2" />
<circle cx="360" cy="360" r="134" fill="none" stroke="#4cf051" stroke-opacity="0.35" stroke-width="4" />
<circle cx="360" cy="360" r="157.71" fill="none" stroke="#e789f5" stroke-opacity="0.534" stroke-width="4.96" />
<circle cx="360" cy="360" r="181.43" fill="none" stroke="#e789f5" stroke-opacity="0.336" stroke-width="4.29" />
<circle cx="360" cy="360" r="205.14" fill="none" stroke="#e789f5" stroke-opacity="0.400" stroke-width="3.23" />
<circle cx="360" cy="360" r="228.86" fill="none" stroke="#e789f5" stroke-opacity="0.322" stroke-width="2.80" />
<circle cx="360" cy="360" r="252.57" fill="none" stroke="#e789f5" stroke-opacity="0.498" stroke-width="4.86" />
<circle cx="360" cy="360" r="276.29" fill="none" stroke="#e789f5" stroke-opacity="0.526" stroke-width="3.76" />
<line x1="658.08" y1="356.38" x2="502.30" y2="358.27" stroke="#e789f5" stroke-opacity="0.747" stroke-width="3.25" stroke-linecap="round" />
<line x1="635.90" y1="438.24" x2="511.58" y2="402.98" stroke="#4cf051" stroke-opacity="0.334" stroke-width="2.01" stroke-linecap="round" />
<line x1="624.36" y1="500.86" x2="493.89" y2="431.34" stroke="#e789f5" stroke-opacity="0.609" stroke-width="3.49" stroke-linecap="round" />
<line x1="571.51" y1="561.32" x2="473.26" y2="467.80" stroke="#e789f5" stroke-opacity="0.647" stroke-width="2.19" stroke-linecap="round" />
<line x1="515.58" y1="595.23" x2="446.91" y2="491.40" stroke="#e789f5" stroke-opacity="0.290" stroke-width="3.72" stroke-linecap="round" />
<line x1="451.86" y1="643.65" x2="403.57" y2="494.54" stroke="#4cf051" stroke-opacity="0.281" stroke-width="1.81" stroke-linecap="round" />
<line x1="372.38" y1="654.26" x2="365.95" y2="501.38" stroke="#e789f5" stroke-opacity="0.387" stroke-width="1.99" stroke-linecap="round" />
<line x1="300.67" y1="649.11" x2="327.78" y2="516.99" stroke="#e789f5" stroke-opacity="0.762" stroke-width="1.09" stroke-linecap="round" />
<line x1="228.54" y1="628.94" x2="296.63" y2="489.65" stroke="#e789f5" stroke-opacity="0.730" stroke-width="3.49" stroke-linecap="round" />
<line x1="182.49" y1="583.94" x2="267.78" y2="476.35" stroke="#e789f5" stroke-opacity="0.257" stroke-width="2.02" stroke-linecap="round" />
<line x1="128.57" y1="524.53" x2="230.85" y2="451.82" stroke="#e789f5" stroke-opacity="0.724" stroke-width="3.37" stroke-linecap="round" />
<line x1="93.30" y1="467.62" x2="213.18" y2="419.25" stroke="#4cf051" stroke-opacity="0.586" stroke-width="1.55" stroke-linecap="round" />
<line x1="79.55" y1="399.70" x2="210.64" y2="381.14" stroke="#e789f5" stroke-opacity="0.432" stroke-width="3.70" stroke-linecap="round" />
<line x1="73.97" y1="319.12" x2="200.74" y2="337.24" stroke="#4cf051" stroke-opacity="0.663" stroke-width="3.48" stroke-linecap="round" />
<line x1="87.53" y1="248.75" x2="217.53" y2="301.83" stroke="#4cf051" stroke-opacity="0.785" stroke-width="2.74" stroke-linecap="round" />
<line x1="126.65" y1="193.68" x2="245.87" y2="278.66" stroke="#e789f5" stroke-opacity="0.310" stroke-width="1.36" stroke-linecap="round" />
<line x1="173.10" y1="129.36" x2="266.04" y2="244.05" stroke="#e789f5" stroke-opacity="0.707" stroke-width="1.61" stroke-linecap="round" />
<line x1="240.01" y1="90.23" x2="295.80" y2="215.66" stroke="#4cf051" stroke-opacity="0.332" stroke-width="3.01" stroke-linecap="round" />
<line x1="310.55" y1="71.69" x2="333.45" y2="205.22" stroke="#e789f5" stroke-opacity="0.670" stroke-width="3.98" stroke-linecap="round" />
<line x1="375.85" y1="68.93" x2="367.46" y2="223.03" stroke="#e789f5" stroke-opacity="0.322" stroke-width="3.27" stroke-linecap="round" />
<line x1="454.65" y1="91.65" x2="413.91" y2="207.17" stroke="#e789f5" stroke-opacity="0.524" stroke-width="3.98" stroke-linecap="round" />
<line x1="520.16" y1="117.47" x2="447.64" y2="227.30" stroke="#e789f5" stroke-opacity="0.631" stroke-width="1.68" stroke-linecap="round" />
<line x1="578.53" y1="154.87" x2="465.33" y2="261.13" stroke="#e789f5" stroke-opacity="0.302" stroke-width="1.93" stroke-linecap="round" />
<line x1="612.49" y1="221.02" x2="489.41" y2="288.77" stroke="#4cf051" stroke-opacity="0.701" stroke-width="2.27" stroke-linecap="round" />
<line x1="636.63" y1="291.68" x2="509.09" y2="323.18" stroke="#e789f5" stroke-opacity="0.666" stroke-width="1.77" stroke-linecap="round" />
<path d="M 550.48 295.42 A 201.13 201.13 0 0 1 553.35 415.42" fill="none" stroke="#e789f5" stroke-opacity="0.286" stroke-width="5.15" stroke-linecap="round" />
<path d="M 231.16 400.89 A 135.17 135.17 0 0 1 270.82 258.42" fill="none" stroke="#e789f5" stroke-opacity="0.424" stroke-width="4.35" stroke-linecap="round" />
<path d="M 147.62 294.96 A 222.11 222.11 0 0 1 202.98 202.90" fill="none" stroke="#e789f5" stroke-opacity="0.340" stroke-width="3.12" stroke-linecap="round" />
<path d="M 159.43 383.25 A 201.91 201.91 0 0 1 171.71 287.09" fill="none" stroke="#4cf051" stroke-opacity="0.529" stroke-width="4.80" stroke-linecap="round" />
<path d="M 212.71 556.13 A 245.28 245.28 0 0 1 143.10 474.53" fill="none" stroke="#4cf051" stroke-opacity="0.482" stroke-width="2.76" stroke-linecap="round" />
<path d="M 294.98 512.14 A 165.45 165.45 0 0 1 222.83 452.50" fill="none" stroke="#e789f5" stroke-opacity="0.254" stroke-width="6.48" stroke-linecap="round" />
<path d="M 156.13 541.25 A 272.79 272.79 0 0 1 150.17 185.69" fill="none" stroke="#e789f5" stroke-opacity="0.470" stroke-width="2.44" stroke-linecap="round" />
<path d="M 551.84 195.57 A 252.66 252.66 0 0 1 600.52 437.39" fill="none" stroke="#e789f5" stroke-opacity="0.225" stroke-width="5.80" stroke-linecap="round" />
<path d="M 125.93 306.24 A 240.16 240.16 0 0 1 368.52 119.99" fill="none" stroke="#4cf051" stroke-opacity="0.276" stroke-width="2.85" stroke-linecap="round" />
</g>
<text x="360" y="684" text-anchor="middle" font-family="ui-monospace, SFMono-Regular, Menlo, Monaco, Consolas, 'Liberation Mono', 'Courier New', monospace" font-size="18" fill="#e789f5" fill-opacity="0.55">20260329T1623Z</text>
</svg>
