<?xml version="1.0" encoding="UTF-8"?>
<svg xmlns="http://www.w3.org/2000/svg" width="720" height="720" viewBox="0 0 720 720" role="img" aria-label="UTC Glyph 20260327T0423Z">
<rect width="100%" height="100%" fill="#1c110d" />
<g>
<circle cx="360" cy="360" r="300" fill="none" stroke="#89a6f5" stroke-opacity="0.22" stroke-width="2" />
<circle cx="360" cy="360" r="140" fill="none" stroke="#f0e04c" stroke-opacity="0.35" stroke-width="4" />
<circle cx="360" cy="360" r="172.00" fill="none" stroke="#89a6f5" stroke-opacity="0.477" stroke-width="2.09" />
<circle cx="360" cy="360" r="204.00" fill="none" stroke="#89a6f5" stroke-opacity="0.297" stroke-width="2.46" />
<circle cx="360" cy="360" r="236.00" fill="none" stroke="#89a6f5" stroke-opacity="0.541" stroke-width="4.48" />
<circle cx="360" cy="360" r="268.00" fill="none" stroke="#89a6f5" stroke-opacity="0.344" stroke-width="3.38" />
<line x1="647.47" y1="358.53" x2="515.37" y2="359.21" stroke="#f0e04c" stroke-opacity="0.796" stroke-width="3.97" stroke-linecap="round" />
<line x1="641.42" y1="439.35" x2="508.65" y2="401.91" stroke="#89a6f5" stroke-opacity="0.589" stroke-width="1.02" stroke-linecap="round" />
<line x1="606.43" y1="509.25" x2="492.34" y2="440.15" stroke="#89a6f5" stroke-opacity="0.752" stroke-width="1.20" stroke-linecap="round" />
<line x1="555.61" y1="586.34" x2="462.98" y2="479.16" stroke="#89a6f5" stroke-opacity="0.712" stroke-width="3.72" stroke-linecap="round" />
<line x1="480.85" y1="624.86" x2="426.68" y2="506.15" stroke="#89a6f5" stroke-opacity="0.481" stroke-width="3.44" stroke-linecap="round" />
<line x1="392.79" y1="643.62" x2="378.54" y2="520.37" stroke="#89a6f5" stroke-opacity="0.447" stroke-width="1.25" stroke-linecap="round" />
<line x1="327.11" y1="649.21" x2="341.14" y2="525.84" stroke="#89a6f5" stroke-opacity="0.757" stroke-width="1.37" stroke-linecap="round" />
<line x1="247.30" y1="620.06" x2="294.17" y2="511.90" stroke="#89a6f5" stroke-opacity="0.593" stroke-width="3.27" stroke-linecap="round" />
<line x1="167.55" y1="579.98" x2="260.39" y2="473.86" stroke="#89a6f5" stroke-opacity="0.310" stroke-width="3.63" stroke-linecap="round" />
<line x1="121.48" y1="522.84" x2="241.58" y2="440.84" stroke="#89a6f5" stroke-opacity="0.327" stroke-width="1.31" stroke-linecap="round" />
<line x1="80.84" y1="442.00" x2="215.14" y2="402.55" stroke="#f0e04c" stroke-opacity="0.463" stroke-width="1.91" stroke-linecap="round" />
<line x1="69.46" y1="363.98" x2="197.78" y2="362.22" stroke="#89a6f5" stroke-opacity="0.606" stroke-width="3.71" stroke-linecap="round" />
<line x1="85.93" y1="287.33" x2="216.66" y2="321.99" stroke="#89a6f5" stroke-opacity="0.624" stroke-width="2.53" stroke-linecap="round" />
<line x1="103.37" y1="204.67" x2="215.33" y2="272.43" stroke="#89a6f5" stroke-opacity="0.527" stroke-width="2.20" stroke-linecap="round" />
<line x1="160.28" y1="142.52" x2="246.86" y2="236.80" stroke="#f0e04c" stroke-opacity="0.634" stroke-width="1.67" stroke-linecap="round" />
<line x1="240.93" y1="100.87" x2="295.68" y2="220.01" stroke="#f0e04c" stroke-opacity="0.388" stroke-width="3.07" stroke-linecap="round" />
<line x1="319.84" y1="73.35" x2="336.84" y2="194.67" stroke="#89a6f5" stroke-opacity="0.578" stroke-width="2.14" stroke-linecap="round" />
<line x1="398.67" y1="75.42" x2="378.90" y2="220.92" stroke="#f0e04c" stroke-opacity="0.626" stroke-width="2.29" stroke-linecap="round" />
<line x1="489.16" y1="92.52" x2="431.98" y2="210.93" stroke="#f0e04c" stroke-opacity="0.518" stroke-width="2.40" stroke-linecap="round" />
<line x1="548.22" y1="141.36" x2="470.22" y2="231.97" stroke="#89a6f5" stroke-opacity="0.527" stroke-width="1.82" stroke-linecap="round" />
<line x1="600.05" y1="201.49" x2="481.31" y2="279.90" stroke="#89a6f5" stroke-opacity="0.500" stroke-width="1.76" stroke-linecap="round" />
<line x1="636.37" y1="274.65" x2="510.38" y2="313.56" stroke="#89a6f5" stroke-opacity="0.648" stroke-width="1.16" stroke-linecap="round" />
<path d="M 578.71 503.61 A 261.64 261.64 0 0 1 245.22 595.12" fill="none" stroke="#89a6f5" stroke-opacity="0.386" stroke-width="2.54" stroke-linecap="round" />
<path d="M 176.23 227.86 A 226.35 226.35 0 0 1 436.99 147.15" fill="none" stroke="#f0e04c" stroke-opacity="0.317" stroke-width="5.48" stroke-linecap="round" />
<path d="M 211.31 407.66 A 156.14 156.14 0 0 1 217.82 295.47" fill="none" stroke="#f0e04c" stroke-opacity="0.196" stroke-width="6.30" stroke-linecap="round" />
<path d="M 388.85 91.15 A 270.40 270.40 0 0 1 535.68 154.45" fill="none" stroke="#f0e04c" stroke-opacity="0.416" stroke-width="6.63" stroke-linecap="round" />
<path d="M 583.53 504.03 A 265.91 265.91 0 0 1 271.08 610.60" fill="none" stroke="#f0e04c" stroke-opacity="0.331" stroke-width="3.97" stroke-linecap="round" />
<path d="M 504.94 252.49 A 180.46 180.46 0 0 1 535.05 316.15" fill="none" stroke="#f0e04c" stroke-opacity="0.256" stroke-width="2.12" stroke-linecap="round" />
</g>
<text x="360" y="684" text-anchor="middle" font-family="ui-monospace, SFMono-Regular, Menlo, Monaco, Consolas, 'Liberation Mono', 'Courier New', monospace" font-size="18" fill="#89a6f5" fill-opacity="0.55">20260327T0423Z</text>
</svg>
