<?xml version="1.0" encoding="UTF-8"?>
<svg xmlns="http://www.w3.org/2000/svg" width="720" height="720" viewBox="0 0 720 720" role="img" aria-label="UTC Glyph 20260301T2223Z">
<rect width="100%" height="100%" fill="#1a0d1c" />
<g>
<circle cx="360" cy="360" r="300" fill="none" stroke="#89f5b4" stroke-opacity="0.22" stroke-width="2" />
<circle cx="360" cy="360" r="117" fill="none" stroke="#f04c93" stroke-opacity="0.35" stroke-width="4" />
<circle cx="360" cy="360" r="162.75" fill="none" stroke="#89f5b4" stroke-opacity="0.380" stroke-width="2.81" />
<circle cx="360" cy="360" r="208.50" fill="none" stroke="#89f5b4" stroke-opacity="0.553" stroke-width="4.60" />
<circle cx="360" cy="360" r="254.25" fill="none" stroke="#89f5b4" stroke-opacity="0.316" stroke-width="4.69" />
<line x1="655.61" y1="353.14" x2="486.61" y2="357.06" stroke="#89f5b4" stroke-opacity="0.462" stroke-width="2.42" stroke-linecap="round" />
<line x1="639.75" y1="457.14" x2="492.47" y2="406.00" stroke="#89f5b4" stroke-opacity="0.742" stroke-width="2.38" stroke-linecap="round" />
<line x1="591.09" y1="545.28" x2="452.47" y2="434.14" stroke="#89f5b4" stroke-opacity="0.645" stroke-width="2.37" stroke-linecap="round" />
<line x1="508.26" y1="600.78" x2="424.46" y2="464.69" stroke="#89f5b4" stroke-opacity="0.790" stroke-width="1.99" stroke-linecap="round" />
<line x1="430.02" y1="642.61" x2="390.49" y2="483.07" stroke="#f04c93" stroke-opacity="0.658" stroke-width="1.37" stroke-linecap="round" />
<line x1="342.22" y1="645.04" x2="350.96" y2="504.95" stroke="#89f5b4" stroke-opacity="0.618" stroke-width="3.20" stroke-linecap="round" />
<line x1="249.74" y1="624.33" x2="306.86" y2="487.41" stroke="#89f5b4" stroke-opacity="0.316" stroke-width="1.90" stroke-linecap="round" />
<line x1="171.95" y1="575.09" x2="280.36" y2="451.09" stroke="#89f5b4" stroke-opacity="0.597" stroke-width="1.91" stroke-linecap="round" />
<line x1="98.53" y1="492.63" x2="239.40" y2="421.17" stroke="#89f5b4" stroke-opacity="0.575" stroke-width="2.77" stroke-linecap="round" />
<line x1="81.98" y1="414.05" x2="220.50" y2="387.12" stroke="#89f5b4" stroke-opacity="0.354" stroke-width="1.17" stroke-linecap="round" />
<line x1="68.12" y1="304.24" x2="225.73" y2="334.35" stroke="#f04c93" stroke-opacity="0.433" stroke-width="1.77" stroke-linecap="round" />
<line x1="110.40" y1="215.75" x2="242.41" y2="292.04" stroke="#89f5b4" stroke-opacity="0.689" stroke-width="3.09" stroke-linecap="round" />
<line x1="164.03" y1="155.22" x2="266.74" y2="262.55" stroke="#89f5b4" stroke-opacity="0.307" stroke-width="1.86" stroke-linecap="round" />
<line x1="248.62" y1="87.06" x2="310.01" y2="237.50" stroke="#89f5b4" stroke-opacity="0.705" stroke-width="3.88" stroke-linecap="round" />
<line x1="334.29" y1="63.58" x2="348.78" y2="230.65" stroke="#89f5b4" stroke-opacity="0.322" stroke-width="2.18" stroke-linecap="round" />
<line x1="429.55" y1="84.35" x2="392.42" y2="231.50" stroke="#f04c93" stroke-opacity="0.604" stroke-width="1.45" stroke-linecap="round" />
<line x1="526.18" y1="117.00" x2="442.24" y2="239.74" stroke="#89f5b4" stroke-opacity="0.502" stroke-width="2.00" stroke-linecap="round" />
<line x1="590.65" y1="175.88" x2="453.05" y2="285.72" stroke="#f04c93" stroke-opacity="0.546" stroke-width="1.49" stroke-linecap="round" />
<line x1="637.99" y1="260.21" x2="495.13" y2="311.49" stroke="#89f5b4" stroke-opacity="0.437" stroke-width="3.84" stroke-linecap="round" />
<path d="M 561.40 169.86 A 276.98 276.98 0 0 1 616.79 256.20" fill="none" stroke="#89f5b4" stroke-opacity="0.425" stroke-width="3.67" stroke-linecap="round" />
<path d="M 474.92 290.74 A 134.17 134.17 0 0 1 492.44 381.49" fill="none" stroke="#89f5b4" stroke-opacity="0.312" stroke-width="3.01" stroke-linecap="round" />
<path d="M 415.62 78.35 A 287.09 287.09 0 0 1 646.10 383.77" fill="none" stroke="#f04c93" stroke-opacity="0.256" stroke-width="4.42" stroke-linecap="round" />
<path d="M 473.38 513.35 A 190.72 190.72 0 0 1 260.30 522.58" fill="none" stroke="#89f5b4" stroke-opacity="0.308" stroke-width="4.34" stroke-linecap="round" />
<path d="M 131.36 300.09 A 236.36 236.36 0 0 1 286.56 135.34" fill="none" stroke="#f04c93" stroke-opacity="0.322" stroke-width="5.66" stroke-linecap="round" />
<path d="M 525.14 513.28 A 225.31 225.31 0 0 1 466.81 558.39" fill="none" stroke="#89f5b4" stroke-opacity="0.343" stroke-width="2.57" stroke-linecap="round" />
<path d="M 201.57 268.51 A 182.95 182.95 0 0 1 382.36 178.42" fill="none" stroke="#f04c93" stroke-opacity="0.228" stroke-width="5.26" stroke-linecap="round" />
</g>
<text x="360" y="684" text-anchor="middle" font-family="ui-monospace, SFMono-Regular, Menlo, Monaco, Consolas, 'Liberation Mono', 'Courier New', monospace" font-size="18" fill="#89f5b4" fill-opacity="0.55">20260301T2223Z</text>
</svg>
