<?xml version="1.0" encoding="UTF-8"?>
<svg xmlns="http://www.w3.org/2000/svg" width="720" height="720" viewBox="0 0 720 720" role="img" aria-label="UTC Glyph 20260304T1023Z">
<rect width="100%" height="100%" fill="#0d1b1c" />
<g>
<circle cx="360" cy="360" r="300" fill="none" stroke="#f5c689" stroke-opacity="0.22" stroke-width="2" />
<circle cx="360" cy="360" r="173" fill="none" stroke="#4c78f0" stroke-opacity="0.35" stroke-width="4" />
<circle cx="360" cy="360" r="198.40" fill="none" stroke="#f5c689" stroke-opacity="0.371" stroke-width="4.53" />
<circle cx="360" cy="360" r="223.80" fill="none" stroke="#f5c689" stroke-opacity="0.442" stroke-width="3.16" />
<circle cx="360" cy="360" r="249.20" fill="none" stroke="#f5c689" stroke-opacity="0.349" stroke-width="4.63" />
<circle cx="360" cy="360" r="274.60" fill="none" stroke="#f5c689" stroke-opacity="0.394" stroke-width="3.31" />
<line x1="655.99" y1="357.81" x2="536.63" y2="358.69" stroke="#f5c689" stroke-opacity="0.520" stroke-width="2.49" stroke-linecap="round" />
<line x1="646.14" y1="421.29" x2="546.47" y2="399.94" stroke="#f5c689" stroke-opacity="0.582" stroke-width="3.96" stroke-linecap="round" />
<line x1="631.22" y1="480.00" x2="526.69" y2="433.75" stroke="#f5c689" stroke-opacity="0.798" stroke-width="1.64" stroke-linecap="round" />
<line x1="611.34" y1="523.27" x2="508.52" y2="456.48" stroke="#f5c689" stroke-opacity="0.423" stroke-width="3.75" stroke-linecap="round" />
<line x1="571.62" y1="560.32" x2="505.95" y2="498.16" stroke="#f5c689" stroke-opacity="0.455" stroke-width="2.36" stroke-linecap="round" />
<line x1="519.52" y1="604.91" x2="466.18" y2="523.01" stroke="#f5c689" stroke-opacity="0.491" stroke-width="2.26" stroke-linecap="round" />
<line x1="473.78" y1="627.66" x2="432.05" y2="529.50" stroke="#f5c689" stroke-opacity="0.551" stroke-width="3.13" stroke-linecap="round" />
<line x1="422.24" y1="650.62" x2="401.38" y2="553.20" stroke="#4c78f0" stroke-opacity="0.429" stroke-width="1.27" stroke-linecap="round" />
<line x1="362.80" y1="650.92" x2="361.86" y2="552.83" stroke="#f5c689" stroke-opacity="0.442" stroke-width="1.28" stroke-linecap="round" />
<line x1="296.67" y1="646.05" x2="320.38" y2="538.94" stroke="#f5c689" stroke-opacity="0.761" stroke-width="2.82" stroke-linecap="round" />
<line x1="250.55" y1="638.83" x2="293.70" y2="528.91" stroke="#4c78f0" stroke-opacity="0.440" stroke-width="1.20" stroke-linecap="round" />
<line x1="199.10" y1="592.36" x2="259.83" y2="504.66" stroke="#f5c689" stroke-opacity="0.448" stroke-width="3.80" stroke-linecap="round" />
<line x1="156.15" y1="557.99" x2="222.92" y2="493.14" stroke="#f5c689" stroke-opacity="0.502" stroke-width="2.30" stroke-linecap="round" />
<line x1="126.54" y1="524.88" x2="210.82" y2="465.36" stroke="#4c78f0" stroke-opacity="0.762" stroke-width="3.91" stroke-linecap="round" />
<line x1="84.56" y1="474.28" x2="194.61" y2="428.62" stroke="#4c78f0" stroke-opacity="0.482" stroke-width="1.24" stroke-linecap="round" />
<line x1="74.07" y1="409.92" x2="172.01" y2="392.82" stroke="#4c78f0" stroke-opacity="0.291" stroke-width="2.25" stroke-linecap="round" />
<line x1="71.60" y1="364.49" x2="164.01" y2="363.05" stroke="#4c78f0" stroke-opacity="0.660" stroke-width="1.61" stroke-linecap="round" />
<line x1="78.53" y1="299.30" x2="166.38" y2="318.24" stroke="#f5c689" stroke-opacity="0.481" stroke-width="2.67" stroke-linecap="round" />
<line x1="99.56" y1="243.94" x2="186.59" y2="282.72" stroke="#4c78f0" stroke-opacity="0.412" stroke-width="2.49" stroke-linecap="round" />
<line x1="111.64" y1="203.56" x2="205.50" y2="262.68" stroke="#f5c689" stroke-opacity="0.608" stroke-width="3.09" stroke-linecap="round" />
<line x1="149.99" y1="152.70" x2="234.62" y2="236.24" stroke="#f5c689" stroke-opacity="0.610" stroke-width="1.27" stroke-linecap="round" />
<line x1="195.01" y1="111.61" x2="252.30" y2="197.86" stroke="#f5c689" stroke-opacity="0.452" stroke-width="1.39" stroke-linecap="round" />
<line x1="238.40" y1="88.33" x2="280.07" y2="181.42" stroke="#f5c689" stroke-opacity="0.708" stroke-width="3.05" stroke-linecap="round" />
<line x1="298.54" y1="81.95" x2="320.14" y2="179.66" stroke="#f5c689" stroke-opacity="0.755" stroke-width="1.68" stroke-linecap="round" />
<line x1="360.94" y1="71.14" x2="360.60" y2="176.91" stroke="#f5c689" stroke-opacity="0.759" stroke-width="1.31" stroke-linecap="round" />
<line x1="410.01" y1="74.84" x2="392.11" y2="176.88" stroke="#f5c689" stroke-opacity="0.662" stroke-width="3.23" stroke-linecap="round" />
<line x1="474.75" y1="87.11" x2="434.61" y2="182.56" stroke="#f5c689" stroke-opacity="0.457" stroke-width="3.74" stroke-linecap="round" />
<line x1="519.40" y1="119.15" x2="456.46" y2="214.25" stroke="#f5c689" stroke-opacity="0.406" stroke-width="2.80" stroke-linecap="round" />
<line x1="569.96" y1="150.35" x2="501.37" y2="218.84" stroke="#f5c689" stroke-opacity="0.785" stroke-width="2.92" stroke-linecap="round" />
<line x1="599.97" y1="208.17" x2="520.22" y2="258.63" stroke="#f5c689" stroke-opacity="0.603" stroke-width="2.34" stroke-linecap="round" />
<line x1="633.15" y1="245.28" x2="528.63" y2="289.18" stroke="#f5c689" stroke-opacity="0.460" stroke-width="1.93" stroke-linecap="round" />
<line x1="635.98" y1="298.97" x2="539.62" y2="320.28" stroke="#f5c689" stroke-opacity="0.794" stroke-width="2.91" stroke-linecap="round" />
<path d="M 555.47 203.69 A 250.28 250.28 0 0 1 605.83 406.97" fill="none" stroke="#f5c689" stroke-opacity="0.206" stroke-width="5.72" stroke-linecap="round" />
<path d="M 239.89 204.16 A 196.76 196.76 0 0 1 455.48 187.96" fill="none" stroke="#4c78f0" stroke-opacity="0.417" stroke-width="4.43" stroke-linecap="round" />
<path d="M 369.20 579.65 A 219.84 219.84 0 0 1 207.20 518.05" fill="none" stroke="#f5c689" stroke-opacity="0.291" stroke-width="6.82" stroke-linecap="round" />
<path d="M 107.56 430.58 A 262.12 262.12 0 0 1 134.27 226.76" fill="none" stroke="#f5c689" stroke-opacity="0.375" stroke-width="2.46" stroke-linecap="round" />
<path d="M 192.05 512.67 A 226.97 226.97 0 0 1 148.89 276.63" fill="none" stroke="#4c78f0" stroke-opacity="0.255" stroke-width="7.12" stroke-linecap="round" />
<path d="M 179.68 188.66 A 248.74 248.74 0 0 1 288.44 121.77" fill="none" stroke="#4c78f0" stroke-opacity="0.238" stroke-width="2.29" stroke-linecap="round" />
<path d="M 571.64 470.21 A 238.62 238.62 0 0 1 434.42 586.71" fill="none" stroke="#f5c689" stroke-opacity="0.207" stroke-width="3.00" stroke-linecap="round" />
<path d="M 168.68 572.88 A 286.22 286.22 0 0 1 106.98 493.82" fill="none" stroke="#f5c689" stroke-opacity="0.366" stroke-width="5.49" stroke-linecap="round" />
<path d="M 502.61 604.90 A 283.39 283.39 0 0 1 280.42 631.99" fill="none" stroke="#f5c689" stroke-opacity="0.268" stroke-width="5.76" stroke-linecap="round" />
</g>
<text x="360" y="684" text-anchor="middle" font-family="ui-monospace, SFMono-Regular, Menlo, Monaco, Consolas, 'Liberation Mono', 'Courier New', monospace" font-size="18" fill="#f5c689" fill-opacity="0.55">20260304T1023Z</text>
</svg>
