<?xml version="1.0" encoding="UTF-8"?>
<svg xmlns="http://www.w3.org/2000/svg" width="720" height="720" viewBox="0 0 720 720" role="img" aria-label="UTC Glyph 20260323T2223Z">
<rect width="100%" height="100%" fill="#0d161c" />
<g>
<circle cx="360" cy="360" r="300" fill="none" stroke="#f5ec89" stroke-opacity="0.22" stroke-width="2" />
<circle cx="360" cy="360" r="115" fill="none" stroke="#594cf0" stroke-opacity="0.35" stroke-width="4" />
<circle cx="360" cy="360" r="141.43" fill="none" stroke="#f5ec89" stroke-opacity="0.512" stroke-width="2.06" />
<circle cx="360" cy="360" r="167.86" fill="none" stroke="#f5ec89" stroke-opacity="0.319" stroke-width="4.12" />
<circle cx="360" cy="360" r="194.29" fill="none" stroke="#f5ec89" stroke-opacity="0.375" stroke-width="3.27" />
<circle cx="360" cy="360" r="220.71" fill="none" stroke="#f5ec89" stroke-opacity="0.407" stroke-width="3.25" />
<circle cx="360" cy="360" r="247.14" fill="none" stroke="#f5ec89" stroke-opacity="0.348" stroke-width="4.36" />
<circle cx="360" cy="360" r="273.57" fill="none" stroke="#f5ec89" stroke-opacity="0.557" stroke-width="4.87" />
<line x1="644.43" y1="367.61" x2="476.21" y2="363.11" stroke="#f5ec89" stroke-opacity="0.777" stroke-width="2.87" stroke-linecap="round" />
<line x1="638.46" y1="426.50" x2="491.86" y2="391.49" stroke="#594cf0" stroke-opacity="0.600" stroke-width="1.12" stroke-linecap="round" />
<line x1="618.65" y1="505.45" x2="462.78" y2="417.80" stroke="#f5ec89" stroke-opacity="0.583" stroke-width="2.17" stroke-linecap="round" />
<line x1="561.39" y1="566.01" x2="449.35" y2="451.40" stroke="#f5ec89" stroke-opacity="0.358" stroke-width="1.73" stroke-linecap="round" />
<line x1="507.17" y1="615.13" x2="430.97" y2="483.04" stroke="#f5ec89" stroke-opacity="0.773" stroke-width="1.44" stroke-linecap="round" />
<line x1="432.31" y1="642.74" x2="393.42" y2="490.66" stroke="#594cf0" stroke-opacity="0.716" stroke-width="2.78" stroke-linecap="round" />
<line x1="364.75" y1="655.94" x2="362.11" y2="491.60" stroke="#594cf0" stroke-opacity="0.651" stroke-width="3.06" stroke-linecap="round" />
<line x1="284.19" y1="631.90" x2="327.51" y2="476.54" stroke="#f5ec89" stroke-opacity="0.697" stroke-width="1.69" stroke-linecap="round" />
<line x1="206.19" y1="614.54" x2="286.29" y2="481.98" stroke="#f5ec89" stroke-opacity="0.384" stroke-width="3.12" stroke-linecap="round" />
<line x1="159.19" y1="565.90" x2="275.72" y2="446.42" stroke="#594cf0" stroke-opacity="0.270" stroke-width="2.20" stroke-linecap="round" />
<line x1="111.44" y1="494.34" x2="253.04" y2="417.81" stroke="#f5ec89" stroke-opacity="0.642" stroke-width="1.49" stroke-linecap="round" />
<line x1="83.95" y1="435.09" x2="224.76" y2="396.78" stroke="#594cf0" stroke-opacity="0.727" stroke-width="1.37" stroke-linecap="round" />
<line x1="68.01" y1="360.80" x2="236.17" y2="360.34" stroke="#f5ec89" stroke-opacity="0.352" stroke-width="2.09" stroke-linecap="round" />
<line x1="84.50" y1="289.82" x2="227.03" y2="326.13" stroke="#594cf0" stroke-opacity="0.612" stroke-width="3.97" stroke-linecap="round" />
<line x1="105.07" y1="203.41" x2="261.37" y2="299.41" stroke="#f5ec89" stroke-opacity="0.526" stroke-width="1.77" stroke-linecap="round" />
<line x1="149.67" y1="148.97" x2="274.16" y2="273.88" stroke="#f5ec89" stroke-opacity="0.428" stroke-width="1.01" stroke-linecap="round" />
<line x1="204.24" y1="104.48" x2="299.08" y2="260.07" stroke="#f5ec89" stroke-opacity="0.506" stroke-width="3.10" stroke-linecap="round" />
<line x1="288.22" y1="79.61" x2="328.00" y2="235.00" stroke="#f5ec89" stroke-opacity="0.735" stroke-width="3.27" stroke-linecap="round" />
<line x1="351.97" y1="65.45" x2="356.08" y2="216.15" stroke="#f5ec89" stroke-opacity="0.408" stroke-width="2.48" stroke-linecap="round" />
<line x1="425.96" y1="83.88" x2="391.97" y2="226.15" stroke="#594cf0" stroke-opacity="0.363" stroke-width="2.07" stroke-linecap="round" />
<line x1="504.61" y1="102.21" x2="421.50" y2="250.37" stroke="#594cf0" stroke-opacity="0.632" stroke-width="2.93" stroke-linecap="round" />
<line x1="558.43" y1="158.18" x2="453.06" y2="265.35" stroke="#f5ec89" stroke-opacity="0.510" stroke-width="1.99" stroke-linecap="round" />
<line x1="616.32" y1="211.55" x2="466.44" y2="298.35" stroke="#594cf0" stroke-opacity="0.399" stroke-width="1.31" stroke-linecap="round" />
<line x1="633.93" y1="291.75" x2="473.68" y2="331.68" stroke="#f5ec89" stroke-opacity="0.432" stroke-width="2.33" stroke-linecap="round" />
<path d="M 126.10 419.78 A 241.42 241.42 0 0 1 206.81 173.41" fill="none" stroke="#594cf0" stroke-opacity="0.472" stroke-width="5.68" stroke-linecap="round" />
<path d="M 507.26 478.77 A 189.19 189.19 0 0 1 327.08 546.30" fill="none" stroke="#f5ec89" stroke-opacity="0.396" stroke-width="4.04" stroke-linecap="round" />
<path d="M 424.10 102.13 A 265.72 265.72 0 0 1 556.75 181.41" fill="none" stroke="#594cf0" stroke-opacity="0.204" stroke-width="3.31" stroke-linecap="round" />
<path d="M 554.19 544.05 A 267.56 267.56 0 0 1 451.48 611.43" fill="none" stroke="#f5ec89" stroke-opacity="0.341" stroke-width="7.91" stroke-linecap="round" />
<path d="M 221.98 340.45 A 139.40 139.40 0 0 1 299.72 234.31" fill="none" stroke="#f5ec89" stroke-opacity="0.504" stroke-width="7.06" stroke-linecap="round" />
<path d="M 458.51 434.76 A 123.66 123.66 0 0 1 327.97 479.44" fill="none" stroke="#594cf0" stroke-opacity="0.418" stroke-width="3.08" stroke-linecap="round" />
<path d="M 502.55 239.13 A 186.89 186.89 0 0 1 529.74 438.20" fill="none" stroke="#594cf0" stroke-opacity="0.208" stroke-width="6.36" stroke-linecap="round" />
<path d="M 504.96 350.09 A 145.30 145.30 0 0 1 415.25 494.39" fill="none" stroke="#594cf0" stroke-opacity="0.216" stroke-width="7.96" stroke-linecap="round" />
<path d="M 102.90 369.17 A 257.27 257.27 0 0 1 258.48 123.61" fill="none" stroke="#594cf0" stroke-opacity="0.224" stroke-width="2.52" stroke-linecap="round" />
</g>
<text x="360" y="684" text-anchor="middle" font-family="ui-monospace, SFMono-Regular, Menlo, Monaco, Consolas, 'Liberation Mono', 'Courier New', monospace" font-size="18" fill="#f5ec89" fill-opacity="0.55">20260323T2223Z</text>
</svg>
