<?xml version="1.0" encoding="UTF-8"?>
<svg xmlns="http://www.w3.org/2000/svg" width="720" height="720" viewBox="0 0 720 720" role="img" aria-label="UTC Glyph 20260311T0423Z">
<rect width="100%" height="100%" fill="#1c170d" />
<g>
<circle cx="360" cy="360" r="300" fill="none" stroke="#a189f5" stroke-opacity="0.22" stroke-width="2" />
<circle cx="360" cy="360" r="183" fill="none" stroke="#b1f04c" stroke-opacity="0.35" stroke-width="4" />
<circle cx="360" cy="360" r="206.40" fill="none" stroke="#a189f5" stroke-opacity="0.510" stroke-width="4.48" />
<circle cx="360" cy="360" r="229.80" fill="none" stroke="#a189f5" stroke-opacity="0.487" stroke-width="3.77" />
<circle cx="360" cy="360" r="253.20" fill="none" stroke="#a189f5" stroke-opacity="0.369" stroke-width="4.14" />
<circle cx="360" cy="360" r="276.60" fill="none" stroke="#a189f5" stroke-opacity="0.442" stroke-width="4.60" />
<line x1="658.33" y1="365.67" x2="558.13" y2="363.76" stroke="#a189f5" stroke-opacity="0.407" stroke-width="2.56" stroke-linecap="round" />
<line x1="635.32" y1="429.18" x2="540.36" y2="405.32" stroke="#a189f5" stroke-opacity="0.336" stroke-width="3.02" stroke-linecap="round" />
<line x1="616.45" y1="497.72" x2="529.91" y2="451.24" stroke="#a189f5" stroke-opacity="0.758" stroke-width="1.69" stroke-linecap="round" />
<line x1="582.67" y1="547.62" x2="503.32" y2="480.75" stroke="#a189f5" stroke-opacity="0.796" stroke-width="3.58" stroke-linecap="round" />
<line x1="534.69" y1="602.16" x2="469.56" y2="511.88" stroke="#b1f04c" stroke-opacity="0.798" stroke-width="1.93" stroke-linecap="round" />
<line x1="471.53" y1="620.85" x2="439.21" y2="545.26" stroke="#a189f5" stroke-opacity="0.491" stroke-width="1.43" stroke-linecap="round" />
<line x1="415.67" y1="642.63" x2="396.28" y2="544.22" stroke="#a189f5" stroke-opacity="0.514" stroke-width="3.07" stroke-linecap="round" />
<line x1="345.79" y1="650.63" x2="349.78" y2="568.98" stroke="#a189f5" stroke-opacity="0.744" stroke-width="2.32" stroke-linecap="round" />
<line x1="273.97" y1="639.15" x2="299.02" y2="557.88" stroke="#a189f5" stroke-opacity="0.621" stroke-width="4.00" stroke-linecap="round" />
<line x1="206.58" y1="615.31" x2="264.44" y2="519.02" stroke="#a189f5" stroke-opacity="0.351" stroke-width="1.34" stroke-linecap="round" />
<line x1="163.10" y1="573.47" x2="222.07" y2="509.53" stroke="#a189f5" stroke-opacity="0.341" stroke-width="1.22" stroke-linecap="round" />
<line x1="114.11" y1="526.38" x2="204.71" y2="465.08" stroke="#b1f04c" stroke-opacity="0.631" stroke-width="2.84" stroke-linecap="round" />
<line x1="87.49" y1="457.53" x2="161.03" y2="431.21" stroke="#a189f5" stroke-opacity="0.269" stroke-width="1.94" stroke-linecap="round" />
<line x1="61.86" y1="390.01" x2="162.38" y2="379.89" stroke="#b1f04c" stroke-opacity="0.333" stroke-width="2.65" stroke-linecap="round" />
<line x1="73.70" y1="322.05" x2="149.51" y2="332.10" stroke="#b1f04c" stroke-opacity="0.587" stroke-width="3.93" stroke-linecap="round" />
<line x1="89.64" y1="258.62" x2="175.08" y2="290.66" stroke="#b1f04c" stroke-opacity="0.530" stroke-width="2.35" stroke-linecap="round" />
<line x1="121.67" y1="206.65" x2="183.34" y2="246.34" stroke="#a189f5" stroke-opacity="0.742" stroke-width="3.65" stroke-linecap="round" />
<line x1="167.28" y1="145.23" x2="220.71" y2="204.78" stroke="#a189f5" stroke-opacity="0.466" stroke-width="3.60" stroke-linecap="round" />
<line x1="219.68" y1="108.98" x2="257.38" y2="176.41" stroke="#a189f5" stroke-opacity="0.699" stroke-width="2.96" stroke-linecap="round" />
<line x1="280.75" y1="84.90" x2="306.65" y2="174.80" stroke="#a189f5" stroke-opacity="0.363" stroke-width="1.97" stroke-linecap="round" />
<line x1="335.50" y1="74.91" x2="341.88" y2="149.10" stroke="#a189f5" stroke-opacity="0.263" stroke-width="3.64" stroke-linecap="round" />
<line x1="412.50" y1="67.96" x2="396.07" y2="159.34" stroke="#a189f5" stroke-opacity="0.546" stroke-width="3.25" stroke-linecap="round" />
<line x1="477.26" y1="95.77" x2="440.96" y2="177.56" stroke="#a189f5" stroke-opacity="0.618" stroke-width="3.58" stroke-linecap="round" />
<line x1="527.93" y1="132.69" x2="469.73" y2="211.46" stroke="#a189f5" stroke-opacity="0.784" stroke-width="1.79" stroke-linecap="round" />
<line x1="572.44" y1="171.05" x2="511.22" y2="225.50" stroke="#a189f5" stroke-opacity="0.677" stroke-width="1.64" stroke-linecap="round" />
<line x1="618.00" y1="238.53" x2="535.76" y2="277.25" stroke="#b1f04c" stroke-opacity="0.757" stroke-width="1.07" stroke-linecap="round" />
<line x1="638.01" y1="292.07" x2="541.77" y2="315.59" stroke="#a189f5" stroke-opacity="0.766" stroke-width="2.67" stroke-linecap="round" />
<path d="M 236.67 514.47 A 197.67 197.67 0 0 1 186.76 455.20" fill="none" stroke="#b1f04c" stroke-opacity="0.252" stroke-width="7.91" stroke-linecap="round" />
<path d="M 299.21 544.19 A 193.96 193.96 0 0 1 212.37 485.80" fill="none" stroke="#a189f5" stroke-opacity="0.297" stroke-width="7.27" stroke-linecap="round" />
<path d="M 572.87 336.14 A 214.20 214.20 0 0 1 557.11 443.83" fill="none" stroke="#b1f04c" stroke-opacity="0.510" stroke-width="2.47" stroke-linecap="round" />
<path d="M 486.59 525.99 A 208.75 208.75 0 0 1 346.92 568.34" fill="none" stroke="#b1f04c" stroke-opacity="0.330" stroke-width="5.58" stroke-linecap="round" />
<path d="M 512.57 105.55 A 296.69 296.69 0 0 1 591.68 174.67" fill="none" stroke="#b1f04c" stroke-opacity="0.244" stroke-width="3.82" stroke-linecap="round" />
<path d="M 115.52 357.14 A 244.49 244.49 0 0 1 152.26 231.08" fill="none" stroke="#b1f04c" stroke-opacity="0.416" stroke-width="2.26" stroke-linecap="round" />
<path d="M 555.42 458.85 A 219.00 219.00 0 0 1 491.45 535.16" fill="none" stroke="#a189f5" stroke-opacity="0.463" stroke-width="4.70" stroke-linecap="round" />
<path d="M 153.61 343.67 A 207.04 207.04 0 0 1 309.10 159.32" fill="none" stroke="#b1f04c" stroke-opacity="0.502" stroke-width="3.54" stroke-linecap="round" />
</g>
<text x="360" y="684" text-anchor="middle" font-family="ui-monospace, SFMono-Regular, Menlo, Monaco, Consolas, 'Liberation Mono', 'Courier New', monospace" font-size="18" fill="#a189f5" fill-opacity="0.55">20260311T0423Z</text>
</svg>
