<?xml version="1.0" encoding="UTF-8"?>
<svg xmlns="http://www.w3.org/2000/svg" width="720" height="720" viewBox="0 0 720 720" role="img" aria-label="UTC Glyph 20260325T0423Z">
<rect width="100%" height="100%" fill="#0e1c0d" />
<g>
<circle cx="360" cy="360" r="300" fill="none" stroke="#f589c3" stroke-opacity="0.22" stroke-width="2" />
<circle cx="360" cy="360" r="169" fill="none" stroke="#4cf0b4" stroke-opacity="0.35" stroke-width="4" />
<circle cx="360" cy="360" r="201.75" fill="none" stroke="#f589c3" stroke-opacity="0.418" stroke-width="4.24" />
<circle cx="360" cy="360" r="234.50" fill="none" stroke="#f589c3" stroke-opacity="0.385" stroke-width="2.01" />
<circle cx="360" cy="360" r="267.25" fill="none" stroke="#f589c3" stroke-opacity="0.385" stroke-width="4.14" />
<line x1="654.58" y1="359.92" x2="543.76" y2="359.95" stroke="#f589c3" stroke-opacity="0.271" stroke-width="2.41" stroke-linecap="round" />
<line x1="639.81" y1="412.65" x2="553.90" y2="396.49" stroke="#f589c3" stroke-opacity="0.465" stroke-width="2.52" stroke-linecap="round" />
<line x1="638.74" y1="463.56" x2="522.74" y2="420.46" stroke="#4cf0b4" stroke-opacity="0.478" stroke-width="2.37" stroke-linecap="round" />
<line x1="607.09" y1="499.39" x2="522.01" y2="451.39" stroke="#4cf0b4" stroke-opacity="0.573" stroke-width="1.14" stroke-linecap="round" />
<line x1="593.59" y1="538.77" x2="500.07" y2="467.19" stroke="#f589c3" stroke-opacity="0.719" stroke-width="3.61" stroke-linecap="round" />
<line x1="560.72" y1="574.08" x2="487.20" y2="495.67" stroke="#4cf0b4" stroke-opacity="0.719" stroke-width="1.44" stroke-linecap="round" />
<line x1="521.75" y1="597.34" x2="464.20" y2="512.90" stroke="#4cf0b4" stroke-opacity="0.282" stroke-width="1.73" stroke-linecap="round" />
<line x1="473.84" y1="626.05" x2="435.15" y2="535.65" stroke="#f589c3" stroke-opacity="0.544" stroke-width="3.99" stroke-linecap="round" />
<line x1="433.02" y1="648.43" x2="405.25" y2="538.71" stroke="#f589c3" stroke-opacity="0.342" stroke-width="1.34" stroke-linecap="round" />
<line x1="385.54" y1="641.64" x2="376.11" y2="537.66" stroke="#f589c3" stroke-opacity="0.727" stroke-width="2.90" stroke-linecap="round" />
<line x1="341.66" y1="650.35" x2="347.55" y2="557.09" stroke="#f589c3" stroke-opacity="0.800" stroke-width="3.75" stroke-linecap="round" />
<line x1="282.09" y1="642.95" x2="314.31" y2="525.95" stroke="#f589c3" stroke-opacity="0.330" stroke-width="1.08" stroke-linecap="round" />
<line x1="246.44" y1="622.68" x2="285.59" y2="532.12" stroke="#f589c3" stroke-opacity="0.665" stroke-width="1.56" stroke-linecap="round" />
<line x1="206.00" y1="610.58" x2="261.55" y2="520.19" stroke="#f589c3" stroke-opacity="0.688" stroke-width="2.06" stroke-linecap="round" />
<line x1="162.97" y1="564.52" x2="242.13" y2="482.35" stroke="#4cf0b4" stroke-opacity="0.279" stroke-width="1.91" stroke-linecap="round" />
<line x1="134.02" y1="530.54" x2="216.12" y2="468.59" stroke="#f589c3" stroke-opacity="0.589" stroke-width="1.46" stroke-linecap="round" />
<line x1="101.37" y1="498.52" x2="210.67" y2="439.98" stroke="#f589c3" stroke-opacity="0.351" stroke-width="3.42" stroke-linecap="round" />
<line x1="84.95" y1="449.23" x2="197.92" y2="412.58" stroke="#f589c3" stroke-opacity="0.621" stroke-width="1.41" stroke-linecap="round" />
<line x1="78.61" y1="401.34" x2="189.81" y2="385.00" stroke="#f589c3" stroke-opacity="0.303" stroke-width="1.32" stroke-linecap="round" />
<line x1="67.49" y1="356.43" x2="183.01" y2="357.84" stroke="#f589c3" stroke-opacity="0.629" stroke-width="3.13" stroke-linecap="round" />
<line x1="66.63" y1="309.33" x2="173.90" y2="327.86" stroke="#4cf0b4" stroke-opacity="0.673" stroke-width="3.93" stroke-linecap="round" />
<line x1="85.04" y1="269.61" x2="184.97" y2="302.46" stroke="#f589c3" stroke-opacity="0.609" stroke-width="3.36" stroke-linecap="round" />
<line x1="107.49" y1="223.19" x2="188.84" y2="267.27" stroke="#4cf0b4" stroke-opacity="0.523" stroke-width="2.48" stroke-linecap="round" />
<line x1="135.59" y1="185.12" x2="213.05" y2="245.49" stroke="#f589c3" stroke-opacity="0.622" stroke-width="3.46" stroke-linecap="round" />
<line x1="162.93" y1="148.00" x2="237.86" y2="228.61" stroke="#4cf0b4" stroke-opacity="0.725" stroke-width="1.44" stroke-linecap="round" />
<line x1="203.43" y1="121.10" x2="264.96" y2="214.98" stroke="#f589c3" stroke-opacity="0.498" stroke-width="1.06" stroke-linecap="round" />
<line x1="238.84" y1="101.10" x2="277.43" y2="183.55" stroke="#f589c3" stroke-opacity="0.540" stroke-width="3.08" stroke-linecap="round" />
<line x1="285.44" y1="73.24" x2="312.66" y2="177.90" stroke="#f589c3" stroke-opacity="0.380" stroke-width="1.98" stroke-linecap="round" />
<line x1="338.71" y1="76.75" x2="346.46" y2="179.93" stroke="#4cf0b4" stroke-opacity="0.486" stroke-width="2.44" stroke-linecap="round" />
<line x1="390.22" y1="75.20" x2="380.41" y2="167.64" stroke="#f589c3" stroke-opacity="0.695" stroke-width="3.38" stroke-linecap="round" />
<line x1="437.21" y1="82.79" x2="412.00" y2="173.30" stroke="#f589c3" stroke-opacity="0.256" stroke-width="2.99" stroke-linecap="round" />
<line x1="474.72" y1="95.05" x2="436.03" y2="184.42" stroke="#f589c3" stroke-opacity="0.461" stroke-width="3.66" stroke-linecap="round" />
<line x1="510.86" y1="116.68" x2="460.39" y2="198.08" stroke="#f589c3" stroke-opacity="0.678" stroke-width="3.56" stroke-linecap="round" />
<line x1="567.07" y1="144.77" x2="490.27" y2="224.60" stroke="#f589c3" stroke-opacity="0.305" stroke-width="1.51" stroke-linecap="round" />
<line x1="593.56" y1="189.10" x2="506.51" y2="252.79" stroke="#f589c3" stroke-opacity="0.650" stroke-width="2.71" stroke-linecap="round" />
<line x1="611.83" y1="223.43" x2="520.51" y2="272.95" stroke="#f589c3" stroke-opacity="0.352" stroke-width="3.88" stroke-linecap="round" />
<line x1="642.53" y1="267.08" x2="531.73" y2="303.52" stroke="#f589c3" stroke-opacity="0.300" stroke-width="3.00" stroke-linecap="round" />
<line x1="640.51" y1="319.25" x2="534.67" y2="334.62" stroke="#f589c3" stroke-opacity="0.397" stroke-width="1.62" stroke-linecap="round" />
<path d="M 208.50 136.17 A 270.28 270.28 0 0 1 565.94 184.96" fill="none" stroke="#4cf0b4" stroke-opacity="0.290" stroke-width="2.22" stroke-linecap="round" />
<path d="M 272.62 209.68 A 173.87 173.87 0 0 1 343.74 186.89" fill="none" stroke="#f589c3" stroke-opacity="0.356" stroke-width="5.16" stroke-linecap="round" />
<path d="M 526.83 258.67 A 195.19 195.19 0 0 1 490.57 505.09" fill="none" stroke="#4cf0b4" stroke-opacity="0.373" stroke-width="7.00" stroke-linecap="round" />
<path d="M 504.07 222.13 A 199.41 199.41 0 0 1 552.14 413.35" fill="none" stroke="#f589c3" stroke-opacity="0.357" stroke-width="3.64" stroke-linecap="round" />
<path d="M 314.39 89.61 A 274.21 274.21 0 0 1 441.45 98.16" fill="none" stroke="#4cf0b4" stroke-opacity="0.468" stroke-width="4.01" stroke-linecap="round" />
<path d="M 543.35 586.42 A 291.35 291.35 0 0 1 161.04 572.84" fill="none" stroke="#4cf0b4" stroke-opacity="0.357" stroke-width="4.30" stroke-linecap="round" />
<path d="M 279.26 164.51 A 211.51 211.51 0 0 1 410.72 154.66" fill="none" stroke="#f589c3" stroke-opacity="0.457" stroke-width="7.22" stroke-linecap="round" />
<path d="M 210.60 613.45 A 294.21 294.21 0 0 1 72.04 420.29" fill="none" stroke="#4cf0b4" stroke-opacity="0.320" stroke-width="7.16" stroke-linecap="round" />
</g>
<text x="360" y="684" text-anchor="middle" font-family="ui-monospace, SFMono-Regular, Menlo, Monaco, Consolas, 'Liberation Mono', 'Courier New', monospace" font-size="18" fill="#f589c3" fill-opacity="0.55">20260325T0423Z</text>
</svg>
