<?xml version="1.0" encoding="UTF-8"?>
<svg xmlns="http://www.w3.org/2000/svg" width="720" height="720" viewBox="0 0 720 720" role="img" aria-label="UTC Glyph 20260301T1023Z">
<rect width="100%" height="100%" fill="#0d1b1c" />
<g>
<circle cx="360" cy="360" r="300" fill="none" stroke="#f5c589" stroke-opacity="0.22" stroke-width="2" />
<circle cx="360" cy="360" r="116" fill="none" stroke="#4c7af0" stroke-opacity="0.35" stroke-width="4" />
<circle cx="360" cy="360" r="146.67" fill="none" stroke="#f5c589" stroke-opacity="0.319" stroke-width="4.88" />
<circle cx="360" cy="360" r="177.33" fill="none" stroke="#f5c589" stroke-opacity="0.411" stroke-width="3.30" />
<circle cx="360" cy="360" r="208.00" fill="none" stroke="#f5c589" stroke-opacity="0.404" stroke-width="4.60" />
<circle cx="360" cy="360" r="238.67" fill="none" stroke="#f5c589" stroke-opacity="0.539" stroke-width="2.16" />
<circle cx="360" cy="360" r="269.33" fill="none" stroke="#f5c589" stroke-opacity="0.400" stroke-width="4.97" />
<line x1="648.61" y1="352.85" x2="500.32" y2="356.52" stroke="#f5c589" stroke-opacity="0.614" stroke-width="3.72" stroke-linecap="round" />
<line x1="650.52" y1="414.94" x2="499.87" y2="386.45" stroke="#4c7af0" stroke-opacity="0.758" stroke-width="1.89" stroke-linecap="round" />
<line x1="630.13" y1="489.41" x2="465.20" y2="410.40" stroke="#f5c589" stroke-opacity="0.713" stroke-width="3.83" stroke-linecap="round" />
<line x1="591.69" y1="545.44" x2="469.02" y2="447.26" stroke="#f5c589" stroke-opacity="0.378" stroke-width="3.55" stroke-linecap="round" />
<line x1="548.68" y1="582.96" x2="448.28" y2="464.33" stroke="#f5c589" stroke-opacity="0.791" stroke-width="1.26" stroke-linecap="round" />
<line x1="504.20" y1="615.13" x2="423.07" y2="471.58" stroke="#4c7af0" stroke-opacity="0.282" stroke-width="2.46" stroke-linecap="round" />
<line x1="445.64" y1="638.18" x2="401.20" y2="493.82" stroke="#f5c589" stroke-opacity="0.596" stroke-width="1.22" stroke-linecap="round" />
<line x1="380.78" y1="647.00" x2="369.66" y2="493.43" stroke="#f5c589" stroke-opacity="0.482" stroke-width="3.71" stroke-linecap="round" />
<line x1="309.16" y1="643.43" x2="339.08" y2="476.62" stroke="#4c7af0" stroke-opacity="0.770" stroke-width="1.48" stroke-linecap="round" />
<line x1="251.62" y1="630.44" x2="307.09" y2="492.04" stroke="#4c7af0" stroke-opacity="0.397" stroke-width="2.36" stroke-linecap="round" />
<line x1="196.73" y1="605.72" x2="290.41" y2="464.73" stroke="#f5c589" stroke-opacity="0.268" stroke-width="3.54" stroke-linecap="round" />
<line x1="154.48" y1="553.88" x2="272.54" y2="442.51" stroke="#f5c589" stroke-opacity="0.416" stroke-width="2.09" stroke-linecap="round" />
<line x1="105.61" y1="515.43" x2="242.95" y2="431.51" stroke="#f5c589" stroke-opacity="0.541" stroke-width="3.90" stroke-linecap="round" />
<line x1="94.10" y1="455.72" x2="242.94" y2="402.14" stroke="#f5c589" stroke-opacity="0.652" stroke-width="3.39" stroke-linecap="round" />
<line x1="73.45" y1="388.55" x2="221.49" y2="373.80" stroke="#4c7af0" stroke-opacity="0.564" stroke-width="1.32" stroke-linecap="round" />
<line x1="66.62" y1="336.20" x2="237.71" y2="350.08" stroke="#f5c589" stroke-opacity="0.774" stroke-width="3.80" stroke-linecap="round" />
<line x1="80.27" y1="273.00" x2="223.82" y2="317.64" stroke="#f5c589" stroke-opacity="0.497" stroke-width="2.51" stroke-linecap="round" />
<line x1="112.97" y1="212.64" x2="247.41" y2="292.84" stroke="#f5c589" stroke-opacity="0.765" stroke-width="1.64" stroke-linecap="round" />
<line x1="143.44" y1="161.05" x2="254.74" y2="263.30" stroke="#f5c589" stroke-opacity="0.507" stroke-width="1.91" stroke-linecap="round" />
<line x1="199.20" y1="127.43" x2="277.56" y2="240.76" stroke="#4c7af0" stroke-opacity="0.426" stroke-width="2.94" stroke-linecap="round" />
<line x1="259.80" y1="87.31" x2="309.70" y2="223.10" stroke="#f5c589" stroke-opacity="0.789" stroke-width="3.23" stroke-linecap="round" />
<line x1="310.53" y1="75.20" x2="335.53" y2="219.14" stroke="#4c7af0" stroke-opacity="0.748" stroke-width="2.62" stroke-linecap="round" />
<line x1="368.64" y1="64.85" x2="363.56" y2="238.36" stroke="#f5c589" stroke-opacity="0.424" stroke-width="3.72" stroke-linecap="round" />
<line x1="435.78" y1="84.56" x2="394.64" y2="234.09" stroke="#f5c589" stroke-opacity="0.573" stroke-width="1.43" stroke-linecap="round" />
<line x1="492.23" y1="98.38" x2="422.93" y2="235.51" stroke="#4c7af0" stroke-opacity="0.262" stroke-width="4.00" stroke-linecap="round" />
<line x1="555.38" y1="134.69" x2="450.15" y2="256.05" stroke="#4c7af0" stroke-opacity="0.603" stroke-width="2.23" stroke-linecap="round" />
<line x1="588.08" y1="192.70" x2="460.11" y2="286.57" stroke="#4c7af0" stroke-opacity="0.670" stroke-width="2.42" stroke-linecap="round" />
<line x1="630.94" y1="236.36" x2="478.72" y2="305.83" stroke="#f5c589" stroke-opacity="0.607" stroke-width="3.48" stroke-linecap="round" />
<line x1="639.67" y1="294.01" x2="493.99" y2="328.38" stroke="#f5c589" stroke-opacity="0.471" stroke-width="2.61" stroke-linecap="round" />
<path d="M 309.96 505.75 A 154.10 154.10 0 0 1 223.49 431.51" fill="none" stroke="#4c7af0" stroke-opacity="0.478" stroke-width="4.08" stroke-linecap="round" />
<path d="M 402.13 515.90 A 161.49 161.49 0 0 1 212.53 425.82" fill="none" stroke="#f5c589" stroke-opacity="0.360" stroke-width="3.50" stroke-linecap="round" />
<path d="M 465.49 580.62 A 244.55 244.55 0 0 1 214.86 556.82" fill="none" stroke="#4c7af0" stroke-opacity="0.359" stroke-width="7.70" stroke-linecap="round" />
<path d="M 394.43 543.26 A 186.47 186.47 0 0 1 291.20 533.32" fill="none" stroke="#f5c589" stroke-opacity="0.511" stroke-width="6.25" stroke-linecap="round" />
<path d="M 210.60 316.16 A 155.70 155.70 0 0 1 359.01 204.31" fill="none" stroke="#f5c589" stroke-opacity="0.266" stroke-width="3.68" stroke-linecap="round" />
<path d="M 92.80 381.29 A 268.05 268.05 0 0 1 317.16 95.40" fill="none" stroke="#4c7af0" stroke-opacity="0.203" stroke-width="4.67" stroke-linecap="round" />
<path d="M 340.17 534.82 A 175.94 175.94 0 0 1 246.54 494.47" fill="none" stroke="#4c7af0" stroke-opacity="0.402" stroke-width="3.38" stroke-linecap="round" />
<path d="M 234.24 397.44 A 131.22 131.22 0 0 1 229.06 351.49" fill="none" stroke="#4c7af0" stroke-opacity="0.358" stroke-width="7.75" stroke-linecap="round" />
<path d="M 567.08 292.87 A 217.69 217.69 0 0 1 575.52 390.68" fill="none" stroke="#4c7af0" stroke-opacity="0.220" stroke-width="2.07" stroke-linecap="round" />
<path d="M 101.58 257.10 A 278.15 278.15 0 0 1 438.87 93.27" fill="none" stroke="#4c7af0" stroke-opacity="0.288" stroke-width="6.40" stroke-linecap="round" />
<path d="M 516.45 519.91 A 223.71 223.71 0 0 1 365.38 583.64" fill="none" stroke="#4c7af0" stroke-opacity="0.286" stroke-width="6.32" stroke-linecap="round" />
<path d="M 295.74 201.72 A 170.83 170.83 0 0 1 426.16 202.50" fill="none" stroke="#f5c589" stroke-opacity="0.184" stroke-width="3.28" stroke-linecap="round" />
</g>
<text x="360" y="684" text-anchor="middle" font-family="ui-monospace, SFMono-Regular, Menlo, Monaco, Consolas, 'Liberation Mono', 'Courier New', monospace" font-size="18" fill="#f5c589" fill-opacity="0.55">20260301T1023Z</text>
</svg>
