<?xml version="1.0" encoding="UTF-8"?>
<svg xmlns="http://www.w3.org/2000/svg" width="720" height="720" viewBox="0 0 720 720" role="img" aria-label="UTC Glyph 20260309T2223Z">
<rect width="100%" height="100%" fill="#0d131c" />
<g>
<circle cx="360" cy="360" r="300" fill="none" stroke="#e9f589" stroke-opacity="0.22" stroke-width="2" />
<circle cx="360" cy="360" r="114" fill="none" stroke="#7a4cf0" stroke-opacity="0.35" stroke-width="4" />
<circle cx="360" cy="360" r="160.50" fill="none" stroke="#e9f589" stroke-opacity="0.310" stroke-width="3.93" />
<circle cx="360" cy="360" r="207.00" fill="none" stroke="#e9f589" stroke-opacity="0.315" stroke-width="3.34" />
<circle cx="360" cy="360" r="253.50" fill="none" stroke="#e9f589" stroke-opacity="0.387" stroke-width="3.88" />
<line x1="654.55" y1="354.71" x2="493.86" y2="357.60" stroke="#7a4cf0" stroke-opacity="0.264" stroke-width="3.57" stroke-linecap="round" />
<line x1="650.99" y1="408.82" x2="494.79" y2="382.61" stroke="#e9f589" stroke-opacity="0.354" stroke-width="2.84" stroke-linecap="round" />
<line x1="630.34" y1="448.44" x2="496.17" y2="404.55" stroke="#e9f589" stroke-opacity="0.329" stroke-width="1.67" stroke-linecap="round" />
<line x1="616.09" y1="503.52" x2="475.71" y2="424.85" stroke="#e9f589" stroke-opacity="0.368" stroke-width="3.63" stroke-linecap="round" />
<line x1="590.86" y1="543.85" x2="458.75" y2="438.64" stroke="#e9f589" stroke-opacity="0.479" stroke-width="1.34" stroke-linecap="round" />
<line x1="560.87" y1="580.31" x2="445.55" y2="453.83" stroke="#e9f589" stroke-opacity="0.322" stroke-width="2.53" stroke-linecap="round" />
<line x1="516.27" y1="594.77" x2="424.67" y2="457.16" stroke="#e9f589" stroke-opacity="0.483" stroke-width="1.30" stroke-linecap="round" />
<line x1="479.77" y1="629.41" x2="416.86" y2="487.91" stroke="#e9f589" stroke-opacity="0.623" stroke-width="3.88" stroke-linecap="round" />
<line x1="430.83" y1="650.83" x2="390.29" y2="484.35" stroke="#e9f589" stroke-opacity="0.311" stroke-width="1.16" stroke-linecap="round" />
<line x1="381.22" y1="650.94" x2="369.52" y2="490.55" stroke="#e9f589" stroke-opacity="0.351" stroke-width="1.86" stroke-linecap="round" />
<line x1="329.27" y1="640.47" x2="346.67" y2="481.62" stroke="#e9f589" stroke-opacity="0.717" stroke-width="3.58" stroke-linecap="round" />
<line x1="288.29" y1="646.65" x2="331.24" y2="474.96" stroke="#e9f589" stroke-opacity="0.307" stroke-width="1.18" stroke-linecap="round" />
<line x1="246.78" y1="625.25" x2="304.16" y2="490.82" stroke="#e9f589" stroke-opacity="0.706" stroke-width="3.58" stroke-linecap="round" />
<line x1="197.10" y1="606.00" x2="285.64" y2="472.29" stroke="#e9f589" stroke-opacity="0.630" stroke-width="2.20" stroke-linecap="round" />
<line x1="161.38" y1="571.49" x2="262.06" y2="464.29" stroke="#e9f589" stroke-opacity="0.256" stroke-width="3.69" stroke-linecap="round" />
<line x1="122.18" y1="542.24" x2="258.57" y2="437.73" stroke="#7a4cf0" stroke-opacity="0.468" stroke-width="3.11" stroke-linecap="round" />
<line x1="108.48" y1="488.67" x2="237.34" y2="422.75" stroke="#7a4cf0" stroke-opacity="0.274" stroke-width="1.12" stroke-linecap="round" />
<line x1="77.21" y1="452.19" x2="242.14" y2="398.43" stroke="#7a4cf0" stroke-opacity="0.286" stroke-width="1.68" stroke-linecap="round" />
<line x1="69.33" y1="405.52" x2="222.40" y2="381.55" stroke="#e9f589" stroke-opacity="0.686" stroke-width="2.04" stroke-linecap="round" />
<line x1="71.65" y1="363.18" x2="233.11" y2="361.40" stroke="#e9f589" stroke-opacity="0.376" stroke-width="3.42" stroke-linecap="round" />
<line x1="72.88" y1="314.41" x2="232.84" y2="339.81" stroke="#e9f589" stroke-opacity="0.397" stroke-width="1.72" stroke-linecap="round" />
<line x1="89.45" y1="268.87" x2="231.64" y2="316.76" stroke="#e9f589" stroke-opacity="0.787" stroke-width="2.25" stroke-linecap="round" />
<line x1="108.22" y1="216.82" x2="259.23" y2="302.70" stroke="#7a4cf0" stroke-opacity="0.721" stroke-width="2.09" stroke-linecap="round" />
<line x1="128.09" y1="173.73" x2="250.95" y2="272.41" stroke="#e9f589" stroke-opacity="0.458" stroke-width="3.97" stroke-linecap="round" />
<line x1="164.05" y1="136.64" x2="268.13" y2="255.28" stroke="#e9f589" stroke-opacity="0.435" stroke-width="2.84" stroke-linecap="round" />
<line x1="203.09" y1="104.84" x2="298.20" y2="259.51" stroke="#e9f589" stroke-opacity="0.310" stroke-width="2.74" stroke-linecap="round" />
<line x1="245.60" y1="99.91" x2="305.67" y2="236.47" stroke="#e9f589" stroke-opacity="0.679" stroke-width="2.14" stroke-linecap="round" />
<line x1="291.19" y1="72.80" x2="328.67" y2="229.25" stroke="#e9f589" stroke-opacity="0.612" stroke-width="2.89" stroke-linecap="round" />
<line x1="341.31" y1="72.39" x2="351.06" y2="222.44" stroke="#e9f589" stroke-opacity="0.707" stroke-width="1.54" stroke-linecap="round" />
<line x1="389.58" y1="62.50" x2="371.45" y2="244.89" stroke="#e9f589" stroke-opacity="0.483" stroke-width="1.98" stroke-linecap="round" />
<line x1="432.22" y1="86.52" x2="389.23" y2="249.32" stroke="#e9f589" stroke-opacity="0.520" stroke-width="3.97" stroke-linecap="round" />
<line x1="470.37" y1="92.44" x2="411.90" y2="234.19" stroke="#e9f589" stroke-opacity="0.546" stroke-width="2.67" stroke-linecap="round" />
<line x1="517.76" y1="123.29" x2="436.14" y2="245.76" stroke="#e9f589" stroke-opacity="0.523" stroke-width="3.81" stroke-linecap="round" />
<line x1="562.23" y1="147.76" x2="441.31" y2="274.67" stroke="#e9f589" stroke-opacity="0.400" stroke-width="3.83" stroke-linecap="round" />
<line x1="592.54" y1="180.34" x2="458.84" y2="283.63" stroke="#e9f589" stroke-opacity="0.732" stroke-width="2.50" stroke-linecap="round" />
<line x1="620.93" y1="224.60" x2="471.07" y2="302.37" stroke="#e9f589" stroke-opacity="0.668" stroke-width="3.79" stroke-linecap="round" />
<line x1="645.30" y1="267.51" x2="483.48" y2="319.97" stroke="#7a4cf0" stroke-opacity="0.773" stroke-width="3.82" stroke-linecap="round" />
<line x1="649.45" y1="304.10" x2="491.15" y2="334.67" stroke="#e9f589" stroke-opacity="0.563" stroke-width="2.82" stroke-linecap="round" />
<path d="M 508.15 276.95 A 169.84 169.84 0 0 1 526.58 393.09" fill="none" stroke="#7a4cf0" stroke-opacity="0.418" stroke-width="4.04" stroke-linecap="round" />
<path d="M 503.23 438.69 A 163.42 163.42 0 0 1 451.53 495.39" fill="none" stroke="#e9f589" stroke-opacity="0.502" stroke-width="4.46" stroke-linecap="round" />
<path d="M 190.06 402.22 A 175.11 175.11 0 0 1 190.16 317.37" fill="none" stroke="#7a4cf0" stroke-opacity="0.475" stroke-width="5.05" stroke-linecap="round" />
<path d="M 237.05 329.51 A 126.68 126.68 0 0 1 277.32 264.02" fill="none" stroke="#e9f589" stroke-opacity="0.514" stroke-width="4.20" stroke-linecap="round" />
<path d="M 129.04 495.94 A 267.99 267.99 0 0 1 102.52 285.67" fill="none" stroke="#7a4cf0" stroke-opacity="0.273" stroke-width="6.61" stroke-linecap="round" />
<path d="M 439.89 495.58 A 157.37 157.37 0 0 1 311.01 509.55" fill="none" stroke="#e9f589" stroke-opacity="0.326" stroke-width="5.45" stroke-linecap="round" />
<path d="M 391.28 492.78 A 136.41 136.41 0 0 1 255.69 447.91" fill="none" stroke="#7a4cf0" stroke-opacity="0.329" stroke-width="5.15" stroke-linecap="round" />
<path d="M 425.28 644.13 A 291.54 291.54 0 0 1 154.46 566.75" fill="none" stroke="#e9f589" stroke-opacity="0.519" stroke-width="6.32" stroke-linecap="round" />
<path d="M 240.40 233.95 A 173.76 173.76 0 0 1 337.47 187.71" fill="none" stroke="#7a4cf0" stroke-opacity="0.513" stroke-width="7.29" stroke-linecap="round" />
</g>
<text x="360" y="684" text-anchor="middle" font-family="ui-monospace, SFMono-Regular, Menlo, Monaco, Consolas, 'Liberation Mono', 'Courier New', monospace" font-size="18" fill="#e9f589" fill-opacity="0.55">20260309T2223Z</text>
</svg>
