<?xml version="1.0" encoding="UTF-8"?>
<svg xmlns="http://www.w3.org/2000/svg" width="720" height="720" viewBox="0 0 720 720" role="img" aria-label="UTC Glyph 20260326T1623Z">
<rect width="100%" height="100%" fill="#0e0d1c" />
<g>
<circle cx="360" cy="360" r="300" fill="none" stroke="#baf589" stroke-opacity="0.22" stroke-width="2" />
<circle cx="360" cy="360" r="169" fill="none" stroke="#c24cf0" stroke-opacity="0.35" stroke-width="4" />
<circle cx="360" cy="360" r="187.71" fill="none" stroke="#baf589" stroke-opacity="0.315" stroke-width="4.99" />
<circle cx="360" cy="360" r="206.43" fill="none" stroke="#baf589" stroke-opacity="0.487" stroke-width="4.04" />
<circle cx="360" cy="360" r="225.14" fill="none" stroke="#baf589" stroke-opacity="0.395" stroke-width="4.94" />
<circle cx="360" cy="360" r="243.86" fill="none" stroke="#baf589" stroke-opacity="0.420" stroke-width="2.55" />
<circle cx="360" cy="360" r="262.57" fill="none" stroke="#baf589" stroke-opacity="0.292" stroke-width="4.56" />
<circle cx="360" cy="360" r="281.29" fill="none" stroke="#baf589" stroke-opacity="0.454" stroke-width="3.58" />
<line x1="654.01" y1="359.62" x2="538.67" y2="359.77" stroke="#baf589" stroke-opacity="0.287" stroke-width="3.13" stroke-linecap="round" />
<line x1="645.31" y1="403.23" x2="546.72" y2="388.29" stroke="#c24cf0" stroke-opacity="0.495" stroke-width="2.17" stroke-linecap="round" />
<line x1="627.73" y1="450.68" x2="527.09" y2="416.59" stroke="#baf589" stroke-opacity="0.715" stroke-width="3.47" stroke-linecap="round" />
<line x1="618.26" y1="497.05" x2="532.47" y2="451.52" stroke="#baf589" stroke-opacity="0.358" stroke-width="1.06" stroke-linecap="round" />
<line x1="590.99" y1="540.77" x2="511.69" y2="478.71" stroke="#baf589" stroke-opacity="0.288" stroke-width="2.97" stroke-linecap="round" />
<line x1="555.61" y1="583.11" x2="479.68" y2="496.51" stroke="#baf589" stroke-opacity="0.457" stroke-width="2.27" stroke-linecap="round" />
<line x1="515.86" y1="611.12" x2="464.50" y2="528.37" stroke="#baf589" stroke-opacity="0.556" stroke-width="3.88" stroke-linecap="round" />
<line x1="467.33" y1="634.22" x2="428.57" y2="535.20" stroke="#baf589" stroke-opacity="0.430" stroke-width="3.75" stroke-linecap="round" />
<line x1="424.12" y1="638.11" x2="402.04" y2="542.34" stroke="#c24cf0" stroke-opacity="0.628" stroke-width="3.25" stroke-linecap="round" />
<line x1="379.69" y1="644.88" x2="371.80" y2="530.72" stroke="#baf589" stroke-opacity="0.489" stroke-width="1.06" stroke-linecap="round" />
<line x1="326.53" y1="650.47" x2="340.55" y2="528.80" stroke="#baf589" stroke-opacity="0.366" stroke-width="3.24" stroke-linecap="round" />
<line x1="282.54" y1="642.83" x2="311.92" y2="535.57" stroke="#baf589" stroke-opacity="0.334" stroke-width="1.69" stroke-linecap="round" />
<line x1="230.31" y1="626.98" x2="283.83" y2="516.81" stroke="#baf589" stroke-opacity="0.689" stroke-width="1.91" stroke-linecap="round" />
<line x1="187.78" y1="597.81" x2="252.82" y2="508.00" stroke="#baf589" stroke-opacity="0.594" stroke-width="1.76" stroke-linecap="round" />
<line x1="157.58" y1="562.08" x2="237.42" y2="482.37" stroke="#c24cf0" stroke-opacity="0.743" stroke-width="1.84" stroke-linecap="round" />
<line x1="124.33" y1="527.11" x2="204.74" y2="470.09" stroke="#baf589" stroke-opacity="0.729" stroke-width="2.57" stroke-linecap="round" />
<line x1="103.27" y1="477.35" x2="186.29" y2="439.41" stroke="#baf589" stroke-opacity="0.633" stroke-width="1.79" stroke-linecap="round" />
<line x1="76.97" y1="428.37" x2="169.66" y2="405.98" stroke="#baf589" stroke-opacity="0.799" stroke-width="1.01" stroke-linecap="round" />
<line x1="60.98" y1="380.40" x2="181.32" y2="372.19" stroke="#baf589" stroke-opacity="0.523" stroke-width="1.31" stroke-linecap="round" />
<line x1="62.52" y1="341.25" x2="163.14" y2="347.59" stroke="#baf589" stroke-opacity="0.612" stroke-width="3.76" stroke-linecap="round" />
<line x1="81.97" y1="281.03" x2="190.17" y2="311.76" stroke="#baf589" stroke-opacity="0.445" stroke-width="3.13" stroke-linecap="round" />
<line x1="88.53" y1="245.20" x2="199.45" y2="292.11" stroke="#c24cf0" stroke-opacity="0.714" stroke-width="2.61" stroke-linecap="round" />
<line x1="125.84" y1="195.42" x2="203.69" y2="250.14" stroke="#baf589" stroke-opacity="0.580" stroke-width="2.47" stroke-linecap="round" />
<line x1="143.39" y1="156.28" x2="217.16" y2="225.66" stroke="#baf589" stroke-opacity="0.417" stroke-width="2.86" stroke-linecap="round" />
<line x1="189.66" y1="122.79" x2="259.03" y2="219.39" stroke="#baf589" stroke-opacity="0.693" stroke-width="2.01" stroke-linecap="round" />
<line x1="229.88" y1="98.31" x2="274.22" y2="187.49" stroke="#baf589" stroke-opacity="0.312" stroke-width="3.32" stroke-linecap="round" />
<line x1="268.19" y1="74.74" x2="301.61" y2="178.55" stroke="#baf589" stroke-opacity="0.294" stroke-width="2.42" stroke-linecap="round" />
<line x1="318.89" y1="78.05" x2="333.48" y2="178.09" stroke="#c24cf0" stroke-opacity="0.291" stroke-width="1.91" stroke-linecap="round" />
<line x1="375.81" y1="67.80" x2="370.56" y2="164.75" stroke="#baf589" stroke-opacity="0.356" stroke-width="2.13" stroke-linecap="round" />
<line x1="427.23" y1="77.53" x2="405.09" y2="170.58" stroke="#baf589" stroke-opacity="0.704" stroke-width="3.31" stroke-linecap="round" />
<line x1="465.01" y1="93.21" x2="423.59" y2="198.45" stroke="#baf589" stroke-opacity="0.567" stroke-width="1.03" stroke-linecap="round" />
<line x1="513.09" y1="108.20" x2="458.27" y2="198.37" stroke="#baf589" stroke-opacity="0.257" stroke-width="3.27" stroke-linecap="round" />
<line x1="546.62" y1="146.66" x2="473.28" y2="230.50" stroke="#c24cf0" stroke-opacity="0.441" stroke-width="3.10" stroke-linecap="round" />
<line x1="581.79" y1="171.18" x2="503.17" y2="238.12" stroke="#baf589" stroke-opacity="0.440" stroke-width="1.12" stroke-linecap="round" />
<line x1="620.92" y1="222.84" x2="527.92" y2="271.72" stroke="#baf589" stroke-opacity="0.286" stroke-width="3.38" stroke-linecap="round" />
<line x1="643.26" y1="261.61" x2="539.10" y2="297.79" stroke="#baf589" stroke-opacity="0.358" stroke-width="1.33" stroke-linecap="round" />
<line x1="652.23" y1="311.77" x2="533.92" y2="331.29" stroke="#baf589" stroke-opacity="0.600" stroke-width="1.32" stroke-linecap="round" />
<path d="M 392.84 85.29 A 276.67 276.67 0 0 1 501.04 121.98" fill="none" stroke="#c24cf0" stroke-opacity="0.511" stroke-width="6.06" stroke-linecap="round" />
<path d="M 140.59 371.28 A 219.70 219.70 0 0 1 241.51 174.99" fill="none" stroke="#baf589" stroke-opacity="0.422" stroke-width="2.64" stroke-linecap="round" />
<path d="M 286.40 201.63 A 174.64 174.64 0 0 1 508.19 267.60" fill="none" stroke="#baf589" stroke-opacity="0.504" stroke-width="7.53" stroke-linecap="round" />
<path d="M 197.24 139.19 A 274.32 274.32 0 0 1 321.76 88.36" fill="none" stroke="#c24cf0" stroke-opacity="0.256" stroke-width="6.80" stroke-linecap="round" />
<path d="M 86.18 442.30 A 285.92 285.92 0 0 1 76.79 320.77" fill="none" stroke="#c24cf0" stroke-opacity="0.296" stroke-width="5.15" stroke-linecap="round" />
<path d="M 132.63 484.30 A 259.13 259.13 0 0 1 144.56 216.01" fill="none" stroke="#c24cf0" stroke-opacity="0.263" stroke-width="3.23" stroke-linecap="round" />
<path d="M 527.76 434.82 A 183.69 183.69 0 0 1 376.48 542.95" fill="none" stroke="#baf589" stroke-opacity="0.503" stroke-width="4.63" stroke-linecap="round" />
<path d="M 200.99 503.13 A 213.93 213.93 0 0 1 171.57 258.71" fill="none" stroke="#c24cf0" stroke-opacity="0.373" stroke-width="7.56" stroke-linecap="round" />
<path d="M 582.38 331.64 A 224.18 224.18 0 0 1 418.14 576.51" fill="none" stroke="#c24cf0" stroke-opacity="0.520" stroke-width="3.38" stroke-linecap="round" />
<path d="M 516.99 163.08 A 251.84 251.84 0 0 1 610.36 332.75" fill="none" stroke="#c24cf0" stroke-opacity="0.360" stroke-width="7.26" stroke-linecap="round" />
<path d="M 591.83 465.62 A 254.76 254.76 0 0 1 531.57 548.33" fill="none" stroke="#c24cf0" stroke-opacity="0.320" stroke-width="3.73" stroke-linecap="round" />
<path d="M 273.92 527.29 A 188.14 188.14 0 0 1 175.13 394.97" fill="none" stroke="#c24cf0" stroke-opacity="0.389" stroke-width="3.57" stroke-linecap="round" />
<path d="M 465.25 154.73 A 230.68 230.68 0 0 1 566.94 258.07" fill="none" stroke="#baf589" stroke-opacity="0.405" stroke-width="6.17" stroke-linecap="round" />
</g>
<text x="360" y="684" text-anchor="middle" font-family="ui-monospace, SFMono-Regular, Menlo, Monaco, Consolas, 'Liberation Mono', 'Courier New', monospace" font-size="18" fill="#baf589" fill-opacity="0.55">20260326T1623Z</text>
</svg>
