<?xml version="1.0" encoding="UTF-8"?>
<svg xmlns="http://www.w3.org/2000/svg" width="720" height="720" viewBox="0 0 720 720" role="img" aria-label="UTC Glyph 20260310T1623Z">
<rect width="100%" height="100%" fill="#1c0d0e" />
<g>
<circle cx="360" cy="360" r="300" fill="none" stroke="#89c6f5" stroke-opacity="0.22" stroke-width="2" />
<circle cx="360" cy="360" r="143" fill="none" stroke="#f0af4c" stroke-opacity="0.35" stroke-width="4" />
<circle cx="360" cy="360" r="169.17" fill="none" stroke="#89c6f5" stroke-opacity="0.392" stroke-width="2.23" />
<circle cx="360" cy="360" r="195.33" fill="none" stroke="#89c6f5" stroke-opacity="0.486" stroke-width="4.44" />
<circle cx="360" cy="360" r="221.50" fill="none" stroke="#89c6f5" stroke-opacity="0.364" stroke-width="2.67" />
<circle cx="360" cy="360" r="247.67" fill="none" stroke="#89c6f5" stroke-opacity="0.409" stroke-width="3.69" />
<circle cx="360" cy="360" r="273.83" fill="none" stroke="#89c6f5" stroke-opacity="0.282" stroke-width="3.72" />
<line x1="651.32" y1="359.93" x2="523.63" y2="359.96" stroke="#f0af4c" stroke-opacity="0.264" stroke-width="2.75" stroke-linecap="round" />
<line x1="651.59" y1="409.42" x2="517.97" y2="386.77" stroke="#89c6f5" stroke-opacity="0.690" stroke-width="2.73" stroke-linecap="round" />
<line x1="627.91" y1="472.27" x2="517.45" y2="425.98" stroke="#f0af4c" stroke-opacity="0.543" stroke-width="3.45" stroke-linecap="round" />
<line x1="615.49" y1="516.58" x2="507.13" y2="450.17" stroke="#f0af4c" stroke-opacity="0.352" stroke-width="2.11" stroke-linecap="round" />
<line x1="585.90" y1="556.37" x2="468.89" y2="454.66" stroke="#f0af4c" stroke-opacity="0.381" stroke-width="1.27" stroke-linecap="round" />
<line x1="533.27" y1="587.84" x2="452.46" y2="481.58" stroke="#89c6f5" stroke-opacity="0.396" stroke-width="3.12" stroke-linecap="round" />
<line x1="481.33" y1="617.63" x2="427.30" y2="502.91" stroke="#f0af4c" stroke-opacity="0.421" stroke-width="2.62" stroke-linecap="round" />
<line x1="436.11" y1="637.54" x2="398.85" y2="501.67" stroke="#f0af4c" stroke-opacity="0.407" stroke-width="2.38" stroke-linecap="round" />
<line x1="379.39" y1="651.52" x2="369.71" y2="506.05" stroke="#89c6f5" stroke-opacity="0.353" stroke-width="1.09" stroke-linecap="round" />
<line x1="338.99" y1="653.90" x2="349.37" y2="508.68" stroke="#89c6f5" stroke-opacity="0.341" stroke-width="2.44" stroke-linecap="round" />
<line x1="280.32" y1="648.64" x2="318.39" y2="510.72" stroke="#89c6f5" stroke-opacity="0.672" stroke-width="2.43" stroke-linecap="round" />
<line x1="235.44" y1="613.49" x2="288.64" y2="505.23" stroke="#89c6f5" stroke-opacity="0.592" stroke-width="3.42" stroke-linecap="round" />
<line x1="187.65" y1="590.94" x2="274.06" y2="475.15" stroke="#89c6f5" stroke-opacity="0.754" stroke-width="1.81" stroke-linecap="round" />
<line x1="143.35" y1="550.26" x2="245.47" y2="460.58" stroke="#89c6f5" stroke-opacity="0.585" stroke-width="1.16" stroke-linecap="round" />
<line x1="120.70" y1="511.57" x2="217.37" y2="450.34" stroke="#89c6f5" stroke-opacity="0.733" stroke-width="1.97" stroke-linecap="round" />
<line x1="81.07" y1="461.01" x2="223.33" y2="409.49" stroke="#89c6f5" stroke-opacity="0.736" stroke-width="1.87" stroke-linecap="round" />
<line x1="67.25" y1="417.22" x2="219.35" y2="387.49" stroke="#89c6f5" stroke-opacity="0.661" stroke-width="2.66" stroke-linecap="round" />
<line x1="68.56" y1="352.95" x2="190.92" y2="355.91" stroke="#89c6f5" stroke-opacity="0.633" stroke-width="3.18" stroke-linecap="round" />
<line x1="66.92" y1="300.56" x2="218.02" y2="331.21" stroke="#89c6f5" stroke-opacity="0.596" stroke-width="1.23" stroke-linecap="round" />
<line x1="83.50" y1="256.60" x2="218.78" y2="307.19" stroke="#f0af4c" stroke-opacity="0.696" stroke-width="1.78" stroke-linecap="round" />
<line x1="122.34" y1="203.06" x2="237.58" y2="279.16" stroke="#89c6f5" stroke-opacity="0.764" stroke-width="2.47" stroke-linecap="round" />
<line x1="146.34" y1="154.87" x2="255.48" y2="259.65" stroke="#89c6f5" stroke-opacity="0.547" stroke-width="1.17" stroke-linecap="round" />
<line x1="179.93" y1="123.27" x2="267.27" y2="238.09" stroke="#89c6f5" stroke-opacity="0.300" stroke-width="2.21" stroke-linecap="round" />
<line x1="235.65" y1="103.60" x2="295.91" y2="227.85" stroke="#f0af4c" stroke-opacity="0.685" stroke-width="2.30" stroke-linecap="round" />
<line x1="277.46" y1="89.52" x2="309.95" y2="195.97" stroke="#89c6f5" stroke-opacity="0.375" stroke-width="3.81" stroke-linecap="round" />
<line x1="332.27" y1="78.95" x2="343.72" y2="195.01" stroke="#89c6f5" stroke-opacity="0.598" stroke-width="2.28" stroke-linecap="round" />
<line x1="389.15" y1="61.61" x2="375.77" y2="198.54" stroke="#89c6f5" stroke-opacity="0.507" stroke-width="1.72" stroke-linecap="round" />
<line x1="436.95" y1="80.26" x2="400.62" y2="212.31" stroke="#f0af4c" stroke-opacity="0.283" stroke-width="1.72" stroke-linecap="round" />
<line x1="496.73" y1="98.83" x2="427.21" y2="231.62" stroke="#f0af4c" stroke-opacity="0.399" stroke-width="2.69" stroke-linecap="round" />
<line x1="538.79" y1="135.64" x2="465.07" y2="228.16" stroke="#f0af4c" stroke-opacity="0.447" stroke-width="1.90" stroke-linecap="round" />
<line x1="576.43" y1="165.66" x2="476.50" y2="255.39" stroke="#89c6f5" stroke-opacity="0.780" stroke-width="2.88" stroke-linecap="round" />
<line x1="610.30" y1="198.30" x2="480.29" y2="282.29" stroke="#89c6f5" stroke-opacity="0.447" stroke-width="3.12" stroke-linecap="round" />
<line x1="634.36" y1="247.72" x2="494.18" y2="305.09" stroke="#89c6f5" stroke-opacity="0.387" stroke-width="3.82" stroke-linecap="round" />
<line x1="650.99" y1="309.37" x2="515.87" y2="332.88" stroke="#89c6f5" stroke-opacity="0.500" stroke-width="1.95" stroke-linecap="round" />
<path d="M 113.31 453.55 A 263.83 263.83 0 0 1 176.69 170.25" fill="none" stroke="#f0af4c" stroke-opacity="0.391" stroke-width="7.01" stroke-linecap="round" />
<path d="M 407.36 220.30 A 147.51 147.51 0 0 1 489.78 289.88" fill="none" stroke="#89c6f5" stroke-opacity="0.230" stroke-width="7.32" stroke-linecap="round" />
<path d="M 493.21 209.90 A 200.69 200.69 0 0 1 558.44 389.99" fill="none" stroke="#f0af4c" stroke-opacity="0.186" stroke-width="2.21" stroke-linecap="round" />
<path d="M 190.12 372.62 A 170.34 170.34 0 0 1 335.21 191.47" fill="none" stroke="#89c6f5" stroke-opacity="0.212" stroke-width="6.27" stroke-linecap="round" />
<path d="M 364.37 521.74 A 161.80 161.80 0 0 1 237.23 465.40" fill="none" stroke="#f0af4c" stroke-opacity="0.521" stroke-width="4.40" stroke-linecap="round" />
<path d="M 549.86 132.37 A 296.42 296.42 0 0 1 640.12 456.95" fill="none" stroke="#f0af4c" stroke-opacity="0.235" stroke-width="5.14" stroke-linecap="round" />
</g>
<text x="360" y="684" text-anchor="middle" font-family="ui-monospace, SFMono-Regular, Menlo, Monaco, Consolas, 'Liberation Mono', 'Courier New', monospace" font-size="18" fill="#89c6f5" fill-opacity="0.55">20260310T1623Z</text>
</svg>
