<?xml version="1.0" encoding="UTF-8"?>
<svg xmlns="http://www.w3.org/2000/svg" width="720" height="720" viewBox="0 0 720 720" role="img" aria-label="UTC Glyph 20260224T1623Z">
<rect width="100%" height="100%" fill="#1c0d18" />
<g>
<circle cx="360" cy="360" r="300" fill="none" stroke="#89f5dc" stroke-opacity="0.22" stroke-width="2" />
<circle cx="360" cy="360" r="148" fill="none" stroke="#f04c57" stroke-opacity="0.35" stroke-width="4" />
<circle cx="360" cy="360" r="178.40" fill="none" stroke="#89f5dc" stroke-opacity="0.450" stroke-width="2.96" />
<circle cx="360" cy="360" r="208.80" fill="none" stroke="#89f5dc" stroke-opacity="0.377" stroke-width="3.20" />
<circle cx="360" cy="360" r="239.20" fill="none" stroke="#89f5dc" stroke-opacity="0.478" stroke-width="2.89" />
<circle cx="360" cy="360" r="269.60" fill="none" stroke="#89f5dc" stroke-opacity="0.466" stroke-width="4.65" />
<line x1="646.54" y1="352.34" x2="517.34" y2="355.80" stroke="#89f5dc" stroke-opacity="0.297" stroke-width="1.48" stroke-linecap="round" />
<line x1="640.79" y1="432.11" x2="513.50" y2="399.42" stroke="#89f5dc" stroke-opacity="0.756" stroke-width="3.02" stroke-linecap="round" />
<line x1="619.10" y1="507.43" x2="494.84" y2="436.73" stroke="#89f5dc" stroke-opacity="0.549" stroke-width="2.48" stroke-linecap="round" />
<line x1="578.97" y1="564.53" x2="480.15" y2="472.23" stroke="#89f5dc" stroke-opacity="0.567" stroke-width="2.19" stroke-linecap="round" />
<line x1="513.54" y1="617.50" x2="438.19" y2="491.13" stroke="#89f5dc" stroke-opacity="0.638" stroke-width="3.90" stroke-linecap="round" />
<line x1="453.38" y1="631.80" x2="413.21" y2="514.88" stroke="#89f5dc" stroke-opacity="0.306" stroke-width="2.16" stroke-linecap="round" />
<line x1="375.47" y1="657.29" x2="367.92" y2="512.13" stroke="#89f5dc" stroke-opacity="0.447" stroke-width="1.83" stroke-linecap="round" />
<line x1="301.62" y1="643.51" x2="329.73" y2="507.01" stroke="#89f5dc" stroke-opacity="0.335" stroke-width="2.50" stroke-linecap="round" />
<line x1="226.72" y1="627.34" x2="285.20" y2="510.04" stroke="#89f5dc" stroke-opacity="0.625" stroke-width="2.42" stroke-linecap="round" />
<line x1="174.69" y1="582.80" x2="256.55" y2="484.38" stroke="#f04c57" stroke-opacity="0.617" stroke-width="2.65" stroke-linecap="round" />
<line x1="125.21" y1="521.01" x2="231.90" y2="447.85" stroke="#f04c57" stroke-opacity="0.539" stroke-width="3.48" stroke-linecap="round" />
<line x1="94.28" y1="456.63" x2="213.91" y2="413.12" stroke="#89f5dc" stroke-opacity="0.326" stroke-width="3.16" stroke-linecap="round" />
<line x1="77.10" y1="391.94" x2="196.32" y2="378.48" stroke="#89f5dc" stroke-opacity="0.782" stroke-width="1.49" stroke-linecap="round" />
<line x1="71.59" y1="323.66" x2="208.93" y2="340.97" stroke="#f04c57" stroke-opacity="0.723" stroke-width="1.35" stroke-linecap="round" />
<line x1="87.75" y1="259.82" x2="208.24" y2="304.16" stroke="#89f5dc" stroke-opacity="0.493" stroke-width="3.02" stroke-linecap="round" />
<line x1="133.28" y1="185.49" x2="219.88" y2="252.15" stroke="#89f5dc" stroke-opacity="0.342" stroke-width="1.55" stroke-linecap="round" />
<line x1="170.81" y1="135.40" x2="264.49" y2="246.62" stroke="#89f5dc" stroke-opacity="0.285" stroke-width="3.88" stroke-linecap="round" />
<line x1="234.35" y1="105.88" x2="285.80" y2="209.94" stroke="#89f5dc" stroke-opacity="0.381" stroke-width="2.06" stroke-linecap="round" />
<line x1="300.71" y1="68.91" x2="330.07" y2="213.05" stroke="#f04c57" stroke-opacity="0.312" stroke-width="3.32" stroke-linecap="round" />
<line x1="386.64" y1="68.39" x2="374.18" y2="204.85" stroke="#89f5dc" stroke-opacity="0.559" stroke-width="1.56" stroke-linecap="round" />
<line x1="454.04" y1="76.47" x2="413.57" y2="198.48" stroke="#89f5dc" stroke-opacity="0.541" stroke-width="2.31" stroke-linecap="round" />
<line x1="522.39" y1="119.81" x2="453.55" y2="221.63" stroke="#89f5dc" stroke-opacity="0.517" stroke-width="2.99" stroke-linecap="round" />
<line x1="570.51" y1="160.16" x2="478.83" y2="247.19" stroke="#f04c57" stroke-opacity="0.798" stroke-width="3.27" stroke-linecap="round" />
<line x1="608.28" y1="219.29" x2="508.59" y2="275.79" stroke="#89f5dc" stroke-opacity="0.421" stroke-width="1.54" stroke-linecap="round" />
<line x1="640.63" y1="288.91" x2="507.21" y2="322.71" stroke="#89f5dc" stroke-opacity="0.316" stroke-width="2.60" stroke-linecap="round" />
<path d="M 231.69 118.06 A 273.85 273.85 0 0 1 326.42 88.21" fill="none" stroke="#f04c57" stroke-opacity="0.314" stroke-width="2.42" stroke-linecap="round" />
<path d="M 611.15 413.72 A 256.83 256.83 0 0 1 499.44 575.68" fill="none" stroke="#89f5dc" stroke-opacity="0.456" stroke-width="3.61" stroke-linecap="round" />
<path d="M 406.28 519.62 A 166.20 166.20 0 0 1 352.20 526.01" fill="none" stroke="#f04c57" stroke-opacity="0.423" stroke-width="3.05" stroke-linecap="round" />
<path d="M 450.51 592.45 A 249.46 249.46 0 0 1 372.04 609.16" fill="none" stroke="#f04c57" stroke-opacity="0.458" stroke-width="5.33" stroke-linecap="round" />
<path d="M 611.01 341.59 A 251.68 251.68 0 0 1 549.79 525.30" fill="none" stroke="#f04c57" stroke-opacity="0.411" stroke-width="5.98" stroke-linecap="round" />
<path d="M 474.15 129.73 A 257.01 257.01 0 0 1 616.65 346.39" fill="none" stroke="#f04c57" stroke-opacity="0.402" stroke-width="4.73" stroke-linecap="round" />
<path d="M 111.45 505.43 A 287.97 287.97 0 0 1 125.43 192.96" fill="none" stroke="#f04c57" stroke-opacity="0.371" stroke-width="7.45" stroke-linecap="round" />
<path d="M 311.01 560.04 A 205.95 205.95 0 0 1 214.83 506.08" fill="none" stroke="#f04c57" stroke-opacity="0.355" stroke-width="3.44" stroke-linecap="round" />
<path d="M 451.76 551.44 A 212.29 212.29 0 0 1 347.20 571.91" fill="none" stroke="#89f5dc" stroke-opacity="0.441" stroke-width="4.48" stroke-linecap="round" />
<path d="M 165.51 182.45 A 263.35 263.35 0 0 1 242.44 124.35" fill="none" stroke="#f04c57" stroke-opacity="0.274" stroke-width="3.11" stroke-linecap="round" />
</g>
<text x="360" y="684" text-anchor="middle" font-family="ui-monospace, SFMono-Regular, Menlo, Monaco, Consolas, 'Liberation Mono', 'Courier New', monospace" font-size="18" fill="#89f5dc" fill-opacity="0.55">20260224T1623Z</text>
</svg>
