<?xml version="1.0" encoding="UTF-8"?>
<svg xmlns="http://www.w3.org/2000/svg" width="720" height="720" viewBox="0 0 720 720" role="img" aria-label="UTC Glyph 2026-02-23T04-23-00Z">
<rect width="100%" height="100%" fill="#1c100d" />
<g>
<circle cx="360" cy="360" r="300" fill="none" stroke="#89aaf5" stroke-opacity="0.22" stroke-width="2" />
<circle cx="360" cy="360" r="134" fill="none" stroke="#f0db4c" stroke-opacity="0.35" stroke-width="4" />
<circle cx="360" cy="360" r="175.50" fill="none" stroke="#89aaf5" stroke-opacity="0.362" stroke-width="2.30" />
<circle cx="360" cy="360" r="217.00" fill="none" stroke="#89aaf5" stroke-opacity="0.488" stroke-width="3.13" />
<circle cx="360" cy="360" r="258.50" fill="none" stroke="#89aaf5" stroke-opacity="0.505" stroke-width="4.68" />
<line x1="649.34" y1="358.35" x2="500.03" y2="359.20" stroke="#89aaf5" stroke-opacity="0.689" stroke-width="3.81" stroke-linecap="round" />
<line x1="643.12" y1="435.41" x2="492.50" y2="395.29" stroke="#89aaf5" stroke-opacity="0.335" stroke-width="3.42" stroke-linecap="round" />
<line x1="608.55" y1="512.60" x2="475.57" y2="430.95" stroke="#89aaf5" stroke-opacity="0.480" stroke-width="2.25" stroke-linecap="round" />
<line x1="555.33" y1="573.39" x2="455.16" y2="463.96" stroke="#f0db4c" stroke-opacity="0.797" stroke-width="1.23" stroke-linecap="round" />
<line x1="486.55" y1="612.88" x2="426.43" y2="492.75" stroke="#89aaf5" stroke-opacity="0.667" stroke-width="1.78" stroke-linecap="round" />
<line x1="427.38" y1="652.21" x2="395.41" y2="513.54" stroke="#89aaf5" stroke-opacity="0.474" stroke-width="3.39" stroke-linecap="round" />
<line x1="335.93" y1="653.41" x2="347.65" y2="510.56" stroke="#89aaf5" stroke-opacity="0.738" stroke-width="1.91" stroke-linecap="round" />
<line x1="263.07" y1="629.97" x2="312.03" y2="493.60" stroke="#89aaf5" stroke-opacity="0.765" stroke-width="1.16" stroke-linecap="round" />
<line x1="192.14" y1="602.30" x2="274.11" y2="483.98" stroke="#89aaf5" stroke-opacity="0.608" stroke-width="2.86" stroke-linecap="round" />
<line x1="132.73" y1="543.68" x2="249.34" y2="449.43" stroke="#89aaf5" stroke-opacity="0.607" stroke-width="3.10" stroke-linecap="round" />
<line x1="90.71" y1="484.01" x2="213.57" y2="427.43" stroke="#89aaf5" stroke-opacity="0.706" stroke-width="3.29" stroke-linecap="round" />
<line x1="66.17" y1="404.70" x2="205.49" y2="383.51" stroke="#f0db4c" stroke-opacity="0.674" stroke-width="1.21" stroke-linecap="round" />
<line x1="68.91" y1="323.74" x2="217.38" y2="342.23" stroke="#f0db4c" stroke-opacity="0.464" stroke-width="2.37" stroke-linecap="round" />
<line x1="98.08" y1="251.02" x2="210.19" y2="297.67" stroke="#f0db4c" stroke-opacity="0.477" stroke-width="1.97" stroke-linecap="round" />
<line x1="140.14" y1="180.92" x2="250.31" y2="270.65" stroke="#89aaf5" stroke-opacity="0.358" stroke-width="3.46" stroke-linecap="round" />
<line x1="191.95" y1="121.19" x2="268.96" y2="230.64" stroke="#89aaf5" stroke-opacity="0.497" stroke-width="2.83" stroke-linecap="round" />
<line x1="262.21" y1="92.02" x2="308.59" y2="219.13" stroke="#89aaf5" stroke-opacity="0.462" stroke-width="2.82" stroke-linecap="round" />
<line x1="333.94" y1="74.67" x2="346.82" y2="215.62" stroke="#89aaf5" stroke-opacity="0.268" stroke-width="1.23" stroke-linecap="round" />
<line x1="422.86" y1="77.11" x2="389.23" y2="228.43" stroke="#89aaf5" stroke-opacity="0.746" stroke-width="1.75" stroke-linecap="round" />
<line x1="496.89" y1="111.33" x2="433.97" y2="225.62" stroke="#89aaf5" stroke-opacity="0.402" stroke-width="3.30" stroke-linecap="round" />
<line x1="555.59" y1="147.80" x2="457.85" y2="253.84" stroke="#f0db4c" stroke-opacity="0.263" stroke-width="2.05" stroke-linecap="round" />
<line x1="615.88" y1="213.86" x2="495.20" y2="282.78" stroke="#89aaf5" stroke-opacity="0.271" stroke-width="3.92" stroke-linecap="round" />
<line x1="635.50" y1="283.57" x2="497.48" y2="321.86" stroke="#89aaf5" stroke-opacity="0.658" stroke-width="1.48" stroke-linecap="round" />
<path d="M 162.17 407.91 A 203.55 203.55 0 0 1 157.71 337.40" fill="none" stroke="#f0db4c" stroke-opacity="0.289" stroke-width="2.40" stroke-linecap="round" />
<path d="M 291.05 645.47 A 293.67 293.67 0 0 1 77.90 441.63" fill="none" stroke="#f0db4c" stroke-opacity="0.378" stroke-width="2.45" stroke-linecap="round" />
<path d="M 181.47 541.43 A 254.53 254.53 0 0 1 131.64 247.57" fill="none" stroke="#f0db4c" stroke-opacity="0.349" stroke-width="5.65" stroke-linecap="round" />
<path d="M 306.46 90.12 A 275.14 275.14 0 0 1 415.60 90.53" fill="none" stroke="#89aaf5" stroke-opacity="0.200" stroke-width="5.39" stroke-linecap="round" />
<path d="M 470.66 527.45 A 200.72 200.72 0 0 1 393.83 557.85" fill="none" stroke="#89aaf5" stroke-opacity="0.409" stroke-width="7.24" stroke-linecap="round" />
<path d="M 207.62 566.37 A 256.53 256.53 0 0 1 106.80 318.81" fill="none" stroke="#f0db4c" stroke-opacity="0.355" stroke-width="5.86" stroke-linecap="round" />
</g>
<text x="360" y="684" text-anchor="middle" font-family="ui-monospace, SFMono-Regular, Menlo, Monaco, Consolas, 'Liberation Mono', 'Courier New', monospace" font-size="18" fill="#89aaf5" fill-opacity="0.55">2026-02-23T04-23-00Z</text>
</svg>
