<?xml version="1.0" encoding="UTF-8"?>
<svg xmlns="http://www.w3.org/2000/svg" width="720" height="720" viewBox="0 0 720 720" role="img" aria-label="UTC Glyph 20260224T1024Z">
<rect width="100%" height="100%" fill="#0d191c" />
<g>
<circle cx="360" cy="360" r="300" fill="none" stroke="#f5d589" stroke-opacity="0.22" stroke-width="2" />
<circle cx="360" cy="360" r="189" fill="none" stroke="#4c62f0" stroke-opacity="0.35" stroke-width="4" />
<circle cx="360" cy="360" r="211.20" fill="none" stroke="#f5d589" stroke-opacity="0.531" stroke-width="3.96" />
<circle cx="360" cy="360" r="233.40" fill="none" stroke="#f5d589" stroke-opacity="0.531" stroke-width="3.69" />
<circle cx="360" cy="360" r="255.60" fill="none" stroke="#f5d589" stroke-opacity="0.516" stroke-width="2.16" />
<circle cx="360" cy="360" r="277.80" fill="none" stroke="#f5d589" stroke-opacity="0.542" stroke-width="4.31" />
<line x1="647.56" y1="361.61" x2="555.24" y2="361.09" stroke="#f5d589" stroke-opacity="0.603" stroke-width="3.80" stroke-linecap="round" />
<line x1="640.18" y1="419.37" x2="551.14" y2="400.51" stroke="#f5d589" stroke-opacity="0.627" stroke-width="2.55" stroke-linecap="round" />
<line x1="622.54" y1="463.08" x2="556.13" y2="437.00" stroke="#4c62f0" stroke-opacity="0.434" stroke-width="3.78" stroke-linecap="round" />
<line x1="616.57" y1="509.27" x2="528.82" y2="458.22" stroke="#f5d589" stroke-opacity="0.459" stroke-width="3.04" stroke-linecap="round" />
<line x1="567.69" y1="550.95" x2="517.45" y2="504.75" stroke="#f5d589" stroke-opacity="0.617" stroke-width="3.56" stroke-linecap="round" />
<line x1="537.89" y1="593.43" x2="484.54" y2="523.42" stroke="#f5d589" stroke-opacity="0.572" stroke-width="1.89" stroke-linecap="round" />
<line x1="483.39" y1="618.66" x2="444.54" y2="537.22" stroke="#f5d589" stroke-opacity="0.255" stroke-width="3.25" stroke-linecap="round" />
<line x1="432.74" y1="633.92" x2="411.93" y2="555.54" stroke="#f5d589" stroke-opacity="0.472" stroke-width="2.67" stroke-linecap="round" />
<line x1="394.17" y1="640.35" x2="385.05" y2="565.50" stroke="#f5d589" stroke-opacity="0.623" stroke-width="2.12" stroke-linecap="round" />
<line x1="331.03" y1="646.56" x2="338.55" y2="572.20" stroke="#f5d589" stroke-opacity="0.527" stroke-width="2.35" stroke-linecap="round" />
<line x1="273.38" y1="637.83" x2="303.11" y2="542.48" stroke="#f5d589" stroke-opacity="0.399" stroke-width="3.51" stroke-linecap="round" />
<line x1="228.61" y1="610.64" x2="262.71" y2="545.59" stroke="#f5d589" stroke-opacity="0.508" stroke-width="1.49" stroke-linecap="round" />
<line x1="185.54" y1="583.29" x2="239.13" y2="514.71" stroke="#f5d589" stroke-opacity="0.532" stroke-width="3.93" stroke-linecap="round" />
<line x1="151.62" y1="555.82" x2="214.28" y2="496.93" stroke="#f5d589" stroke-opacity="0.428" stroke-width="2.72" stroke-linecap="round" />
<line x1="114.18" y1="503.36" x2="182.46" y2="463.54" stroke="#4c62f0" stroke-opacity="0.623" stroke-width="2.77" stroke-linecap="round" />
<line x1="94.00" y1="459.63" x2="158.46" y2="435.48" stroke="#f5d589" stroke-opacity="0.333" stroke-width="3.38" stroke-linecap="round" />
<line x1="67.16" y1="414.37" x2="157.49" y2="397.60" stroke="#f5d589" stroke-opacity="0.395" stroke-width="2.41" stroke-linecap="round" />
<line x1="62.39" y1="356.17" x2="143.07" y2="357.20" stroke="#f5d589" stroke-opacity="0.734" stroke-width="1.14" stroke-linecap="round" />
<line x1="72.56" y1="297.99" x2="146.79" y2="314.01" stroke="#f5d589" stroke-opacity="0.752" stroke-width="1.90" stroke-linecap="round" />
<line x1="97.31" y1="256.23" x2="165.31" y2="283.09" stroke="#4c62f0" stroke-opacity="0.770" stroke-width="2.82" stroke-linecap="round" />
<line x1="110.66" y1="212.69" x2="183.15" y2="255.52" stroke="#f5d589" stroke-opacity="0.300" stroke-width="2.50" stroke-linecap="round" />
<line x1="141.89" y1="165.74" x2="200.47" y2="217.91" stroke="#4c62f0" stroke-opacity="0.303" stroke-width="3.18" stroke-linecap="round" />
<line x1="188.63" y1="123.27" x2="240.58" y2="195.03" stroke="#f5d589" stroke-opacity="0.336" stroke-width="3.26" stroke-linecap="round" />
<line x1="231.87" y1="98.35" x2="276.76" y2="190.03" stroke="#f5d589" stroke-opacity="0.742" stroke-width="1.95" stroke-linecap="round" />
<line x1="287.69" y1="78.85" x2="308.38" y2="159.26" stroke="#f5d589" stroke-opacity="0.766" stroke-width="1.73" stroke-linecap="round" />
<line x1="334.40" y1="62.44" x2="341.39" y2="143.67" stroke="#f5d589" stroke-opacity="0.455" stroke-width="2.49" stroke-linecap="round" />
<line x1="386.60" y1="61.36" x2="376.93" y2="169.92" stroke="#f5d589" stroke-opacity="0.712" stroke-width="2.77" stroke-linecap="round" />
<line x1="443.20" y1="82.61" x2="416.54" y2="171.50" stroke="#4c62f0" stroke-opacity="0.744" stroke-width="1.80" stroke-linecap="round" />
<line x1="493.75" y1="104.29" x2="453.90" y2="180.48" stroke="#f5d589" stroke-opacity="0.791" stroke-width="1.12" stroke-linecap="round" />
<line x1="536.79" y1="122.94" x2="473.75" y2="207.48" stroke="#f5d589" stroke-opacity="0.560" stroke-width="3.19" stroke-linecap="round" />
<line x1="572.95" y1="162.68" x2="516.57" y2="214.92" stroke="#f5d589" stroke-opacity="0.553" stroke-width="2.27" stroke-linecap="round" />
<line x1="607.21" y1="199.52" x2="526.64" y2="251.82" stroke="#f5d589" stroke-opacity="0.377" stroke-width="2.75" stroke-linecap="round" />
<line x1="639.07" y1="254.47" x2="536.98" y2="293.07" stroke="#f5d589" stroke-opacity="0.669" stroke-width="2.69" stroke-linecap="round" />
<line x1="649.84" y1="311.23" x2="568.74" y2="324.88" stroke="#f5d589" stroke-opacity="0.660" stroke-width="1.24" stroke-linecap="round" />
<path d="M 552.22 202.23 A 248.68 248.68 0 0 1 553.93 515.66" fill="none" stroke="#f5d589" stroke-opacity="0.498" stroke-width="6.31" stroke-linecap="round" />
<path d="M 83.69 336.06 A 277.34 277.34 0 0 1 183.81 145.81" fill="none" stroke="#4c62f0" stroke-opacity="0.457" stroke-width="2.03" stroke-linecap="round" />
<path d="M 570.05 392.96 A 212.62 212.62 0 0 1 365.35 572.56" fill="none" stroke="#f5d589" stroke-opacity="0.393" stroke-width="5.15" stroke-linecap="round" />
<path d="M 595.92 364.45 A 235.96 235.96 0 0 1 428.66 585.75" fill="none" stroke="#f5d589" stroke-opacity="0.267" stroke-width="7.09" stroke-linecap="round" />
<path d="M 386.07 616.73 A 258.05 258.05 0 0 1 294.57 609.62" fill="none" stroke="#f5d589" stroke-opacity="0.206" stroke-width="4.60" stroke-linecap="round" />
<path d="M 246.55 538.97 A 211.90 211.90 0 0 1 165.58 444.27" fill="none" stroke="#f5d589" stroke-opacity="0.210" stroke-width="6.90" stroke-linecap="round" />
<path d="M 254.26 576.50 A 240.94 240.94 0 0 1 127.90 295.32" fill="none" stroke="#4c62f0" stroke-opacity="0.257" stroke-width="7.45" stroke-linecap="round" />
<path d="M 600.24 385.80 A 241.62 241.62 0 0 1 427.53 591.99" fill="none" stroke="#f5d589" stroke-opacity="0.284" stroke-width="4.77" stroke-linecap="round" />
<path d="M 492.02 207.18 A 201.95 201.95 0 0 1 548.73 288.14" fill="none" stroke="#f5d589" stroke-opacity="0.219" stroke-width="6.42" stroke-linecap="round" />
</g>
<text x="360" y="684" text-anchor="middle" font-family="ui-monospace, SFMono-Regular, Menlo, Monaco, Consolas, 'Liberation Mono', 'Courier New', monospace" font-size="18" fill="#f5d589" fill-opacity="0.55">20260224T1024Z</text>
</svg>
