<?xml version="1.0" encoding="UTF-8"?>
<svg xmlns="http://www.w3.org/2000/svg" width="720" height="720" viewBox="0 0 720 720" role="img" aria-label="UTC Glyph 2026-02-20T22-23-00Z">
<rect width="100%" height="100%" fill="#0d0e1c" />
<g>
<circle cx="360" cy="360" r="300" fill="none" stroke="#c3f589" stroke-opacity="0.22" stroke-width="2" />
<circle cx="360" cy="360" r="174" fill="none" stroke="#b44cf0" stroke-opacity="0.35" stroke-width="4" />
<circle cx="360" cy="360" r="192.00" fill="none" stroke="#c3f589" stroke-opacity="0.390" stroke-width="3.42" />
<circle cx="360" cy="360" r="210.00" fill="none" stroke="#c3f589" stroke-opacity="0.397" stroke-width="4.35" />
<circle cx="360" cy="360" r="228.00" fill="none" stroke="#c3f589" stroke-opacity="0.468" stroke-width="4.98" />
<circle cx="360" cy="360" r="246.00" fill="none" stroke="#c3f589" stroke-opacity="0.339" stroke-width="3.57" />
<circle cx="360" cy="360" r="264.00" fill="none" stroke="#c3f589" stroke-opacity="0.525" stroke-width="4.07" />
<circle cx="360" cy="360" r="282.00" fill="none" stroke="#c3f589" stroke-opacity="0.310" stroke-width="4.68" />
<line x1="659.42" y1="367.16" x2="542.71" y2="364.37" stroke="#c3f589" stroke-opacity="0.334" stroke-width="3.19" stroke-linecap="round" />
<line x1="639.79" y1="436.30" x2="542.03" y2="409.64" stroke="#c3f589" stroke-opacity="0.676" stroke-width="2.83" stroke-linecap="round" />
<line x1="601.30" y1="509.23" x2="521.43" y2="459.84" stroke="#c3f589" stroke-opacity="0.603" stroke-width="3.88" stroke-linecap="round" />
<line x1="547.42" y1="573.51" x2="489.89" y2="507.97" stroke="#b44cf0" stroke-opacity="0.496" stroke-width="3.82" stroke-linecap="round" />
<line x1="490.01" y1="627.10" x2="441.95" y2="528.37" stroke="#c3f589" stroke-opacity="0.325" stroke-width="2.98" stroke-linecap="round" />
<line x1="408.18" y1="641.17" x2="390.07" y2="535.48" stroke="#c3f589" stroke-opacity="0.330" stroke-width="2.79" stroke-linecap="round" />
<line x1="311.71" y1="648.38" x2="328.78" y2="546.45" stroke="#b44cf0" stroke-opacity="0.303" stroke-width="1.64" stroke-linecap="round" />
<line x1="233.75" y1="623.13" x2="283.73" y2="518.97" stroke="#c3f589" stroke-opacity="0.421" stroke-width="1.89" stroke-linecap="round" />
<line x1="160.74" y1="581.19" x2="230.39" y2="503.87" stroke="#c3f589" stroke-opacity="0.753" stroke-width="3.96" stroke-linecap="round" />
<line x1="120.93" y1="516.63" x2="203.40" y2="462.60" stroke="#c3f589" stroke-opacity="0.751" stroke-width="3.37" stroke-linecap="round" />
<line x1="76.34" y1="436.30" x2="178.00" y2="408.95" stroke="#c3f589" stroke-opacity="0.375" stroke-width="2.68" stroke-linecap="round" />
<line x1="67.70" y1="363.32" x2="158.60" y2="362.29" stroke="#c3f589" stroke-opacity="0.517" stroke-width="1.80" stroke-linecap="round" />
<line x1="83.95" y1="277.13" x2="167.70" y2="302.27" stroke="#c3f589" stroke-opacity="0.289" stroke-width="1.34" stroke-linecap="round" />
<line x1="123.81" y1="203.92" x2="211.29" y2="261.73" stroke="#c3f589" stroke-opacity="0.749" stroke-width="3.97" stroke-linecap="round" />
<line x1="159.95" y1="142.45" x2="240.94" y2="230.53" stroke="#c3f589" stroke-opacity="0.677" stroke-width="1.55" stroke-linecap="round" />
<line x1="235.96" y1="95.07" x2="278.45" y2="185.82" stroke="#c3f589" stroke-opacity="0.598" stroke-width="1.43" stroke-linecap="round" />
<line x1="320.03" y1="74.84" x2="332.01" y2="160.34" stroke="#c3f589" stroke-opacity="0.625" stroke-width="2.70" stroke-linecap="round" />
<line x1="405.31" y1="72.73" x2="388.40" y2="179.92" stroke="#c3f589" stroke-opacity="0.359" stroke-width="1.20" stroke-linecap="round" />
<line x1="484.93" y1="97.64" x2="447.36" y2="176.54" stroke="#b44cf0" stroke-opacity="0.467" stroke-width="2.25" stroke-linecap="round" />
<line x1="555.43" y1="134.20" x2="474.20" y2="228.05" stroke="#c3f589" stroke-opacity="0.251" stroke-width="1.70" stroke-linecap="round" />
<line x1="600.62" y1="204.30" x2="511.62" y2="261.89" stroke="#c3f589" stroke-opacity="0.580" stroke-width="1.55" stroke-linecap="round" />
<line x1="645.37" y1="278.66" x2="546.63" y2="306.80" stroke="#c3f589" stroke-opacity="0.797" stroke-width="1.01" stroke-linecap="round" />
<path d="M 223.73 622.93 A 296.15 296.15 0 0 1 63.87 363.38" fill="none" stroke="#b44cf0" stroke-opacity="0.257" stroke-width="5.95" stroke-linecap="round" />
<path d="M 65.21 386.54 A 295.98 295.98 0 0 1 238.05 90.31" fill="none" stroke="#c3f589" stroke-opacity="0.398" stroke-width="4.59" stroke-linecap="round" />
<path d="M 133.74 509.50 A 271.19 271.19 0 0 1 95.93 298.28" fill="none" stroke="#c3f589" stroke-opacity="0.473" stroke-width="4.43" stroke-linecap="round" />
<path d="M 187.32 291.00 A 185.95 185.95 0 0 1 237.29 220.28" fill="none" stroke="#b44cf0" stroke-opacity="0.394" stroke-width="2.81" stroke-linecap="round" />
<path d="M 183.46 602.03 A 299.58 299.58 0 0 1 104.88 517.04" fill="none" stroke="#b44cf0" stroke-opacity="0.432" stroke-width="3.69" stroke-linecap="round" />
<path d="M 83.72 292.10 A 284.50 284.50 0 0 1 311.91 79.60" fill="none" stroke="#b44cf0" stroke-opacity="0.511" stroke-width="7.35" stroke-linecap="round" />
<path d="M 641.84 269.40 A 296.04 296.04 0 0 1 641.46 451.77" fill="none" stroke="#c3f589" stroke-opacity="0.363" stroke-width="5.85" stroke-linecap="round" />
<path d="M 646.54 433.10 A 295.72 295.72 0 0 1 507.78 616.15" fill="none" stroke="#c3f589" stroke-opacity="0.303" stroke-width="3.59" stroke-linecap="round" />
<path d="M 271.91 580.09 A 237.07 237.07 0 0 1 128.06 310.96" fill="none" stroke="#c3f589" stroke-opacity="0.472" stroke-width="5.09" stroke-linecap="round" />
<path d="M 302.11 646.03 A 291.82 291.82 0 0 1 128.10 537.15" fill="none" stroke="#b44cf0" stroke-opacity="0.309" stroke-width="3.45" stroke-linecap="round" />
<path d="M 166.30 278.93 A 209.98 209.98 0 0 1 390.60 152.26" fill="none" stroke="#c3f589" stroke-opacity="0.435" stroke-width="2.82" stroke-linecap="round" />
<path d="M 584.68 430.94 A 235.62 235.62 0 0 1 381.49 594.64" fill="none" stroke="#b44cf0" stroke-opacity="0.484" stroke-width="2.02" stroke-linecap="round" />
</g>
<text x="360" y="684" text-anchor="middle" font-family="ui-monospace, SFMono-Regular, Menlo, Monaco, Consolas, 'Liberation Mono', 'Courier New', monospace" font-size="18" fill="#c3f589" fill-opacity="0.55">2026-02-20T22-23-00Z</text>
</svg>
