<?xml version="1.0" encoding="UTF-8"?>
<svg xmlns="http://www.w3.org/2000/svg" width="720" height="720" viewBox="0 0 720 720" role="img" aria-label="UTC Glyph 2026-02-23T10-23-00Z">
<rect width="100%" height="100%" fill="#181c0d" />
<g>
<circle cx="360" cy="360" r="300" fill="none" stroke="#dc89f5" stroke-opacity="0.22" stroke-width="2" />
<circle cx="360" cy="360" r="139" fill="none" stroke="#57f04c" stroke-opacity="0.35" stroke-width="4" />
<circle cx="360" cy="360" r="162.00" fill="none" stroke="#dc89f5" stroke-opacity="0.394" stroke-width="4.38" />
<circle cx="360" cy="360" r="185.00" fill="none" stroke="#dc89f5" stroke-opacity="0.488" stroke-width="2.50" />
<circle cx="360" cy="360" r="208.00" fill="none" stroke="#dc89f5" stroke-opacity="0.360" stroke-width="4.04" />
<circle cx="360" cy="360" r="231.00" fill="none" stroke="#dc89f5" stroke-opacity="0.512" stroke-width="2.45" />
<circle cx="360" cy="360" r="254.00" fill="none" stroke="#dc89f5" stroke-opacity="0.519" stroke-width="2.26" />
<circle cx="360" cy="360" r="277.00" fill="none" stroke="#dc89f5" stroke-opacity="0.508" stroke-width="3.21" />
<line x1="651.21" y1="355.34" x2="527.89" y2="357.31" stroke="#dc89f5" stroke-opacity="0.759" stroke-width="1.07" stroke-linecap="round" />
<line x1="637.44" y1="463.59" x2="495.75" y2="410.69" stroke="#dc89f5" stroke-opacity="0.726" stroke-width="3.18" stroke-linecap="round" />
<line x1="592.96" y1="534.63" x2="482.15" y2="451.57" stroke="#dc89f5" stroke-opacity="0.753" stroke-width="2.12" stroke-linecap="round" />
<line x1="521.97" y1="593.59" x2="441.72" y2="477.85" stroke="#dc89f5" stroke-opacity="0.603" stroke-width="3.43" stroke-linecap="round" />
<line x1="430.50" y1="638.87" x2="395.23" y2="499.34" stroke="#dc89f5" stroke-opacity="0.532" stroke-width="2.82" stroke-linecap="round" />
<line x1="332.52" y1="645.68" x2="345.03" y2="515.66" stroke="#57f04c" stroke-opacity="0.782" stroke-width="2.81" stroke-linecap="round" />
<line x1="238.92" y1="619.19" x2="296.52" y2="495.88" stroke="#dc89f5" stroke-opacity="0.540" stroke-width="2.77" stroke-linecap="round" />
<line x1="157.26" y1="568.89" x2="258.91" y2="464.16" stroke="#dc89f5" stroke-opacity="0.466" stroke-width="3.91" stroke-linecap="round" />
<line x1="96.90" y1="501.10" x2="227.50" y2="431.06" stroke="#dc89f5" stroke-opacity="0.445" stroke-width="2.34" stroke-linecap="round" />
<line x1="67.30" y1="409.87" x2="195.36" y2="388.05" stroke="#dc89f5" stroke-opacity="0.412" stroke-width="1.95" stroke-linecap="round" />
<line x1="77.46" y1="314.58" x2="194.54" y2="333.40" stroke="#dc89f5" stroke-opacity="0.423" stroke-width="3.68" stroke-linecap="round" />
<line x1="103.92" y1="224.39" x2="213.65" y2="282.50" stroke="#dc89f5" stroke-opacity="0.284" stroke-width="2.65" stroke-linecap="round" />
<line x1="154.36" y1="146.35" x2="257.92" y2="253.94" stroke="#dc89f5" stroke-opacity="0.411" stroke-width="1.88" stroke-linecap="round" />
<line x1="248.51" y1="95.18" x2="300.02" y2="217.53" stroke="#dc89f5" stroke-opacity="0.505" stroke-width="1.01" stroke-linecap="round" />
<line x1="333.06" y1="71.06" x2="344.80" y2="197.03" stroke="#dc89f5" stroke-opacity="0.453" stroke-width="1.18" stroke-linecap="round" />
<line x1="428.22" y1="67.97" x2="393.80" y2="215.30" stroke="#dc89f5" stroke-opacity="0.427" stroke-width="3.66" stroke-linecap="round" />
<line x1="517.42" y1="119.52" x2="444.92" y2="230.28" stroke="#dc89f5" stroke-opacity="0.637" stroke-width="3.29" stroke-linecap="round" />
<line x1="587.06" y1="189.20" x2="474.04" y2="274.21" stroke="#dc89f5" stroke-opacity="0.797" stroke-width="2.84" stroke-linecap="round" />
<line x1="636.24" y1="261.01" x2="519.03" y2="303.01" stroke="#dc89f5" stroke-opacity="0.580" stroke-width="2.95" stroke-linecap="round" />
<path d="M 212.56 181.05 A 231.87 231.87 0 0 1 491.56 169.06" fill="none" stroke="#dc89f5" stroke-opacity="0.524" stroke-width="4.65" stroke-linecap="round" />
<path d="M 500.09 490.34 A 191.35 191.35 0 0 1 363.94 551.31" fill="none" stroke="#57f04c" stroke-opacity="0.186" stroke-width="5.08" stroke-linecap="round" />
<path d="M 518.06 236.80 A 200.40 200.40 0 0 1 553.89 410.67" fill="none" stroke="#dc89f5" stroke-opacity="0.244" stroke-width="5.17" stroke-linecap="round" />
<path d="M 163.65 414.00 A 203.64 203.64 0 0 1 248.10 189.85" fill="none" stroke="#dc89f5" stroke-opacity="0.500" stroke-width="6.76" stroke-linecap="round" />
<path d="M 499.26 190.61 A 219.28 219.28 0 0 1 566.50 433.77" fill="none" stroke="#57f04c" stroke-opacity="0.484" stroke-width="3.28" stroke-linecap="round" />
<path d="M 498.56 98.37 A 296.05 296.05 0 0 1 655.92 368.94" fill="none" stroke="#dc89f5" stroke-opacity="0.295" stroke-width="6.49" stroke-linecap="round" />
<path d="M 319.04 573.30 A 217.20 217.20 0 0 1 202.51 509.57" fill="none" stroke="#57f04c" stroke-opacity="0.237" stroke-width="5.80" stroke-linecap="round" />
<path d="M 594.27 324.91 A 236.88 236.88 0 0 1 499.79 551.24" fill="none" stroke="#dc89f5" stroke-opacity="0.183" stroke-width="3.29" stroke-linecap="round" />
<path d="M 319.40 656.90 A 299.66 299.66 0 0 1 67.66 425.83" fill="none" stroke="#dc89f5" stroke-opacity="0.405" stroke-width="4.15" stroke-linecap="round" />
<path d="M 553.32 345.86 A 193.83 193.83 0 0 1 490.03 503.75" fill="none" stroke="#57f04c" stroke-opacity="0.507" stroke-width="3.03" stroke-linecap="round" />
<path d="M 301.11 201.64 A 168.96 168.96 0 0 1 485.27 246.63" fill="none" stroke="#57f04c" stroke-opacity="0.418" stroke-width="3.84" stroke-linecap="round" />
<path d="M 76.89 310.60 A 287.39 287.39 0 0 1 229.38 104.01" fill="none" stroke="#57f04c" stroke-opacity="0.388" stroke-width="4.83" stroke-linecap="round" />
<path d="M 281.07 237.39 A 145.82 145.82 0 0 1 470.19 264.49" fill="none" stroke="#57f04c" stroke-opacity="0.376" stroke-width="5.49" stroke-linecap="round" />
</g>
<text x="360" y="684" text-anchor="middle" font-family="ui-monospace, SFMono-Regular, Menlo, Monaco, Consolas, 'Liberation Mono', 'Courier New', monospace" font-size="18" fill="#dc89f5" fill-opacity="0.55">2026-02-23T10-23-00Z</text>
</svg>
