<?xml version="1.0" encoding="UTF-8"?>
<svg xmlns="http://www.w3.org/2000/svg" width="720" height="720" viewBox="0 0 720 720" role="img" aria-label="UTC Glyph 2026-02-22T10-24-00Z">
<rect width="100%" height="100%" fill="#0d191c" />
<g>
<circle cx="360" cy="360" r="300" fill="none" stroke="#f5d589" stroke-opacity="0.22" stroke-width="2" />
<circle cx="360" cy="360" r="169" fill="none" stroke="#4c62f0" stroke-opacity="0.35" stroke-width="4" />
<circle cx="360" cy="360" r="190.83" fill="none" stroke="#f5d589" stroke-opacity="0.418" stroke-width="2.64" />
<circle cx="360" cy="360" r="212.67" fill="none" stroke="#f5d589" stroke-opacity="0.430" stroke-width="3.99" />
<circle cx="360" cy="360" r="234.50" fill="none" stroke="#f5d589" stroke-opacity="0.487" stroke-width="4.31" />
<circle cx="360" cy="360" r="256.33" fill="none" stroke="#f5d589" stroke-opacity="0.430" stroke-width="2.31" />
<circle cx="360" cy="360" r="278.17" fill="none" stroke="#f5d589" stroke-opacity="0.293" stroke-width="2.69" />
<line x1="657.30" y1="367.79" x2="552.76" y2="365.05" stroke="#4c62f0" stroke-opacity="0.710" stroke-width="3.36" stroke-linecap="round" />
<line x1="647.07" y1="412.61" x2="532.78" y2="391.67" stroke="#f5d589" stroke-opacity="0.381" stroke-width="2.57" stroke-linecap="round" />
<line x1="630.15" y1="458.11" x2="531.75" y2="422.37" stroke="#f5d589" stroke-opacity="0.729" stroke-width="2.48" stroke-linecap="round" />
<line x1="604.80" y1="502.06" x2="509.95" y2="447.02" stroke="#f5d589" stroke-opacity="0.740" stroke-width="2.60" stroke-linecap="round" />
<line x1="578.30" y1="548.20" x2="495.46" y2="476.78" stroke="#f5d589" stroke-opacity="0.287" stroke-width="2.86" stroke-linecap="round" />
<line x1="546.84" y1="572.31" x2="478.03" y2="494.12" stroke="#f5d589" stroke-opacity="0.797" stroke-width="2.91" stroke-linecap="round" />
<line x1="512.72" y1="607.82" x2="453.19" y2="511.21" stroke="#f5d589" stroke-opacity="0.636" stroke-width="3.30" stroke-linecap="round" />
<line x1="455.67" y1="634.72" x2="420.40" y2="533.43" stroke="#4c62f0" stroke-opacity="0.317" stroke-width="1.41" stroke-linecap="round" />
<line x1="407.01" y1="647.69" x2="388.01" y2="531.45" stroke="#f5d589" stroke-opacity="0.638" stroke-width="3.98" stroke-linecap="round" />
<line x1="367.81" y1="656.20" x2="365.10" y2="553.46" stroke="#4c62f0" stroke-opacity="0.505" stroke-width="3.73" stroke-linecap="round" />
<line x1="311.53" y1="639.98" x2="330.29" y2="531.58" stroke="#f5d589" stroke-opacity="0.459" stroke-width="2.27" stroke-linecap="round" />
<line x1="254.81" y1="633.96" x2="294.38" y2="530.89" stroke="#f5d589" stroke-opacity="0.638" stroke-width="1.62" stroke-linecap="round" />
<line x1="212.51" y1="602.95" x2="257.21" y2="529.33" stroke="#f5d589" stroke-opacity="0.507" stroke-width="2.09" stroke-linecap="round" />
<line x1="167.71" y1="585.08" x2="237.01" y2="503.96" stroke="#f5d589" stroke-opacity="0.693" stroke-width="2.37" stroke-linecap="round" />
<line x1="143.14" y1="551.23" x2="221.81" y2="481.86" stroke="#f5d589" stroke-opacity="0.667" stroke-width="1.94" stroke-linecap="round" />
<line x1="114.23" y1="510.39" x2="193.33" y2="461.99" stroke="#f5d589" stroke-opacity="0.627" stroke-width="3.67" stroke-linecap="round" />
<line x1="94.18" y1="457.82" x2="197.14" y2="419.93" stroke="#f5d589" stroke-opacity="0.520" stroke-width="3.01" stroke-linecap="round" />
<line x1="68.94" y1="408.12" x2="190.79" y2="387.97" stroke="#4c62f0" stroke-opacity="0.606" stroke-width="1.36" stroke-linecap="round" />
<line x1="66.34" y1="357.15" x2="190.53" y2="358.36" stroke="#f5d589" stroke-opacity="0.667" stroke-width="1.33" stroke-linecap="round" />
<line x1="81.39" y1="309.01" x2="190.96" y2="329.06" stroke="#f5d589" stroke-opacity="0.686" stroke-width="3.69" stroke-linecap="round" />
<line x1="86.60" y1="265.29" x2="176.54" y2="296.45" stroke="#f5d589" stroke-opacity="0.365" stroke-width="2.49" stroke-linecap="round" />
<line x1="114.87" y1="217.07" x2="203.08" y2="268.50" stroke="#f5d589" stroke-opacity="0.530" stroke-width="1.36" stroke-linecap="round" />
<line x1="131.55" y1="168.03" x2="228.37" y2="249.39" stroke="#f5d589" stroke-opacity="0.337" stroke-width="3.99" stroke-linecap="round" />
<line x1="178.64" y1="143.06" x2="234.72" y2="210.15" stroke="#f5d589" stroke-opacity="0.503" stroke-width="3.63" stroke-linecap="round" />
<line x1="217.02" y1="111.08" x2="265.76" y2="195.94" stroke="#4c62f0" stroke-opacity="0.636" stroke-width="1.53" stroke-linecap="round" />
<line x1="256.84" y1="84.75" x2="299.03" y2="197.31" stroke="#4c62f0" stroke-opacity="0.677" stroke-width="3.91" stroke-linecap="round" />
<line x1="314.26" y1="70.83" x2="330.82" y2="175.55" stroke="#f5d589" stroke-opacity="0.409" stroke-width="2.26" stroke-linecap="round" />
<line x1="357.34" y1="73.45" x2="358.19" y2="164.66" stroke="#f5d589" stroke-opacity="0.622" stroke-width="2.30" stroke-linecap="round" />
<line x1="403.78" y1="75.08" x2="385.85" y2="191.76" stroke="#f5d589" stroke-opacity="0.567" stroke-width="1.67" stroke-linecap="round" />
<line x1="454.21" y1="75.73" x2="421.54" y2="174.30" stroke="#4c62f0" stroke-opacity="0.764" stroke-width="3.88" stroke-linecap="round" />
<line x1="505.69" y1="101.39" x2="443.89" y2="211.09" stroke="#4c62f0" stroke-opacity="0.409" stroke-width="3.44" stroke-linecap="round" />
<line x1="543.35" y1="133.54" x2="469.61" y2="224.61" stroke="#f5d589" stroke-opacity="0.444" stroke-width="1.24" stroke-linecap="round" />
<line x1="575.68" y1="169.76" x2="500.24" y2="236.31" stroke="#f5d589" stroke-opacity="0.784" stroke-width="1.57" stroke-linecap="round" />
<line x1="602.52" y1="211.42" x2="507.23" y2="269.80" stroke="#4c62f0" stroke-opacity="0.314" stroke-width="1.17" stroke-linecap="round" />
<line x1="632.76" y1="268.02" x2="546.73" y2="297.03" stroke="#f5d589" stroke-opacity="0.591" stroke-width="1.64" stroke-linecap="round" />
<line x1="655.98" y1="315.70" x2="551.49" y2="331.34" stroke="#f5d589" stroke-opacity="0.252" stroke-width="2.67" stroke-linecap="round" />
<path d="M 594.51 177.05 A 297.43 297.43 0 0 1 654.01 405.01" fill="none" stroke="#4c62f0" stroke-opacity="0.245" stroke-width="3.23" stroke-linecap="round" />
<path d="M 226.09 129.43 A 266.63 266.63 0 0 1 454.90 110.83" fill="none" stroke="#f5d589" stroke-opacity="0.429" stroke-width="2.72" stroke-linecap="round" />
<path d="M 259.62 202.25 A 186.98 186.98 0 0 1 415.28 181.38" fill="none" stroke="#f5d589" stroke-opacity="0.483" stroke-width="6.77" stroke-linecap="round" />
<path d="M 520.27 213.15 A 217.38 217.38 0 0 1 572.54 405.61" fill="none" stroke="#4c62f0" stroke-opacity="0.222" stroke-width="5.64" stroke-linecap="round" />
<path d="M 545.69 341.69 A 186.59 186.59 0 0 1 535.11 424.44" fill="none" stroke="#4c62f0" stroke-opacity="0.404" stroke-width="6.78" stroke-linecap="round" />
<path d="M 225.96 575.20 A 253.53 253.53 0 0 1 115.25 293.83" fill="none" stroke="#4c62f0" stroke-opacity="0.257" stroke-width="6.49" stroke-linecap="round" />
</g>
<text x="360" y="684" text-anchor="middle" font-family="ui-monospace, SFMono-Regular, Menlo, Monaco, Consolas, 'Liberation Mono', 'Courier New', monospace" font-size="18" fill="#f5d589" fill-opacity="0.55">2026-02-22T10-24-00Z</text>
</svg>
