<?xml version="1.0" encoding="UTF-8"?>
<svg xmlns="http://www.w3.org/2000/svg" width="720" height="720" viewBox="0 0 720 720" role="img" aria-label="UTC Glyph 2026-02-23T16-23-57Z">
<rect width="100%" height="100%" fill="#131c0d" />
<g>
<circle cx="360" cy="360" r="300" fill="none" stroke="#f589ec" stroke-opacity="0.22" stroke-width="2" />
<circle cx="360" cy="360" r="142" fill="none" stroke="#4cf075" stroke-opacity="0.35" stroke-width="4" />
<circle cx="360" cy="360" r="164.57" fill="none" stroke="#f589ec" stroke-opacity="0.494" stroke-width="2.03" />
<circle cx="360" cy="360" r="187.14" fill="none" stroke="#f589ec" stroke-opacity="0.358" stroke-width="4.11" />
<circle cx="360" cy="360" r="209.71" fill="none" stroke="#f589ec" stroke-opacity="0.328" stroke-width="2.40" />
<circle cx="360" cy="360" r="232.29" fill="none" stroke="#f589ec" stroke-opacity="0.351" stroke-width="3.36" />
<circle cx="360" cy="360" r="254.86" fill="none" stroke="#f589ec" stroke-opacity="0.378" stroke-width="2.20" />
<circle cx="360" cy="360" r="277.43" fill="none" stroke="#f589ec" stroke-opacity="0.481" stroke-width="2.18" />
<line x1="648.31" y1="362.70" x2="518.83" y2="361.49" stroke="#f589ec" stroke-opacity="0.438" stroke-width="1.48" stroke-linecap="round" />
<line x1="640.32" y1="422.10" x2="526.87" y2="396.97" stroke="#f589ec" stroke-opacity="0.502" stroke-width="2.68" stroke-linecap="round" />
<line x1="624.49" y1="458.90" x2="508.17" y2="415.40" stroke="#f589ec" stroke-opacity="0.606" stroke-width="3.53" stroke-linecap="round" />
<line x1="600.75" y1="523.01" x2="492.15" y2="449.48" stroke="#f589ec" stroke-opacity="0.737" stroke-width="2.29" stroke-linecap="round" />
<line x1="572.23" y1="565.69" x2="465.82" y2="462.56" stroke="#f589ec" stroke-opacity="0.645" stroke-width="2.56" stroke-linecap="round" />
<line x1="524.72" y1="590.00" x2="454.69" y2="492.22" stroke="#4cf075" stroke-opacity="0.376" stroke-width="2.49" stroke-linecap="round" />
<line x1="479.12" y1="620.09" x2="425.53" y2="503.08" stroke="#f589ec" stroke-opacity="0.512" stroke-width="2.51" stroke-linecap="round" />
<line x1="428.61" y1="639.24" x2="396.65" y2="509.16" stroke="#4cf075" stroke-opacity="0.501" stroke-width="2.91" stroke-linecap="round" />
<line x1="379.10" y1="652.85" x2="370.16" y2="515.86" stroke="#f589ec" stroke-opacity="0.475" stroke-width="3.18" stroke-linecap="round" />
<line x1="322.52" y1="650.11" x2="339.96" y2="515.09" stroke="#f589ec" stroke-opacity="0.265" stroke-width="1.38" stroke-linecap="round" />
<line x1="259.31" y1="627.20" x2="308.99" y2="495.36" stroke="#f589ec" stroke-opacity="0.371" stroke-width="1.08" stroke-linecap="round" />
<line x1="216.82" y1="609.53" x2="281.74" y2="496.39" stroke="#f589ec" stroke-opacity="0.535" stroke-width="1.88" stroke-linecap="round" />
<line x1="174.30" y1="585.47" x2="253.85" y2="488.89" stroke="#f589ec" stroke-opacity="0.472" stroke-width="1.59" stroke-linecap="round" />
<line x1="133.44" y1="540.98" x2="228.23" y2="465.26" stroke="#f589ec" stroke-opacity="0.437" stroke-width="4.00" stroke-linecap="round" />
<line x1="92.32" y1="493.11" x2="230.71" y2="424.30" stroke="#f589ec" stroke-opacity="0.397" stroke-width="3.48" stroke-linecap="round" />
<line x1="73.66" y1="438.69" x2="222.69" y2="397.73" stroke="#f589ec" stroke-opacity="0.606" stroke-width="1.48" stroke-linecap="round" />
<line x1="68.35" y1="387.38" x2="216.75" y2="373.45" stroke="#4cf075" stroke-opacity="0.550" stroke-width="2.99" stroke-linecap="round" />
<line x1="73.06" y1="325.09" x2="193.87" y2="339.78" stroke="#f589ec" stroke-opacity="0.465" stroke-width="2.73" stroke-linecap="round" />
<line x1="89.30" y1="276.43" x2="221.95" y2="317.38" stroke="#f589ec" stroke-opacity="0.449" stroke-width="1.60" stroke-linecap="round" />
<line x1="94.26" y1="231.70" x2="212.38" y2="288.73" stroke="#f589ec" stroke-opacity="0.515" stroke-width="1.89" stroke-linecap="round" />
<line x1="139.71" y1="177.19" x2="235.51" y2="256.69" stroke="#4cf075" stroke-opacity="0.574" stroke-width="2.81" stroke-linecap="round" />
<line x1="166.26" y1="141.34" x2="262.85" y2="250.35" stroke="#f589ec" stroke-opacity="0.366" stroke-width="2.68" stroke-linecap="round" />
<line x1="217.38" y1="114.27" x2="281.02" y2="223.91" stroke="#f589ec" stroke-opacity="0.478" stroke-width="3.39" stroke-linecap="round" />
<line x1="260.69" y1="88.33" x2="302.97" y2="204.00" stroke="#f589ec" stroke-opacity="0.687" stroke-width="1.30" stroke-linecap="round" />
<line x1="320.04" y1="77.86" x2="337.96" y2="204.39" stroke="#4cf075" stroke-opacity="0.520" stroke-width="1.77" stroke-linecap="round" />
<line x1="367.62" y1="75.53" x2="364.39" y2="196.26" stroke="#f589ec" stroke-opacity="0.299" stroke-width="3.82" stroke-linecap="round" />
<line x1="429.93" y1="77.52" x2="398.65" y2="203.85" stroke="#f589ec" stroke-opacity="0.319" stroke-width="1.53" stroke-linecap="round" />
<line x1="472.35" y1="97.49" x2="421.65" y2="215.95" stroke="#f589ec" stroke-opacity="0.708" stroke-width="1.81" stroke-linecap="round" />
<line x1="532.19" y1="117.36" x2="451.55" y2="230.99" stroke="#4cf075" stroke-opacity="0.514" stroke-width="3.76" stroke-linecap="round" />
<line x1="567.27" y1="167.64" x2="484.16" y2="244.77" stroke="#f589ec" stroke-opacity="0.727" stroke-width="1.56" stroke-linecap="round" />
<line x1="613.21" y1="203.35" x2="498.72" y2="274.18" stroke="#f589ec" stroke-opacity="0.741" stroke-width="2.12" stroke-linecap="round" />
<line x1="623.04" y1="250.50" x2="507.42" y2="298.63" stroke="#f589ec" stroke-opacity="0.745" stroke-width="2.40" stroke-linecap="round" />
<line x1="640.03" y1="300.81" x2="527.53" y2="324.59" stroke="#f589ec" stroke-opacity="0.271" stroke-width="2.51" stroke-linecap="round" />
<path d="M 642.17 397.23 A 284.62 284.62 0 0 1 431.07 635.60" fill="none" stroke="#4cf075" stroke-opacity="0.236" stroke-width="6.19" stroke-linecap="round" />
<path d="M 528.65 278.45 A 187.33 187.33 0 0 1 542.52 402.20" fill="none" stroke="#4cf075" stroke-opacity="0.277" stroke-width="3.77" stroke-linecap="round" />
<path d="M 594.12 335.67 A 235.38 235.38 0 0 1 429.25 584.96" fill="none" stroke="#f589ec" stroke-opacity="0.287" stroke-width="4.27" stroke-linecap="round" />
<path d="M 608.68 196.97 A 297.36 297.36 0 0 1 649.13 290.53" fill="none" stroke="#f589ec" stroke-opacity="0.212" stroke-width="2.81" stroke-linecap="round" />
<path d="M 153.44 369.85 A 206.80 206.80 0 0 1 211.26 216.33" fill="none" stroke="#f589ec" stroke-opacity="0.216" stroke-width="6.16" stroke-linecap="round" />
<path d="M 529.65 166.86 A 257.07 257.07 0 0 1 616.96 367.51" fill="none" stroke="#4cf075" stroke-opacity="0.476" stroke-width="4.06" stroke-linecap="round" />
<path d="M 363.09 643.48 A 283.49 283.49 0 0 1 114.10 501.08" fill="none" stroke="#f589ec" stroke-opacity="0.432" stroke-width="5.85" stroke-linecap="round" />
<path d="M 135.75 532.90 A 283.17 283.17 0 0 1 124.00 203.50" fill="none" stroke="#f589ec" stroke-opacity="0.201" stroke-width="3.57" stroke-linecap="round" />
<path d="M 452.62 173.61 A 208.13 208.13 0 0 1 565.89 329.53" fill="none" stroke="#4cf075" stroke-opacity="0.446" stroke-width="4.46" stroke-linecap="round" />
<path d="M 390.34 98.47 A 263.29 263.29 0 0 1 612.04 283.88" fill="none" stroke="#f589ec" stroke-opacity="0.421" stroke-width="2.95" stroke-linecap="round" />
<path d="M 561.74 444.81 A 218.85 218.85 0 0 1 298.24 569.95" fill="none" stroke="#4cf075" stroke-opacity="0.357" stroke-width="5.15" stroke-linecap="round" />
<path d="M 457.90 501.20 A 171.82 171.82 0 0 1 353.20 531.68" fill="none" stroke="#f589ec" stroke-opacity="0.498" stroke-width="2.85" stroke-linecap="round" />
<path d="M 196.51 569.75 A 265.94 265.94 0 0 1 95.67 330.74" fill="none" stroke="#4cf075" stroke-opacity="0.465" stroke-width="4.34" stroke-linecap="round" />
</g>
<text x="360" y="684" text-anchor="middle" font-family="ui-monospace, SFMono-Regular, Menlo, Monaco, Consolas, 'Liberation Mono', 'Courier New', monospace" font-size="18" fill="#f589ec" fill-opacity="0.55">2026-02-23T16-23-57Z</text>
</svg>
