<?xml version="1.0" encoding="UTF-8"?>
<svg xmlns="http://www.w3.org/2000/svg" width="720" height="720" viewBox="0 0 720 720" role="img" aria-label="UTC Glyph 2026-02-21T10-23-00Z">
<rect width="100%" height="100%" fill="#160d1c" />
<g>
<circle cx="360" cy="360" r="300" fill="none" stroke="#89f598" stroke-opacity="0.22" stroke-width="2" />
<circle cx="360" cy="360" r="161" fill="none" stroke="#f04cbf" stroke-opacity="0.35" stroke-width="4" />
<circle cx="360" cy="360" r="180.86" fill="none" stroke="#89f598" stroke-opacity="0.530" stroke-width="3.08" />
<circle cx="360" cy="360" r="200.71" fill="none" stroke="#89f598" stroke-opacity="0.426" stroke-width="4.28" />
<circle cx="360" cy="360" r="220.57" fill="none" stroke="#89f598" stroke-opacity="0.437" stroke-width="3.25" />
<circle cx="360" cy="360" r="240.43" fill="none" stroke="#89f598" stroke-opacity="0.474" stroke-width="4.99" />
<circle cx="360" cy="360" r="260.29" fill="none" stroke="#89f598" stroke-opacity="0.342" stroke-width="3.83" />
<circle cx="360" cy="360" r="280.14" fill="none" stroke="#89f598" stroke-opacity="0.553" stroke-width="3.01" />
<line x1="650.70" y1="356.57" x2="537.42" y2="357.91" stroke="#89f598" stroke-opacity="0.390" stroke-width="2.64" stroke-linecap="round" />
<line x1="650.62" y1="419.50" x2="543.84" y2="397.64" stroke="#89f598" stroke-opacity="0.536" stroke-width="3.31" stroke-linecap="round" />
<line x1="613.38" y1="485.88" x2="524.53" y2="441.74" stroke="#f04cbf" stroke-opacity="0.405" stroke-width="3.39" stroke-linecap="round" />
<line x1="590.79" y1="535.00" x2="490.30" y2="458.81" stroke="#89f598" stroke-opacity="0.261" stroke-width="1.50" stroke-linecap="round" />
<line x1="540.65" y1="579.05" x2="478.53" y2="503.72" stroke="#89f598" stroke-opacity="0.466" stroke-width="2.61" stroke-linecap="round" />
<line x1="484.30" y1="631.12" x2="437.97" y2="530.07" stroke="#89f598" stroke-opacity="0.632" stroke-width="1.41" stroke-linecap="round" />
<line x1="422.18" y1="646.68" x2="398.25" y2="536.33" stroke="#89f598" stroke-opacity="0.789" stroke-width="2.77" stroke-linecap="round" />
<line x1="367.32" y1="652.22" x2="364.28" y2="530.95" stroke="#89f598" stroke-opacity="0.471" stroke-width="2.03" stroke-linecap="round" />
<line x1="287.70" y1="644.18" x2="316.45" y2="531.18" stroke="#89f598" stroke-opacity="0.539" stroke-width="2.54" stroke-linecap="round" />
<line x1="225.84" y1="619.22" x2="284.12" y2="506.63" stroke="#89f598" stroke-opacity="0.367" stroke-width="1.60" stroke-linecap="round" />
<line x1="176.97" y1="590.57" x2="257.51" y2="489.12" stroke="#f04cbf" stroke-opacity="0.737" stroke-width="3.63" stroke-linecap="round" />
<line x1="130.37" y1="550.84" x2="230.52" y2="467.61" stroke="#89f598" stroke-opacity="0.693" stroke-width="3.54" stroke-linecap="round" />
<line x1="103.69" y1="488.38" x2="214.03" y2="433.11" stroke="#89f598" stroke-opacity="0.512" stroke-width="2.83" stroke-linecap="round" />
<line x1="71.76" y1="433.65" x2="192.48" y2="402.80" stroke="#89f598" stroke-opacity="0.533" stroke-width="1.09" stroke-linecap="round" />
<line x1="61.78" y1="362.91" x2="174.87" y2="361.80" stroke="#f04cbf" stroke-opacity="0.433" stroke-width="2.86" stroke-linecap="round" />
<line x1="75.85" y1="292.09" x2="177.53" y2="316.39" stroke="#89f598" stroke-opacity="0.593" stroke-width="1.00" stroke-linecap="round" />
<line x1="92.71" y1="239.53" x2="195.24" y2="285.74" stroke="#89f598" stroke-opacity="0.325" stroke-width="1.47" stroke-linecap="round" />
<line x1="125.35" y1="177.31" x2="230.19" y2="258.93" stroke="#89f598" stroke-opacity="0.681" stroke-width="1.40" stroke-linecap="round" />
<line x1="176.48" y1="135.82" x2="253.73" y2="230.18" stroke="#89f598" stroke-opacity="0.412" stroke-width="1.99" stroke-linecap="round" />
<line x1="229.60" y1="101.95" x2="280.63" y2="202.93" stroke="#89f598" stroke-opacity="0.493" stroke-width="1.39" stroke-linecap="round" />
<line x1="288.36" y1="83.98" x2="319.22" y2="202.86" stroke="#89f598" stroke-opacity="0.778" stroke-width="2.75" stroke-linecap="round" />
<line x1="355.95" y1="72.08" x2="357.35" y2="171.54" stroke="#89f598" stroke-opacity="0.305" stroke-width="1.74" stroke-linecap="round" />
<line x1="416.26" y1="81.48" x2="397.65" y2="173.62" stroke="#89f598" stroke-opacity="0.494" stroke-width="1.13" stroke-linecap="round" />
<line x1="485.40" y1="93.29" x2="430.39" y2="210.29" stroke="#f04cbf" stroke-opacity="0.549" stroke-width="1.15" stroke-linecap="round" />
<line x1="540.97" y1="122.03" x2="466.33" y2="220.18" stroke="#89f598" stroke-opacity="0.388" stroke-width="1.91" stroke-linecap="round" />
<line x1="588.37" y1="183.03" x2="504.54" y2="248.00" stroke="#89f598" stroke-opacity="0.775" stroke-width="3.53" stroke-linecap="round" />
<line x1="630.11" y1="238.75" x2="509.79" y2="292.76" stroke="#89f598" stroke-opacity="0.667" stroke-width="1.20" stroke-linecap="round" />
<line x1="646.44" y1="288.56" x2="523.46" y2="319.23" stroke="#f04cbf" stroke-opacity="0.257" stroke-width="2.99" stroke-linecap="round" />
<path d="M 500.08 202.96 A 210.43 210.43 0 0 1 567.95 327.81" fill="none" stroke="#89f598" stroke-opacity="0.312" stroke-width="2.27" stroke-linecap="round" />
<path d="M 444.40 622.88 A 276.10 276.10 0 0 1 297.11 628.84" fill="none" stroke="#89f598" stroke-opacity="0.352" stroke-width="6.64" stroke-linecap="round" />
<path d="M 612.06 272.47 A 266.83 266.83 0 0 1 526.12 568.81" fill="none" stroke="#89f598" stroke-opacity="0.355" stroke-width="4.01" stroke-linecap="round" />
<path d="M 485.78 493.50 A 183.42 183.42 0 0 1 322.07 539.45" fill="none" stroke="#89f598" stroke-opacity="0.331" stroke-width="7.42" stroke-linecap="round" />
<path d="M 169.72 349.72 A 190.56 190.56 0 0 1 182.41 290.91" fill="none" stroke="#89f598" stroke-opacity="0.471" stroke-width="6.90" stroke-linecap="round" />
<path d="M 420.03 125.79 A 241.78 241.78 0 0 1 601.45 347.49" fill="none" stroke="#89f598" stroke-opacity="0.248" stroke-width="6.12" stroke-linecap="round" />
<path d="M 486.28 146.47 A 248.08 248.08 0 0 1 604.33 317.04" fill="none" stroke="#89f598" stroke-opacity="0.437" stroke-width="4.06" stroke-linecap="round" />
<path d="M 538.80 192.20 A 245.21 245.21 0 0 1 604.84 373.42" fill="none" stroke="#89f598" stroke-opacity="0.496" stroke-width="7.61" stroke-linecap="round" />
<path d="M 210.06 141.54 A 264.96 264.96 0 0 1 344.00 95.52" fill="none" stroke="#89f598" stroke-opacity="0.266" stroke-width="2.07" stroke-linecap="round" />
<path d="M 63.61 330.82 A 297.82 297.82 0 0 1 128.41 172.74" fill="none" stroke="#f04cbf" stroke-opacity="0.400" stroke-width="7.40" stroke-linecap="round" />
</g>
<text x="360" y="684" text-anchor="middle" font-family="ui-monospace, SFMono-Regular, Menlo, Monaco, Consolas, 'Liberation Mono', 'Courier New', monospace" font-size="18" fill="#89f598" fill-opacity="0.55">2026-02-21T10-23-00Z</text>
</svg>
