<?xml version="1.0" encoding="UTF-8"?>
<svg xmlns="http://www.w3.org/2000/svg" width="720" height="720" viewBox="0 0 720 720" role="img" aria-label="UTC Glyph 20260226T2223Z">
<rect width="100%" height="100%" fill="#0d161c" />
<g>
<circle cx="360" cy="360" r="300" fill="none" stroke="#f5e989" stroke-opacity="0.22" stroke-width="2" />
<circle cx="360" cy="360" r="148" fill="none" stroke="#544cf0" stroke-opacity="0.35" stroke-width="4" />
<circle cx="360" cy="360" r="173.33" fill="none" stroke="#f5e989" stroke-opacity="0.384" stroke-width="2.46" />
<circle cx="360" cy="360" r="198.67" fill="none" stroke="#f5e989" stroke-opacity="0.339" stroke-width="4.40" />
<circle cx="360" cy="360" r="224.00" fill="none" stroke="#f5e989" stroke-opacity="0.464" stroke-width="2.99" />
<circle cx="360" cy="360" r="249.33" fill="none" stroke="#f5e989" stroke-opacity="0.306" stroke-width="2.87" />
<circle cx="360" cy="360" r="274.67" fill="none" stroke="#f5e989" stroke-opacity="0.491" stroke-width="3.19" />
<line x1="648.28" y1="351.54" x2="525.32" y2="355.15" stroke="#f5e989" stroke-opacity="0.372" stroke-width="3.66" stroke-linecap="round" />
<line x1="637.70" y1="419.10" x2="516.92" y2="393.40" stroke="#f5e989" stroke-opacity="0.700" stroke-width="3.39" stroke-linecap="round" />
<line x1="625.36" y1="475.86" x2="515.34" y2="427.83" stroke="#f5e989" stroke-opacity="0.764" stroke-width="1.23" stroke-linecap="round" />
<line x1="600.20" y1="520.58" x2="491.66" y2="448.02" stroke="#f5e989" stroke-opacity="0.632" stroke-width="1.28" stroke-linecap="round" />
<line x1="550.45" y1="571.47" x2="461.08" y2="472.24" stroke="#f5e989" stroke-opacity="0.664" stroke-width="3.57" stroke-linecap="round" />
<line x1="512.27" y1="608.22" x2="452.72" y2="511.14" stroke="#f5e989" stroke-opacity="0.260" stroke-width="3.28" stroke-linecap="round" />
<line x1="463.32" y1="630.75" x2="416.12" y2="507.06" stroke="#f5e989" stroke-opacity="0.416" stroke-width="1.27" stroke-linecap="round" />
<line x1="404.14" y1="650.97" x2="386.48" y2="534.58" stroke="#f5e989" stroke-opacity="0.564" stroke-width="2.27" stroke-linecap="round" />
<line x1="351.15" y1="646.11" x2="355.28" y2="512.73" stroke="#f5e989" stroke-opacity="0.472" stroke-width="3.93" stroke-linecap="round" />
<line x1="286.55" y1="645.76" x2="321.20" y2="510.95" stroke="#f5e989" stroke-opacity="0.274" stroke-width="1.42" stroke-linecap="round" />
<line x1="240.82" y1="616.10" x2="290.30" y2="509.77" stroke="#f5e989" stroke-opacity="0.269" stroke-width="1.69" stroke-linecap="round" />
<line x1="179.84" y1="582.49" x2="260.89" y2="482.40" stroke="#f5e989" stroke-opacity="0.744" stroke-width="1.04" stroke-linecap="round" />
<line x1="144.36" y1="551.47" x2="248.02" y2="459.43" stroke="#f5e989" stroke-opacity="0.733" stroke-width="1.71" stroke-linecap="round" />
<line x1="100.74" y1="502.36" x2="225.71" y2="433.74" stroke="#f5e989" stroke-opacity="0.675" stroke-width="3.89" stroke-linecap="round" />
<line x1="76.02" y1="452.65" x2="204.20" y2="410.83" stroke="#f5e989" stroke-opacity="0.271" stroke-width="3.57" stroke-linecap="round" />
<line x1="73.56" y1="386.88" x2="203.30" y2="374.70" stroke="#f5e989" stroke-opacity="0.578" stroke-width="2.84" stroke-linecap="round" />
<line x1="65.14" y1="323.97" x2="206.61" y2="341.26" stroke="#f5e989" stroke-opacity="0.574" stroke-width="3.06" stroke-linecap="round" />
<line x1="80.78" y1="278.53" x2="209.59" y2="316.11" stroke="#544cf0" stroke-opacity="0.521" stroke-width="3.00" stroke-linecap="round" />
<line x1="111.25" y1="223.25" x2="229.55" y2="288.29" stroke="#f5e989" stroke-opacity="0.308" stroke-width="3.46" stroke-linecap="round" />
<line x1="131.99" y1="165.24" x2="240.39" y2="257.83" stroke="#f5e989" stroke-opacity="0.645" stroke-width="1.17" stroke-linecap="round" />
<line x1="174.34" y1="125.69" x2="267.79" y2="243.63" stroke="#f5e989" stroke-opacity="0.561" stroke-width="3.73" stroke-linecap="round" />
<line x1="238.52" y1="98.58" x2="288.35" y2="205.81" stroke="#f5e989" stroke-opacity="0.297" stroke-width="1.04" stroke-linecap="round" />
<line x1="292.80" y1="72.87" x2="322.34" y2="199.11" stroke="#f5e989" stroke-opacity="0.650" stroke-width="3.07" stroke-linecap="round" />
<line x1="351.44" y1="68.06" x2="354.80" y2="182.67" stroke="#f5e989" stroke-opacity="0.493" stroke-width="3.86" stroke-linecap="round" />
<line x1="405.49" y1="72.49" x2="387.54" y2="185.89" stroke="#f5e989" stroke-opacity="0.600" stroke-width="3.17" stroke-linecap="round" />
<line x1="459.01" y1="93.08" x2="421.48" y2="194.26" stroke="#f5e989" stroke-opacity="0.573" stroke-width="1.59" stroke-linecap="round" />
<line x1="519.90" y1="109.62" x2="455.31" y2="210.75" stroke="#544cf0" stroke-opacity="0.618" stroke-width="2.85" stroke-linecap="round" />
<line x1="557.07" y1="148.65" x2="477.48" y2="234.01" stroke="#f5e989" stroke-opacity="0.703" stroke-width="3.92" stroke-linecap="round" />
<line x1="602.65" y1="186.00" x2="491.66" y2="265.59" stroke="#544cf0" stroke-opacity="0.303" stroke-width="1.67" stroke-linecap="round" />
<line x1="622.35" y1="249.52" x2="508.58" y2="297.43" stroke="#f5e989" stroke-opacity="0.368" stroke-width="2.86" stroke-linecap="round" />
<line x1="651.43" y1="292.25" x2="532.30" y2="319.95" stroke="#544cf0" stroke-opacity="0.742" stroke-width="3.05" stroke-linecap="round" />
<path d="M 411.44 589.07 A 234.77 234.77 0 0 1 259.49 572.17" fill="none" stroke="#544cf0" stroke-opacity="0.304" stroke-width="6.92" stroke-linecap="round" />
<path d="M 453.04 120.36 A 257.07 257.07 0 0 1 607.82 291.67" fill="none" stroke="#544cf0" stroke-opacity="0.296" stroke-width="6.81" stroke-linecap="round" />
<path d="M 486.74 260.08 A 161.40 161.40 0 0 1 469.23 478.81" fill="none" stroke="#f5e989" stroke-opacity="0.303" stroke-width="2.64" stroke-linecap="round" />
<path d="M 592.64 448.72 A 248.99 248.99 0 0 1 541.53 530.41" fill="none" stroke="#544cf0" stroke-opacity="0.466" stroke-width="5.78" stroke-linecap="round" />
<path d="M 173.11 506.84 A 237.68 237.68 0 0 1 128.16 412.36" fill="none" stroke="#544cf0" stroke-opacity="0.442" stroke-width="3.46" stroke-linecap="round" />
<path d="M 347.96 210.49 A 149.99 149.99 0 0 1 508.00 335.62" fill="none" stroke="#544cf0" stroke-opacity="0.359" stroke-width="3.12" stroke-linecap="round" />
<path d="M 475.00 230.16 A 173.45 173.45 0 0 1 532.95 373.09" fill="none" stroke="#f5e989" stroke-opacity="0.180" stroke-width="5.12" stroke-linecap="round" />
</g>
<text x="360" y="684" text-anchor="middle" font-family="ui-monospace, SFMono-Regular, Menlo, Monaco, Consolas, 'Liberation Mono', 'Courier New', monospace" font-size="18" fill="#f5e989" fill-opacity="0.55">20260226T2223Z</text>
</svg>
