<?xml version="1.0" encoding="UTF-8"?>
<svg xmlns="http://www.w3.org/2000/svg" width="720" height="720" viewBox="0 0 720 720" role="img" aria-label="UTC Glyph 20260228T1023Z">
<rect width="100%" height="100%" fill="#160d1c" />
<g>
<circle cx="360" cy="360" r="300" fill="none" stroke="#89f592" stroke-opacity="0.22" stroke-width="2" />
<circle cx="360" cy="360" r="115" fill="none" stroke="#f04cc7" stroke-opacity="0.35" stroke-width="4" />
<circle cx="360" cy="360" r="161.25" fill="none" stroke="#89f592" stroke-opacity="0.342" stroke-width="3.34" />
<circle cx="360" cy="360" r="207.50" fill="none" stroke="#89f592" stroke-opacity="0.537" stroke-width="3.68" />
<circle cx="360" cy="360" r="253.75" fill="none" stroke="#89f592" stroke-opacity="0.282" stroke-width="4.00" />
<line x1="654.26" y1="362.18" x2="492.06" y2="360.98" stroke="#89f592" stroke-opacity="0.568" stroke-width="2.17" stroke-linecap="round" />
<line x1="653.44" y1="400.72" x2="484.83" y2="377.32" stroke="#89f592" stroke-opacity="0.395" stroke-width="1.81" stroke-linecap="round" />
<line x1="626.28" y1="455.01" x2="487.37" y2="405.45" stroke="#89f592" stroke-opacity="0.627" stroke-width="3.62" stroke-linecap="round" />
<line x1="616.20" y1="485.71" x2="471.51" y2="414.72" stroke="#89f592" stroke-opacity="0.326" stroke-width="3.20" stroke-linecap="round" />
<line x1="591.67" y1="537.65" x2="469.96" y2="444.32" stroke="#f04cc7" stroke-opacity="0.749" stroke-width="2.77" stroke-linecap="round" />
<line x1="566.31" y1="571.80" x2="448.54" y2="450.90" stroke="#89f592" stroke-opacity="0.423" stroke-width="2.85" stroke-linecap="round" />
<line x1="531.41" y1="594.50" x2="439.49" y2="468.75" stroke="#89f592" stroke-opacity="0.388" stroke-width="2.73" stroke-linecap="round" />
<line x1="482.74" y1="632.51" x2="416.70" y2="485.89" stroke="#89f592" stroke-opacity="0.382" stroke-width="3.89" stroke-linecap="round" />
<line x1="440.28" y1="641.01" x2="393.30" y2="476.56" stroke="#f04cc7" stroke-opacity="0.347" stroke-width="2.56" stroke-linecap="round" />
<line x1="394.58" y1="656.61" x2="376.45" y2="501.08" stroke="#89f592" stroke-opacity="0.348" stroke-width="2.41" stroke-linecap="round" />
<line x1="356.11" y1="649.68" x2="358.25" y2="490.36" stroke="#89f592" stroke-opacity="0.418" stroke-width="3.92" stroke-linecap="round" />
<line x1="310.16" y1="646.54" x2="336.36" y2="495.95" stroke="#89f592" stroke-opacity="0.324" stroke-width="2.73" stroke-linecap="round" />
<line x1="255.79" y1="631.19" x2="309.65" y2="491.03" stroke="#f04cc7" stroke-opacity="0.426" stroke-width="2.20" stroke-linecap="round" />
<line x1="216.69" y1="612.91" x2="292.90" y2="478.41" stroke="#89f592" stroke-opacity="0.411" stroke-width="3.42" stroke-linecap="round" />
<line x1="167.95" y1="584.41" x2="274.59" y2="459.80" stroke="#89f592" stroke-opacity="0.447" stroke-width="1.96" stroke-linecap="round" />
<line x1="141.95" y1="553.87" x2="265.14" y2="444.34" stroke="#89f592" stroke-opacity="0.532" stroke-width="1.48" stroke-linecap="round" />
<line x1="113.16" y1="508.16" x2="255.39" y2="422.79" stroke="#89f592" stroke-opacity="0.581" stroke-width="3.70" stroke-linecap="round" />
<line x1="89.14" y1="477.78" x2="232.78" y2="415.32" stroke="#f04cc7" stroke-opacity="0.763" stroke-width="2.09" stroke-linecap="round" />
<line x1="70.84" y1="432.88" x2="232.85" y2="392.05" stroke="#f04cc7" stroke-opacity="0.433" stroke-width="3.75" stroke-linecap="round" />
<line x1="75.59" y1="382.99" x2="232.41" y2="370.31" stroke="#89f592" stroke-opacity="0.745" stroke-width="3.31" stroke-linecap="round" />
<line x1="65.11" y1="338.73" x2="242.46" y2="351.52" stroke="#89f592" stroke-opacity="0.714" stroke-width="3.63" stroke-linecap="round" />
<line x1="81.84" y1="297.45" x2="238.34" y2="332.64" stroke="#89f592" stroke-opacity="0.710" stroke-width="3.86" stroke-linecap="round" />
<line x1="93.02" y1="244.86" x2="247.79" y2="311.61" stroke="#89f592" stroke-opacity="0.533" stroke-width="2.45" stroke-linecap="round" />
<line x1="110.82" y1="193.47" x2="259.69" y2="292.96" stroke="#89f592" stroke-opacity="0.290" stroke-width="2.29" stroke-linecap="round" />
<line x1="152.82" y1="165.58" x2="268.02" y2="273.68" stroke="#89f592" stroke-opacity="0.762" stroke-width="2.85" stroke-linecap="round" />
<line x1="182.16" y1="129.65" x2="273.05" y2="247.38" stroke="#89f592" stroke-opacity="0.304" stroke-width="1.08" stroke-linecap="round" />
<line x1="210.37" y1="111.74" x2="287.44" y2="239.62" stroke="#f04cc7" stroke-opacity="0.331" stroke-width="3.39" stroke-linecap="round" />
<line x1="254.63" y1="89.43" x2="314.23" y2="242.47" stroke="#89f592" stroke-opacity="0.422" stroke-width="2.89" stroke-linecap="round" />
<line x1="309.62" y1="81.15" x2="334.37" y2="218.14" stroke="#89f592" stroke-opacity="0.756" stroke-width="2.46" stroke-linecap="round" />
<line x1="340.89" y1="63.29" x2="351.44" y2="227.04" stroke="#f04cc7" stroke-opacity="0.376" stroke-width="1.59" stroke-linecap="round" />
<line x1="390.47" y1="65.21" x2="374.57" y2="218.98" stroke="#89f592" stroke-opacity="0.745" stroke-width="2.15" stroke-linecap="round" />
<line x1="435.87" y1="79.46" x2="392.17" y2="241.06" stroke="#89f592" stroke-opacity="0.411" stroke-width="1.12" stroke-linecap="round" />
<line x1="485.46" y1="92.27" x2="420.40" y2="231.11" stroke="#89f592" stroke-opacity="0.474" stroke-width="1.22" stroke-linecap="round" />
<line x1="525.61" y1="114.30" x2="435.55" y2="247.92" stroke="#89f592" stroke-opacity="0.486" stroke-width="1.63" stroke-linecap="round" />
<line x1="552.42" y1="147.34" x2="438.76" y2="272.96" stroke="#89f592" stroke-opacity="0.581" stroke-width="2.09" stroke-linecap="round" />
<line x1="590.38" y1="194.20" x2="455.44" y2="291.31" stroke="#89f592" stroke-opacity="0.432" stroke-width="3.13" stroke-linecap="round" />
<line x1="611.78" y1="219.85" x2="460.98" y2="303.79" stroke="#89f592" stroke-opacity="0.498" stroke-width="3.86" stroke-linecap="round" />
<line x1="630.48" y1="277.45" x2="483.67" y2="322.26" stroke="#89f592" stroke-opacity="0.444" stroke-width="1.93" stroke-linecap="round" />
<line x1="643.90" y1="320.72" x2="495.29" y2="341.28" stroke="#f04cc7" stroke-opacity="0.749" stroke-width="1.64" stroke-linecap="round" />
<path d="M 577.14 418.21 A 224.80 224.80 0 0 1 429.10 573.92" fill="none" stroke="#89f592" stroke-opacity="0.314" stroke-width="3.06" stroke-linecap="round" />
<path d="M 302.60 595.42 A 242.32 242.32 0 0 1 117.73 354.86" fill="none" stroke="#89f592" stroke-opacity="0.191" stroke-width="6.52" stroke-linecap="round" />
<path d="M 203.01 339.05 A 158.38 158.38 0 0 1 301.51 212.82" fill="none" stroke="#89f592" stroke-opacity="0.279" stroke-width="5.70" stroke-linecap="round" />
<path d="M 447.63 248.31 A 141.96 141.96 0 0 1 494.06 313.28" fill="none" stroke="#89f592" stroke-opacity="0.264" stroke-width="4.33" stroke-linecap="round" />
<path d="M 212.72 251.69 A 182.82 182.82 0 0 1 349.00 177.51" fill="none" stroke="#89f592" stroke-opacity="0.342" stroke-width="5.16" stroke-linecap="round" />
<path d="M 243.71 173.96 A 219.40 219.40 0 0 1 517.47 207.23" fill="none" stroke="#89f592" stroke-opacity="0.365" stroke-width="6.16" stroke-linecap="round" />
<path d="M 292.81 68.94 A 298.72 298.72 0 0 1 585.25 163.80" fill="none" stroke="#f04cc7" stroke-opacity="0.269" stroke-width="4.59" stroke-linecap="round" />
</g>
<text x="360" y="684" text-anchor="middle" font-family="ui-monospace, SFMono-Regular, Menlo, Monaco, Consolas, 'Liberation Mono', 'Courier New', monospace" font-size="18" fill="#89f592" fill-opacity="0.55">20260228T1023Z</text>
</svg>
