<?xml version="1.0" encoding="UTF-8"?>
<svg xmlns="http://www.w3.org/2000/svg" width="720" height="720" viewBox="0 0 720 720" role="img" aria-label="UTC Glyph 2026-02-20T16-24-11Z">
<rect width="100%" height="100%" fill="#0d111c" />
<g>
<circle cx="360" cy="360" r="300" fill="none" stroke="#d9f589" stroke-opacity="0.22" stroke-width="2" />
<circle cx="360" cy="360" r="159" fill="none" stroke="#934cf0" stroke-opacity="0.35" stroke-width="4" />
<circle cx="360" cy="360" r="182.50" fill="none" stroke="#d9f589" stroke-opacity="0.497" stroke-width="3.04" />
<circle cx="360" cy="360" r="206.00" fill="none" stroke="#d9f589" stroke-opacity="0.541" stroke-width="3.37" />
<circle cx="360" cy="360" r="229.50" fill="none" stroke="#d9f589" stroke-opacity="0.327" stroke-width="2.57" />
<circle cx="360" cy="360" r="253.00" fill="none" stroke="#d9f589" stroke-opacity="0.500" stroke-width="4.10" />
<circle cx="360" cy="360" r="276.50" fill="none" stroke="#d9f589" stroke-opacity="0.449" stroke-width="4.41" />
<line x1="645.83" y1="355.17" x2="548.39" y2="356.82" stroke="#d9f589" stroke-opacity="0.483" stroke-width="1.85" stroke-linecap="round" />
<line x1="644.36" y1="399.35" x2="544.60" y2="385.55" stroke="#d9f589" stroke-opacity="0.735" stroke-width="1.29" stroke-linecap="round" />
<line x1="640.25" y1="451.18" x2="533.57" y2="416.47" stroke="#d9f589" stroke-opacity="0.755" stroke-width="1.89" stroke-linecap="round" />
<line x1="615.64" y1="499.92" x2="510.11" y2="442.16" stroke="#d9f589" stroke-opacity="0.776" stroke-width="1.85" stroke-linecap="round" />
<line x1="601.03" y1="533.37" x2="513.11" y2="470.13" stroke="#d9f589" stroke-opacity="0.462" stroke-width="2.97" stroke-linecap="round" />
<line x1="566.15" y1="563.39" x2="482.10" y2="480.47" stroke="#d9f589" stroke-opacity="0.490" stroke-width="1.34" stroke-linecap="round" />
<line x1="532.34" y1="602.19" x2="462.16" y2="503.57" stroke="#d9f589" stroke-opacity="0.321" stroke-width="1.38" stroke-linecap="round" />
<line x1="491.88" y1="628.13" x2="434.90" y2="512.27" stroke="#934cf0" stroke-opacity="0.649" stroke-width="2.48" stroke-linecap="round" />
<line x1="439.19" y1="646.29" x2="402.92" y2="515.16" stroke="#934cf0" stroke-opacity="0.521" stroke-width="2.46" stroke-linecap="round" />
<line x1="402.41" y1="640.27" x2="386.17" y2="532.94" stroke="#d9f589" stroke-opacity="0.252" stroke-width="2.06" stroke-linecap="round" />
<line x1="355.71" y1="643.00" x2="357.35" y2="534.82" stroke="#d9f589" stroke-opacity="0.533" stroke-width="2.26" stroke-linecap="round" />
<line x1="302.07" y1="645.41" x2="326.42" y2="525.46" stroke="#d9f589" stroke-opacity="0.343" stroke-width="1.25" stroke-linecap="round" />
<line x1="247.00" y1="633.71" x2="294.73" y2="518.09" stroke="#d9f589" stroke-opacity="0.435" stroke-width="3.72" stroke-linecap="round" />
<line x1="213.13" y1="610.20" x2="265.90" y2="520.31" stroke="#d9f589" stroke-opacity="0.779" stroke-width="2.84" stroke-linecap="round" />
<line x1="179.94" y1="578.80" x2="248.48" y2="495.51" stroke="#d9f589" stroke-opacity="0.739" stroke-width="1.85" stroke-linecap="round" />
<line x1="139.06" y1="553.79" x2="224.80" y2="478.58" stroke="#934cf0" stroke-opacity="0.487" stroke-width="3.76" stroke-linecap="round" />
<line x1="117.96" y1="509.71" x2="222.19" y2="445.24" stroke="#d9f589" stroke-opacity="0.392" stroke-width="2.26" stroke-linecap="round" />
<line x1="97.67" y1="475.72" x2="200.79" y2="430.23" stroke="#d9f589" stroke-opacity="0.321" stroke-width="2.91" stroke-linecap="round" />
<line x1="73.50" y1="423.10" x2="185.19" y2="398.50" stroke="#d9f589" stroke-opacity="0.647" stroke-width="2.39" stroke-linecap="round" />
<line x1="69.69" y1="388.03" x2="192.63" y2="376.16" stroke="#d9f589" stroke-opacity="0.448" stroke-width="3.59" stroke-linecap="round" />
<line x1="65.50" y1="330.87" x2="178.86" y2="342.08" stroke="#d9f589" stroke-opacity="0.259" stroke-width="1.17" stroke-linecap="round" />
<line x1="79.90" y1="287.68" x2="183.70" y2="314.48" stroke="#d9f589" stroke-opacity="0.796" stroke-width="1.19" stroke-linecap="round" />
<line x1="97.68" y1="245.68" x2="196.23" y2="288.63" stroke="#d9f589" stroke-opacity="0.603" stroke-width="3.59" stroke-linecap="round" />
<line x1="118.54" y1="213.09" x2="200.27" y2="262.82" stroke="#d9f589" stroke-opacity="0.342" stroke-width="2.94" stroke-linecap="round" />
<line x1="140.08" y1="169.95" x2="227.08" y2="245.13" stroke="#d9f589" stroke-opacity="0.776" stroke-width="2.51" stroke-linecap="round" />
<line x1="175.39" y1="135.49" x2="252.65" y2="229.44" stroke="#d9f589" stroke-opacity="0.680" stroke-width="2.84" stroke-linecap="round" />
<line x1="206.16" y1="107.76" x2="271.78" y2="215.35" stroke="#d9f589" stroke-opacity="0.335" stroke-width="2.44" stroke-linecap="round" />
<line x1="262.66" y1="86.76" x2="302.65" y2="199.00" stroke="#934cf0" stroke-opacity="0.643" stroke-width="3.23" stroke-linecap="round" />
<line x1="305.05" y1="79.03" x2="327.96" y2="196.19" stroke="#d9f589" stroke-opacity="0.324" stroke-width="1.39" stroke-linecap="round" />
<line x1="340.40" y1="73.87" x2="348.99" y2="199.30" stroke="#934cf0" stroke-opacity="0.745" stroke-width="2.27" stroke-linecap="round" />
<line x1="393.78" y1="68.22" x2="378.33" y2="201.64" stroke="#934cf0" stroke-opacity="0.628" stroke-width="2.61" stroke-linecap="round" />
<line x1="439.91" y1="74.24" x2="406.61" y2="193.31" stroke="#d9f589" stroke-opacity="0.440" stroke-width="2.73" stroke-linecap="round" />
<line x1="490.06" y1="90.93" x2="436.86" y2="201.00" stroke="#d9f589" stroke-opacity="0.453" stroke-width="3.21" stroke-linecap="round" />
<line x1="529.65" y1="121.23" x2="462.50" y2="215.74" stroke="#d9f589" stroke-opacity="0.434" stroke-width="3.81" stroke-linecap="round" />
<line x1="563.94" y1="141.99" x2="477.62" y2="234.27" stroke="#d9f589" stroke-opacity="0.266" stroke-width="1.74" stroke-linecap="round" />
<line x1="593.58" y1="177.40" x2="506.30" y2="245.63" stroke="#d9f589" stroke-opacity="0.656" stroke-width="3.96" stroke-linecap="round" />
<line x1="617.55" y1="216.53" x2="524.23" y2="268.52" stroke="#d9f589" stroke-opacity="0.287" stroke-width="2.15" stroke-linecap="round" />
<line x1="639.28" y1="265.99" x2="511.78" y2="308.91" stroke="#d9f589" stroke-opacity="0.444" stroke-width="2.80" stroke-linecap="round" />
<line x1="650.18" y1="307.02" x2="529.94" y2="328.97" stroke="#d9f589" stroke-opacity="0.349" stroke-width="3.41" stroke-linecap="round" />
<path d="M 134.40 321.09 A 228.93 228.93 0 0 1 200.18 196.09" fill="none" stroke="#934cf0" stroke-opacity="0.385" stroke-width="3.15" stroke-linecap="round" />
<path d="M 199.73 476.84 A 198.34 198.34 0 0 1 168.34 411.04" fill="none" stroke="#d9f589" stroke-opacity="0.403" stroke-width="2.90" stroke-linecap="round" />
<path d="M 537.50 502.19 A 227.43 227.43 0 0 1 411.11 581.61" fill="none" stroke="#934cf0" stroke-opacity="0.361" stroke-width="6.52" stroke-linecap="round" />
<path d="M 105.46 425.33 A 262.79 262.79 0 0 1 234.78 128.96" fill="none" stroke="#d9f589" stroke-opacity="0.432" stroke-width="6.77" stroke-linecap="round" />
<path d="M 580.26 186.42 A 280.43 280.43 0 0 1 576.86 537.80" fill="none" stroke="#d9f589" stroke-opacity="0.432" stroke-width="5.52" stroke-linecap="round" />
<path d="M 475.28 190.40 A 205.07 205.07 0 0 1 555.89 299.34" fill="none" stroke="#d9f589" stroke-opacity="0.313" stroke-width="5.11" stroke-linecap="round" />
<path d="M 527.12 151.54 A 267.17 267.17 0 0 1 622.79 311.78" fill="none" stroke="#934cf0" stroke-opacity="0.241" stroke-width="6.05" stroke-linecap="round" />
</g>
<text x="360" y="684" text-anchor="middle" font-family="ui-monospace, SFMono-Regular, Menlo, Monaco, Consolas, 'Liberation Mono', 'Courier New', monospace" font-size="18" fill="#d9f589" fill-opacity="0.55">2026-02-20T16-24-11Z</text>
</svg>
