<?xml version="1.0" encoding="UTF-8"?>
<svg xmlns="http://www.w3.org/2000/svg" width="720" height="720" viewBox="0 0 720 720" role="img" aria-label="UTC Glyph 2026-02-23T22-23-00Z">
<rect width="100%" height="100%" fill="#0d1c12" />
<g>
<circle cx="360" cy="360" r="300" fill="none" stroke="#f58998" stroke-opacity="0.22" stroke-width="2" />
<circle cx="360" cy="360" r="172" fill="none" stroke="#4cebf0" stroke-opacity="0.35" stroke-width="4" />
<circle cx="360" cy="360" r="197.60" fill="none" stroke="#f58998" stroke-opacity="0.310" stroke-width="2.65" />
<circle cx="360" cy="360" r="223.20" fill="none" stroke="#f58998" stroke-opacity="0.437" stroke-width="2.44" />
<circle cx="360" cy="360" r="248.80" fill="none" stroke="#f58998" stroke-opacity="0.504" stroke-width="2.14" />
<circle cx="360" cy="360" r="274.40" fill="none" stroke="#f58998" stroke-opacity="0.303" stroke-width="3.45" />
<line x1="642.95" y1="356.78" x2="552.05" y2="357.81" stroke="#f58998" stroke-opacity="0.643" stroke-width="1.68" stroke-linecap="round" />
<line x1="648.21" y1="403.18" x2="530.90" y2="385.61" stroke="#f58998" stroke-opacity="0.723" stroke-width="3.77" stroke-linecap="round" />
<line x1="639.06" y1="462.00" x2="540.18" y2="425.86" stroke="#f58998" stroke-opacity="0.261" stroke-width="1.10" stroke-linecap="round" />
<line x1="613.77" y1="510.44" x2="530.43" y2="461.04" stroke="#f58998" stroke-opacity="0.670" stroke-width="1.05" stroke-linecap="round" />
<line x1="588.71" y1="537.12" x2="496.18" y2="465.46" stroke="#f58998" stroke-opacity="0.593" stroke-width="1.08" stroke-linecap="round" />
<line x1="563.73" y1="578.52" x2="480.15" y2="488.88" stroke="#4cebf0" stroke-opacity="0.515" stroke-width="3.80" stroke-linecap="round" />
<line x1="504.94" y1="602.56" x2="456.69" y2="521.81" stroke="#4cebf0" stroke-opacity="0.603" stroke-width="1.75" stroke-linecap="round" />
<line x1="459.80" y1="629.91" x2="426.82" y2="540.73" stroke="#f58998" stroke-opacity="0.547" stroke-width="2.42" stroke-linecap="round" />
<line x1="417.06" y1="638.82" x2="399.69" y2="553.97" stroke="#f58998" stroke-opacity="0.580" stroke-width="3.59" stroke-linecap="round" />
<line x1="376.04" y1="642.38" x2="371.40" y2="560.69" stroke="#4cebf0" stroke-opacity="0.330" stroke-width="2.36" stroke-linecap="round" />
<line x1="332.16" y1="643.17" x2="342.37" y2="539.33" stroke="#f58998" stroke-opacity="0.706" stroke-width="1.99" stroke-linecap="round" />
<line x1="273.14" y1="640.72" x2="305.41" y2="536.42" stroke="#f58998" stroke-opacity="0.327" stroke-width="2.38" stroke-linecap="round" />
<line x1="234.83" y1="627.85" x2="279.67" y2="531.89" stroke="#f58998" stroke-opacity="0.289" stroke-width="3.98" stroke-linecap="round" />
<line x1="180.89" y1="600.42" x2="244.12" y2="515.54" stroke="#f58998" stroke-opacity="0.774" stroke-width="1.94" stroke-linecap="round" />
<line x1="143.74" y1="555.22" x2="231.25" y2="476.22" stroke="#f58998" stroke-opacity="0.372" stroke-width="1.52" stroke-linecap="round" />
<line x1="113.44" y1="516.47" x2="209.94" y2="455.23" stroke="#f58998" stroke-opacity="0.451" stroke-width="2.78" stroke-linecap="round" />
<line x1="99.41" y1="472.29" x2="180.31" y2="437.43" stroke="#f58998" stroke-opacity="0.743" stroke-width="2.71" stroke-linecap="round" />
<line x1="78.36" y1="432.73" x2="172.43" y2="408.43" stroke="#f58998" stroke-opacity="0.617" stroke-width="1.90" stroke-linecap="round" />
<line x1="62.91" y1="392.14" x2="160.32" y2="381.60" stroke="#f58998" stroke-opacity="0.661" stroke-width="1.71" stroke-linecap="round" />
<line x1="67.65" y1="326.81" x2="160.73" y2="337.37" stroke="#4cebf0" stroke-opacity="0.506" stroke-width="2.46" stroke-linecap="round" />
<line x1="84.64" y1="282.21" x2="169.53" y2="306.20" stroke="#f58998" stroke-opacity="0.624" stroke-width="2.16" stroke-linecap="round" />
<line x1="90.78" y1="239.60" x2="201.94" y2="289.31" stroke="#f58998" stroke-opacity="0.584" stroke-width="1.81" stroke-linecap="round" />
<line x1="128.18" y1="197.04" x2="216.07" y2="258.83" stroke="#f58998" stroke-opacity="0.563" stroke-width="1.40" stroke-linecap="round" />
<line x1="149.00" y1="151.25" x2="218.27" y2="219.78" stroke="#f58998" stroke-opacity="0.290" stroke-width="1.52" stroke-linecap="round" />
<line x1="190.19" y1="123.08" x2="243.99" y2="198.14" stroke="#4cebf0" stroke-opacity="0.529" stroke-width="1.65" stroke-linecap="round" />
<line x1="221.26" y1="103.81" x2="272.45" y2="198.34" stroke="#f58998" stroke-opacity="0.765" stroke-width="2.21" stroke-linecap="round" />
<line x1="283.16" y1="82.15" x2="310.52" y2="181.07" stroke="#f58998" stroke-opacity="0.646" stroke-width="3.62" stroke-linecap="round" />
<line x1="330.78" y1="78.40" x2="339.49" y2="162.28" stroke="#4cebf0" stroke-opacity="0.788" stroke-width="1.72" stroke-linecap="round" />
<line x1="367.31" y1="72.26" x2="364.78" y2="171.80" stroke="#f58998" stroke-opacity="0.760" stroke-width="3.19" stroke-linecap="round" />
<line x1="415.51" y1="67.47" x2="394.70" y2="177.15" stroke="#f58998" stroke-opacity="0.262" stroke-width="1.56" stroke-linecap="round" />
<line x1="470.90" y1="85.97" x2="432.70" y2="180.37" stroke="#4cebf0" stroke-opacity="0.601" stroke-width="3.74" stroke-linecap="round" />
<line x1="509.25" y1="116.82" x2="456.21" y2="203.24" stroke="#f58998" stroke-opacity="0.652" stroke-width="2.70" stroke-linecap="round" />
<line x1="551.45" y1="130.18" x2="471.76" y2="225.84" stroke="#f58998" stroke-opacity="0.583" stroke-width="1.26" stroke-linecap="round" />
<line x1="579.57" y1="180.17" x2="500.08" y2="245.27" stroke="#f58998" stroke-opacity="0.786" stroke-width="1.39" stroke-linecap="round" />
<line x1="624.29" y1="220.37" x2="527.26" y2="271.63" stroke="#4cebf0" stroke-opacity="0.506" stroke-width="3.68" stroke-linecap="round" />
<line x1="632.55" y1="272.74" x2="549.26" y2="299.41" stroke="#f58998" stroke-opacity="0.474" stroke-width="1.63" stroke-linecap="round" />
<line x1="646.22" y1="307.77" x2="539.24" y2="327.29" stroke="#f58998" stroke-opacity="0.445" stroke-width="1.56" stroke-linecap="round" />
<path d="M 216.07 454.46 A 172.15 172.15 0 0 1 238.84 237.70" fill="none" stroke="#4cebf0" stroke-opacity="0.440" stroke-width="7.47" stroke-linecap="round" />
<path d="M 485.33 201.03 A 202.43 202.43 0 0 1 549.76 289.50" fill="none" stroke="#f58998" stroke-opacity="0.401" stroke-width="2.95" stroke-linecap="round" />
<path d="M 593.32 468.46 A 257.30 257.30 0 0 1 508.08 570.42" fill="none" stroke="#f58998" stroke-opacity="0.274" stroke-width="6.71" stroke-linecap="round" />
<path d="M 231.03 526.76 A 210.81 210.81 0 0 1 184.97 477.50" fill="none" stroke="#f58998" stroke-opacity="0.218" stroke-width="5.40" stroke-linecap="round" />
<path d="M 257.17 565.97 A 230.22 230.22 0 0 1 146.43 445.94" fill="none" stroke="#4cebf0" stroke-opacity="0.255" stroke-width="5.98" stroke-linecap="round" />
<path d="M 393.15 594.80 A 237.13 237.13 0 0 1 212.09 545.35" fill="none" stroke="#4cebf0" stroke-opacity="0.466" stroke-width="5.81" stroke-linecap="round" />
<path d="M 567.02 419.82 A 215.49 215.49 0 0 1 431.76 563.19" fill="none" stroke="#4cebf0" stroke-opacity="0.229" stroke-width="2.78" stroke-linecap="round" />
<path d="M 231.33 602.48 A 274.50 274.50 0 0 1 95.95 435.01" fill="none" stroke="#f58998" stroke-opacity="0.381" stroke-width="5.01" stroke-linecap="round" />
<path d="M 558.55 242.02 A 230.96 230.96 0 0 1 565.24 465.92" fill="none" stroke="#4cebf0" stroke-opacity="0.454" stroke-width="4.56" stroke-linecap="round" />
<path d="M 650.51 377.88 A 291.06 291.06 0 0 1 600.24 524.31" fill="none" stroke="#4cebf0" stroke-opacity="0.403" stroke-width="5.34" stroke-linecap="round" />
<path d="M 254.55 95.90 A 284.38 284.38 0 0 1 409.68 80.00" fill="none" stroke="#4cebf0" stroke-opacity="0.391" stroke-width="6.94" stroke-linecap="round" />
<path d="M 217.43 592.20 A 272.47 272.47 0 0 1 88.23 379.49" fill="none" stroke="#f58998" stroke-opacity="0.405" stroke-width="2.10" stroke-linecap="round" />
</g>
<text x="360" y="684" text-anchor="middle" font-family="ui-monospace, SFMono-Regular, Menlo, Monaco, Consolas, 'Liberation Mono', 'Courier New', monospace" font-size="18" fill="#f58998" fill-opacity="0.55">2026-02-23T22-23-00Z</text>
</svg>
