<?xml version="1.0" encoding="UTF-8"?>
<svg xmlns="http://www.w3.org/2000/svg" width="720" height="720" viewBox="0 0 720 720" role="img" aria-label="UTC Glyph 20260224T2223Z">
<rect width="100%" height="100%" fill="#0e0d1c" />
<g>
<circle cx="360" cy="360" r="300" fill="none" stroke="#b8f589" stroke-opacity="0.22" stroke-width="2" />
<circle cx="360" cy="360" r="189" fill="none" stroke="#c54cf0" stroke-opacity="0.35" stroke-width="4" />
<circle cx="360" cy="360" r="211.20" fill="none" stroke="#b8f589" stroke-opacity="0.524" stroke-width="2.73" />
<circle cx="360" cy="360" r="233.40" fill="none" stroke="#b8f589" stroke-opacity="0.508" stroke-width="2.83" />
<circle cx="360" cy="360" r="255.60" fill="none" stroke="#b8f589" stroke-opacity="0.492" stroke-width="3.14" />
<circle cx="360" cy="360" r="277.80" fill="none" stroke="#b8f589" stroke-opacity="0.300" stroke-width="3.15" />
<line x1="654.24" y1="353.64" x2="558.12" y2="355.72" stroke="#c54cf0" stroke-opacity="0.392" stroke-width="2.56" stroke-linecap="round" />
<line x1="642.81" y1="414.94" x2="553.26" y2="397.54" stroke="#c54cf0" stroke-opacity="0.541" stroke-width="3.32" stroke-linecap="round" />
<line x1="628.82" y1="465.46" x2="550.93" y2="434.90" stroke="#b8f589" stroke-opacity="0.620" stroke-width="2.08" stroke-linecap="round" />
<line x1="620.62" y1="506.68" x2="539.32" y2="460.92" stroke="#b8f589" stroke-opacity="0.702" stroke-width="2.17" stroke-linecap="round" />
<line x1="585.05" y1="545.97" x2="506.63" y2="481.16" stroke="#b8f589" stroke-opacity="0.308" stroke-width="3.51" stroke-linecap="round" />
<line x1="543.82" y1="585.75" x2="492.26" y2="522.43" stroke="#b8f589" stroke-opacity="0.754" stroke-width="2.22" stroke-linecap="round" />
<line x1="510.46" y1="606.30" x2="472.02" y2="543.37" stroke="#c54cf0" stroke-opacity="0.487" stroke-width="2.35" stroke-linecap="round" />
<line x1="465.76" y1="629.18" x2="439.01" y2="561.10" stroke="#b8f589" stroke-opacity="0.670" stroke-width="3.97" stroke-linecap="round" />
<line x1="409.90" y1="649.98" x2="396.25" y2="570.64" stroke="#b8f589" stroke-opacity="0.253" stroke-width="1.97" stroke-linecap="round" />
<line x1="353.99" y1="643.60" x2="355.40" y2="576.78" stroke="#b8f589" stroke-opacity="0.607" stroke-width="2.55" stroke-linecap="round" />
<line x1="304.95" y1="649.12" x2="323.07" y2="553.98" stroke="#b8f589" stroke-opacity="0.756" stroke-width="2.34" stroke-linecap="round" />
<line x1="265.58" y1="636.93" x2="290.28" y2="564.46" stroke="#b8f589" stroke-opacity="0.551" stroke-width="3.50" stroke-linecap="round" />
<line x1="214.03" y1="603.39" x2="255.00" y2="535.08" stroke="#c54cf0" stroke-opacity="0.367" stroke-width="3.07" stroke-linecap="round" />
<line x1="172.88" y1="573.73" x2="216.46" y2="523.95" stroke="#b8f589" stroke-opacity="0.499" stroke-width="3.39" stroke-linecap="round" />
<line x1="131.98" y1="550.46" x2="207.91" y2="487.03" stroke="#b8f589" stroke-opacity="0.275" stroke-width="1.43" stroke-linecap="round" />
<line x1="107.08" y1="510.74" x2="181.79" y2="466.21" stroke="#b8f589" stroke-opacity="0.284" stroke-width="2.69" stroke-linecap="round" />
<line x1="87.82" y1="456.53" x2="161.01" y2="430.58" stroke="#b8f589" stroke-opacity="0.635" stroke-width="1.15" stroke-linecap="round" />
<line x1="68.60" y1="416.46" x2="162.10" y2="398.34" stroke="#b8f589" stroke-opacity="0.399" stroke-width="3.02" stroke-linecap="round" />
<line x1="68.40" y1="355.79" x2="146.67" y2="356.92" stroke="#b8f589" stroke-opacity="0.636" stroke-width="3.53" stroke-linecap="round" />
<line x1="75.32" y1="301.39" x2="148.80" y2="316.52" stroke="#b8f589" stroke-opacity="0.511" stroke-width="3.03" stroke-linecap="round" />
<line x1="87.91" y1="260.44" x2="176.04" y2="292.69" stroke="#b8f589" stroke-opacity="0.440" stroke-width="1.41" stroke-linecap="round" />
<line x1="100.71" y1="211.10" x2="178.78" y2="255.93" stroke="#b8f589" stroke-opacity="0.328" stroke-width="2.15" stroke-linecap="round" />
<line x1="135.12" y1="182.04" x2="197.06" y2="231.06" stroke="#b8f589" stroke-opacity="0.654" stroke-width="1.71" stroke-linecap="round" />
<line x1="179.72" y1="135.37" x2="238.65" y2="208.80" stroke="#b8f589" stroke-opacity="0.482" stroke-width="2.93" stroke-linecap="round" />
<line x1="204.52" y1="105.19" x2="246.13" y2="173.38" stroke="#b8f589" stroke-opacity="0.756" stroke-width="3.23" stroke-linecap="round" />
<line x1="259.37" y1="79.21" x2="292.68" y2="172.16" stroke="#c54cf0" stroke-opacity="0.627" stroke-width="1.16" stroke-linecap="round" />
<line x1="315.38" y1="79.00" x2="329.09" y2="165.33" stroke="#b8f589" stroke-opacity="0.588" stroke-width="2.63" stroke-linecap="round" />
<line x1="356.20" y1="77.02" x2="357.21" y2="152.36" stroke="#c54cf0" stroke-opacity="0.509" stroke-width="3.54" stroke-linecap="round" />
<line x1="409.73" y1="75.08" x2="395.50" y2="156.60" stroke="#b8f589" stroke-opacity="0.627" stroke-width="3.59" stroke-linecap="round" />
<line x1="463.33" y1="90.09" x2="434.21" y2="166.16" stroke="#b8f589" stroke-opacity="0.746" stroke-width="2.40" stroke-linecap="round" />
<line x1="506.08" y1="114.56" x2="466.76" y2="180.62" stroke="#b8f589" stroke-opacity="0.599" stroke-width="1.47" stroke-linecap="round" />
<line x1="545.18" y1="146.62" x2="500.57" y2="198.03" stroke="#b8f589" stroke-opacity="0.724" stroke-width="3.55" stroke-linecap="round" />
<line x1="577.96" y1="170.06" x2="506.06" y2="232.72" stroke="#c54cf0" stroke-opacity="0.785" stroke-width="2.08" stroke-linecap="round" />
<line x1="619.60" y1="218.08" x2="543.94" y2="259.44" stroke="#b8f589" stroke-opacity="0.684" stroke-width="1.89" stroke-linecap="round" />
<line x1="634.30" y1="263.60" x2="543.72" y2="295.44" stroke="#b8f589" stroke-opacity="0.742" stroke-width="1.21" stroke-linecap="round" />
<line x1="637.40" y1="308.75" x2="548.42" y2="325.19" stroke="#b8f589" stroke-opacity="0.592" stroke-width="3.52" stroke-linecap="round" />
<path d="M 253.59 113.87 A 268.15 268.15 0 0 1 596.40 233.44" fill="none" stroke="#c54cf0" stroke-opacity="0.360" stroke-width="4.47" stroke-linecap="round" />
<path d="M 110.14 494.38 A 283.70 283.70 0 0 1 78.60 323.90" fill="none" stroke="#c54cf0" stroke-opacity="0.514" stroke-width="2.62" stroke-linecap="round" />
<path d="M 461.81 133.90 A 247.96 247.96 0 0 1 600.08 422.01" fill="none" stroke="#b8f589" stroke-opacity="0.192" stroke-width="3.30" stroke-linecap="round" />
<path d="M 473.70 613.65 A 277.97 277.97 0 0 1 227.41 604.31" fill="none" stroke="#c54cf0" stroke-opacity="0.242" stroke-width="4.35" stroke-linecap="round" />
<path d="M 388.84 137.75 A 224.11 224.11 0 0 1 583.82 348.59" fill="none" stroke="#c54cf0" stroke-opacity="0.251" stroke-width="4.96" stroke-linecap="round" />
<path d="M 124.82 262.06 A 254.76 254.76 0 0 1 291.39 114.65" fill="none" stroke="#c54cf0" stroke-opacity="0.404" stroke-width="4.33" stroke-linecap="round" />
<path d="M 225.76 127.02 A 268.89 268.89 0 0 1 382.41 92.05" fill="none" stroke="#b8f589" stroke-opacity="0.426" stroke-width="2.78" stroke-linecap="round" />
<path d="M 616.88 389.70 A 258.59 258.59 0 0 1 349.80 618.39" fill="none" stroke="#c54cf0" stroke-opacity="0.400" stroke-width="4.19" stroke-linecap="round" />
<path d="M 105.46 451.42 A 270.46 270.46 0 0 1 185.98 152.96" fill="none" stroke="#c54cf0" stroke-opacity="0.280" stroke-width="7.72" stroke-linecap="round" />
</g>
<text x="360" y="684" text-anchor="middle" font-family="ui-monospace, SFMono-Regular, Menlo, Monaco, Consolas, 'Liberation Mono', 'Courier New', monospace" font-size="18" fill="#b8f589" fill-opacity="0.55">20260224T2223Z</text>
</svg>
