<?xml version="1.0" encoding="UTF-8"?>
<svg xmlns="http://www.w3.org/2000/svg" width="720" height="720" viewBox="0 0 720 720" role="img" aria-label="UTC Glyph 2026-02-20T10-23-59Z">
<rect width="100%" height="100%" fill="#1c150d" />
<g>
<circle cx="360" cy="360" r="300" fill="none" stroke="#9089f5" stroke-opacity="0.22" stroke-width="2" />
<circle cx="360" cy="360" r="126" fill="none" stroke="#caf04c" stroke-opacity="0.35" stroke-width="4" />
<circle cx="360" cy="360" r="160.80" fill="none" stroke="#9089f5" stroke-opacity="0.488" stroke-width="3.40" />
<circle cx="360" cy="360" r="195.60" fill="none" stroke="#9089f5" stroke-opacity="0.344" stroke-width="4.16" />
<circle cx="360" cy="360" r="230.40" fill="none" stroke="#9089f5" stroke-opacity="0.481" stroke-width="4.35" />
<circle cx="360" cy="360" r="265.20" fill="none" stroke="#9089f5" stroke-opacity="0.293" stroke-width="3.44" />
<line x1="642.63" y1="365.12" x2="493.00" y2="362.41" stroke="#caf04c" stroke-opacity="0.466" stroke-width="1.32" stroke-linecap="round" />
<line x1="624.26" y1="460.43" x2="482.21" y2="406.44" stroke="#9089f5" stroke-opacity="0.506" stroke-width="3.14" stroke-linecap="round" />
<line x1="581.26" y1="550.13" x2="472.23" y2="456.44" stroke="#9089f5" stroke-opacity="0.683" stroke-width="1.14" stroke-linecap="round" />
<line x1="515.38" y1="613.68" x2="440.69" y2="491.74" stroke="#caf04c" stroke-opacity="0.684" stroke-width="1.28" stroke-linecap="round" />
<line x1="414.95" y1="648.98" x2="387.53" y2="504.77" stroke="#9089f5" stroke-opacity="0.258" stroke-width="1.25" stroke-linecap="round" />
<line x1="309.39" y1="642.92" x2="336.10" y2="493.59" stroke="#9089f5" stroke-opacity="0.431" stroke-width="2.91" stroke-linecap="round" />
<line x1="209.73" y1="616.84" x2="287.46" y2="483.98" stroke="#9089f5" stroke-opacity="0.723" stroke-width="1.25" stroke-linecap="round" />
<line x1="125.39" y1="546.78" x2="260.22" y2="439.44" stroke="#caf04c" stroke-opacity="0.485" stroke-width="3.15" stroke-linecap="round" />
<line x1="82.29" y1="465.14" x2="238.35" y2="406.06" stroke="#9089f5" stroke-opacity="0.637" stroke-width="1.92" stroke-linecap="round" />
<line x1="60.72" y1="364.21" x2="210.71" y2="362.10" stroke="#9089f5" stroke-opacity="0.745" stroke-width="2.93" stroke-linecap="round" />
<line x1="79.34" y1="259.15" x2="228.41" y2="312.72" stroke="#9089f5" stroke-opacity="0.267" stroke-width="3.51" stroke-linecap="round" />
<line x1="139.20" y1="177.52" x2="255.45" y2="273.60" stroke="#9089f5" stroke-opacity="0.716" stroke-width="3.97" stroke-linecap="round" />
<line x1="208.35" y1="104.16" x2="294.25" y2="249.07" stroke="#9089f5" stroke-opacity="0.708" stroke-width="1.92" stroke-linecap="round" />
<line x1="307.92" y1="70.77" x2="332.73" y2="208.54" stroke="#caf04c" stroke-opacity="0.761" stroke-width="1.64" stroke-linecap="round" />
<line x1="417.04" y1="78.08" x2="389.90" y2="212.22" stroke="#9089f5" stroke-opacity="0.543" stroke-width="3.55" stroke-linecap="round" />
<line x1="501.37" y1="103.46" x2="423.51" y2="244.75" stroke="#9089f5" stroke-opacity="0.616" stroke-width="2.32" stroke-linecap="round" />
<line x1="589.76" y1="174.62" x2="471.97" y2="269.66" stroke="#9089f5" stroke-opacity="0.604" stroke-width="3.53" stroke-linecap="round" />
<line x1="641.47" y1="259.61" x2="503.93" y2="308.67" stroke="#9089f5" stroke-opacity="0.406" stroke-width="2.44" stroke-linecap="round" />
<path d="M 231.38 495.63 A 186.92 186.92 0 0 1 208.86 250.02" fill="none" stroke="#caf04c" stroke-opacity="0.502" stroke-width="3.36" stroke-linecap="round" />
<path d="M 623.52 437.10 A 274.57 274.57 0 0 1 415.19 628.97" fill="none" stroke="#9089f5" stroke-opacity="0.336" stroke-width="3.27" stroke-linecap="round" />
<path d="M 611.31 501.01 A 288.16 288.16 0 0 1 533.44 590.12" fill="none" stroke="#caf04c" stroke-opacity="0.282" stroke-width="7.96" stroke-linecap="round" />
<path d="M 465.77 178.09 A 210.43 210.43 0 0 1 527.73 232.94" fill="none" stroke="#9089f5" stroke-opacity="0.372" stroke-width="3.40" stroke-linecap="round" />
<path d="M 536.71 309.25 A 183.85 183.85 0 0 1 513.61 461.01" fill="none" stroke="#caf04c" stroke-opacity="0.272" stroke-width="4.89" stroke-linecap="round" />
<path d="M 492.77 238.09 A 180.25 180.25 0 0 1 531.27 416.20" fill="none" stroke="#9089f5" stroke-opacity="0.499" stroke-width="7.00" stroke-linecap="round" />
<path d="M 114.49 370.47 A 245.73 245.73 0 0 1 174.44 198.91" fill="none" stroke="#9089f5" stroke-opacity="0.445" stroke-width="3.66" stroke-linecap="round" />
<path d="M 120.56 404.42 A 243.53 243.53 0 0 1 156.84 225.71" fill="none" stroke="#caf04c" stroke-opacity="0.383" stroke-width="3.39" stroke-linecap="round" />
<path d="M 260.23 594.20 A 254.57 254.57 0 0 1 112.29 418.70" fill="none" stroke="#caf04c" stroke-opacity="0.250" stroke-width="7.35" stroke-linecap="round" />
<path d="M 340.09 650.06 A 290.74 290.74 0 0 1 226.72 618.40" fill="none" stroke="#caf04c" stroke-opacity="0.424" stroke-width="4.69" stroke-linecap="round" />
<path d="M 600.19 389.33 A 241.98 241.98 0 0 1 438.14 589.02" fill="none" stroke="#caf04c" stroke-opacity="0.393" stroke-width="6.46" stroke-linecap="round" />
<path d="M 175.47 398.23 A 188.45 188.45 0 0 1 180.17 303.64" fill="none" stroke="#caf04c" stroke-opacity="0.228" stroke-width="5.31" stroke-linecap="round" />
</g>
<text x="360" y="684" text-anchor="middle" font-family="ui-monospace, SFMono-Regular, Menlo, Monaco, Consolas, 'Liberation Mono', 'Courier New', monospace" font-size="18" fill="#9089f5" fill-opacity="0.55">2026-02-20T10-23-59Z</text>
</svg>
