<?xml version="1.0" encoding="UTF-8"?>
<svg xmlns="http://www.w3.org/2000/svg" width="720" height="720" viewBox="0 0 720 720" role="img" aria-label="UTC Glyph 20260225T1624Z">
<rect width="100%" height="100%" fill="#1a0d1c" />
<g>
<circle cx="360" cy="360" r="300" fill="none" stroke="#89f5b1" stroke-opacity="0.22" stroke-width="2" />
<circle cx="360" cy="360" r="122" fill="none" stroke="#f04c99" stroke-opacity="0.35" stroke-width="4" />
<circle cx="360" cy="360" r="157.60" fill="none" stroke="#89f5b1" stroke-opacity="0.500" stroke-width="2.68" />
<circle cx="360" cy="360" r="193.20" fill="none" stroke="#89f5b1" stroke-opacity="0.385" stroke-width="3.12" />
<circle cx="360" cy="360" r="228.80" fill="none" stroke="#89f5b1" stroke-opacity="0.504" stroke-width="2.11" />
<circle cx="360" cy="360" r="264.40" fill="none" stroke="#89f5b1" stroke-opacity="0.296" stroke-width="3.36" />
<line x1="658.12" y1="358.97" x2="492.03" y2="359.54" stroke="#89f5b1" stroke-opacity="0.354" stroke-width="2.27" stroke-linecap="round" />
<line x1="644.92" y1="420.12" x2="499.56" y2="389.45" stroke="#89f5b1" stroke-opacity="0.619" stroke-width="1.53" stroke-linecap="round" />
<line x1="626.58" y1="481.88" x2="482.88" y2="416.18" stroke="#f04c99" stroke-opacity="0.651" stroke-width="3.80" stroke-linecap="round" />
<line x1="586.65" y1="549.86" x2="455.03" y2="439.60" stroke="#89f5b1" stroke-opacity="0.582" stroke-width="2.67" stroke-linecap="round" />
<line x1="539.31" y1="591.16" x2="439.38" y2="462.34" stroke="#89f5b1" stroke-opacity="0.325" stroke-width="2.83" stroke-linecap="round" />
<line x1="483.62" y1="614.36" x2="418.93" y2="481.26" stroke="#89f5b1" stroke-opacity="0.525" stroke-width="2.24" stroke-linecap="round" />
<line x1="426.95" y1="638.11" x2="392.99" y2="497.05" stroke="#89f5b1" stroke-opacity="0.621" stroke-width="2.31" stroke-linecap="round" />
<line x1="362.11" y1="656.80" x2="360.89" y2="484.41" stroke="#89f5b1" stroke-opacity="0.792" stroke-width="3.06" stroke-linecap="round" />
<line x1="302.87" y1="647.27" x2="334.70" y2="487.23" stroke="#f04c99" stroke-opacity="0.452" stroke-width="3.15" stroke-linecap="round" />
<line x1="226.25" y1="622.51" x2="298.97" y2="479.79" stroke="#89f5b1" stroke-opacity="0.568" stroke-width="3.45" stroke-linecap="round" />
<line x1="176.37" y1="580.14" x2="266.50" y2="472.09" stroke="#89f5b1" stroke-opacity="0.284" stroke-width="1.87" stroke-linecap="round" />
<line x1="135.74" y1="535.09" x2="243.35" y2="451.08" stroke="#89f5b1" stroke-opacity="0.454" stroke-width="3.30" stroke-linecap="round" />
<line x1="94.70" y1="492.99" x2="229.14" y2="425.60" stroke="#f04c99" stroke-opacity="0.797" stroke-width="3.06" stroke-linecap="round" />
<line x1="81.22" y1="428.96" x2="219.05" y2="394.87" stroke="#89f5b1" stroke-opacity="0.465" stroke-width="1.22" stroke-linecap="round" />
<line x1="71.54" y1="361.29" x2="235.14" y2="360.56" stroke="#89f5b1" stroke-opacity="0.712" stroke-width="1.11" stroke-linecap="round" />
<line x1="71.34" y1="285.61" x2="231.68" y2="326.93" stroke="#89f5b1" stroke-opacity="0.270" stroke-width="2.10" stroke-linecap="round" />
<line x1="101.03" y1="237.74" x2="230.03" y2="298.64" stroke="#89f5b1" stroke-opacity="0.564" stroke-width="2.91" stroke-linecap="round" />
<line x1="134.94" y1="170.04" x2="255.47" y2="271.77" stroke="#89f5b1" stroke-opacity="0.694" stroke-width="1.60" stroke-linecap="round" />
<line x1="181.56" y1="129.42" x2="278.18" y2="254.28" stroke="#89f5b1" stroke-opacity="0.430" stroke-width="1.33" stroke-linecap="round" />
<line x1="230.88" y1="108.63" x2="297.74" y2="238.79" stroke="#89f5b1" stroke-opacity="0.768" stroke-width="2.69" stroke-linecap="round" />
<line x1="296.75" y1="83.59" x2="329.61" y2="227.18" stroke="#89f5b1" stroke-opacity="0.501" stroke-width="3.07" stroke-linecap="round" />
<line x1="364.41" y1="62.61" x2="362.22" y2="210.18" stroke="#89f5b1" stroke-opacity="0.754" stroke-width="1.49" stroke-linecap="round" />
<line x1="431.18" y1="80.50" x2="392.90" y2="230.81" stroke="#89f5b1" stroke-opacity="0.731" stroke-width="2.81" stroke-linecap="round" />
<line x1="487.50" y1="88.67" x2="419.24" y2="233.93" stroke="#89f5b1" stroke-opacity="0.630" stroke-width="1.28" stroke-linecap="round" />
<line x1="535.36" y1="127.58" x2="443.58" y2="249.22" stroke="#89f5b1" stroke-opacity="0.559" stroke-width="2.49" stroke-linecap="round" />
<line x1="583.61" y1="171.88" x2="462.70" y2="273.60" stroke="#89f5b1" stroke-opacity="0.310" stroke-width="3.44" stroke-linecap="round" />
<line x1="622.89" y1="242.95" x2="471.62" y2="310.30" stroke="#89f5b1" stroke-opacity="0.525" stroke-width="2.21" stroke-linecap="round" />
<line x1="638.83" y1="296.30" x2="500.69" y2="327.86" stroke="#89f5b1" stroke-opacity="0.375" stroke-width="3.53" stroke-linecap="round" />
<path d="M 353.13 643.87 A 283.95 283.95 0 0 1 87.84 440.99" fill="none" stroke="#89f5b1" stroke-opacity="0.360" stroke-width="2.87" stroke-linecap="round" />
<path d="M 89.18 243.19 A 294.94 294.94 0 0 1 269.52 79.28" fill="none" stroke="#89f5b1" stroke-opacity="0.255" stroke-width="4.47" stroke-linecap="round" />
<path d="M 199.54 339.27 A 161.80 161.80 0 0 1 348.74 198.59" fill="none" stroke="#89f5b1" stroke-opacity="0.282" stroke-width="4.32" stroke-linecap="round" />
<path d="M 208.89 420.90 A 162.92 162.92 0 0 1 232.92 258.05" fill="none" stroke="#89f5b1" stroke-opacity="0.338" stroke-width="4.42" stroke-linecap="round" />
<path d="M 144.88 248.66 A 242.23 242.23 0 0 1 365.20 117.83" fill="none" stroke="#f04c99" stroke-opacity="0.450" stroke-width="2.38" stroke-linecap="round" />
<path d="M 561.20 502.38 A 246.48 246.48 0 0 1 355.62 606.44" fill="none" stroke="#f04c99" stroke-opacity="0.524" stroke-width="7.96" stroke-linecap="round" />
<path d="M 304.89 517.26 A 166.64 166.64 0 0 1 248.35 483.70" fill="none" stroke="#f04c99" stroke-opacity="0.273" stroke-width="6.04" stroke-linecap="round" />
<path d="M 324.66 190.01 A 173.63 173.63 0 0 1 501.93 259.98" fill="none" stroke="#f04c99" stroke-opacity="0.238" stroke-width="3.36" stroke-linecap="round" />
</g>
<text x="360" y="684" text-anchor="middle" font-family="ui-monospace, SFMono-Regular, Menlo, Monaco, Consolas, 'Liberation Mono', 'Courier New', monospace" font-size="18" fill="#89f5b1" fill-opacity="0.55">20260225T1624Z</text>
</svg>
