<?xml version="1.0" encoding="UTF-8"?>
<svg xmlns="http://www.w3.org/2000/svg" width="720" height="720" viewBox="0 0 720 720" role="img" aria-label="UTC Glyph 2026-02-21T16-23-00Z">
<rect width="100%" height="100%" fill="#140d1c" />
<g>
<circle cx="360" cy="360" r="300" fill="none" stroke="#8ef589" stroke-opacity="0.22" stroke-width="2" />
<circle cx="360" cy="360" r="183" fill="none" stroke="#f04cdd" stroke-opacity="0.35" stroke-width="4" />
<circle cx="360" cy="360" r="199.71" fill="none" stroke="#8ef589" stroke-opacity="0.307" stroke-width="3.73" />
<circle cx="360" cy="360" r="216.43" fill="none" stroke="#8ef589" stroke-opacity="0.451" stroke-width="2.87" />
<circle cx="360" cy="360" r="233.14" fill="none" stroke="#8ef589" stroke-opacity="0.392" stroke-width="2.57" />
<circle cx="360" cy="360" r="249.86" fill="none" stroke="#8ef589" stroke-opacity="0.362" stroke-width="3.39" />
<circle cx="360" cy="360" r="266.57" fill="none" stroke="#8ef589" stroke-opacity="0.286" stroke-width="4.17" />
<circle cx="360" cy="360" r="283.29" fill="none" stroke="#8ef589" stroke-opacity="0.374" stroke-width="3.40" />
<line x1="648.17" y1="351.60" x2="558.65" y2="354.21" stroke="#f04cdd" stroke-opacity="0.502" stroke-width="3.11" stroke-linecap="round" />
<line x1="644.52" y1="415.69" x2="540.11" y2="395.25" stroke="#f04cdd" stroke-opacity="0.584" stroke-width="2.96" stroke-linecap="round" />
<line x1="626.60" y1="458.40" x2="541.00" y2="426.81" stroke="#8ef589" stroke-opacity="0.283" stroke-width="2.07" stroke-linecap="round" />
<line x1="621.11" y1="496.79" x2="547.11" y2="458.02" stroke="#8ef589" stroke-opacity="0.653" stroke-width="2.59" stroke-linecap="round" />
<line x1="585.29" y1="534.01" x2="508.70" y2="474.85" stroke="#8ef589" stroke-opacity="0.390" stroke-width="1.61" stroke-linecap="round" />
<line x1="551.52" y1="569.32" x2="498.45" y2="511.32" stroke="#8ef589" stroke-opacity="0.557" stroke-width="3.39" stroke-linecap="round" />
<line x1="516.89" y1="601.96" x2="464.83" y2="521.68" stroke="#8ef589" stroke-opacity="0.642" stroke-width="2.82" stroke-linecap="round" />
<line x1="471.36" y1="625.58" x2="440.76" y2="552.62" stroke="#8ef589" stroke-opacity="0.280" stroke-width="3.19" stroke-linecap="round" />
<line x1="422.30" y1="637.95" x2="402.11" y2="547.84" stroke="#f04cdd" stroke-opacity="0.296" stroke-width="1.48" stroke-linecap="round" />
<line x1="391.02" y1="641.41" x2="381.77" y2="557.48" stroke="#8ef589" stroke-opacity="0.721" stroke-width="3.34" stroke-linecap="round" />
<line x1="333.67" y1="643.75" x2="341.99" y2="554.10" stroke="#f04cdd" stroke-opacity="0.356" stroke-width="2.95" stroke-linecap="round" />
<line x1="284.96" y1="638.55" x2="308.19" y2="552.33" stroke="#8ef589" stroke-opacity="0.304" stroke-width="3.06" stroke-linecap="round" />
<line x1="240.71" y1="622.92" x2="276.10" y2="544.92" stroke="#f04cdd" stroke-opacity="0.726" stroke-width="2.13" stroke-linecap="round" />
<line x1="208.97" y1="600.22" x2="257.39" y2="523.21" stroke="#8ef589" stroke-opacity="0.260" stroke-width="1.80" stroke-linecap="round" />
<line x1="155.07" y1="572.93" x2="219.53" y2="505.95" stroke="#8ef589" stroke-opacity="0.722" stroke-width="3.57" stroke-linecap="round" />
<line x1="132.53" y1="541.69" x2="197.09" y2="490.12" stroke="#8ef589" stroke-opacity="0.628" stroke-width="1.84" stroke-linecap="round" />
<line x1="107.51" y1="490.24" x2="195.65" y2="444.78" stroke="#f04cdd" stroke-opacity="0.763" stroke-width="3.37" stroke-linecap="round" />
<line x1="81.47" y1="452.65" x2="174.23" y2="421.79" stroke="#8ef589" stroke-opacity="0.612" stroke-width="2.58" stroke-linecap="round" />
<line x1="81.83" y1="411.60" x2="177.79" y2="393.80" stroke="#8ef589" stroke-opacity="0.365" stroke-width="2.59" stroke-linecap="round" />
<line x1="68.05" y1="359.05" x2="165.78" y2="359.37" stroke="#8ef589" stroke-opacity="0.681" stroke-width="1.70" stroke-linecap="round" />
<line x1="79.64" y1="312.57" x2="176.96" y2="329.04" stroke="#8ef589" stroke-opacity="0.683" stroke-width="3.85" stroke-linecap="round" />
<line x1="88.37" y1="262.10" x2="181.83" y2="295.78" stroke="#8ef589" stroke-opacity="0.427" stroke-width="3.74" stroke-linecap="round" />
<line x1="104.44" y1="215.58" x2="194.30" y2="266.36" stroke="#8ef589" stroke-opacity="0.597" stroke-width="3.56" stroke-linecap="round" />
<line x1="134.83" y1="186.24" x2="202.23" y2="238.25" stroke="#8ef589" stroke-opacity="0.251" stroke-width="3.20" stroke-linecap="round" />
<line x1="160.60" y1="142.27" x2="231.58" y2="219.78" stroke="#f04cdd" stroke-opacity="0.600" stroke-width="1.17" stroke-linecap="round" />
<line x1="208.90" y1="116.47" x2="250.79" y2="183.98" stroke="#8ef589" stroke-opacity="0.276" stroke-width="1.85" stroke-linecap="round" />
<line x1="238.87" y1="100.59" x2="271.18" y2="169.79" stroke="#8ef589" stroke-opacity="0.466" stroke-width="3.57" stroke-linecap="round" />
<line x1="282.24" y1="83.04" x2="309.79" y2="181.18" stroke="#8ef589" stroke-opacity="0.332" stroke-width="1.23" stroke-linecap="round" />
<line x1="343.75" y1="65.13" x2="349.87" y2="176.17" stroke="#8ef589" stroke-opacity="0.299" stroke-width="2.15" stroke-linecap="round" />
<line x1="386.48" y1="78.26" x2="378.09" y2="167.55" stroke="#f04cdd" stroke-opacity="0.529" stroke-width="3.51" stroke-linecap="round" />
<line x1="432.50" y1="84.86" x2="412.65" y2="160.20" stroke="#f04cdd" stroke-opacity="0.427" stroke-width="1.63" stroke-linecap="round" />
<line x1="473.54" y1="94.61" x2="441.10" y2="170.42" stroke="#8ef589" stroke-opacity="0.526" stroke-width="3.90" stroke-linecap="round" />
<line x1="515.64" y1="117.96" x2="468.83" y2="190.75" stroke="#8ef589" stroke-opacity="0.583" stroke-width="2.67" stroke-linecap="round" />
<line x1="564.20" y1="148.24" x2="503.53" y2="211.15" stroke="#f04cdd" stroke-opacity="0.352" stroke-width="1.63" stroke-linecap="round" />
<line x1="589.70" y1="177.82" x2="506.87" y2="243.51" stroke="#8ef589" stroke-opacity="0.625" stroke-width="2.37" stroke-linecap="round" />
<line x1="612.59" y1="226.18" x2="526.80" y2="271.63" stroke="#f04cdd" stroke-opacity="0.544" stroke-width="1.75" stroke-linecap="round" />
<line x1="641.74" y1="268.98" x2="544.95" y2="300.24" stroke="#8ef589" stroke-opacity="0.313" stroke-width="2.76" stroke-linecap="round" />
<line x1="642.78" y1="316.05" x2="553.14" y2="329.99" stroke="#8ef589" stroke-opacity="0.739" stroke-width="2.48" stroke-linecap="round" />
<path d="M 205.16 233.58 A 199.89 199.89 0 0 1 288.68 173.26" fill="none" stroke="#8ef589" stroke-opacity="0.475" stroke-width="6.45" stroke-linecap="round" />
<path d="M 477.59 177.04 A 217.49 217.49 0 0 1 574.89 326.45" fill="none" stroke="#f04cdd" stroke-opacity="0.358" stroke-width="6.45" stroke-linecap="round" />
<path d="M 538.21 578.19 A 281.71 281.71 0 0 1 350.66 641.56" fill="none" stroke="#8ef589" stroke-opacity="0.263" stroke-width="5.45" stroke-linecap="round" />
<path d="M 439.98 555.04 A 210.80 210.80 0 0 1 325.76 568.00" fill="none" stroke="#8ef589" stroke-opacity="0.337" stroke-width="6.69" stroke-linecap="round" />
<path d="M 614.85 202.97 A 299.34 299.34 0 0 1 547.07 593.69" fill="none" stroke="#f04cdd" stroke-opacity="0.256" stroke-width="3.78" stroke-linecap="round" />
<path d="M 563.18 492.81 A 242.74 242.74 0 0 1 364.12 602.70" fill="none" stroke="#8ef589" stroke-opacity="0.271" stroke-width="2.82" stroke-linecap="round" />
<path d="M 435.57 561.30 A 215.02 215.02 0 0 1 241.15 539.18" fill="none" stroke="#f04cdd" stroke-opacity="0.294" stroke-width="6.75" stroke-linecap="round" />
</g>
<text x="360" y="684" text-anchor="middle" font-family="ui-monospace, SFMono-Regular, Menlo, Monaco, Consolas, 'Liberation Mono', 'Courier New', monospace" font-size="18" fill="#8ef589" fill-opacity="0.55">2026-02-21T16-23-00Z</text>
</svg>
