<?xml version="1.0" encoding="UTF-8"?>
<svg xmlns="http://www.w3.org/2000/svg" width="720" height="720" viewBox="0 0 720 720" role="img" aria-label="UTC Glyph 20260301T1623Z">
<rect width="100%" height="100%" fill="#0d0f1c" />
<g>
<circle cx="360" cy="360" r="300" fill="none" stroke="#ccf589" stroke-opacity="0.22" stroke-width="2" />
<circle cx="360" cy="360" r="161" fill="none" stroke="#a64cf0" stroke-opacity="0.35" stroke-width="4" />
<circle cx="360" cy="360" r="184.17" fill="none" stroke="#ccf589" stroke-opacity="0.280" stroke-width="4.06" />
<circle cx="360" cy="360" r="207.33" fill="none" stroke="#ccf589" stroke-opacity="0.384" stroke-width="3.69" />
<circle cx="360" cy="360" r="230.50" fill="none" stroke="#ccf589" stroke-opacity="0.422" stroke-width="3.76" />
<circle cx="360" cy="360" r="253.67" fill="none" stroke="#ccf589" stroke-opacity="0.514" stroke-width="2.33" />
<circle cx="360" cy="360" r="276.83" fill="none" stroke="#ccf589" stroke-opacity="0.445" stroke-width="2.49" />
<line x1="643.82" y1="355.75" x2="531.24" y2="357.44" stroke="#ccf589" stroke-opacity="0.272" stroke-width="1.35" stroke-linecap="round" />
<line x1="646.33" y1="407.03" x2="546.03" y2="390.56" stroke="#a64cf0" stroke-opacity="0.273" stroke-width="2.02" stroke-linecap="round" />
<line x1="632.23" y1="455.11" x2="535.54" y2="421.33" stroke="#ccf589" stroke-opacity="0.496" stroke-width="3.69" stroke-linecap="round" />
<line x1="613.83" y1="507.37" x2="504.95" y2="444.16" stroke="#ccf589" stroke-opacity="0.690" stroke-width="2.00" stroke-linecap="round" />
<line x1="582.70" y1="556.96" x2="494.71" y2="479.15" stroke="#ccf589" stroke-opacity="0.552" stroke-width="2.72" stroke-linecap="round" />
<line x1="541.83" y1="583.59" x2="472.49" y2="498.33" stroke="#ccf589" stroke-opacity="0.540" stroke-width="1.90" stroke-linecap="round" />
<line x1="509.81" y1="610.92" x2="443.64" y2="500.10" stroke="#a64cf0" stroke-opacity="0.534" stroke-width="3.97" stroke-linecap="round" />
<line x1="452.94" y1="636.29" x2="419.26" y2="536.17" stroke="#ccf589" stroke-opacity="0.518" stroke-width="1.51" stroke-linecap="round" />
<line x1="414.70" y1="646.53" x2="390.36" y2="519.02" stroke="#ccf589" stroke-opacity="0.370" stroke-width="3.86" stroke-linecap="round" />
<line x1="363.60" y1="655.43" x2="362.32" y2="550.36" stroke="#a64cf0" stroke-opacity="0.491" stroke-width="3.38" stroke-linecap="round" />
<line x1="303.87" y1="639.21" x2="325.21" y2="533.03" stroke="#ccf589" stroke-opacity="0.702" stroke-width="3.53" stroke-linecap="round" />
<line x1="259.54" y1="639.16" x2="300.76" y2="524.60" stroke="#ccf589" stroke-opacity="0.473" stroke-width="1.78" stroke-linecap="round" />
<line x1="219.94" y1="619.01" x2="279.32" y2="509.20" stroke="#ccf589" stroke-opacity="0.313" stroke-width="3.26" stroke-linecap="round" />
<line x1="173.02" y1="572.82" x2="236.36" y2="500.73" stroke="#ccf589" stroke-opacity="0.631" stroke-width="3.96" stroke-linecap="round" />
<line x1="138.95" y1="546.46" x2="216.31" y2="481.21" stroke="#ccf589" stroke-opacity="0.314" stroke-width="1.73" stroke-linecap="round" />
<line x1="114.50" y1="504.90" x2="217.30" y2="444.22" stroke="#a64cf0" stroke-opacity="0.261" stroke-width="2.85" stroke-linecap="round" />
<line x1="78.13" y1="453.59" x2="186.51" y2="417.60" stroke="#ccf589" stroke-opacity="0.678" stroke-width="1.82" stroke-linecap="round" />
<line x1="70.68" y1="402.60" x2="172.19" y2="387.65" stroke="#a64cf0" stroke-opacity="0.485" stroke-width="3.29" stroke-linecap="round" />
<line x1="76.94" y1="363.98" x2="175.26" y2="362.60" stroke="#ccf589" stroke-opacity="0.541" stroke-width="3.32" stroke-linecap="round" />
<line x1="83.46" y1="304.71" x2="194.53" y2="326.92" stroke="#ccf589" stroke-opacity="0.441" stroke-width="1.93" stroke-linecap="round" />
<line x1="93.20" y1="266.59" x2="206.82" y2="306.37" stroke="#ccf589" stroke-opacity="0.428" stroke-width="1.37" stroke-linecap="round" />
<line x1="98.01" y1="217.68" x2="202.79" y2="274.60" stroke="#ccf589" stroke-opacity="0.552" stroke-width="1.88" stroke-linecap="round" />
<line x1="127.69" y1="173.61" x2="219.32" y2="247.13" stroke="#ccf589" stroke-opacity="0.481" stroke-width="1.05" stroke-linecap="round" />
<line x1="174.44" y1="136.75" x2="247.19" y2="224.28" stroke="#a64cf0" stroke-opacity="0.504" stroke-width="3.87" stroke-linecap="round" />
<line x1="213.57" y1="101.77" x2="278.86" y2="216.91" stroke="#ccf589" stroke-opacity="0.771" stroke-width="1.88" stroke-linecap="round" />
<line x1="257.51" y1="94.19" x2="301.72" y2="208.87" stroke="#ccf589" stroke-opacity="0.291" stroke-width="2.60" stroke-linecap="round" />
<line x1="318.68" y1="76.62" x2="332.48" y2="171.24" stroke="#ccf589" stroke-opacity="0.408" stroke-width="3.66" stroke-linecap="round" />
<line x1="355.81" y1="72.67" x2="357.39" y2="181.12" stroke="#ccf589" stroke-opacity="0.460" stroke-width="3.72" stroke-linecap="round" />
<line x1="406.53" y1="77.67" x2="387.32" y2="194.24" stroke="#ccf589" stroke-opacity="0.321" stroke-width="2.22" stroke-linecap="round" />
<line x1="459.87" y1="94.02" x2="425.06" y2="186.73" stroke="#ccf589" stroke-opacity="0.754" stroke-width="1.24" stroke-linecap="round" />
<line x1="502.69" y1="99.02" x2="447.23" y2="200.46" stroke="#ccf589" stroke-opacity="0.582" stroke-width="3.60" stroke-linecap="round" />
<line x1="551.45" y1="144.02" x2="480.36" y2="224.22" stroke="#ccf589" stroke-opacity="0.251" stroke-width="3.66" stroke-linecap="round" />
<line x1="577.55" y1="175.61" x2="503.59" y2="238.30" stroke="#ccf589" stroke-opacity="0.578" stroke-width="2.68" stroke-linecap="round" />
<line x1="617.81" y1="217.35" x2="511.82" y2="276.00" stroke="#ccf589" stroke-opacity="0.268" stroke-width="1.36" stroke-linecap="round" />
<line x1="625.48" y1="255.66" x2="519.36" y2="297.37" stroke="#ccf589" stroke-opacity="0.287" stroke-width="2.80" stroke-linecap="round" />
<line x1="656.47" y1="315.17" x2="544.05" y2="332.17" stroke="#ccf589" stroke-opacity="0.687" stroke-width="1.62" stroke-linecap="round" />
<path d="M 549.13 580.09 A 290.19 290.19 0 0 1 247.30 627.42" fill="none" stroke="#a64cf0" stroke-opacity="0.513" stroke-width="2.99" stroke-linecap="round" />
<path d="M 236.17 588.59 A 259.98 259.98 0 0 1 102.59 323.52" fill="none" stroke="#ccf589" stroke-opacity="0.343" stroke-width="5.03" stroke-linecap="round" />
<path d="M 424.14 157.63 A 212.29 212.29 0 0 1 539.36 246.44" fill="none" stroke="#a64cf0" stroke-opacity="0.524" stroke-width="2.13" stroke-linecap="round" />
<path d="M 625.47 354.45 A 265.53 265.53 0 0 1 520.57 571.48" fill="none" stroke="#ccf589" stroke-opacity="0.364" stroke-width="3.68" stroke-linecap="round" />
<path d="M 504.25 194.51 A 219.53 219.53 0 0 1 561.75 446.56" fill="none" stroke="#a64cf0" stroke-opacity="0.216" stroke-width="5.65" stroke-linecap="round" />
<path d="M 174.07 330.09 A 188.32 188.32 0 0 1 230.14 223.62" fill="none" stroke="#a64cf0" stroke-opacity="0.467" stroke-width="4.72" stroke-linecap="round" />
</g>
<text x="360" y="684" text-anchor="middle" font-family="ui-monospace, SFMono-Regular, Menlo, Monaco, Consolas, 'Liberation Mono', 'Courier New', monospace" font-size="18" fill="#ccf589" fill-opacity="0.55">20260301T1623Z</text>
</svg>
