<?xml version="1.0" encoding="UTF-8"?>
<svg xmlns="http://www.w3.org/2000/svg" width="720" height="720" viewBox="0 0 720 720" role="img" aria-label="UTC Glyph 20260226T1024Z">
<rect width="100%" height="100%" fill="#0d1a1c" />
<g>
<circle cx="360" cy="360" r="300" fill="none" stroke="#f5ce89" stroke-opacity="0.22" stroke-width="2" />
<circle cx="360" cy="360" r="162" fill="none" stroke="#4c6df0" stroke-opacity="0.35" stroke-width="4" />
<circle cx="360" cy="360" r="181.71" fill="none" stroke="#f5ce89" stroke-opacity="0.297" stroke-width="4.00" />
<circle cx="360" cy="360" r="201.43" fill="none" stroke="#f5ce89" stroke-opacity="0.313" stroke-width="4.48" />
<circle cx="360" cy="360" r="221.14" fill="none" stroke="#f5ce89" stroke-opacity="0.449" stroke-width="2.04" />
<circle cx="360" cy="360" r="240.86" fill="none" stroke="#f5ce89" stroke-opacity="0.559" stroke-width="3.46" />
<circle cx="360" cy="360" r="260.57" fill="none" stroke="#f5ce89" stroke-opacity="0.454" stroke-width="2.52" />
<circle cx="360" cy="360" r="280.29" fill="none" stroke="#f5ce89" stroke-opacity="0.319" stroke-width="4.23" />
<line x1="646.34" y1="364.93" x2="527.27" y2="362.88" stroke="#f5ce89" stroke-opacity="0.682" stroke-width="2.02" stroke-linecap="round" />
<line x1="637.63" y1="437.74" x2="528.30" y2="407.13" stroke="#f5ce89" stroke-opacity="0.339" stroke-width="1.03" stroke-linecap="round" />
<line x1="605.16" y1="515.16" x2="508.98" y2="454.29" stroke="#f5ce89" stroke-opacity="0.510" stroke-width="2.68" stroke-linecap="round" />
<line x1="547.43" y1="582.57" x2="471.62" y2="492.54" stroke="#f5ce89" stroke-opacity="0.349" stroke-width="2.07" stroke-linecap="round" />
<line x1="474.84" y1="630.65" x2="429.68" y2="524.20" stroke="#f5ce89" stroke-opacity="0.731" stroke-width="2.72" stroke-linecap="round" />
<line x1="407.90" y1="652.20" x2="390.96" y2="548.86" stroke="#4c6df0" stroke-opacity="0.395" stroke-width="2.82" stroke-linecap="round" />
<line x1="312.95" y1="650.91" x2="329.83" y2="546.51" stroke="#f5ce89" stroke-opacity="0.319" stroke-width="2.74" stroke-linecap="round" />
<line x1="241.59" y1="631.08" x2="289.56" y2="521.25" stroke="#f5ce89" stroke-opacity="0.343" stroke-width="1.32" stroke-linecap="round" />
<line x1="179.61" y1="579.67" x2="247.25" y2="497.29" stroke="#f5ce89" stroke-opacity="0.369" stroke-width="2.68" stroke-linecap="round" />
<line x1="124.58" y1="521.45" x2="203.87" y2="467.07" stroke="#f5ce89" stroke-opacity="0.526" stroke-width="2.95" stroke-linecap="round" />
<line x1="78.30" y1="442.13" x2="176.78" y2="413.42" stroke="#f5ce89" stroke-opacity="0.343" stroke-width="1.69" stroke-linecap="round" />
<line x1="65.91" y1="357.03" x2="172.96" y2="358.11" stroke="#f5ce89" stroke-opacity="0.461" stroke-width="3.29" stroke-linecap="round" />
<line x1="76.81" y1="270.84" x2="205.21" y2="311.27" stroke="#4c6df0" stroke-opacity="0.668" stroke-width="3.68" stroke-linecap="round" />
<line x1="117.84" y1="205.76" x2="198.56" y2="257.18" stroke="#f5ce89" stroke-opacity="0.323" stroke-width="3.66" stroke-linecap="round" />
<line x1="163.42" y1="136.88" x2="235.65" y2="218.87" stroke="#f5ce89" stroke-opacity="0.543" stroke-width="3.43" stroke-linecap="round" />
<line x1="232.76" y1="97.61" x2="288.23" y2="211.99" stroke="#f5ce89" stroke-opacity="0.712" stroke-width="3.97" stroke-linecap="round" />
<line x1="311.72" y1="80.43" x2="331.64" y2="195.79" stroke="#f5ce89" stroke-opacity="0.540" stroke-width="1.53" stroke-linecap="round" />
<line x1="397.42" y1="66.15" x2="380.95" y2="195.46" stroke="#f5ce89" stroke-opacity="0.564" stroke-width="2.16" stroke-linecap="round" />
<line x1="475.09" y1="93.49" x2="431.54" y2="194.35" stroke="#4c6df0" stroke-opacity="0.782" stroke-width="3.12" stroke-linecap="round" />
<line x1="545.81" y1="139.38" x2="469.80" y2="229.63" stroke="#f5ce89" stroke-opacity="0.453" stroke-width="2.55" stroke-linecap="round" />
<line x1="600.24" y1="202.33" x2="501.86" y2="266.90" stroke="#f5ce89" stroke-opacity="0.447" stroke-width="3.22" stroke-linecap="round" />
<line x1="633.10" y1="273.22" x2="530.58" y2="305.80" stroke="#f5ce89" stroke-opacity="0.649" stroke-width="2.60" stroke-linecap="round" />
<path d="M 179.17 260.21 A 206.54 206.54 0 0 1 253.77 182.87" fill="none" stroke="#f5ce89" stroke-opacity="0.482" stroke-width="3.84" stroke-linecap="round" />
<path d="M 606.46 251.61 A 269.24 269.24 0 0 1 551.07 549.68" fill="none" stroke="#f5ce89" stroke-opacity="0.488" stroke-width="7.55" stroke-linecap="round" />
<path d="M 179.61 501.96 A 229.55 229.55 0 0 1 150.93 265.24" fill="none" stroke="#4c6df0" stroke-opacity="0.372" stroke-width="3.17" stroke-linecap="round" />
<path d="M 633.35 266.69 A 288.84 288.84 0 0 1 609.66 505.26" fill="none" stroke="#4c6df0" stroke-opacity="0.375" stroke-width="6.73" stroke-linecap="round" />
<path d="M 408.51 528.85 A 175.68 175.68 0 0 1 302.35 525.96" fill="none" stroke="#4c6df0" stroke-opacity="0.291" stroke-width="2.41" stroke-linecap="round" />
<path d="M 535.05 485.49 A 215.38 215.38 0 0 1 469.44 545.51" fill="none" stroke="#f5ce89" stroke-opacity="0.489" stroke-width="4.71" stroke-linecap="round" />
<path d="M 558.78 312.45 A 204.39 204.39 0 0 1 522.16 484.41" fill="none" stroke="#f5ce89" stroke-opacity="0.324" stroke-width="4.29" stroke-linecap="round" />
<path d="M 368.25 624.58 A 264.70 264.70 0 0 1 99.15 404.99" fill="none" stroke="#4c6df0" stroke-opacity="0.213" stroke-width="7.47" stroke-linecap="round" />
<path d="M 507.50 489.05 A 195.98 195.98 0 0 1 462.48 527.05" fill="none" stroke="#f5ce89" stroke-opacity="0.262" stroke-width="7.41" stroke-linecap="round" />
</g>
<text x="360" y="684" text-anchor="middle" font-family="ui-monospace, SFMono-Regular, Menlo, Monaco, Consolas, 'Liberation Mono', 'Courier New', monospace" font-size="18" fill="#f5ce89" fill-opacity="0.55">20260226T1024Z</text>
</svg>
