<?xml version="1.0" encoding="UTF-8"?>
<svg xmlns="http://www.w3.org/2000/svg" width="720" height="720" viewBox="0 0 720 720" role="img" aria-label="UTC Glyph 20260331T1023Z">
<rect width="100%" height="100%" fill="#1c0d0f" />
<g>
<circle cx="360" cy="360" r="300" fill="none" stroke="#89caf5" stroke-opacity="0.22" stroke-width="2" />
<circle cx="360" cy="360" r="161" fill="none" stroke="#f0a94c" stroke-opacity="0.35" stroke-width="4" />
<circle cx="360" cy="360" r="188.80" fill="none" stroke="#89caf5" stroke-opacity="0.452" stroke-width="3.49" />
<circle cx="360" cy="360" r="216.60" fill="none" stroke="#89caf5" stroke-opacity="0.425" stroke-width="4.25" />
<circle cx="360" cy="360" r="244.40" fill="none" stroke="#89caf5" stroke-opacity="0.316" stroke-width="2.32" />
<circle cx="360" cy="360" r="272.20" fill="none" stroke="#89caf5" stroke-opacity="0.449" stroke-width="4.32" />
<line x1="650.58" y1="359.44" x2="525.35" y2="359.68" stroke="#89caf5" stroke-opacity="0.418" stroke-width="1.39" stroke-linecap="round" />
<line x1="643.69" y1="413.76" x2="522.13" y2="390.73" stroke="#89caf5" stroke-opacity="0.456" stroke-width="2.67" stroke-linecap="round" />
<line x1="637.34" y1="459.43" x2="531.61" y2="421.52" stroke="#89caf5" stroke-opacity="0.606" stroke-width="2.85" stroke-linecap="round" />
<line x1="620.49" y1="501.87" x2="507.94" y2="440.57" stroke="#f0a94c" stroke-opacity="0.704" stroke-width="1.44" stroke-linecap="round" />
<line x1="579.53" y1="547.87" x2="500.98" y2="480.65" stroke="#89caf5" stroke-opacity="0.347" stroke-width="1.11" stroke-linecap="round" />
<line x1="546.74" y1="576.46" x2="468.36" y2="485.60" stroke="#89caf5" stroke-opacity="0.313" stroke-width="2.90" stroke-linecap="round" />
<line x1="514.72" y1="604.01" x2="456.63" y2="512.39" stroke="#89caf5" stroke-opacity="0.479" stroke-width="3.89" stroke-linecap="round" />
<line x1="467.91" y1="629.62" x2="427.72" y2="529.21" stroke="#f0a94c" stroke-opacity="0.483" stroke-width="1.74" stroke-linecap="round" />
<line x1="420.16" y1="652.01" x2="395.48" y2="532.21" stroke="#89caf5" stroke-opacity="0.617" stroke-width="2.80" stroke-linecap="round" />
<line x1="378.89" y1="653.26" x2="372.25" y2="550.16" stroke="#89caf5" stroke-opacity="0.630" stroke-width="3.61" stroke-linecap="round" />
<line x1="321.47" y1="643.74" x2="338.17" y2="520.76" stroke="#89caf5" stroke-opacity="0.477" stroke-width="2.73" stroke-linecap="round" />
<line x1="281.19" y1="641.72" x2="308.68" y2="543.47" stroke="#89caf5" stroke-opacity="0.395" stroke-width="3.72" stroke-linecap="round" />
<line x1="234.14" y1="626.64" x2="289.34" y2="509.71" stroke="#89caf5" stroke-opacity="0.648" stroke-width="1.00" stroke-linecap="round" />
<line x1="184.18" y1="593.66" x2="248.93" y2="507.61" stroke="#f0a94c" stroke-opacity="0.576" stroke-width="3.56" stroke-linecap="round" />
<line x1="159.74" y1="561.24" x2="225.70" y2="494.95" stroke="#89caf5" stroke-opacity="0.560" stroke-width="2.81" stroke-linecap="round" />
<line x1="126.15" y1="521.97" x2="205.41" y2="467.07" stroke="#89caf5" stroke-opacity="0.502" stroke-width="1.43" stroke-linecap="round" />
<line x1="95.64" y1="480.58" x2="197.96" y2="433.91" stroke="#89caf5" stroke-opacity="0.485" stroke-width="2.70" stroke-linecap="round" />
<line x1="83.21" y1="433.38" x2="204.10" y2="401.33" stroke="#f0a94c" stroke-opacity="0.460" stroke-width="3.24" stroke-linecap="round" />
<line x1="65.96" y1="381.23" x2="172.40" y2="373.54" stroke="#f0a94c" stroke-opacity="0.751" stroke-width="3.92" stroke-linecap="round" />
<line x1="70.76" y1="328.91" x2="179.17" y2="340.56" stroke="#89caf5" stroke-opacity="0.552" stroke-width="1.62" stroke-linecap="round" />
<line x1="79.63" y1="290.32" x2="200.70" y2="320.41" stroke="#f0a94c" stroke-opacity="0.692" stroke-width="3.92" stroke-linecap="round" />
<line x1="99.38" y1="250.25" x2="204.90" y2="294.69" stroke="#89caf5" stroke-opacity="0.695" stroke-width="1.88" stroke-linecap="round" />
<line x1="122.99" y1="202.46" x2="222.33" y2="268.49" stroke="#89caf5" stroke-opacity="0.360" stroke-width="2.30" stroke-linecap="round" />
<line x1="157.99" y1="160.26" x2="240.63" y2="241.97" stroke="#89caf5" stroke-opacity="0.365" stroke-width="2.30" stroke-linecap="round" />
<line x1="188.18" y1="127.66" x2="254.39" y2="217.18" stroke="#89caf5" stroke-opacity="0.375" stroke-width="2.41" stroke-linecap="round" />
<line x1="228.71" y1="102.59" x2="283.12" y2="209.27" stroke="#89caf5" stroke-opacity="0.786" stroke-width="1.59" stroke-linecap="round" />
<line x1="279.19" y1="83.59" x2="313.94" y2="202.47" stroke="#89caf5" stroke-opacity="0.661" stroke-width="1.78" stroke-linecap="round" />
<line x1="320.06" y1="71.57" x2="337.76" y2="199.34" stroke="#89caf5" stroke-opacity="0.377" stroke-width="3.92" stroke-linecap="round" />
<line x1="367.84" y1="73.91" x2="364.78" y2="185.42" stroke="#89caf5" stroke-opacity="0.570" stroke-width="2.50" stroke-linecap="round" />
<line x1="422.44" y1="68.98" x2="399.45" y2="176.13" stroke="#89caf5" stroke-opacity="0.370" stroke-width="1.41" stroke-linecap="round" />
<line x1="476.72" y1="87.79" x2="432.85" y2="190.11" stroke="#89caf5" stroke-opacity="0.634" stroke-width="1.11" stroke-linecap="round" />
<line x1="513.43" y1="104.14" x2="454.37" y2="202.62" stroke="#89caf5" stroke-opacity="0.732" stroke-width="1.79" stroke-linecap="round" />
<line x1="549.35" y1="135.60" x2="480.27" y2="217.47" stroke="#89caf5" stroke-opacity="0.352" stroke-width="2.54" stroke-linecap="round" />
<line x1="579.50" y1="176.18" x2="483.65" y2="256.45" stroke="#89caf5" stroke-opacity="0.361" stroke-width="3.85" stroke-linecap="round" />
<line x1="612.41" y1="216.53" x2="523.65" y2="266.98" stroke="#89caf5" stroke-opacity="0.290" stroke-width="1.13" stroke-linecap="round" />
<line x1="631.01" y1="270.87" x2="541.07" y2="300.45" stroke="#89caf5" stroke-opacity="0.768" stroke-width="1.02" stroke-linecap="round" />
<line x1="651.10" y1="302.88" x2="531.17" y2="326.41" stroke="#89caf5" stroke-opacity="0.549" stroke-width="3.46" stroke-linecap="round" />
<path d="M 161.25 163.27 A 279.65 279.65 0 0 1 337.77 81.24" fill="none" stroke="#f0a94c" stroke-opacity="0.530" stroke-width="7.50" stroke-linecap="round" />
<path d="M 159.87 212.60 A 248.55 248.55 0 0 1 316.55 115.28" fill="none" stroke="#89caf5" stroke-opacity="0.293" stroke-width="6.43" stroke-linecap="round" />
<path d="M 179.77 396.81 A 183.95 183.95 0 0 1 236.23 223.93" fill="none" stroke="#f0a94c" stroke-opacity="0.425" stroke-width="7.74" stroke-linecap="round" />
<path d="M 435.08 192.11 A 183.92 183.92 0 0 1 500.08 240.82" fill="none" stroke="#f0a94c" stroke-opacity="0.521" stroke-width="3.88" stroke-linecap="round" />
<path d="M 645.18 303.68 A 290.68 290.68 0 0 1 519.47 603.03" fill="none" stroke="#f0a94c" stroke-opacity="0.529" stroke-width="5.11" stroke-linecap="round" />
<path d="M 372.55 647.64 A 287.92 287.92 0 0 1 101.29 486.35" fill="none" stroke="#89caf5" stroke-opacity="0.386" stroke-width="4.66" stroke-linecap="round" />
<path d="M 140.72 375.35 A 219.82 219.82 0 0 1 171.76 246.49" fill="none" stroke="#f0a94c" stroke-opacity="0.215" stroke-width="4.05" stroke-linecap="round" />
<path d="M 524.01 385.13 A 165.93 165.93 0 0 1 430.14 510.37" fill="none" stroke="#89caf5" stroke-opacity="0.444" stroke-width="7.83" stroke-linecap="round" />
</g>
<text x="360" y="684" text-anchor="middle" font-family="ui-monospace, SFMono-Regular, Menlo, Monaco, Consolas, 'Liberation Mono', 'Courier New', monospace" font-size="18" fill="#89caf5" fill-opacity="0.55">20260331T1023Z</text>
</svg>
