<?xml version="1.0" encoding="UTF-8"?>
<svg xmlns="http://www.w3.org/2000/svg" width="720" height="720" viewBox="0 0 720 720" role="img" aria-label="UTC Glyph 20260219T1623Z">
<rect width="100%" height="100%" fill="#0f0d1c" />
<g>
<circle cx="360" cy="360" r="300" fill="none" stroke="#b1f589" stroke-opacity="0.22" stroke-width="2" />
<circle cx="360" cy="360" r="124" fill="none" stroke="#d04cf0" stroke-opacity="0.35" stroke-width="4" />
<circle cx="360" cy="360" r="149.14" fill="none" stroke="#b1f589" stroke-opacity="0.357" stroke-width="4.27" />
<circle cx="360" cy="360" r="174.29" fill="none" stroke="#b1f589" stroke-opacity="0.426" stroke-width="3.83" />
<circle cx="360" cy="360" r="199.43" fill="none" stroke="#b1f589" stroke-opacity="0.387" stroke-width="2.67" />
<circle cx="360" cy="360" r="224.57" fill="none" stroke="#b1f589" stroke-opacity="0.487" stroke-width="2.54" />
<circle cx="360" cy="360" r="249.71" fill="none" stroke="#b1f589" stroke-opacity="0.506" stroke-width="4.59" />
<circle cx="360" cy="360" r="274.86" fill="none" stroke="#b1f589" stroke-opacity="0.452" stroke-width="3.51" />
<line x1="649.01" y1="363.17" x2="485.82" y2="361.38" stroke="#b1f589" stroke-opacity="0.400" stroke-width="2.14" stroke-linecap="round" />
<line x1="641.33" y1="398.90" x2="486.67" y2="377.52" stroke="#b1f589" stroke-opacity="0.656" stroke-width="3.43" stroke-linecap="round" />
<line x1="634.55" y1="451.34" x2="496.35" y2="405.37" stroke="#b1f589" stroke-opacity="0.725" stroke-width="3.29" stroke-linecap="round" />
<line x1="613.83" y1="496.24" x2="475.38" y2="421.93" stroke="#b1f589" stroke-opacity="0.597" stroke-width="1.97" stroke-linecap="round" />
<line x1="600.41" y1="531.26" x2="462.84" y2="433.26" stroke="#d04cf0" stroke-opacity="0.518" stroke-width="3.69" stroke-linecap="round" />
<line x1="560.68" y1="577.91" x2="449.17" y2="456.83" stroke="#b1f589" stroke-opacity="0.276" stroke-width="1.94" stroke-linecap="round" />
<line x1="516.06" y1="598.28" x2="428.84" y2="465.11" stroke="#b1f589" stroke-opacity="0.559" stroke-width="3.40" stroke-linecap="round" />
<line x1="483.28" y1="625.15" x2="424.56" y2="498.85" stroke="#b1f589" stroke-opacity="0.515" stroke-width="1.06" stroke-linecap="round" />
<line x1="436.79" y1="648.65" x2="395.84" y2="494.71" stroke="#b1f589" stroke-opacity="0.680" stroke-width="3.65" stroke-linecap="round" />
<line x1="388.07" y1="648.48" x2="372.25" y2="485.87" stroke="#b1f589" stroke-opacity="0.419" stroke-width="3.58" stroke-linecap="round" />
<line x1="356.71" y1="644.12" x2="358.50" y2="489.43" stroke="#b1f589" stroke-opacity="0.706" stroke-width="3.39" stroke-linecap="round" />
<line x1="309.45" y1="638.52" x2="336.86" y2="487.48" stroke="#b1f589" stroke-opacity="0.260" stroke-width="1.43" stroke-linecap="round" />
<line x1="259.01" y1="637.62" x2="314.61" y2="484.79" stroke="#b1f589" stroke-opacity="0.431" stroke-width="3.19" stroke-linecap="round" />
<line x1="215.85" y1="616.67" x2="296.88" y2="472.39" stroke="#b1f589" stroke-opacity="0.632" stroke-width="3.17" stroke-linecap="round" />
<line x1="181.00" y1="580.54" x2="274.70" y2="465.10" stroke="#d04cf0" stroke-opacity="0.284" stroke-width="3.88" stroke-linecap="round" />
<line x1="146.49" y1="545.19" x2="259.51" y2="447.16" stroke="#b1f589" stroke-opacity="0.437" stroke-width="1.97" stroke-linecap="round" />
<line x1="122.10" y1="519.66" x2="255.07" y2="430.42" stroke="#b1f589" stroke-opacity="0.260" stroke-width="2.88" stroke-linecap="round" />
<line x1="82.51" y1="470.78" x2="226.30" y2="413.38" stroke="#b1f589" stroke-opacity="0.392" stroke-width="3.42" stroke-linecap="round" />
<line x1="71.94" y1="437.49" x2="233.91" y2="393.92" stroke="#b1f589" stroke-opacity="0.356" stroke-width="3.65" stroke-linecap="round" />
<line x1="67.10" y1="385.94" x2="234.09" y2="371.15" stroke="#b1f589" stroke-opacity="0.468" stroke-width="3.47" stroke-linecap="round" />
<line x1="65.00" y1="335.93" x2="207.65" y2="347.57" stroke="#d04cf0" stroke-opacity="0.637" stroke-width="3.96" stroke-linecap="round" />
<line x1="75.42" y1="288.97" x2="220.43" y2="325.16" stroke="#d04cf0" stroke-opacity="0.665" stroke-width="2.93" stroke-linecap="round" />
<line x1="94.62" y1="238.89" x2="222.64" y2="297.31" stroke="#b1f589" stroke-opacity="0.384" stroke-width="2.75" stroke-linecap="round" />
<line x1="103.95" y1="206.46" x2="250.41" y2="294.28" stroke="#b1f589" stroke-opacity="0.630" stroke-width="1.89" stroke-linecap="round" />
<line x1="151.24" y1="167.10" x2="261.20" y2="268.70" stroke="#b1f589" stroke-opacity="0.547" stroke-width="1.95" stroke-linecap="round" />
<line x1="171.52" y1="138.02" x2="269.10" y2="252.94" stroke="#b1f589" stroke-opacity="0.337" stroke-width="1.92" stroke-linecap="round" />
<line x1="219.10" y1="106.27" x2="293.05" y2="239.44" stroke="#b1f589" stroke-opacity="0.697" stroke-width="1.13" stroke-linecap="round" />
<line x1="262.66" y1="90.48" x2="309.44" y2="220.00" stroke="#b1f589" stroke-opacity="0.613" stroke-width="2.02" stroke-linecap="round" />
<line x1="294.29" y1="73.20" x2="330.05" y2="229.27" stroke="#b1f589" stroke-opacity="0.307" stroke-width="3.11" stroke-linecap="round" />
<line x1="351.19" y1="64.80" x2="355.57" y2="211.68" stroke="#b1f589" stroke-opacity="0.525" stroke-width="1.10" stroke-linecap="round" />
<line x1="396.71" y1="72.17" x2="376.14" y2="233.42" stroke="#b1f589" stroke-opacity="0.389" stroke-width="1.54" stroke-linecap="round" />
<line x1="446.88" y1="77.11" x2="399.55" y2="231.22" stroke="#b1f589" stroke-opacity="0.437" stroke-width="1.84" stroke-linecap="round" />
<line x1="483.93" y1="86.94" x2="416.00" y2="236.62" stroke="#b1f589" stroke-opacity="0.623" stroke-width="3.89" stroke-linecap="round" />
<line x1="526.14" y1="119.27" x2="441.06" y2="242.55" stroke="#b1f589" stroke-opacity="0.533" stroke-width="3.56" stroke-linecap="round" />
<line x1="554.83" y1="144.86" x2="458.07" y2="251.70" stroke="#b1f589" stroke-opacity="0.478" stroke-width="3.72" stroke-linecap="round" />
<line x1="590.73" y1="183.23" x2="463.44" y2="280.75" stroke="#b1f589" stroke-opacity="0.350" stroke-width="3.91" stroke-linecap="round" />
<line x1="613.08" y1="229.41" x2="491.71" y2="292.04" stroke="#b1f589" stroke-opacity="0.662" stroke-width="3.23" stroke-linecap="round" />
<line x1="643.53" y1="266.19" x2="490.85" y2="316.71" stroke="#b1f589" stroke-opacity="0.521" stroke-width="4.00" stroke-linecap="round" />
<line x1="647.73" y1="305.75" x2="487.58" y2="335.95" stroke="#b1f589" stroke-opacity="0.316" stroke-width="1.61" stroke-linecap="round" />
<path d="M 482.25 625.78 A 292.55 292.55 0 0 1 365.14 652.51" fill="none" stroke="#d04cf0" stroke-opacity="0.242" stroke-width="5.01" stroke-linecap="round" />
<path d="M 188.41 143.92 A 275.93 275.93 0 0 1 410.90 88.81" fill="none" stroke="#d04cf0" stroke-opacity="0.454" stroke-width="2.13" stroke-linecap="round" />
<path d="M 161.75 449.89 A 217.68 217.68 0 0 1 143.57 383.22" fill="none" stroke="#d04cf0" stroke-opacity="0.444" stroke-width="4.13" stroke-linecap="round" />
<path d="M 361.06 517.03 A 157.03 157.03 0 0 1 274.40 491.65" fill="none" stroke="#d04cf0" stroke-opacity="0.480" stroke-width="6.29" stroke-linecap="round" />
<path d="M 575.45 382.47 A 216.61 216.61 0 0 1 478.13 541.57" fill="none" stroke="#b1f589" stroke-opacity="0.474" stroke-width="3.76" stroke-linecap="round" />
<path d="M 398.31 532.70 A 176.90 176.90 0 0 1 293.03 523.73" fill="none" stroke="#d04cf0" stroke-opacity="0.203" stroke-width="5.93" stroke-linecap="round" />
<path d="M 411.10 631.24 A 276.01 276.01 0 0 1 309.74 631.39" fill="none" stroke="#b1f589" stroke-opacity="0.188" stroke-width="2.90" stroke-linecap="round" />
</g>
<text x="360" y="684" text-anchor="middle" font-family="ui-monospace, SFMono-Regular, Menlo, Monaco, Consolas, 'Liberation Mono', 'Courier New', monospace" font-size="18" fill="#b1f589" fill-opacity="0.55">20260219T1623Z</text>
</svg>
