<?xml version="1.0" encoding="UTF-8"?>
<svg xmlns="http://www.w3.org/2000/svg" width="720" height="720" viewBox="0 0 720 720" role="img" aria-label="UTC Glyph 20260324T1023Z">
<rect width="100%" height="100%" fill="#0e0d1c" />
<g>
<circle cx="360" cy="360" r="300" fill="none" stroke="#baf589" stroke-opacity="0.22" stroke-width="2" />
<circle cx="360" cy="360" r="182" fill="none" stroke="#c24cf0" stroke-opacity="0.35" stroke-width="4" />
<circle cx="360" cy="360" r="205.60" fill="none" stroke="#baf589" stroke-opacity="0.308" stroke-width="3.38" />
<circle cx="360" cy="360" r="229.20" fill="none" stroke="#baf589" stroke-opacity="0.489" stroke-width="4.75" />
<circle cx="360" cy="360" r="252.80" fill="none" stroke="#baf589" stroke-opacity="0.485" stroke-width="4.82" />
<circle cx="360" cy="360" r="276.40" fill="none" stroke="#baf589" stroke-opacity="0.414" stroke-width="2.04" />
<line x1="651.89" y1="362.17" x2="554.65" y2="361.44" stroke="#baf589" stroke-opacity="0.674" stroke-width="2.16" stroke-linecap="round" />
<line x1="634.98" y1="426.90" x2="560.50" y2="408.78" stroke="#baf589" stroke-opacity="0.326" stroke-width="2.82" stroke-linecap="round" />
<line x1="628.53" y1="480.31" x2="536.34" y2="439.00" stroke="#baf589" stroke-opacity="0.341" stroke-width="2.65" stroke-linecap="round" />
<line x1="593.43" y1="530.39" x2="528.19" y2="482.77" stroke="#baf589" stroke-opacity="0.586" stroke-width="1.86" stroke-linecap="round" />
<line x1="548.68" y1="572.23" x2="482.39" y2="497.67" stroke="#baf589" stroke-opacity="0.597" stroke-width="1.64" stroke-linecap="round" />
<line x1="512.94" y1="610.01" x2="461.11" y2="525.29" stroke="#baf589" stroke-opacity="0.492" stroke-width="2.20" stroke-linecap="round" />
<line x1="441.91" y1="630.77" x2="412.81" y2="534.60" stroke="#baf589" stroke-opacity="0.726" stroke-width="1.36" stroke-linecap="round" />
<line x1="385.59" y1="644.86" x2="377.51" y2="554.97" stroke="#baf589" stroke-opacity="0.652" stroke-width="1.15" stroke-linecap="round" />
<line x1="328.54" y1="651.28" x2="339.15" y2="553.03" stroke="#baf589" stroke-opacity="0.295" stroke-width="2.96" stroke-linecap="round" />
<line x1="277.52" y1="641.72" x2="305.67" y2="545.58" stroke="#baf589" stroke-opacity="0.526" stroke-width="2.48" stroke-linecap="round" />
<line x1="212.23" y1="616.92" x2="259.15" y2="535.34" stroke="#baf589" stroke-opacity="0.655" stroke-width="1.88" stroke-linecap="round" />
<line x1="174.48" y1="575.69" x2="224.75" y2="517.24" stroke="#baf589" stroke-opacity="0.496" stroke-width="1.29" stroke-linecap="round" />
<line x1="127.71" y1="531.05" x2="209.91" y2="470.52" stroke="#baf589" stroke-opacity="0.331" stroke-width="1.65" stroke-linecap="round" />
<line x1="90.52" y1="478.60" x2="187.80" y2="435.78" stroke="#baf589" stroke-opacity="0.646" stroke-width="2.14" stroke-linecap="round" />
<line x1="74.42" y1="419.71" x2="162.79" y2="401.23" stroke="#baf589" stroke-opacity="0.503" stroke-width="2.67" stroke-linecap="round" />
<line x1="64.85" y1="362.81" x2="173.49" y2="361.77" stroke="#baf589" stroke-opacity="0.537" stroke-width="2.88" stroke-linecap="round" />
<line x1="82.96" y1="303.42" x2="179.05" y2="323.05" stroke="#baf589" stroke-opacity="0.680" stroke-width="3.90" stroke-linecap="round" />
<line x1="94.84" y1="239.29" x2="168.02" y2="272.61" stroke="#c24cf0" stroke-opacity="0.632" stroke-width="3.07" stroke-linecap="round" />
<line x1="128.15" y1="194.75" x2="196.96" y2="243.79" stroke="#baf589" stroke-opacity="0.756" stroke-width="2.47" stroke-linecap="round" />
<line x1="155.64" y1="141.45" x2="233.99" y2="225.24" stroke="#c24cf0" stroke-opacity="0.484" stroke-width="1.89" stroke-linecap="round" />
<line x1="210.64" y1="114.33" x2="259.95" y2="195.45" stroke="#c24cf0" stroke-opacity="0.413" stroke-width="1.86" stroke-linecap="round" />
<line x1="275.22" y1="88.31" x2="297.35" y2="159.23" stroke="#c24cf0" stroke-opacity="0.623" stroke-width="1.71" stroke-linecap="round" />
<line x1="323.56" y1="79.60" x2="333.44" y2="155.60" stroke="#baf589" stroke-opacity="0.543" stroke-width="3.48" stroke-linecap="round" />
<line x1="384.84" y1="68.83" x2="376.06" y2="171.75" stroke="#baf589" stroke-opacity="0.384" stroke-width="3.66" stroke-linecap="round" />
<line x1="452.39" y1="77.96" x2="425.06" y2="161.40" stroke="#baf589" stroke-opacity="0.739" stroke-width="2.99" stroke-linecap="round" />
<line x1="508.81" y1="107.40" x2="462.44" y2="186.11" stroke="#baf589" stroke-opacity="0.663" stroke-width="2.53" stroke-linecap="round" />
<line x1="549.93" y1="143.85" x2="481.30" y2="221.96" stroke="#baf589" stroke-opacity="0.481" stroke-width="3.01" stroke-linecap="round" />
<line x1="592.41" y1="199.47" x2="522.24" y2="247.94" stroke="#c24cf0" stroke-opacity="0.324" stroke-width="2.94" stroke-linecap="round" />
<line x1="621.63" y1="235.77" x2="548.56" y2="270.47" stroke="#c24cf0" stroke-opacity="0.725" stroke-width="3.17" stroke-linecap="round" />
<line x1="642.55" y1="296.04" x2="547.19" y2="317.63" stroke="#baf589" stroke-opacity="0.510" stroke-width="1.15" stroke-linecap="round" />
<path d="M 323.02 548.66 A 192.25 192.25 0 0 1 176.54 417.47" fill="none" stroke="#c24cf0" stroke-opacity="0.336" stroke-width="6.03" stroke-linecap="round" />
<path d="M 579.63 516.27 A 269.55 269.55 0 0 1 317.60 626.20" fill="none" stroke="#c24cf0" stroke-opacity="0.341" stroke-width="2.98" stroke-linecap="round" />
<path d="M 405.73 550.18 A 195.60 195.60 0 0 1 178.56 433.08" fill="none" stroke="#c24cf0" stroke-opacity="0.364" stroke-width="5.88" stroke-linecap="round" />
<path d="M 212.89 529.57 A 224.49 224.49 0 0 1 155.62 452.88" fill="none" stroke="#baf589" stroke-opacity="0.235" stroke-width="4.26" stroke-linecap="round" />
<path d="M 614.43 315.60 A 258.27 258.27 0 0 1 528.67 555.59" fill="none" stroke="#c24cf0" stroke-opacity="0.341" stroke-width="5.06" stroke-linecap="round" />
<path d="M 223.64 148.87 A 251.34 251.34 0 0 1 355.62 108.70" fill="none" stroke="#c24cf0" stroke-opacity="0.369" stroke-width="3.30" stroke-linecap="round" />
<path d="M 385.24 112.19 A 249.09 249.09 0 0 1 553.30 202.90" fill="none" stroke="#c24cf0" stroke-opacity="0.345" stroke-width="7.92" stroke-linecap="round" />
<path d="M 504.81 603.84 A 283.60 283.60 0 0 1 206.06 598.19" fill="none" stroke="#baf589" stroke-opacity="0.392" stroke-width="7.51" stroke-linecap="round" />
<path d="M 604.10 268.18 A 260.80 260.80 0 0 1 548.91 539.81" fill="none" stroke="#c24cf0" stroke-opacity="0.471" stroke-width="4.28" stroke-linecap="round" />
<path d="M 296.40 605.72 A 253.82 253.82 0 0 1 126.19 458.78" fill="none" stroke="#baf589" stroke-opacity="0.406" stroke-width="5.91" stroke-linecap="round" />
<path d="M 528.93 508.85 A 225.15 225.15 0 0 1 464.70 559.33" fill="none" stroke="#c24cf0" stroke-opacity="0.506" stroke-width="2.68" stroke-linecap="round" />
<path d="M 567.19 315.66 A 211.88 211.88 0 0 1 467.90 542.35" fill="none" stroke="#c24cf0" stroke-opacity="0.488" stroke-width="6.55" stroke-linecap="round" />
</g>
<text x="360" y="684" text-anchor="middle" font-family="ui-monospace, SFMono-Regular, Menlo, Monaco, Consolas, 'Liberation Mono', 'Courier New', monospace" font-size="18" fill="#baf589" fill-opacity="0.55">20260324T1023Z</text>
</svg>
