<?xml version="1.0" encoding="UTF-8"?>
<svg xmlns="http://www.w3.org/2000/svg" width="720" height="720" viewBox="0 0 720 720" role="img" aria-label="UTC Glyph 20260324T1623Z">
<rect width="100%" height="100%" fill="#1c0d10" />
<g>
<circle cx="360" cy="360" r="300" fill="none" stroke="#89d5f5" stroke-opacity="0.22" stroke-width="2" />
<circle cx="360" cy="360" r="168" fill="none" stroke="#f0994c" stroke-opacity="0.35" stroke-width="4" />
<circle cx="360" cy="360" r="201.00" fill="none" stroke="#89d5f5" stroke-opacity="0.366" stroke-width="4.59" />
<circle cx="360" cy="360" r="234.00" fill="none" stroke="#89d5f5" stroke-opacity="0.356" stroke-width="2.88" />
<circle cx="360" cy="360" r="267.00" fill="none" stroke="#89d5f5" stroke-opacity="0.329" stroke-width="2.53" />
<line x1="644.49" y1="355.34" x2="540.56" y2="357.05" stroke="#89d5f5" stroke-opacity="0.719" stroke-width="2.40" stroke-linecap="round" />
<line x1="650.95" y1="422.67" x2="531.72" y2="396.99" stroke="#f0994c" stroke-opacity="0.554" stroke-width="1.02" stroke-linecap="round" />
<line x1="626.67" y1="492.88" x2="524.54" y2="441.99" stroke="#f0994c" stroke-opacity="0.482" stroke-width="3.56" stroke-linecap="round" />
<line x1="584.81" y1="538.54" x2="493.27" y2="465.84" stroke="#89d5f5" stroke-opacity="0.616" stroke-width="2.80" stroke-linecap="round" />
<line x1="537.41" y1="583.82" x2="475.81" y2="506.11" stroke="#89d5f5" stroke-opacity="0.495" stroke-width="2.55" stroke-linecap="round" />
<line x1="489.42" y1="624.19" x2="440.56" y2="524.45" stroke="#89d5f5" stroke-opacity="0.386" stroke-width="1.87" stroke-linecap="round" />
<line x1="425.14" y1="638.52" x2="401.09" y2="535.69" stroke="#89d5f5" stroke-opacity="0.268" stroke-width="1.03" stroke-linecap="round" />
<line x1="364.44" y1="656.21" x2="362.67" y2="537.96" stroke="#f0994c" stroke-opacity="0.434" stroke-width="1.05" stroke-linecap="round" />
<line x1="287.79" y1="644.68" x2="315.59" y2="535.10" stroke="#89d5f5" stroke-opacity="0.743" stroke-width="2.10" stroke-linecap="round" />
<line x1="234.51" y1="621.55" x2="278.83" y2="529.17" stroke="#89d5f5" stroke-opacity="0.343" stroke-width="1.31" stroke-linecap="round" />
<line x1="186.07" y1="588.74" x2="257.85" y2="494.33" stroke="#89d5f5" stroke-opacity="0.565" stroke-width="2.09" stroke-linecap="round" />
<line x1="140.81" y1="540.72" x2="216.39" y2="478.40" stroke="#89d5f5" stroke-opacity="0.378" stroke-width="1.92" stroke-linecap="round" />
<line x1="93.67" y1="489.29" x2="197.18" y2="439.04" stroke="#89d5f5" stroke-opacity="0.347" stroke-width="2.73" stroke-linecap="round" />
<line x1="70.08" y1="422.73" x2="176.31" y2="399.75" stroke="#89d5f5" stroke-opacity="0.746" stroke-width="2.03" stroke-linecap="round" />
<line x1="69.57" y1="365.45" x2="180.19" y2="363.37" stroke="#89d5f5" stroke-opacity="0.481" stroke-width="3.75" stroke-linecap="round" />
<line x1="70.91" y1="291.08" x2="192.25" y2="320.01" stroke="#f0994c" stroke-opacity="0.262" stroke-width="2.38" stroke-linecap="round" />
<line x1="87.62" y1="234.29" x2="189.98" y2="281.53" stroke="#89d5f5" stroke-opacity="0.332" stroke-width="1.30" stroke-linecap="round" />
<line x1="133.95" y1="182.50" x2="209.58" y2="241.89" stroke="#89d5f5" stroke-opacity="0.493" stroke-width="1.54" stroke-linecap="round" />
<line x1="184.74" y1="129.98" x2="252.30" y2="218.65" stroke="#89d5f5" stroke-opacity="0.569" stroke-width="1.02" stroke-linecap="round" />
<line x1="234.70" y1="95.35" x2="277.93" y2="186.65" stroke="#89d5f5" stroke-opacity="0.645" stroke-width="2.18" stroke-linecap="round" />
<line x1="290.11" y1="71.23" x2="314.05" y2="170.14" stroke="#89d5f5" stroke-opacity="0.403" stroke-width="2.43" stroke-linecap="round" />
<line x1="354.24" y1="67.68" x2="356.22" y2="168.23" stroke="#89d5f5" stroke-opacity="0.600" stroke-width="1.39" stroke-linecap="round" />
<line x1="432.99" y1="71.61" x2="404.23" y2="185.24" stroke="#89d5f5" stroke-opacity="0.717" stroke-width="3.16" stroke-linecap="round" />
<line x1="489.02" y1="95.25" x2="436.87" y2="202.27" stroke="#89d5f5" stroke-opacity="0.682" stroke-width="2.32" stroke-linecap="round" />
<line x1="539.92" y1="138.24" x2="482.38" y2="209.16" stroke="#89d5f5" stroke-opacity="0.427" stroke-width="1.32" stroke-linecap="round" />
<line x1="590.06" y1="185.43" x2="499.79" y2="253.93" stroke="#89d5f5" stroke-opacity="0.369" stroke-width="2.90" stroke-linecap="round" />
<line x1="622.30" y1="230.32" x2="512.43" y2="284.64" stroke="#89d5f5" stroke-opacity="0.712" stroke-width="1.37" stroke-linecap="round" />
<line x1="642.07" y1="300.92" x2="550.62" y2="320.07" stroke="#89d5f5" stroke-opacity="0.295" stroke-width="1.96" stroke-linecap="round" />
<path d="M 135.13 545.84 A 291.72 291.72 0 0 1 124.07 188.41" fill="none" stroke="#89d5f5" stroke-opacity="0.364" stroke-width="3.29" stroke-linecap="round" />
<path d="M 313.83 605.94 A 250.24 250.24 0 0 1 117.18 420.48" fill="none" stroke="#f0994c" stroke-opacity="0.285" stroke-width="2.58" stroke-linecap="round" />
<path d="M 405.40 94.39 A 269.47 269.47 0 0 1 524.00 146.18" fill="none" stroke="#89d5f5" stroke-opacity="0.447" stroke-width="4.46" stroke-linecap="round" />
<path d="M 370.46 541.71 A 182.01 182.01 0 0 1 224.11 481.08" fill="none" stroke="#f0994c" stroke-opacity="0.236" stroke-width="4.52" stroke-linecap="round" />
<path d="M 313.62 649.24 A 292.93 292.93 0 0 1 69.60 398.43" fill="none" stroke="#89d5f5" stroke-opacity="0.391" stroke-width="5.93" stroke-linecap="round" />
<path d="M 133.83 233.55 A 259.11 259.11 0 0 1 363.13 100.91" fill="none" stroke="#89d5f5" stroke-opacity="0.429" stroke-width="2.98" stroke-linecap="round" />
<path d="M 248.34 234.39 A 168.06 168.06 0 0 1 395.76 195.79" fill="none" stroke="#f0994c" stroke-opacity="0.410" stroke-width="3.74" stroke-linecap="round" />
</g>
<text x="360" y="684" text-anchor="middle" font-family="ui-monospace, SFMono-Regular, Menlo, Monaco, Consolas, 'Liberation Mono', 'Courier New', monospace" font-size="18" fill="#89d5f5" fill-opacity="0.55">20260324T1623Z</text>
</svg>
