<?xml version="1.0" encoding="UTF-8"?>
<svg xmlns="http://www.w3.org/2000/svg" width="720" height="720" viewBox="0 0 720 720" role="img" aria-label="UTC Glyph 20260315T0423Z">
<rect width="100%" height="100%" fill="#0f0d1c" />
<g>
<circle cx="360" cy="360" r="300" fill="none" stroke="#b1f589" stroke-opacity="0.22" stroke-width="2" />
<circle cx="360" cy="360" r="157" fill="none" stroke="#d04cf0" stroke-opacity="0.35" stroke-width="4" />
<circle cx="360" cy="360" r="185.60" fill="none" stroke="#b1f589" stroke-opacity="0.442" stroke-width="2.91" />
<circle cx="360" cy="360" r="214.20" fill="none" stroke="#b1f589" stroke-opacity="0.505" stroke-width="4.23" />
<circle cx="360" cy="360" r="242.80" fill="none" stroke="#b1f589" stroke-opacity="0.357" stroke-width="4.75" />
<circle cx="360" cy="360" r="271.40" fill="none" stroke="#b1f589" stroke-opacity="0.536" stroke-width="4.40" />
<line x1="659.32" y1="359.81" x2="523.91" y2="359.90" stroke="#b1f589" stroke-opacity="0.635" stroke-width="3.39" stroke-linecap="round" />
<line x1="653.25" y1="413.01" x2="533.33" y2="391.33" stroke="#b1f589" stroke-opacity="0.392" stroke-width="1.68" stroke-linecap="round" />
<line x1="622.60" y1="479.47" x2="519.45" y2="432.54" stroke="#b1f589" stroke-opacity="0.462" stroke-width="1.04" stroke-linecap="round" />
<line x1="599.23" y1="521.33" x2="500.32" y2="454.63" stroke="#b1f589" stroke-opacity="0.680" stroke-width="1.20" stroke-linecap="round" />
<line x1="559.86" y1="565.45" x2="481.04" y2="484.43" stroke="#d04cf0" stroke-opacity="0.361" stroke-width="1.49" stroke-linecap="round" />
<line x1="513.80" y1="607.60" x2="447.29" y2="500.53" stroke="#b1f589" stroke-opacity="0.273" stroke-width="3.60" stroke-linecap="round" />
<line x1="460.34" y1="640.71" x2="416.29" y2="517.47" stroke="#b1f589" stroke-opacity="0.522" stroke-width="3.56" stroke-linecap="round" />
<line x1="413.41" y1="650.74" x2="389.48" y2="520.47" stroke="#b1f589" stroke-opacity="0.487" stroke-width="1.58" stroke-linecap="round" />
<line x1="349.37" y1="648.53" x2="353.14" y2="546.18" stroke="#d04cf0" stroke-opacity="0.700" stroke-width="1.31" stroke-linecap="round" />
<line x1="292.01" y1="641.86" x2="323.14" y2="512.82" stroke="#b1f589" stroke-opacity="0.577" stroke-width="2.52" stroke-linecap="round" />
<line x1="228.48" y1="624.05" x2="277.11" y2="526.41" stroke="#b1f589" stroke-opacity="0.697" stroke-width="2.39" stroke-linecap="round" />
<line x1="182.15" y1="589.23" x2="260.43" y2="488.34" stroke="#d04cf0" stroke-opacity="0.781" stroke-width="1.33" stroke-linecap="round" />
<line x1="146.02" y1="552.04" x2="238.56" y2="468.98" stroke="#d04cf0" stroke-opacity="0.340" stroke-width="3.21" stroke-linecap="round" />
<line x1="108.67" y1="490.18" x2="212.70" y2="436.30" stroke="#b1f589" stroke-opacity="0.689" stroke-width="1.10" stroke-linecap="round" />
<line x1="91.92" y1="449.33" x2="185.37" y2="418.19" stroke="#b1f589" stroke-opacity="0.723" stroke-width="3.45" stroke-linecap="round" />
<line x1="72.11" y1="394.00" x2="201.30" y2="378.74" stroke="#b1f589" stroke-opacity="0.367" stroke-width="1.67" stroke-linecap="round" />
<line x1="75.45" y1="331.80" x2="202.90" y2="344.43" stroke="#b1f589" stroke-opacity="0.367" stroke-width="2.75" stroke-linecap="round" />
<line x1="87.78" y1="279.37" x2="193.97" y2="310.82" stroke="#b1f589" stroke-opacity="0.495" stroke-width="2.66" stroke-linecap="round" />
<line x1="107.44" y1="222.01" x2="207.69" y2="276.78" stroke="#d04cf0" stroke-opacity="0.718" stroke-width="3.89" stroke-linecap="round" />
<line x1="131.87" y1="165.67" x2="221.97" y2="242.42" stroke="#b1f589" stroke-opacity="0.741" stroke-width="2.62" stroke-linecap="round" />
<line x1="175.48" y1="126.95" x2="244.49" y2="214.10" stroke="#b1f589" stroke-opacity="0.451" stroke-width="2.90" stroke-linecap="round" />
<line x1="233.82" y1="103.83" x2="285.43" y2="208.62" stroke="#d04cf0" stroke-opacity="0.355" stroke-width="1.93" stroke-linecap="round" />
<line x1="284.56" y1="81.33" x2="311.81" y2="181.98" stroke="#d04cf0" stroke-opacity="0.766" stroke-width="1.80" stroke-linecap="round" />
<line x1="345.84" y1="68.01" x2="351.91" y2="193.09" stroke="#b1f589" stroke-opacity="0.331" stroke-width="3.28" stroke-linecap="round" />
<line x1="401.57" y1="73.25" x2="382.72" y2="203.25" stroke="#b1f589" stroke-opacity="0.561" stroke-width="3.86" stroke-linecap="round" />
<line x1="459.11" y1="95.52" x2="423.23" y2="191.28" stroke="#b1f589" stroke-opacity="0.432" stroke-width="1.62" stroke-linecap="round" />
<line x1="515.43" y1="105.06" x2="446.12" y2="218.75" stroke="#d04cf0" stroke-opacity="0.600" stroke-width="3.80" stroke-linecap="round" />
<line x1="563.41" y1="156.93" x2="480.86" y2="239.35" stroke="#b1f589" stroke-opacity="0.789" stroke-width="1.96" stroke-linecap="round" />
<line x1="590.06" y1="196.52" x2="505.87" y2="256.34" stroke="#b1f589" stroke-opacity="0.484" stroke-width="3.99" stroke-linecap="round" />
<line x1="618.64" y1="242.70" x2="503.63" y2="294.86" stroke="#b1f589" stroke-opacity="0.264" stroke-width="3.90" stroke-linecap="round" />
<line x1="645.03" y1="295.54" x2="526.79" y2="322.28" stroke="#b1f589" stroke-opacity="0.255" stroke-width="2.18" stroke-linecap="round" />
<path d="M 91.54 272.76 A 282.28 282.28 0 0 1 277.12 90.16" fill="none" stroke="#d04cf0" stroke-opacity="0.479" stroke-width="4.68" stroke-linecap="round" />
<path d="M 499.93 464.29 A 174.52 174.52 0 0 1 286.21 518.15" fill="none" stroke="#b1f589" stroke-opacity="0.226" stroke-width="3.75" stroke-linecap="round" />
<path d="M 641.41 401.40 A 284.44 284.44 0 0 1 437.10 633.79" fill="none" stroke="#b1f589" stroke-opacity="0.198" stroke-width="6.50" stroke-linecap="round" />
<path d="M 282.06 574.77 A 228.48 228.48 0 0 1 132.20 342.46" fill="none" stroke="#b1f589" stroke-opacity="0.289" stroke-width="7.39" stroke-linecap="round" />
<path d="M 494.85 101.82 A 291.28 291.28 0 0 1 630.37 468.36" fill="none" stroke="#b1f589" stroke-opacity="0.396" stroke-width="7.79" stroke-linecap="round" />
<path d="M 466.76 234.08 A 165.08 165.08 0 0 1 493.28 457.40" fill="none" stroke="#d04cf0" stroke-opacity="0.415" stroke-width="6.83" stroke-linecap="round" />
</g>
<text x="360" y="684" text-anchor="middle" font-family="ui-monospace, SFMono-Regular, Menlo, Monaco, Consolas, 'Liberation Mono', 'Courier New', monospace" font-size="18" fill="#b1f589" fill-opacity="0.55">20260315T0423Z</text>
</svg>
