<?xml version="1.0" encoding="UTF-8"?>
<svg xmlns="http://www.w3.org/2000/svg" width="720" height="720" viewBox="0 0 720 720" role="img" aria-label="UTC Glyph 20260311T2223Z">
<rect width="100%" height="100%" fill="#150d1c" />
<g>
<circle cx="360" cy="360" r="300" fill="none" stroke="#89f58e" stroke-opacity="0.22" stroke-width="2" />
<circle cx="360" cy="360" r="146" fill="none" stroke="#f04ccd" stroke-opacity="0.35" stroke-width="4" />
<circle cx="360" cy="360" r="168.00" fill="none" stroke="#89f58e" stroke-opacity="0.342" stroke-width="2.04" />
<circle cx="360" cy="360" r="190.00" fill="none" stroke="#89f58e" stroke-opacity="0.447" stroke-width="4.71" />
<circle cx="360" cy="360" r="212.00" fill="none" stroke="#89f58e" stroke-opacity="0.394" stroke-width="4.71" />
<circle cx="360" cy="360" r="234.00" fill="none" stroke="#89f58e" stroke-opacity="0.290" stroke-width="2.83" />
<circle cx="360" cy="360" r="256.00" fill="none" stroke="#89f58e" stroke-opacity="0.543" stroke-width="4.37" />
<circle cx="360" cy="360" r="278.00" fill="none" stroke="#89f58e" stroke-opacity="0.433" stroke-width="2.64" />
<line x1="646.24" y1="368.24" x2="530.62" y2="364.91" stroke="#89f58e" stroke-opacity="0.731" stroke-width="3.25" stroke-linecap="round" />
<line x1="647.65" y1="419.38" x2="522.40" y2="393.52" stroke="#f04ccd" stroke-opacity="0.553" stroke-width="1.80" stroke-linecap="round" />
<line x1="621.96" y1="492.35" x2="499.80" y2="430.63" stroke="#89f58e" stroke-opacity="0.661" stroke-width="1.42" stroke-linecap="round" />
<line x1="599.12" y1="539.99" x2="477.27" y2="448.28" stroke="#f04ccd" stroke-opacity="0.548" stroke-width="2.86" stroke-linecap="round" />
<line x1="532.65" y1="586.85" x2="448.63" y2="476.45" stroke="#f04ccd" stroke-opacity="0.408" stroke-width="1.27" stroke-linecap="round" />
<line x1="493.80" y1="627.58" x2="435.53" y2="511.05" stroke="#89f58e" stroke-opacity="0.478" stroke-width="3.54" stroke-linecap="round" />
<line x1="420.30" y1="651.36" x2="394.22" y2="525.34" stroke="#89f58e" stroke-opacity="0.489" stroke-width="3.25" stroke-linecap="round" />
<line x1="364.40" y1="653.19" x2="362.44" y2="522.56" stroke="#89f58e" stroke-opacity="0.438" stroke-width="3.06" stroke-linecap="round" />
<line x1="302.45" y1="642.33" x2="325.67" y2="528.41" stroke="#89f58e" stroke-opacity="0.340" stroke-width="3.54" stroke-linecap="round" />
<line x1="223.56" y1="626.97" x2="288.32" y2="500.25" stroke="#89f58e" stroke-opacity="0.591" stroke-width="1.90" stroke-linecap="round" />
<line x1="186.38" y1="589.87" x2="266.49" y2="483.80" stroke="#89f58e" stroke-opacity="0.540" stroke-width="3.67" stroke-linecap="round" />
<line x1="123.24" y1="539.49" x2="225.57" y2="461.91" stroke="#89f58e" stroke-opacity="0.518" stroke-width="2.98" stroke-linecap="round" />
<line x1="97.73" y1="490.98" x2="228.18" y2="425.83" stroke="#89f58e" stroke-opacity="0.703" stroke-width="3.27" stroke-linecap="round" />
<line x1="81.94" y1="425.05" x2="201.89" y2="396.99" stroke="#89f58e" stroke-opacity="0.506" stroke-width="2.49" stroke-linecap="round" />
<line x1="75.27" y1="366.23" x2="185.05" y2="363.83" stroke="#89f58e" stroke-opacity="0.753" stroke-width="2.35" stroke-linecap="round" />
<line x1="74.53" y1="295.98" x2="205.27" y2="325.30" stroke="#89f58e" stroke-opacity="0.405" stroke-width="3.19" stroke-linecap="round" />
<line x1="93.30" y1="240.61" x2="223.48" y2="298.89" stroke="#89f58e" stroke-opacity="0.680" stroke-width="1.96" stroke-linecap="round" />
<line x1="137.12" y1="183.07" x2="228.61" y2="255.70" stroke="#89f58e" stroke-opacity="0.533" stroke-width="2.14" stroke-linecap="round" />
<line x1="171.68" y1="132.75" x2="263.49" y2="243.54" stroke="#89f58e" stroke-opacity="0.738" stroke-width="1.16" stroke-linecap="round" />
<line x1="239.38" y1="103.12" x2="290.09" y2="211.12" stroke="#89f58e" stroke-opacity="0.669" stroke-width="2.00" stroke-linecap="round" />
<line x1="291.56" y1="71.83" x2="321.71" y2="198.76" stroke="#89f58e" stroke-opacity="0.612" stroke-width="2.72" stroke-linecap="round" />
<line x1="356.41" y1="64.65" x2="357.91" y2="188.28" stroke="#89f58e" stroke-opacity="0.712" stroke-width="1.11" stroke-linecap="round" />
<line x1="419.40" y1="76.63" x2="395.98" y2="188.37" stroke="#89f58e" stroke-opacity="0.381" stroke-width="3.29" stroke-linecap="round" />
<line x1="481.95" y1="95.33" x2="423.40" y2="222.40" stroke="#f04ccd" stroke-opacity="0.286" stroke-width="2.59" stroke-linecap="round" />
<line x1="536.34" y1="129.24" x2="448.80" y2="243.80" stroke="#f04ccd" stroke-opacity="0.765" stroke-width="3.93" stroke-linecap="round" />
<line x1="589.51" y1="173.11" x2="481.91" y2="260.73" stroke="#89f58e" stroke-opacity="0.346" stroke-width="1.24" stroke-linecap="round" />
<line x1="627.31" y1="229.13" x2="516.72" y2="283.27" stroke="#89f58e" stroke-opacity="0.501" stroke-width="2.43" stroke-linecap="round" />
<line x1="644.11" y1="291.69" x2="522.85" y2="320.85" stroke="#89f58e" stroke-opacity="0.772" stroke-width="2.69" stroke-linecap="round" />
<path d="M 158.56 455.94 A 223.12 223.12 0 0 1 172.17 239.58" fill="none" stroke="#f04ccd" stroke-opacity="0.394" stroke-width="4.20" stroke-linecap="round" />
<path d="M 224.06 484.38 A 184.26 184.26 0 0 1 176.05 370.56" fill="none" stroke="#f04ccd" stroke-opacity="0.370" stroke-width="7.77" stroke-linecap="round" />
<path d="M 324.63 604.66 A 247.21 247.21 0 0 1 131.82 455.11" fill="none" stroke="#89f58e" stroke-opacity="0.346" stroke-width="3.51" stroke-linecap="round" />
<path d="M 229.73 254.37 A 167.72 167.72 0 0 1 444.31 215.02" fill="none" stroke="#89f58e" stroke-opacity="0.301" stroke-width="2.89" stroke-linecap="round" />
<path d="M 551.82 474.19 A 223.23 223.23 0 0 1 469.93 554.29" fill="none" stroke="#89f58e" stroke-opacity="0.262" stroke-width="2.49" stroke-linecap="round" />
<path d="M 398.93 143.97 A 219.51 219.51 0 0 1 491.09 183.93" fill="none" stroke="#f04ccd" stroke-opacity="0.220" stroke-width="5.06" stroke-linecap="round" />
<path d="M 345.09 98.91 A 261.51 261.51 0 0 1 471.46 123.43" fill="none" stroke="#f04ccd" stroke-opacity="0.502" stroke-width="4.17" stroke-linecap="round" />
<path d="M 508.07 305.85 A 157.66 157.66 0 0 1 503.83 424.57" fill="none" stroke="#f04ccd" stroke-opacity="0.201" stroke-width="2.14" stroke-linecap="round" />
<path d="M 162.59 194.07 A 257.88 257.88 0 0 1 359.24 102.12" fill="none" stroke="#f04ccd" stroke-opacity="0.190" stroke-width="3.37" stroke-linecap="round" />
<path d="M 434.18 565.19 A 218.19 218.19 0 0 1 178.54 481.16" fill="none" stroke="#89f58e" stroke-opacity="0.195" stroke-width="5.53" stroke-linecap="round" />
</g>
<text x="360" y="684" text-anchor="middle" font-family="ui-monospace, SFMono-Regular, Menlo, Monaco, Consolas, 'Liberation Mono', 'Courier New', monospace" font-size="18" fill="#89f58e" fill-opacity="0.55">20260311T2223Z</text>
</svg>
