<?xml version="1.0" encoding="UTF-8"?>
<svg xmlns="http://www.w3.org/2000/svg" width="720" height="720" viewBox="0 0 720 720" role="img" aria-label="UTC Glyph 20260330T2223Z">
<rect width="100%" height="100%" fill="#0e1c0d" />
<g>
<circle cx="360" cy="360" r="300" fill="none" stroke="#f589c6" stroke-opacity="0.22" stroke-width="2" />
<circle cx="360" cy="360" r="143" fill="none" stroke="#4cf0af" stroke-opacity="0.35" stroke-width="4" />
<circle cx="360" cy="360" r="169.17" fill="none" stroke="#f589c6" stroke-opacity="0.434" stroke-width="4.91" />
<circle cx="360" cy="360" r="195.33" fill="none" stroke="#f589c6" stroke-opacity="0.311" stroke-width="3.23" />
<circle cx="360" cy="360" r="221.50" fill="none" stroke="#f589c6" stroke-opacity="0.436" stroke-width="2.60" />
<circle cx="360" cy="360" r="247.67" fill="none" stroke="#f589c6" stroke-opacity="0.395" stroke-width="2.13" />
<circle cx="360" cy="360" r="273.83" fill="none" stroke="#f589c6" stroke-opacity="0.382" stroke-width="4.19" />
<line x1="648.51" y1="359.67" x2="512.54" y2="359.83" stroke="#4cf0af" stroke-opacity="0.681" stroke-width="2.11" stroke-linecap="round" />
<line x1="630.94" y1="449.11" x2="503.99" y2="407.36" stroke="#f589c6" stroke-opacity="0.635" stroke-width="2.59" stroke-linecap="round" />
<line x1="590.85" y1="534.26" x2="480.06" y2="450.63" stroke="#f589c6" stroke-opacity="0.299" stroke-width="2.80" stroke-linecap="round" />
<line x1="519.38" y1="605.61" x2="448.31" y2="496.09" stroke="#f589c6" stroke-opacity="0.477" stroke-width="1.89" stroke-linecap="round" />
<line x1="436.53" y1="633.80" x2="398.72" y2="498.52" stroke="#f589c6" stroke-opacity="0.428" stroke-width="1.57" stroke-linecap="round" />
<line x1="338.39" y1="647.51" x2="347.14" y2="531.19" stroke="#f589c6" stroke-opacity="0.426" stroke-width="2.05" stroke-linecap="round" />
<line x1="237.25" y1="624.89" x2="289.63" y2="511.86" stroke="#f589c6" stroke-opacity="0.627" stroke-width="2.79" stroke-linecap="round" />
<line x1="163.19" y1="577.84" x2="250.20" y2="481.53" stroke="#f589c6" stroke-opacity="0.445" stroke-width="1.05" stroke-linecap="round" />
<line x1="98.30" y1="503.48" x2="223.37" y2="434.91" stroke="#f589c6" stroke-opacity="0.261" stroke-width="2.71" stroke-linecap="round" />
<line x1="69.75" y1="413.77" x2="213.07" y2="387.22" stroke="#f589c6" stroke-opacity="0.570" stroke-width="2.61" stroke-linecap="round" />
<line x1="79.38" y1="308.32" x2="193.09" y2="329.26" stroke="#4cf0af" stroke-opacity="0.267" stroke-width="3.99" stroke-linecap="round" />
<line x1="97.94" y1="218.06" x2="222.78" y2="285.68" stroke="#f589c6" stroke-opacity="0.720" stroke-width="3.72" stroke-linecap="round" />
<line x1="159.57" y1="149.35" x2="242.66" y2="236.68" stroke="#f589c6" stroke-opacity="0.771" stroke-width="3.38" stroke-linecap="round" />
<line x1="247.63" y1="87.83" x2="304.44" y2="225.44" stroke="#f589c6" stroke-opacity="0.354" stroke-width="1.79" stroke-linecap="round" />
<line x1="343.92" y1="61.61" x2="351.20" y2="196.75" stroke="#f589c6" stroke-opacity="0.612" stroke-width="3.79" stroke-linecap="round" />
<line x1="425.92" y1="81.35" x2="394.24" y2="215.28" stroke="#4cf0af" stroke-opacity="0.726" stroke-width="1.64" stroke-linecap="round" />
<line x1="525.17" y1="121.08" x2="449.90" y2="229.96" stroke="#f589c6" stroke-opacity="0.266" stroke-width="2.40" stroke-linecap="round" />
<line x1="585.37" y1="185.22" x2="494.50" y2="255.70" stroke="#f589c6" stroke-opacity="0.533" stroke-width="3.70" stroke-linecap="round" />
<line x1="642.29" y1="259.00" x2="496.83" y2="311.04" stroke="#f589c6" stroke-opacity="0.342" stroke-width="2.99" stroke-linecap="round" />
<path d="M 172.66 399.99 A 191.56 191.56 0 0 1 294.15 180.11" fill="none" stroke="#f589c6" stroke-opacity="0.407" stroke-width="3.77" stroke-linecap="round" />
<path d="M 452.25 187.39 A 195.71 195.71 0 0 1 527.37 258.56" fill="none" stroke="#4cf0af" stroke-opacity="0.519" stroke-width="2.55" stroke-linecap="round" />
<path d="M 400.26 193.67 A 171.13 171.13 0 0 1 502.42 265.11" fill="none" stroke="#4cf0af" stroke-opacity="0.297" stroke-width="7.90" stroke-linecap="round" />
<path d="M 436.81 574.33 A 227.67 227.67 0 0 1 355.92 587.64" fill="none" stroke="#f589c6" stroke-opacity="0.296" stroke-width="4.48" stroke-linecap="round" />
<path d="M 114.87 225.11 A 279.79 279.79 0 0 1 250.53 102.51" fill="none" stroke="#4cf0af" stroke-opacity="0.467" stroke-width="6.41" stroke-linecap="round" />
<path d="M 435.73 181.39 A 194.00 194.00 0 0 1 549.42 401.92" fill="none" stroke="#f589c6" stroke-opacity="0.197" stroke-width="6.36" stroke-linecap="round" />
<path d="M 248.42 172.25 A 218.41 218.41 0 0 1 478.35 176.44" fill="none" stroke="#f589c6" stroke-opacity="0.518" stroke-width="7.90" stroke-linecap="round" />
<path d="M 357.19 608.52 A 248.54 248.54 0 0 1 163.56 512.25" fill="none" stroke="#f589c6" stroke-opacity="0.523" stroke-width="5.47" stroke-linecap="round" />
</g>
<text x="360" y="684" text-anchor="middle" font-family="ui-monospace, SFMono-Regular, Menlo, Monaco, Consolas, 'Liberation Mono', 'Courier New', monospace" font-size="18" fill="#f589c6" fill-opacity="0.55">20260330T2223Z</text>
</svg>
