<?xml version="1.0" encoding="UTF-8"?>
<svg xmlns="http://www.w3.org/2000/svg" width="720" height="720" viewBox="0 0 720 720" role="img" aria-label="UTC Glyph 20260226T0423Z">
<rect width="100%" height="100%" fill="#1b1c0d" />
<g>
<circle cx="360" cy="360" r="300" fill="none" stroke="#c689f5" stroke-opacity="0.22" stroke-width="2" />
<circle cx="360" cy="360" r="182" fill="none" stroke="#78f04c" stroke-opacity="0.35" stroke-width="4" />
<circle cx="360" cy="360" r="198.86" fill="none" stroke="#c689f5" stroke-opacity="0.349" stroke-width="2.20" />
<circle cx="360" cy="360" r="215.71" fill="none" stroke="#c689f5" stroke-opacity="0.448" stroke-width="2.93" />
<circle cx="360" cy="360" r="232.57" fill="none" stroke="#c689f5" stroke-opacity="0.547" stroke-width="2.40" />
<circle cx="360" cy="360" r="249.43" fill="none" stroke="#c689f5" stroke-opacity="0.440" stroke-width="3.32" />
<circle cx="360" cy="360" r="266.29" fill="none" stroke="#c689f5" stroke-opacity="0.402" stroke-width="4.56" />
<circle cx="360" cy="360" r="283.14" fill="none" stroke="#c689f5" stroke-opacity="0.373" stroke-width="4.77" />
<line x1="657.78" y1="358.25" x2="559.46" y2="358.83" stroke="#c689f5" stroke-opacity="0.575" stroke-width="1.19" stroke-linecap="round" />
<line x1="641.12" y1="449.86" x2="539.84" y2="417.48" stroke="#c689f5" stroke-opacity="0.354" stroke-width="2.96" stroke-linecap="round" />
<line x1="603.90" y1="513.15" x2="528.05" y2="465.52" stroke="#c689f5" stroke-opacity="0.618" stroke-width="1.50" stroke-linecap="round" />
<line x1="548.39" y1="576.23" x2="481.53" y2="499.49" stroke="#c689f5" stroke-opacity="0.469" stroke-width="2.85" stroke-linecap="round" />
<line x1="486.72" y1="617.32" x2="441.73" y2="525.96" stroke="#c689f5" stroke-opacity="0.456" stroke-width="1.56" stroke-linecap="round" />
<line x1="402.49" y1="649.24" x2="388.71" y2="555.49" stroke="#78f04c" stroke-opacity="0.323" stroke-width="1.82" stroke-linecap="round" />
<line x1="327.18" y1="648.07" x2="338.16" y2="551.64" stroke="#c689f5" stroke-opacity="0.282" stroke-width="1.15" stroke-linecap="round" />
<line x1="237.52" y1="623.40" x2="274.76" y2="543.31" stroke="#c689f5" stroke-opacity="0.481" stroke-width="2.00" stroke-linecap="round" />
<line x1="175.78" y1="580.40" x2="235.58" y2="508.86" stroke="#c689f5" stroke-opacity="0.711" stroke-width="3.54" stroke-linecap="round" />
<line x1="112.63" y1="528.45" x2="189.76" y2="475.93" stroke="#c689f5" stroke-opacity="0.456" stroke-width="1.66" stroke-linecap="round" />
<line x1="79.66" y1="449.78" x2="161.56" y2="423.55" stroke="#c689f5" stroke-opacity="0.541" stroke-width="3.27" stroke-linecap="round" />
<line x1="66.70" y1="351.97" x2="166.96" y2="354.71" stroke="#c689f5" stroke-opacity="0.634" stroke-width="1.97" stroke-linecap="round" />
<line x1="89.84" y1="276.84" x2="180.70" y2="304.81" stroke="#c689f5" stroke-opacity="0.371" stroke-width="1.71" stroke-linecap="round" />
<line x1="111.00" y1="203.24" x2="200.89" y2="259.83" stroke="#c689f5" stroke-opacity="0.515" stroke-width="1.17" stroke-linecap="round" />
<line x1="170.93" y1="133.94" x2="233.52" y2="208.78" stroke="#c689f5" stroke-opacity="0.430" stroke-width="2.01" stroke-linecap="round" />
<line x1="233.23" y1="97.70" x2="273.66" y2="181.35" stroke="#c689f5" stroke-opacity="0.308" stroke-width="1.96" stroke-linecap="round" />
<line x1="310.43" y1="72.94" x2="324.39" y2="153.79" stroke="#c689f5" stroke-opacity="0.667" stroke-width="2.48" stroke-linecap="round" />
<line x1="407.78" y1="74.15" x2="392.03" y2="168.40" stroke="#78f04c" stroke-opacity="0.290" stroke-width="3.23" stroke-linecap="round" />
<line x1="483.89" y1="92.77" x2="441.64" y2="183.89" stroke="#c689f5" stroke-opacity="0.369" stroke-width="2.88" stroke-linecap="round" />
<line x1="557.72" y1="137.49" x2="485.21" y2="219.10" stroke="#c689f5" stroke-opacity="0.766" stroke-width="3.76" stroke-linecap="round" />
<line x1="595.33" y1="204.19" x2="534.36" y2="244.56" stroke="#c689f5" stroke-opacity="0.325" stroke-width="1.77" stroke-linecap="round" />
<line x1="645.78" y1="276.88" x2="561.45" y2="301.41" stroke="#c689f5" stroke-opacity="0.309" stroke-width="2.55" stroke-linecap="round" />
<path d="M 484.86 108.50 A 280.79 280.79 0 0 1 629.02 440.45" fill="none" stroke="#c689f5" stroke-opacity="0.305" stroke-width="3.40" stroke-linecap="round" />
<path d="M 503.51 238.87 A 187.80 187.80 0 0 1 519.29 459.47" fill="none" stroke="#78f04c" stroke-opacity="0.475" stroke-width="6.94" stroke-linecap="round" />
<path d="M 394.39 126.27 A 236.24 236.24 0 0 1 588.11 298.53" fill="none" stroke="#c689f5" stroke-opacity="0.525" stroke-width="3.86" stroke-linecap="round" />
<path d="M 276.19 127.68 A 246.97 246.97 0 0 1 547.06 198.74" fill="none" stroke="#c689f5" stroke-opacity="0.198" stroke-width="3.02" stroke-linecap="round" />
<path d="M 534.43 246.05 A 208.35 208.35 0 0 1 535.14 472.86" fill="none" stroke="#78f04c" stroke-opacity="0.205" stroke-width="2.78" stroke-linecap="round" />
<path d="M 144.98 513.73 A 264.32 264.32 0 0 1 95.83 369.10" fill="none" stroke="#c689f5" stroke-opacity="0.511" stroke-width="4.48" stroke-linecap="round" />
<path d="M 177.32 130.30 A 293.49 293.49 0 0 1 375.16 66.90" fill="none" stroke="#78f04c" stroke-opacity="0.440" stroke-width="7.57" stroke-linecap="round" />
<path d="M 115.86 328.25 A 246.20 246.20 0 0 1 152.00 228.29" fill="none" stroke="#c689f5" stroke-opacity="0.427" stroke-width="7.38" stroke-linecap="round" />
<path d="M 483.74 110.99 A 278.06 278.06 0 0 1 632.96 412.99" fill="none" stroke="#c689f5" stroke-opacity="0.207" stroke-width="5.38" stroke-linecap="round" />
<path d="M 224.91 140.49 A 257.74 257.74 0 0 1 514.40 153.62" fill="none" stroke="#78f04c" stroke-opacity="0.288" stroke-width="3.35" stroke-linecap="round" />
<path d="M 478.31 103.15 A 282.78 282.78 0 0 1 641.19 330.02" fill="none" stroke="#78f04c" stroke-opacity="0.182" stroke-width="7.61" stroke-linecap="round" />
</g>
<text x="360" y="684" text-anchor="middle" font-family="ui-monospace, SFMono-Regular, Menlo, Monaco, Consolas, 'Liberation Mono', 'Courier New', monospace" font-size="18" fill="#c689f5" fill-opacity="0.55">20260226T0423Z</text>
</svg>
