<?xml version="1.0" encoding="UTF-8"?>
<svg xmlns="http://www.w3.org/2000/svg" width="720" height="720" viewBox="0 0 720 720" role="img" aria-label="UTC Glyph 20260225T0424Z">
<rect width="100%" height="100%" fill="#0d161c" />
<g>
<circle cx="360" cy="360" r="300" fill="none" stroke="#f5eb89" stroke-opacity="0.22" stroke-width="2" />
<circle cx="360" cy="360" r="119" fill="none" stroke="#574cf0" stroke-opacity="0.35" stroke-width="4" />
<circle cx="360" cy="360" r="164.25" fill="none" stroke="#f5eb89" stroke-opacity="0.443" stroke-width="3.43" />
<circle cx="360" cy="360" r="209.50" fill="none" stroke="#f5eb89" stroke-opacity="0.376" stroke-width="4.00" />
<circle cx="360" cy="360" r="254.75" fill="none" stroke="#f5eb89" stroke-opacity="0.374" stroke-width="2.45" />
<line x1="642.90" y1="351.80" x2="482.28" y2="356.45" stroke="#574cf0" stroke-opacity="0.477" stroke-width="1.31" stroke-linecap="round" />
<line x1="640.10" y1="456.18" x2="484.43" y2="402.73" stroke="#f5eb89" stroke-opacity="0.629" stroke-width="3.21" stroke-linecap="round" />
<line x1="588.66" y1="527.20" x2="472.68" y2="442.39" stroke="#f5eb89" stroke-opacity="0.549" stroke-width="3.87" stroke-linecap="round" />
<line x1="524.10" y1="590.79" x2="439.46" y2="471.75" stroke="#f5eb89" stroke-opacity="0.505" stroke-width="1.35" stroke-linecap="round" />
<line x1="449.06" y1="642.69" x2="401.08" y2="490.38" stroke="#f5eb89" stroke-opacity="0.578" stroke-width="1.16" stroke-linecap="round" />
<line x1="362.11" y1="643.85" x2="361.10" y2="508.66" stroke="#f5eb89" stroke-opacity="0.275" stroke-width="1.46" stroke-linecap="round" />
<line x1="279.38" y1="632.24" x2="322.14" y2="487.85" stroke="#f5eb89" stroke-opacity="0.358" stroke-width="2.79" stroke-linecap="round" />
<line x1="184.89" y1="586.57" x2="269.87" y2="476.62" stroke="#f5eb89" stroke-opacity="0.327" stroke-width="1.58" stroke-linecap="round" />
<line x1="124.14" y1="538.75" x2="252.62" y2="441.38" stroke="#f5eb89" stroke-opacity="0.387" stroke-width="2.78" stroke-linecap="round" />
<line x1="91.82" y1="451.44" x2="245.21" y2="399.14" stroke="#f5eb89" stroke-opacity="0.687" stroke-width="3.40" stroke-linecap="round" />
<line x1="65.89" y1="361.80" x2="211.53" y2="360.91" stroke="#574cf0" stroke-opacity="0.693" stroke-width="3.69" stroke-linecap="round" />
<line x1="84.69" y1="279.06" x2="234.09" y2="322.98" stroke="#f5eb89" stroke-opacity="0.795" stroke-width="2.41" stroke-linecap="round" />
<line x1="120.35" y1="192.56" x2="253.62" y2="285.68" stroke="#f5eb89" stroke-opacity="0.611" stroke-width="1.10" stroke-linecap="round" />
<line x1="181.02" y1="127.29" x2="281.39" y2="257.79" stroke="#f5eb89" stroke-opacity="0.612" stroke-width="2.83" stroke-linecap="round" />
<line x1="272.49" y1="76.32" x2="317.18" y2="221.19" stroke="#f5eb89" stroke-opacity="0.690" stroke-width="2.18" stroke-linecap="round" />
<line x1="357.43" y1="60.24" x2="358.89" y2="230.92" stroke="#574cf0" stroke-opacity="0.537" stroke-width="3.93" stroke-linecap="round" />
<line x1="448.72" y1="85.71" x2="397.94" y2="242.69" stroke="#f5eb89" stroke-opacity="0.679" stroke-width="1.95" stroke-linecap="round" />
<line x1="534.72" y1="124.06" x2="448.10" y2="241.03" stroke="#f5eb89" stroke-opacity="0.566" stroke-width="1.91" stroke-linecap="round" />
<line x1="589.21" y1="185.74" x2="471.87" y2="274.95" stroke="#f5eb89" stroke-opacity="0.424" stroke-width="3.42" stroke-linecap="round" />
<line x1="633.73" y1="262.33" x2="483.74" y2="315.85" stroke="#f5eb89" stroke-opacity="0.410" stroke-width="3.81" stroke-linecap="round" />
<path d="M 437.53 537.35 A 193.56 193.56 0 0 1 357.56 553.54" fill="none" stroke="#f5eb89" stroke-opacity="0.202" stroke-width="7.22" stroke-linecap="round" />
<path d="M 493.22 158.92 A 241.21 241.21 0 0 1 600.49 378.60" fill="none" stroke="#574cf0" stroke-opacity="0.433" stroke-width="6.79" stroke-linecap="round" />
<path d="M 512.89 371.34 A 153.31 153.31 0 0 1 415.67 502.84" fill="none" stroke="#574cf0" stroke-opacity="0.379" stroke-width="2.79" stroke-linecap="round" />
<path d="M 309.29 488.47 A 138.12 138.12 0 0 1 224.37 333.89" fill="none" stroke="#574cf0" stroke-opacity="0.254" stroke-width="3.09" stroke-linecap="round" />
<path d="M 479.04 408.60 A 128.58 128.58 0 0 1 340.59 487.11" fill="none" stroke="#574cf0" stroke-opacity="0.330" stroke-width="6.13" stroke-linecap="round" />
<path d="M 363.05 123.94 A 236.08 236.08 0 0 1 475.51 154.11" fill="none" stroke="#f5eb89" stroke-opacity="0.385" stroke-width="2.91" stroke-linecap="round" />
<path d="M 343.50 133.12 A 227.48 227.48 0 0 1 433.29 144.65" fill="none" stroke="#f5eb89" stroke-opacity="0.197" stroke-width="5.98" stroke-linecap="round" />
<path d="M 187.41 554.92 A 260.34 260.34 0 0 1 116.75 452.78" fill="none" stroke="#f5eb89" stroke-opacity="0.214" stroke-width="7.24" stroke-linecap="round" />
<path d="M 508.13 265.91 A 175.49 175.49 0 0 1 492.89 474.63" fill="none" stroke="#f5eb89" stroke-opacity="0.203" stroke-width="2.82" stroke-linecap="round" />
<path d="M 540.39 172.68 A 260.05 260.05 0 0 1 619.99 365.67" fill="none" stroke="#f5eb89" stroke-opacity="0.224" stroke-width="2.53" stroke-linecap="round" />
<path d="M 245.68 608.94 A 273.93 273.93 0 0 1 99.75 274.52" fill="none" stroke="#f5eb89" stroke-opacity="0.314" stroke-width="4.42" stroke-linecap="round" />
<path d="M 278.67 217.39 A 164.17 164.17 0 0 1 417.91 206.38" fill="none" stroke="#574cf0" stroke-opacity="0.423" stroke-width="6.44" stroke-linecap="round" />
</g>
<text x="360" y="684" text-anchor="middle" font-family="ui-monospace, SFMono-Regular, Menlo, Monaco, Consolas, 'Liberation Mono', 'Courier New', monospace" font-size="18" fill="#f5eb89" fill-opacity="0.55">20260225T0424Z</text>
</svg>
