<?xml version="1.0" encoding="UTF-8"?>
<svg xmlns="http://www.w3.org/2000/svg" width="720" height="720" viewBox="0 0 720 720" role="img" aria-label="UTC Glyph 20260317T1623Z">
<rect width="100%" height="100%" fill="#170d1c" />
<g>
<circle cx="360" cy="360" r="300" fill="none" stroke="#89f59f" stroke-opacity="0.22" stroke-width="2" />
<circle cx="360" cy="360" r="152" fill="none" stroke="#f04cb4" stroke-opacity="0.35" stroke-width="4" />
<circle cx="360" cy="360" r="189.00" fill="none" stroke="#89f59f" stroke-opacity="0.445" stroke-width="2.70" />
<circle cx="360" cy="360" r="226.00" fill="none" stroke="#89f59f" stroke-opacity="0.313" stroke-width="3.28" />
<circle cx="360" cy="360" r="263.00" fill="none" stroke="#89f59f" stroke-opacity="0.528" stroke-width="4.97" />
<line x1="649.78" y1="357.00" x2="512.59" y2="358.42" stroke="#89f59f" stroke-opacity="0.697" stroke-width="2.37" stroke-linecap="round" />
<line x1="643.01" y1="426.34" x2="512.69" y2="395.79" stroke="#89f59f" stroke-opacity="0.669" stroke-width="3.79" stroke-linecap="round" />
<line x1="615.41" y1="488.18" x2="511.69" y2="436.12" stroke="#89f59f" stroke-opacity="0.254" stroke-width="1.60" stroke-linecap="round" />
<line x1="593.15" y1="534.81" x2="491.08" y2="458.28" stroke="#f04cb4" stroke-opacity="0.253" stroke-width="1.01" stroke-linecap="round" />
<line x1="544.55" y1="593.00" x2="463.60" y2="490.80" stroke="#89f59f" stroke-opacity="0.475" stroke-width="2.53" stroke-linecap="round" />
<line x1="488.13" y1="629.56" x2="429.34" y2="505.88" stroke="#89f59f" stroke-opacity="0.580" stroke-width="1.60" stroke-linecap="round" />
<line x1="428.32" y1="643.51" x2="397.56" y2="515.88" stroke="#89f59f" stroke-opacity="0.265" stroke-width="2.10" stroke-linecap="round" />
<line x1="368.75" y1="656.10" x2="364.75" y2="520.52" stroke="#89f59f" stroke-opacity="0.611" stroke-width="3.05" stroke-linecap="round" />
<line x1="303.46" y1="641.72" x2="325.90" y2="529.93" stroke="#89f59f" stroke-opacity="0.782" stroke-width="1.92" stroke-linecap="round" />
<line x1="238.62" y1="621.51" x2="286.72" y2="517.89" stroke="#89f59f" stroke-opacity="0.428" stroke-width="3.26" stroke-linecap="round" />
<line x1="177.00" y1="590.78" x2="259.83" y2="486.33" stroke="#89f59f" stroke-opacity="0.771" stroke-width="2.36" stroke-linecap="round" />
<line x1="133.89" y1="545.22" x2="220.26" y2="474.47" stroke="#89f59f" stroke-opacity="0.492" stroke-width="1.78" stroke-linecap="round" />
<line x1="107.39" y1="489.41" x2="217.48" y2="433.01" stroke="#89f59f" stroke-opacity="0.464" stroke-width="1.37" stroke-linecap="round" />
<line x1="78.60" y1="432.72" x2="202.59" y2="400.68" stroke="#89f59f" stroke-opacity="0.793" stroke-width="2.11" stroke-linecap="round" />
<line x1="65.55" y1="354.40" x2="193.50" y2="356.83" stroke="#89f59f" stroke-opacity="0.251" stroke-width="1.13" stroke-linecap="round" />
<line x1="81.24" y1="291.18" x2="184.25" y2="316.61" stroke="#89f59f" stroke-opacity="0.304" stroke-width="2.18" stroke-linecap="round" />
<line x1="100.37" y1="239.93" x2="220.01" y2="295.26" stroke="#89f59f" stroke-opacity="0.494" stroke-width="2.00" stroke-linecap="round" />
<line x1="132.41" y1="175.59" x2="230.32" y2="254.92" stroke="#89f59f" stroke-opacity="0.417" stroke-width="2.01" stroke-linecap="round" />
<line x1="188.51" y1="134.46" x2="264.63" y2="234.57" stroke="#89f59f" stroke-opacity="0.381" stroke-width="1.53" stroke-linecap="round" />
<line x1="233.48" y1="101.96" x2="282.85" y2="202.66" stroke="#89f59f" stroke-opacity="0.573" stroke-width="3.62" stroke-linecap="round" />
<line x1="302.66" y1="74.68" x2="327.13" y2="196.46" stroke="#f04cb4" stroke-opacity="0.632" stroke-width="2.88" stroke-linecap="round" />
<line x1="359.88" y1="66.93" x2="359.94" y2="205.62" stroke="#89f59f" stroke-opacity="0.739" stroke-width="1.54" stroke-linecap="round" />
<line x1="431.30" y1="83.99" x2="400.97" y2="201.38" stroke="#89f59f" stroke-opacity="0.439" stroke-width="1.36" stroke-linecap="round" />
<line x1="490.45" y1="100.35" x2="436.05" y2="208.62" stroke="#89f59f" stroke-opacity="0.599" stroke-width="2.60" stroke-linecap="round" />
<line x1="535.00" y1="131.86" x2="464.65" y2="223.57" stroke="#89f59f" stroke-opacity="0.295" stroke-width="3.93" stroke-linecap="round" />
<line x1="582.00" y1="174.51" x2="479.61" y2="260.06" stroke="#f04cb4" stroke-opacity="0.532" stroke-width="2.61" stroke-linecap="round" />
<line x1="620.25" y1="234.24" x2="501.37" y2="291.69" stroke="#89f59f" stroke-opacity="0.301" stroke-width="2.01" stroke-linecap="round" />
<line x1="643.77" y1="303.66" x2="515.20" y2="329.19" stroke="#f04cb4" stroke-opacity="0.419" stroke-width="3.00" stroke-linecap="round" />
<path d="M 251.49 628.00 A 289.13 289.13 0 0 1 72.07 333.63" fill="none" stroke="#89f59f" stroke-opacity="0.524" stroke-width="7.38" stroke-linecap="round" />
<path d="M 77.37 305.40 A 287.86 287.86 0 0 1 323.39 74.48" fill="none" stroke="#f04cb4" stroke-opacity="0.187" stroke-width="6.87" stroke-linecap="round" />
<path d="M 377.47 101.04 A 259.55 259.55 0 0 1 580.78 223.53" fill="none" stroke="#89f59f" stroke-opacity="0.220" stroke-width="6.92" stroke-linecap="round" />
<path d="M 266.01 594.05 A 252.21 252.21 0 0 1 108.02 370.94" fill="none" stroke="#f04cb4" stroke-opacity="0.400" stroke-width="7.21" stroke-linecap="round" />
<path d="M 198.54 349.82 A 161.78 161.78 0 0 1 256.45 235.70" fill="none" stroke="#89f59f" stroke-opacity="0.238" stroke-width="2.53" stroke-linecap="round" />
</g>
<text x="360" y="684" text-anchor="middle" font-family="ui-monospace, SFMono-Regular, Menlo, Monaco, Consolas, 'Liberation Mono', 'Courier New', monospace" font-size="18" fill="#89f59f" fill-opacity="0.55">20260317T1623Z</text>
</svg>
