<?xml version="1.0" encoding="UTF-8"?>
<svg xmlns="http://www.w3.org/2000/svg" width="720" height="720" viewBox="0 0 720 720" role="img" aria-label="UTC Glyph 20260219T2223Z">
<rect width="100%" height="100%" fill="#0d161c" />
<g>
<circle cx="360" cy="360" r="300" fill="none" stroke="#f5e989" stroke-opacity="0.22" stroke-width="2" />
<circle cx="360" cy="360" r="121" fill="none" stroke="#544cf0" stroke-opacity="0.35" stroke-width="4" />
<circle cx="360" cy="360" r="146.57" fill="none" stroke="#f5e989" stroke-opacity="0.521" stroke-width="3.35" />
<circle cx="360" cy="360" r="172.14" fill="none" stroke="#f5e989" stroke-opacity="0.381" stroke-width="3.26" />
<circle cx="360" cy="360" r="197.71" fill="none" stroke="#f5e989" stroke-opacity="0.347" stroke-width="2.89" />
<circle cx="360" cy="360" r="223.29" fill="none" stroke="#f5e989" stroke-opacity="0.305" stroke-width="2.72" />
<circle cx="360" cy="360" r="248.86" fill="none" stroke="#f5e989" stroke-opacity="0.352" stroke-width="2.84" />
<circle cx="360" cy="360" r="274.43" fill="none" stroke="#f5e989" stroke-opacity="0.320" stroke-width="4.09" />
<line x1="657.56" y1="358.24" x2="485.88" y2="359.26" stroke="#f5e989" stroke-opacity="0.494" stroke-width="3.84" stroke-linecap="round" />
<line x1="639.93" y1="467.65" x2="482.03" y2="406.93" stroke="#f5e989" stroke-opacity="0.437" stroke-width="2.45" stroke-linecap="round" />
<line x1="575.22" y1="548.94" x2="456.24" y2="444.49" stroke="#544cf0" stroke-opacity="0.637" stroke-width="3.89" stroke-linecap="round" />
<line x1="497.74" y1="612.69" x2="428.24" y2="485.20" stroke="#f5e989" stroke-opacity="0.683" stroke-width="1.31" stroke-linecap="round" />
<line x1="406.87" y1="640.71" x2="384.20" y2="504.93" stroke="#f5e989" stroke-opacity="0.383" stroke-width="3.45" stroke-linecap="round" />
<line x1="311.13" y1="639.95" x2="334.60" y2="505.52" stroke="#f5e989" stroke-opacity="0.374" stroke-width="1.74" stroke-linecap="round" />
<line x1="213.00" y1="610.92" x2="287.23" y2="484.22" stroke="#f5e989" stroke-opacity="0.413" stroke-width="2.16" stroke-linecap="round" />
<line x1="140.98" y1="541.98" x2="249.26" y2="452.01" stroke="#f5e989" stroke-opacity="0.506" stroke-width="3.35" stroke-linecap="round" />
<line x1="94.53" y1="463.51" x2="229.28" y2="410.97" stroke="#f5e989" stroke-opacity="0.623" stroke-width="2.98" stroke-linecap="round" />
<line x1="75.00" y1="362.41" x2="216.13" y2="361.22" stroke="#f5e989" stroke-opacity="0.383" stroke-width="1.46" stroke-linecap="round" />
<line x1="76.39" y1="264.54" x2="239.26" y2="319.36" stroke="#f5e989" stroke-opacity="0.337" stroke-width="2.46" stroke-linecap="round" />
<line x1="140.43" y1="169.06" x2="252.72" y2="266.71" stroke="#f5e989" stroke-opacity="0.320" stroke-width="1.06" stroke-linecap="round" />
<line x1="209.49" y1="109.64" x2="284.99" y2="235.22" stroke="#f5e989" stroke-opacity="0.555" stroke-width="3.52" stroke-linecap="round" />
<line x1="303.05" y1="65.72" x2="333.13" y2="221.15" stroke="#f5e989" stroke-opacity="0.391" stroke-width="2.22" stroke-linecap="round" />
<line x1="415.50" y1="74.22" x2="385.32" y2="229.63" stroke="#f5e989" stroke-opacity="0.485" stroke-width="1.97" stroke-linecap="round" />
<line x1="501.12" y1="100.23" x2="418.54" y2="252.25" stroke="#f5e989" stroke-opacity="0.709" stroke-width="3.13" stroke-linecap="round" />
<line x1="577.90" y1="168.12" x2="457.78" y2="273.90" stroke="#544cf0" stroke-opacity="0.487" stroke-width="3.58" stroke-linecap="round" />
<line x1="638.13" y1="262.34" x2="481.02" y2="317.51" stroke="#f5e989" stroke-opacity="0.371" stroke-width="2.42" stroke-linecap="round" />
<path d="M 232.09 154.71 A 241.88 241.88 0 0 1 395.64 120.76" fill="none" stroke="#544cf0" stroke-opacity="0.252" stroke-width="2.56" stroke-linecap="round" />
<path d="M 161.50 452.25 A 218.89 218.89 0 0 1 239.82 177.06" fill="none" stroke="#544cf0" stroke-opacity="0.412" stroke-width="4.13" stroke-linecap="round" />
<path d="M 333.21 158.21 A 203.56 203.56 0 0 1 423.11 166.47" fill="none" stroke="#544cf0" stroke-opacity="0.250" stroke-width="3.78" stroke-linecap="round" />
<path d="M 152.33 304.16 A 215.05 215.05 0 0 1 341.49 145.75" fill="none" stroke="#544cf0" stroke-opacity="0.455" stroke-width="5.10" stroke-linecap="round" />
<path d="M 380.49 559.99 A 201.03 201.03 0 0 1 186.13 460.92" fill="none" stroke="#f5e989" stroke-opacity="0.358" stroke-width="7.04" stroke-linecap="round" />
<path d="M 454.95 478.74 A 152.03 152.03 0 0 1 354.21 511.92" fill="none" stroke="#544cf0" stroke-opacity="0.208" stroke-width="7.00" stroke-linecap="round" />
<path d="M 402.21 202.30 A 163.25 163.25 0 0 1 497.47 271.96" fill="none" stroke="#544cf0" stroke-opacity="0.514" stroke-width="6.26" stroke-linecap="round" />
<path d="M 483.79 294.02 A 140.28 140.28 0 0 1 498.45 337.47" fill="none" stroke="#544cf0" stroke-opacity="0.479" stroke-width="5.37" stroke-linecap="round" />
<path d="M 507.70 388.27 A 150.38 150.38 0 0 1 400.73 504.76" fill="none" stroke="#f5e989" stroke-opacity="0.287" stroke-width="7.39" stroke-linecap="round" />
</g>
<text x="360" y="684" text-anchor="middle" font-family="ui-monospace, SFMono-Regular, Menlo, Monaco, Consolas, 'Liberation Mono', 'Courier New', monospace" font-size="18" fill="#f5e989" fill-opacity="0.55">20260219T2223Z</text>
</svg>
