<?xml version="1.0" encoding="UTF-8"?>
<svg xmlns="http://www.w3.org/2000/svg" width="720" height="720" viewBox="0 0 720 720" role="img" aria-label="UTC Glyph 20260429T2223Z">
<rect width="100%" height="100%" fill="#0d1c1b" />
<g>
<circle cx="360" cy="360" r="300" fill="none" stroke="#f5bc89" stroke-opacity="0.22" stroke-width="2" />
<circle cx="360" cy="360" r="162" fill="none" stroke="#4c88f0" stroke-opacity="0.35" stroke-width="4" />
<circle cx="360" cy="360" r="185.00" fill="none" stroke="#f5bc89" stroke-opacity="0.335" stroke-width="2.76" />
<circle cx="360" cy="360" r="208.00" fill="none" stroke="#f5bc89" stroke-opacity="0.403" stroke-width="2.04" />
<circle cx="360" cy="360" r="231.00" fill="none" stroke="#f5bc89" stroke-opacity="0.316" stroke-width="4.92" />
<circle cx="360" cy="360" r="254.00" fill="none" stroke="#f5bc89" stroke-opacity="0.489" stroke-width="4.13" />
<circle cx="360" cy="360" r="277.00" fill="none" stroke="#f5bc89" stroke-opacity="0.311" stroke-width="2.65" />
<line x1="657.95" y1="360.48" x2="546.20" y2="360.30" stroke="#f5bc89" stroke-opacity="0.677" stroke-width="2.77" stroke-linecap="round" />
<line x1="638.94" y1="411.74" x2="529.75" y2="391.49" stroke="#f5bc89" stroke-opacity="0.325" stroke-width="3.59" stroke-linecap="round" />
<line x1="619.96" y1="472.36" x2="525.51" y2="431.53" stroke="#4c88f0" stroke-opacity="0.669" stroke-width="2.22" stroke-linecap="round" />
<line x1="603.46" y1="528.25" x2="514.34" y2="466.67" stroke="#f5bc89" stroke-opacity="0.465" stroke-width="3.86" stroke-linecap="round" />
<line x1="571.21" y1="563.82" x2="491.11" y2="486.53" stroke="#f5bc89" stroke-opacity="0.282" stroke-width="1.08" stroke-linecap="round" />
<line x1="519.16" y1="614.16" x2="455.61" y2="512.66" stroke="#f5bc89" stroke-opacity="0.419" stroke-width="2.71" stroke-linecap="round" />
<line x1="475.02" y1="620.43" x2="434.16" y2="527.91" stroke="#4c88f0" stroke-opacity="0.715" stroke-width="2.49" stroke-linecap="round" />
<line x1="423.63" y1="639.38" x2="400.06" y2="535.87" stroke="#f5bc89" stroke-opacity="0.546" stroke-width="1.31" stroke-linecap="round" />
<line x1="364.58" y1="654.31" x2="362.52" y2="522.10" stroke="#f5bc89" stroke-opacity="0.766" stroke-width="1.68" stroke-linecap="round" />
<line x1="308.29" y1="654.76" x2="329.89" y2="531.62" stroke="#f5bc89" stroke-opacity="0.713" stroke-width="1.21" stroke-linecap="round" />
<line x1="240.57" y1="629.09" x2="289.22" y2="519.48" stroke="#f5bc89" stroke-opacity="0.697" stroke-width="2.34" stroke-linecap="round" />
<line x1="202.72" y1="602.56" x2="266.96" y2="503.49" stroke="#f5bc89" stroke-opacity="0.631" stroke-width="1.40" stroke-linecap="round" />
<line x1="145.38" y1="562.41" x2="224.51" y2="487.78" stroke="#f5bc89" stroke-opacity="0.751" stroke-width="1.74" stroke-linecap="round" />
<line x1="117.71" y1="516.82" x2="215.37" y2="453.61" stroke="#f5bc89" stroke-opacity="0.293" stroke-width="1.19" stroke-linecap="round" />
<line x1="93.57" y1="473.90" x2="202.61" y2="427.29" stroke="#f5bc89" stroke-opacity="0.747" stroke-width="2.17" stroke-linecap="round" />
<line x1="81.75" y1="414.38" x2="192.57" y2="392.72" stroke="#f5bc89" stroke-opacity="0.531" stroke-width="1.56" stroke-linecap="round" />
<line x1="73.76" y1="352.94" x2="189.81" y2="355.80" stroke="#f5bc89" stroke-opacity="0.255" stroke-width="3.66" stroke-linecap="round" />
<line x1="75.31" y1="303.85" x2="193.63" y2="327.19" stroke="#f5bc89" stroke-opacity="0.447" stroke-width="3.06" stroke-linecap="round" />
<line x1="85.55" y1="248.55" x2="203.84" y2="296.58" stroke="#f5bc89" stroke-opacity="0.517" stroke-width="1.45" stroke-linecap="round" />
<line x1="115.25" y1="203.63" x2="208.03" y2="262.90" stroke="#f5bc89" stroke-opacity="0.371" stroke-width="1.24" stroke-linecap="round" />
<line x1="149.58" y1="154.54" x2="225.85" y2="229.01" stroke="#4c88f0" stroke-opacity="0.539" stroke-width="3.56" stroke-linecap="round" />
<line x1="191.32" y1="113.40" x2="263.72" y2="219.25" stroke="#f5bc89" stroke-opacity="0.487" stroke-width="1.71" stroke-linecap="round" />
<line x1="252.82" y1="92.74" x2="290.42" y2="186.49" stroke="#4c88f0" stroke-opacity="0.350" stroke-width="3.37" stroke-linecap="round" />
<line x1="302.50" y1="72.69" x2="325.51" y2="187.65" stroke="#f5bc89" stroke-opacity="0.476" stroke-width="2.21" stroke-linecap="round" />
<line x1="365.80" y1="76.84" x2="363.78" y2="175.51" stroke="#f5bc89" stroke-opacity="0.716" stroke-width="3.51" stroke-linecap="round" />
<line x1="414.67" y1="72.40" x2="392.49" y2="189.07" stroke="#f5bc89" stroke-opacity="0.278" stroke-width="2.34" stroke-linecap="round" />
<line x1="472.31" y1="87.96" x2="429.08" y2="192.67" stroke="#f5bc89" stroke-opacity="0.789" stroke-width="3.41" stroke-linecap="round" />
<line x1="523.94" y1="108.96" x2="456.35" y2="212.46" stroke="#f5bc89" stroke-opacity="0.388" stroke-width="2.79" stroke-linecap="round" />
<line x1="564.19" y1="159.73" x2="491.81" y2="230.73" stroke="#f5bc89" stroke-opacity="0.681" stroke-width="3.84" stroke-linecap="round" />
<line x1="603.64" y1="206.89" x2="517.32" y2="261.14" stroke="#f5bc89" stroke-opacity="0.595" stroke-width="2.66" stroke-linecap="round" />
<line x1="621.00" y1="250.03" x2="516.66" y2="293.99" stroke="#f5bc89" stroke-opacity="0.746" stroke-width="2.26" stroke-linecap="round" />
<line x1="640.03" y1="312.02" x2="548.67" y2="327.67" stroke="#4c88f0" stroke-opacity="0.476" stroke-width="1.54" stroke-linecap="round" />
<path d="M 458.56 588.39 A 248.74 248.74 0 0 1 279.76 595.45" fill="none" stroke="#f5bc89" stroke-opacity="0.218" stroke-width="7.08" stroke-linecap="round" />
<path d="M 523.13 415.50 A 172.31 172.31 0 0 1 342.09 531.38" fill="none" stroke="#4c88f0" stroke-opacity="0.206" stroke-width="2.95" stroke-linecap="round" />
<path d="M 453.16 541.00 A 203.57 203.57 0 0 1 342.20 562.79" fill="none" stroke="#4c88f0" stroke-opacity="0.347" stroke-width="3.72" stroke-linecap="round" />
<path d="M 209.93 272.85 A 173.53 173.53 0 0 1 335.00 188.28" fill="none" stroke="#f5bc89" stroke-opacity="0.202" stroke-width="3.20" stroke-linecap="round" />
<path d="M 517.09 221.30 A 209.56 209.56 0 0 1 511.22 505.08" fill="none" stroke="#f5bc89" stroke-opacity="0.391" stroke-width="2.63" stroke-linecap="round" />
<path d="M 206.58 137.40 A 270.35 270.35 0 0 1 558.56 176.53" fill="none" stroke="#4c88f0" stroke-opacity="0.413" stroke-width="5.44" stroke-linecap="round" />
<path d="M 183.14 496.80 A 223.59 223.59 0 0 1 136.73 348.08" fill="none" stroke="#4c88f0" stroke-opacity="0.454" stroke-width="5.97" stroke-linecap="round" />
<path d="M 168.28 259.86 A 216.29 216.29 0 0 1 359.44 143.71" fill="none" stroke="#4c88f0" stroke-opacity="0.527" stroke-width="3.40" stroke-linecap="round" />
</g>
<text x="360" y="684" text-anchor="middle" font-family="ui-monospace, SFMono-Regular, Menlo, Monaco, Consolas, 'Liberation Mono', 'Courier New', monospace" font-size="18" fill="#f5bc89" fill-opacity="0.55">20260429T2223Z</text>
</svg>
