<?xml version="1.0" encoding="UTF-8"?>
<svg xmlns="http://www.w3.org/2000/svg" width="720" height="720" viewBox="0 0 720 720" role="img" aria-label="UTC Glyph 20260312T1023Z">
<rect width="100%" height="100%" fill="#1a1c0d" />
<g>
<circle cx="360" cy="360" r="300" fill="none" stroke="#ce89f5" stroke-opacity="0.22" stroke-width="2" />
<circle cx="360" cy="360" r="167" fill="none" stroke="#6df04c" stroke-opacity="0.35" stroke-width="4" />
<circle cx="360" cy="360" r="186.00" fill="none" stroke="#ce89f5" stroke-opacity="0.384" stroke-width="3.33" />
<circle cx="360" cy="360" r="205.00" fill="none" stroke="#ce89f5" stroke-opacity="0.432" stroke-width="2.24" />
<circle cx="360" cy="360" r="224.00" fill="none" stroke="#ce89f5" stroke-opacity="0.541" stroke-width="2.28" />
<circle cx="360" cy="360" r="243.00" fill="none" stroke="#ce89f5" stroke-opacity="0.420" stroke-width="2.93" />
<circle cx="360" cy="360" r="262.00" fill="none" stroke="#ce89f5" stroke-opacity="0.296" stroke-width="2.45" />
<circle cx="360" cy="360" r="281.00" fill="none" stroke="#ce89f5" stroke-opacity="0.482" stroke-width="4.98" />
<line x1="645.58" y1="364.34" x2="550.04" y2="362.88" stroke="#ce89f5" stroke-opacity="0.617" stroke-width="1.14" stroke-linecap="round" />
<line x1="645.95" y1="399.14" x2="536.66" y2="384.18" stroke="#ce89f5" stroke-opacity="0.372" stroke-width="3.07" stroke-linecap="round" />
<line x1="629.68" y1="458.00" x2="523.04" y2="419.25" stroke="#ce89f5" stroke-opacity="0.398" stroke-width="2.49" stroke-linecap="round" />
<line x1="618.27" y1="486.87" x2="531.29" y2="444.14" stroke="#ce89f5" stroke-opacity="0.646" stroke-width="3.56" stroke-linecap="round" />
<line x1="596.54" y1="527.82" x2="520.08" y2="473.57" stroke="#ce89f5" stroke-opacity="0.533" stroke-width="2.02" stroke-linecap="round" />
<line x1="556.60" y1="576.99" x2="476.80" y2="488.91" stroke="#ce89f5" stroke-opacity="0.295" stroke-width="1.50" stroke-linecap="round" />
<line x1="521.05" y1="596.98" x2="461.57" y2="509.45" stroke="#ce89f5" stroke-opacity="0.452" stroke-width="1.56" stroke-linecap="round" />
<line x1="483.69" y1="623.83" x2="441.34" y2="533.49" stroke="#ce89f5" stroke-opacity="0.363" stroke-width="3.57" stroke-linecap="round" />
<line x1="440.95" y1="646.30" x2="405.63" y2="521.36" stroke="#ce89f5" stroke-opacity="0.408" stroke-width="3.59" stroke-linecap="round" />
<line x1="390.92" y1="657.68" x2="378.78" y2="540.85" stroke="#6df04c" stroke-opacity="0.410" stroke-width="1.68" stroke-linecap="round" />
<line x1="340.42" y1="654.09" x2="348.82" y2="527.88" stroke="#6df04c" stroke-opacity="0.270" stroke-width="1.70" stroke-linecap="round" />
<line x1="296.07" y1="635.26" x2="316.49" y2="547.35" stroke="#ce89f5" stroke-opacity="0.731" stroke-width="2.76" stroke-linecap="round" />
<line x1="251.73" y1="633.40" x2="296.96" y2="519.19" stroke="#6df04c" stroke-opacity="0.730" stroke-width="1.67" stroke-linecap="round" />
<line x1="204.93" y1="611.65" x2="261.41" y2="520.00" stroke="#ce89f5" stroke-opacity="0.695" stroke-width="1.00" stroke-linecap="round" />
<line x1="177.25" y1="586.37" x2="248.33" y2="498.33" stroke="#ce89f5" stroke-opacity="0.407" stroke-width="1.17" stroke-linecap="round" />
<line x1="148.69" y1="551.41" x2="226.68" y2="480.77" stroke="#ce89f5" stroke-opacity="0.359" stroke-width="3.39" stroke-linecap="round" />
<line x1="108.14" y1="517.84" x2="203.66" y2="457.98" stroke="#ce89f5" stroke-opacity="0.518" stroke-width="2.20" stroke-linecap="round" />
<line x1="98.04" y1="465.01" x2="187.64" y2="429.09" stroke="#6df04c" stroke-opacity="0.747" stroke-width="3.07" stroke-linecap="round" />
<line x1="80.52" y1="432.67" x2="193.10" y2="403.40" stroke="#ce89f5" stroke-opacity="0.353" stroke-width="1.13" stroke-linecap="round" />
<line x1="63.24" y1="379.29" x2="168.85" y2="372.43" stroke="#ce89f5" stroke-opacity="0.661" stroke-width="1.29" stroke-linecap="round" />
<line x1="69.01" y1="344.31" x2="177.61" y2="350.17" stroke="#ce89f5" stroke-opacity="0.305" stroke-width="2.81" stroke-linecap="round" />
<line x1="83.85" y1="285.85" x2="191.95" y2="314.87" stroke="#6df04c" stroke-opacity="0.510" stroke-width="2.70" stroke-linecap="round" />
<line x1="84.04" y1="251.39" x2="184.82" y2="291.05" stroke="#ce89f5" stroke-opacity="0.282" stroke-width="2.32" stroke-linecap="round" />
<line x1="118.71" y1="213.68" x2="217.10" y2="273.35" stroke="#ce89f5" stroke-opacity="0.710" stroke-width="2.39" stroke-linecap="round" />
<line x1="143.28" y1="161.88" x2="235.61" y2="246.29" stroke="#ce89f5" stroke-opacity="0.544" stroke-width="1.97" stroke-linecap="round" />
<line x1="173.00" y1="131.55" x2="253.95" y2="230.43" stroke="#ce89f5" stroke-opacity="0.437" stroke-width="2.23" stroke-linecap="round" />
<line x1="217.10" y1="96.62" x2="277.34" y2="207.65" stroke="#ce89f5" stroke-opacity="0.420" stroke-width="2.80" stroke-linecap="round" />
<line x1="252.22" y1="81.56" x2="297.60" y2="198.79" stroke="#ce89f5" stroke-opacity="0.294" stroke-width="1.76" stroke-linecap="round" />
<line x1="295.58" y1="77.28" x2="316.97" y2="171.16" stroke="#ce89f5" stroke-opacity="0.724" stroke-width="3.57" stroke-linecap="round" />
<line x1="348.92" y1="73.07" x2="352.79" y2="173.44" stroke="#ce89f5" stroke-opacity="0.707" stroke-width="2.48" stroke-linecap="round" />
<line x1="388.36" y1="67.94" x2="377.60" y2="178.74" stroke="#ce89f5" stroke-opacity="0.385" stroke-width="2.35" stroke-linecap="round" />
<line x1="447.95" y1="80.80" x2="417.01" y2="179.02" stroke="#ce89f5" stroke-opacity="0.495" stroke-width="2.74" stroke-linecap="round" />
<line x1="475.13" y1="98.83" x2="435.99" y2="187.63" stroke="#ce89f5" stroke-opacity="0.398" stroke-width="2.67" stroke-linecap="round" />
<line x1="520.90" y1="116.76" x2="455.00" y2="216.39" stroke="#ce89f5" stroke-opacity="0.768" stroke-width="3.54" stroke-linecap="round" />
<line x1="556.56" y1="153.51" x2="487.55" y2="226.00" stroke="#ce89f5" stroke-opacity="0.477" stroke-width="3.50" stroke-linecap="round" />
<line x1="603.49" y1="186.08" x2="505.86" y2="255.81" stroke="#ce89f5" stroke-opacity="0.284" stroke-width="2.06" stroke-linecap="round" />
<line x1="617.01" y1="226.26" x2="510.03" y2="281.93" stroke="#ce89f5" stroke-opacity="0.671" stroke-width="2.13" stroke-linecap="round" />
<line x1="635.45" y1="260.10" x2="527.13" y2="299.38" stroke="#ce89f5" stroke-opacity="0.763" stroke-width="2.87" stroke-linecap="round" />
<line x1="641.60" y1="318.90" x2="554.17" y2="331.66" stroke="#ce89f5" stroke-opacity="0.589" stroke-width="2.53" stroke-linecap="round" />
<path d="M 283.44 537.78 A 193.57 193.57 0 0 1 177.28 423.89" fill="none" stroke="#6df04c" stroke-opacity="0.273" stroke-width="7.55" stroke-linecap="round" />
<path d="M 249.59 490.30 A 170.79 170.79 0 0 1 196.75 410.19" fill="none" stroke="#6df04c" stroke-opacity="0.477" stroke-width="3.45" stroke-linecap="round" />
<path d="M 207.54 475.06 A 191.00 191.00 0 0 1 177.81 302.64" fill="none" stroke="#6df04c" stroke-opacity="0.311" stroke-width="4.40" stroke-linecap="round" />
<path d="M 82.09 404.60 A 281.47 281.47 0 0 1 138.14 186.79" fill="none" stroke="#ce89f5" stroke-opacity="0.238" stroke-width="2.96" stroke-linecap="round" />
<path d="M 170.52 285.93 A 203.45 203.45 0 0 1 381.54 157.70" fill="none" stroke="#6df04c" stroke-opacity="0.237" stroke-width="5.15" stroke-linecap="round" />
<path d="M 123.26 394.94 A 239.31 239.31 0 0 1 178.94 203.52" fill="none" stroke="#ce89f5" stroke-opacity="0.452" stroke-width="3.08" stroke-linecap="round" />
<path d="M 219.13 540.51 A 228.98 228.98 0 0 1 162.58 244.00" fill="none" stroke="#ce89f5" stroke-opacity="0.439" stroke-width="2.19" stroke-linecap="round" />
<path d="M 259.74 179.96 A 206.07 206.07 0 0 1 321.20 157.62" fill="none" stroke="#ce89f5" stroke-opacity="0.411" stroke-width="7.57" stroke-linecap="round" />
<path d="M 89.34 262.71 A 287.61 287.61 0 0 1 239.09 99.03" fill="none" stroke="#ce89f5" stroke-opacity="0.254" stroke-width="5.46" stroke-linecap="round" />
<path d="M 141.89 255.07 A 242.04 242.04 0 0 1 401.87 121.61" fill="none" stroke="#6df04c" stroke-opacity="0.468" stroke-width="7.43" stroke-linecap="round" />
<path d="M 113.17 268.74 A 263.16 263.16 0 0 1 430.58 106.48" fill="none" stroke="#6df04c" stroke-opacity="0.465" stroke-width="4.84" stroke-linecap="round" />
</g>
<text x="360" y="684" text-anchor="middle" font-family="ui-monospace, SFMono-Regular, Menlo, Monaco, Consolas, 'Liberation Mono', 'Courier New', monospace" font-size="18" fill="#ce89f5" fill-opacity="0.55">20260312T1023Z</text>
</svg>
