<?xml version="1.0" encoding="UTF-8"?>
<svg xmlns="http://www.w3.org/2000/svg" width="720" height="720" viewBox="0 0 720 720" role="img" aria-label="UTC Glyph 20260321T1023Z">
<rect width="100%" height="100%" fill="#170d1c" />
<g>
<circle cx="360" cy="360" r="300" fill="none" stroke="#89f59f" stroke-opacity="0.22" stroke-width="2" />
<circle cx="360" cy="360" r="162" fill="none" stroke="#f04cb4" stroke-opacity="0.35" stroke-width="4" />
<circle cx="360" cy="360" r="181.71" fill="none" stroke="#89f59f" stroke-opacity="0.554" stroke-width="2.15" />
<circle cx="360" cy="360" r="201.43" fill="none" stroke="#89f59f" stroke-opacity="0.335" stroke-width="4.55" />
<circle cx="360" cy="360" r="221.14" fill="none" stroke="#89f59f" stroke-opacity="0.353" stroke-width="4.05" />
<circle cx="360" cy="360" r="240.86" fill="none" stroke="#89f59f" stroke-opacity="0.437" stroke-width="3.78" />
<circle cx="360" cy="360" r="260.57" fill="none" stroke="#89f59f" stroke-opacity="0.361" stroke-width="3.48" />
<circle cx="360" cy="360" r="280.29" fill="none" stroke="#89f59f" stroke-opacity="0.289" stroke-width="3.54" />
<line x1="649.13" y1="365.47" x2="527.31" y2="363.17" stroke="#89f59f" stroke-opacity="0.365" stroke-width="1.69" stroke-linecap="round" />
<line x1="641.34" y1="440.73" x2="529.59" y2="408.66" stroke="#89f59f" stroke-opacity="0.752" stroke-width="2.27" stroke-linecap="round" />
<line x1="606.09" y1="509.25" x2="499.71" y2="444.74" stroke="#89f59f" stroke-opacity="0.386" stroke-width="2.94" stroke-linecap="round" />
<line x1="551.56" y1="571.86" x2="484.08" y2="497.23" stroke="#89f59f" stroke-opacity="0.663" stroke-width="2.15" stroke-linecap="round" />
<line x1="484.11" y1="616.03" x2="434.32" y2="513.31" stroke="#89f59f" stroke-opacity="0.633" stroke-width="1.54" stroke-linecap="round" />
<line x1="400.49" y1="645.37" x2="384.72" y2="534.26" stroke="#89f59f" stroke-opacity="0.477" stroke-width="3.54" stroke-linecap="round" />
<line x1="323.40" y1="650.90" x2="336.21" y2="549.08" stroke="#f04cb4" stroke-opacity="0.494" stroke-width="3.02" stroke-linecap="round" />
<line x1="232.32" y1="623.11" x2="276.72" y2="531.62" stroke="#89f59f" stroke-opacity="0.284" stroke-width="3.61" stroke-linecap="round" />
<line x1="169.40" y1="578.13" x2="240.46" y2="496.80" stroke="#f04cb4" stroke-opacity="0.755" stroke-width="3.16" stroke-linecap="round" />
<line x1="123.74" y1="514.15" x2="210.99" y2="457.23" stroke="#89f59f" stroke-opacity="0.722" stroke-width="1.87" stroke-linecap="round" />
<line x1="77.54" y1="442.78" x2="201.49" y2="406.46" stroke="#89f59f" stroke-opacity="0.731" stroke-width="3.93" stroke-linecap="round" />
<line x1="69.42" y1="354.48" x2="178.39" y2="356.55" stroke="#89f59f" stroke-opacity="0.614" stroke-width="3.81" stroke-linecap="round" />
<line x1="89.05" y1="278.12" x2="179.37" y2="305.42" stroke="#89f59f" stroke-opacity="0.665" stroke-width="3.84" stroke-linecap="round" />
<line x1="117.91" y1="214.07" x2="207.47" y2="268.06" stroke="#f04cb4" stroke-opacity="0.643" stroke-width="3.09" stroke-linecap="round" />
<line x1="166.32" y1="133.09" x2="249.33" y2="230.34" stroke="#89f59f" stroke-opacity="0.293" stroke-width="2.17" stroke-linecap="round" />
<line x1="242.90" y1="83.97" x2="294.76" y2="206.22" stroke="#89f59f" stroke-opacity="0.544" stroke-width="1.33" stroke-linecap="round" />
<line x1="318.00" y1="64.93" x2="334.49" y2="180.77" stroke="#89f59f" stroke-opacity="0.435" stroke-width="3.74" stroke-linecap="round" />
<line x1="407.85" y1="72.99" x2="390.41" y2="177.59" stroke="#f04cb4" stroke-opacity="0.278" stroke-width="3.48" stroke-linecap="round" />
<line x1="481.92" y1="99.18" x2="441.03" y2="186.66" stroke="#89f59f" stroke-opacity="0.470" stroke-width="2.93" stroke-linecap="round" />
<line x1="553.85" y1="146.50" x2="480.34" y2="227.46" stroke="#f04cb4" stroke-opacity="0.314" stroke-width="3.62" stroke-linecap="round" />
<line x1="605.23" y1="204.01" x2="515.70" y2="260.96" stroke="#89f59f" stroke-opacity="0.587" stroke-width="2.78" stroke-linecap="round" />
<line x1="643.62" y1="272.12" x2="519.90" y2="310.45" stroke="#89f59f" stroke-opacity="0.697" stroke-width="1.22" stroke-linecap="round" />
<path d="M 405.69 560.35 A 205.49 205.49 0 0 1 267.30 543.40" fill="none" stroke="#f04cb4" stroke-opacity="0.223" stroke-width="6.12" stroke-linecap="round" />
<path d="M 237.13 244.07 A 168.93 168.93 0 0 1 364.03 191.12" fill="none" stroke="#f04cb4" stroke-opacity="0.329" stroke-width="6.52" stroke-linecap="round" />
<path d="M 285.03 156.58 A 216.79 216.79 0 0 1 433.63 156.09" fill="none" stroke="#89f59f" stroke-opacity="0.395" stroke-width="5.88" stroke-linecap="round" />
<path d="M 429.34 562.64 A 214.18 214.18 0 0 1 364.43 574.13" fill="none" stroke="#89f59f" stroke-opacity="0.517" stroke-width="2.73" stroke-linecap="round" />
<path d="M 222.81 179.81 A 226.47 226.47 0 0 1 316.73 137.70" fill="none" stroke="#89f59f" stroke-opacity="0.435" stroke-width="7.66" stroke-linecap="round" />
</g>
<text x="360" y="684" text-anchor="middle" font-family="ui-monospace, SFMono-Regular, Menlo, Monaco, Consolas, 'Liberation Mono', 'Courier New', monospace" font-size="18" fill="#89f59f" fill-opacity="0.55">20260321T1023Z</text>
</svg>
