<?xml version="1.0" encoding="UTF-8"?>
<svg xmlns="http://www.w3.org/2000/svg" width="720" height="720" viewBox="0 0 720 720" role="img" aria-label="UTC Glyph 20260518T2223Z">
<rect width="100%" height="100%" fill="#0d161c" />
<g>
<circle cx="360" cy="360" r="300" fill="none" stroke="#f5e789" stroke-opacity="0.22" stroke-width="2" />
<circle cx="360" cy="360" r="124" fill="none" stroke="#514cf0" stroke-opacity="0.35" stroke-width="4" />
<circle cx="360" cy="360" r="168.00" fill="none" stroke="#f5e789" stroke-opacity="0.461" stroke-width="3.74" />
<circle cx="360" cy="360" r="212.00" fill="none" stroke="#f5e789" stroke-opacity="0.503" stroke-width="3.47" />
<circle cx="360" cy="360" r="256.00" fill="none" stroke="#f5e789" stroke-opacity="0.517" stroke-width="3.96" />
<line x1="650.03" y1="366.10" x2="493.40" y2="362.81" stroke="#f5e789" stroke-opacity="0.454" stroke-width="1.69" stroke-linecap="round" />
<line x1="635.17" y1="433.96" x2="484.68" y2="393.51" stroke="#f5e789" stroke-opacity="0.554" stroke-width="1.85" stroke-linecap="round" />
<line x1="601.05" y1="523.38" x2="470.03" y2="434.58" stroke="#f5e789" stroke-opacity="0.322" stroke-width="3.74" stroke-linecap="round" />
<line x1="561.43" y1="581.78" x2="459.40" y2="469.44" stroke="#f5e789" stroke-opacity="0.318" stroke-width="1.36" stroke-linecap="round" />
<line x1="477.67" y1="620.94" x2="417.44" y2="487.39" stroke="#514cf0" stroke-opacity="0.387" stroke-width="3.85" stroke-linecap="round" />
<line x1="398.35" y1="645.37" x2="377.57" y2="490.70" stroke="#f5e789" stroke-opacity="0.575" stroke-width="1.80" stroke-linecap="round" />
<line x1="311.55" y1="642.69" x2="334.19" y2="510.59" stroke="#f5e789" stroke-opacity="0.275" stroke-width="1.23" stroke-linecap="round" />
<line x1="235.04" y1="616.76" x2="297.28" y2="488.88" stroke="#f5e789" stroke-opacity="0.738" stroke-width="1.06" stroke-linecap="round" />
<line x1="168.23" y1="589.91" x2="271.12" y2="466.56" stroke="#f5e789" stroke-opacity="0.310" stroke-width="2.50" stroke-linecap="round" />
<line x1="117.39" y1="520.03" x2="254.08" y2="429.87" stroke="#f5e789" stroke-opacity="0.775" stroke-width="1.82" stroke-linecap="round" />
<line x1="82.03" y1="448.18" x2="220.48" y2="404.26" stroke="#f5e789" stroke-opacity="0.391" stroke-width="3.20" stroke-linecap="round" />
<line x1="73.55" y1="356.94" x2="206.11" y2="358.36" stroke="#f5e789" stroke-opacity="0.630" stroke-width="3.96" stroke-linecap="round" />
<line x1="87.12" y1="283.21" x2="223.81" y2="321.68" stroke="#514cf0" stroke-opacity="0.336" stroke-width="1.93" stroke-linecap="round" />
<line x1="120.09" y1="199.53" x2="247.87" y2="285.00" stroke="#f5e789" stroke-opacity="0.738" stroke-width="1.16" stroke-linecap="round" />
<line x1="169.33" y1="145.64" x2="266.72" y2="255.13" stroke="#f5e789" stroke-opacity="0.348" stroke-width="1.31" stroke-linecap="round" />
<line x1="232.90" y1="96.71" x2="303.21" y2="242.36" stroke="#f5e789" stroke-opacity="0.269" stroke-width="3.50" stroke-linecap="round" />
<line x1="316.32" y1="72.33" x2="339.40" y2="224.34" stroke="#f5e789" stroke-opacity="0.297" stroke-width="3.48" stroke-linecap="round" />
<line x1="403.45" y1="73.18" x2="380.30" y2="226.01" stroke="#f5e789" stroke-opacity="0.362" stroke-width="2.62" stroke-linecap="round" />
<line x1="483.81" y1="90.51" x2="423.32" y2="222.18" stroke="#f5e789" stroke-opacity="0.325" stroke-width="3.66" stroke-linecap="round" />
<line x1="548.50" y1="149.81" x2="451.56" y2="257.90" stroke="#514cf0" stroke-opacity="0.413" stroke-width="3.27" stroke-linecap="round" />
<line x1="606.11" y1="193.62" x2="466.19" y2="288.21" stroke="#f5e789" stroke-opacity="0.672" stroke-width="2.24" stroke-linecap="round" />
<line x1="644.95" y1="272.34" x2="488.51" y2="320.46" stroke="#f5e789" stroke-opacity="0.708" stroke-width="2.73" stroke-linecap="round" />
<path d="M 81.73 348.52 A 278.51 278.51 0 0 1 335.10 82.61" fill="none" stroke="#f5e789" stroke-opacity="0.403" stroke-width="5.32" stroke-linecap="round" />
<path d="M 453.72 643.73 A 298.80 298.80 0 0 1 223.28 625.69" fill="none" stroke="#514cf0" stroke-opacity="0.453" stroke-width="5.03" stroke-linecap="round" />
<path d="M 176.12 354.71 A 183.96 183.96 0 0 1 268.29 200.53" fill="none" stroke="#514cf0" stroke-opacity="0.355" stroke-width="2.52" stroke-linecap="round" />
<path d="M 555.92 196.49 A 255.19 255.19 0 0 1 584.44 481.44" fill="none" stroke="#514cf0" stroke-opacity="0.392" stroke-width="2.90" stroke-linecap="round" />
<path d="M 146.86 547.60 A 283.94 283.94 0 0 1 91.62 267.31" fill="none" stroke="#514cf0" stroke-opacity="0.325" stroke-width="4.45" stroke-linecap="round" />
<path d="M 245.35 85.95 A 297.07 297.07 0 0 1 615.28 208.08" fill="none" stroke="#f5e789" stroke-opacity="0.193" stroke-width="5.95" stroke-linecap="round" />
<path d="M 544.98 455.03 A 207.96 207.96 0 0 1 431.12 555.43" fill="none" stroke="#f5e789" stroke-opacity="0.439" stroke-width="5.54" stroke-linecap="round" />
<path d="M 273.93 463.70 A 134.76 134.76 0 0 1 233.38 406.15" fill="none" stroke="#f5e789" stroke-opacity="0.246" stroke-width="2.77" stroke-linecap="round" />
<path d="M 80.46 400.05 A 282.40 282.40 0 0 1 122.71 206.90" fill="none" stroke="#f5e789" stroke-opacity="0.242" stroke-width="5.59" stroke-linecap="round" />
<path d="M 200.88 446.93 A 181.32 181.32 0 0 1 193.43 288.38" fill="none" stroke="#f5e789" stroke-opacity="0.324" stroke-width="6.24" stroke-linecap="round" />
<path d="M 532.61 528.93 A 241.52 241.52 0 0 1 301.59 594.35" fill="none" stroke="#f5e789" stroke-opacity="0.350" stroke-width="5.97" stroke-linecap="round" />
<path d="M 392.35 172.79 A 189.98 189.98 0 0 1 549.95 356.42" fill="none" stroke="#514cf0" stroke-opacity="0.250" stroke-width="7.42" stroke-linecap="round" />
<path d="M 264.20 235.28 A 157.27 157.27 0 0 1 363.09 202.76" fill="none" stroke="#514cf0" stroke-opacity="0.284" stroke-width="5.32" stroke-linecap="round" />
</g>
<text x="360" y="684" text-anchor="middle" font-family="ui-monospace, SFMono-Regular, Menlo, Monaco, Consolas, 'Liberation Mono', 'Courier New', monospace" font-size="18" fill="#f5e789" fill-opacity="0.55">20260518T2223Z</text>
</svg>
